<svg xmlns="http://www.w3.org/2000/svg" viewBox="0 0 685.36 981.52"><defs><style>.cls-1{fill:#64766e;}.cls-2{fill:#1a1a1a;}.cls-3{fill:#fcd8b8;}.cls-4{fill:#482a0e;}.cls-5{fill:#bb5327;}.cls-6{fill:#d6d6d6;}.cls-7{fill:#8a8a8a;}.cls-8{fill:#8c3e1d;}.cls-9{fill:#79460e;}</style></defs><title>any-questions</title><g id="Layer_1" data-name="Layer 1"><polygon class="cls-1" points="197.17 921.96 676.88 921.96 623.52 495.23 143.81 495.23 197.17 921.96"/><path class="cls-2" d="M167,742.31l15.26,196.14s-40.14-29.87-59.4,4.47C95.69,991.3,207,965.57,207,965.57L203.79,775.4s125.39,22.36,280.64,3L488.85,955s-42.08-40.3-61.21-1.56c-23.51,47.61,83.6,20.26,83.6,20.26l15-220.52S391.38,719,167,742.31Z"/><path class="cls-3" d="M146.5,472S96.13,32.41,444.17,172.74c0,0,110.23,78.31,115.27,302.88C223.35,547.52,146.5,472,146.5,472Z"/><path class="cls-4" d="M435.1,245.3l22.61,83.92s34.77-39.55,46.42.19-38.1,27-38.1,27,43.23,93.39,93.4,119.2c-1.66,3.33,121.14-441.51-68.89-366.67,0,0-47-139.86-147.68-89.51C51.54,165.18,41,247.53,435.1,245.3Z"/><path class="cls-5" d="M146.5,472,167,742.31s141,35.3,359.33,10.86l33.14-277.56S285.19,517.51,146.5,472Z"/><path class="cls-4" d="M201,338.27c-.2,10.93-5.49,19.7-11.82,19.59s-11.31-9.06-11.12-20,5.47-19.71,11.81-19.6S201.19,327.33,201,338.27Z"/><path class="cls-4" d="M361.22,341.4c-.19,10.93-5.47,19.7-11.82,19.58s-11.32-9-11.13-20,5.48-19.71,11.81-19.6S361.4,330.47,361.22,341.4Z"/><path class="cls-4" d="M334.21,421.77c-1.35,17.43-15,45.4-63.5,44.19-49.82-1.27-48.59-50.19-48.59-50.19S287.72,403.84,334.21,421.77Z"/><path class="cls-5" d="M556.58,485.72l-12.07,44a170.45,170.45,0,0,1,44.19,18.67L601.46,508A333.18,333.18,0,0,0,556.58,485.72Z"/><path class="cls-5" d="M153.23,526.28l-3.17-48c-13.6-.06-53.11,7.65-61.48,9.81L101.45,535C109.88,531.92,153.23,526.28,153.23,526.28Z"/><path class="cls-4" d="M561,522.07a3.93,3.93,0,0,1-1.24-.21,3.89,3.89,0,0,1-2.44-4.92c.27-.82,6.92-20.09,22.11-24.13,8.9-2.36,18.5,1,28.54,9.88a3.89,3.89,0,1,1-5.17,5.81c-8-7.08-15.16-9.83-21.37-8.18-9.3,2.47-15.24,14.62-16.74,19.09a3.89,3.89,0,0,1-3.68,2.65Z"/><path class="cls-4" d="M126.91,523.73l7.77-.29c-.42-11.34,1.08-40.42,12-49.2l-.76-8.61C125.73,474.95,126.73,518.71,126.91,523.73Z"/><polygon class="cls-6" points="532.75 926.81 53.04 926.81 106.4 500.08 586.11 500.08 532.75 926.81"/><path class="cls-7" d="M559.43,699c-2.66-.39-19.35-1.77-20,6-.3,3.75,2.39,6.11,5.59,7.6-3.31.77-6.4,2.41-6.67,5.89s1.92,5.67,4.72,7.17c-2.94.86-5.48,2.49-5.73,5.65-.3,3.75,2.38,6.11,5.58,7.61-3.33.76-6.38,2.4-6.67,5.89-.59,7.29,10.12,9.37,13.83,9.89a22.07,22.07,0,0,0,4.1.41l7-55.71C560.06,699.22,559.43,699,559.43,699Z"/><path class="cls-3" d="M601.46,508l-12.75,40.46c45.24,27.63,58.64,69.81,56.66,95.13-5.81,74.55-85.94,51.28-85.94,51.28-2.66-.39-19.35-1.77-20,6-.3,3.75,2.39,6.11,5.59,7.61-3.31.77-6.4,2.4-6.67,5.88s1.92,5.67,4.72,7.17c-2.94.86-5.48,2.49-5.73,5.65-.3,3.75,2.38,6.11,5.58,7.61-3.33.76-6.38,2.4-6.67,5.89-.59,7.3,10.12,9.37,13.83,9.89,0,0,102.42,25.73,132.48-92.44C690.22,628.13,687.68,559.6,601.46,508Z"/><path class="cls-6" d="M162.11,266s197.1-63.37,430.83,56.11c0,0,97.93-241.58-159.82-307.58C194.25-46.67,156,94.93,162.11,266Z"/><path class="cls-8" d="M446.76,267.41l5.3,1.32-2.27-5.87c-44.19-125.3-175.6-205.78-327-183.08s42.32,181.64,42.32,181.64S284.51,228.79,446.76,267.41Z"/><path class="cls-5" d="M446.76,267.41h0c-44.19-125.3-175.6-205.78-327-183.08S162.11,266,162.11,266,282.54,227.26,446.76,267.41Z"/><path class="cls-9" d="M125.79,521.89a5.05,5.05,0,0,0,1.29,3.37c-.17-1.84-.28-3.94-.32-6.34A5.06,5.06,0,0,0,125.79,521.89Z"/><path class="cls-9" d="M135.55,521.89a5.06,5.06,0,0,0-1-3c.05,1.93.16,3.77.31,5.46A5.06,5.06,0,0,0,135.55,521.89Z"/><path class="cls-4" d="M140,528.37a8,8,0,0,0-5-2.67c0-.42-.08-.89-.12-1.33-.15-1.69-.26-3.53-.31-5.46a4.76,4.76,0,0,0-7.82,0c0,2.4.15,4.51.32,6.34,0,.45.09.89.14,1.31a27.06,27.06,0,0,0-5.34,2.6l4.1,6.6a20.76,20.76,0,0,1,3-1.56c1.31,3.18,2.87,3.83,3.64,4.16a5.25,5.25,0,0,0,2.05.41,6.69,6.69,0,0,0,4.82-2.31A6,6,0,0,0,140,528.37Z"/><path class="cls-9" d="M564,524.47a5,5,0,0,1-2.29,2.79c.74-1.69,1.51-3.65,2.31-5.92A5.08,5.08,0,0,1,564,524.47Z"/><path class="cls-9" d="M554.77,521.4a5,5,0,0,1,1.86-2.52c-.66,1.82-1.34,3.53-2,5.08A5.06,5.06,0,0,1,554.77,521.4Z"/><path class="cls-4" d="M548.55,526.17a8,8,0,0,1,5.54-1c.18-.38.36-.82.54-1.23.67-1.56,1.35-3.27,2-5.08a4.77,4.77,0,0,1,7.42,2.46c-.79,2.27-1.56,4.23-2.31,5.92-.18.42-.36.82-.54,1.2a27,27,0,0,1,4.25,4.14l-6,5a21,21,0,0,0-2.34-2.42c-2.25,2.6-3.93,2.74-4.77,2.8a5.31,5.31,0,0,1-2.08-.26,6.7,6.7,0,0,1-3.85-3.71A6,6,0,0,1,548.55,526.17Z"/><path class="cls-7" d="M132.73,656.3c.45-7.82-12.08-6.12-19-8.69A131.14,131.14,0,0,1,89,639.44l-6.33,50.63a162.16,162.16,0,0,0,24.79,6.75s22.66,6.66,23.07-.64c.19-3.51-2.63-5.53-5.81-6.75,3.36-1.05,6.35-3,6.56-6.78.17-3.17-2.12-5.13-4.91-6.37,3-1.11,5.44-3.05,5.63-6.46s-2.63-5.53-5.81-6.74C129.53,662,132.52,660.07,132.73,656.3Z"/><path class="cls-3" d="M132.73,652.1c.45-7.82-12.08-6.12-19-8.69A130.78,130.78,0,0,1,80.1,630.85c-15.68-8.67-31-22.51-31.26-43.59C48.51,562.48,76,544.33,101.45,535L88.58,488.13C23.37,505,0,546.89,0,585.75c0,49.92,33.41,77.62,63.1,92a206.27,206.27,0,0,0,44.33,14.91s22.66,6.66,23.07-.64c.19-3.51-2.63-5.54-5.81-6.75,3.36-1.05,6.35-3,6.56-6.78.17-3.17-2.12-5.13-4.91-6.37,3-1.11,5.44-3.06,5.63-6.46s-2.63-5.53-5.81-6.74C129.53,657.84,132.52,655.87,132.73,652.1Z"/></g></svg>