<svg xmlns="http://www.w3.org/2000/svg" viewBox="0 0 693.83 750.16"><defs><style>.cls-1{isolation:isolate;}.cls-2{fill:#e2e2e2;}.cls-3{mix-blend-mode:multiply;}.cls-4{fill:#e9ebed;}.cls-5{fill:#b33e2b;}.cls-6{fill:#fddcbe;}.cls-7{fill:#f5f5f5;}.cls-8{fill:#e6e7e8;}.cls-9{fill:#533e29;}.cls-10{fill:none;}.cls-11{fill:#eb7d86;}</style></defs><title>big-example</title><g class="cls-1"><g id="Layer_1" data-name="Layer 1"><path class="cls-2" d="M693.83,272.88A129.89,129.89,0,0,0,639,166.77,130.08,130.08,0,0,0,509.86,21.24a129.5,129.5,0,0,0-57.54,13.4,130,130,0,0,0-173.36-3A130.09,130.09,0,0,0,87,146c0,3.86.18,7.68.51,11.45a130.09,130.09,0,0,0,20.09,244.33A130.15,130.15,0,0,0,278,475.71,130,130,0,0,0,454.78,483,130.17,130.17,0,0,0,620.3,390,130.06,130.06,0,0,0,693.83,272.88Z"/><g class="cls-3"><path class="cls-4" d="M301.54,160.72q-.3,6.37-.56,12.75c-1.42,36.72-12.84,60.36-38.2,72,30.28,11.39,42.06,38.62,43.09,76.41q.42,14.55,1,29.11c1.78,55.07-21.43,84.31-70.74,77.67q-39.3-5.2-78.61-13.57-55.29-158,0-316.1Q195.26,91,233,85.88C284.21,78.93,303.73,105.79,301.54,160.72ZM197.24,137.49a680.9,680.9,0,0,0-10,88.49q11-.29,22-.55c21.11-.44,33.92-9.6,35.61-37.53q.64-9.7,1.45-19.41c2.09-24.9-4.62-35.33-23.48-33.57Q210.07,136.1,197.24,137.49Zm-10.5,136.32a678.81,678.81,0,0,0,10.5,102.84q15.24,1.65,30.49,3c17.91,1.61,26.37-6.26,24.25-32.24q-1.24-15.22-2.06-30.45c-1.59-32.5-12.17-42.56-38-42.82Z"/><path class="cls-4" d="M342,77.18q25-.6,50,.08,7.07,179.81,0,359.63-25,.68-50,.08Q335.79,257.07,342,77.18Z"/><path class="cls-4" d="M521.41,237.59q39.58.56,79.16,1.42a456.61,456.61,0,0,1-7.11,100.25c-10.21,49.73-48,85.17-95.51,92.8-48,6.92-70-25.17-68-82.21q4.23-92.77,0-185.54c-2-57,20-89.13,68-82.21,47.49,7.63,85.3,43.06,95.51,92.79q2.79,15.35,4.54,30.71-26.44-1.64-52.87-2.9-1.49-17.89-4-35.78c-3.48-23.77-16.13-34.13-32.85-35.8s-26.05,7-23.83,31.94a1049.54,1049.54,0,0,1,0,188c-2.23,24.91,7,33.1,23.9,31.46s29.29-11.54,32.77-35.31q4.25-30.77,5.6-61.54-12.83.32-25.65.6Q522,261.94,521.41,237.59Z"/></g><path class="cls-5" d="M301.54,151.09q-.3,6.37-.56,12.75c-1.42,36.72-12.84,60.36-38.2,72,30.28,11.39,42.06,38.62,43.09,76.41q.42,14.55,1,29.11c1.78,55.07-21.43,84.31-70.74,77.67q-39.3-5.2-78.61-13.57-55.29-158,0-316.1,37.71-8,75.42-13.14C284.21,69.3,303.73,96.16,301.54,151.09ZM197.24,127.86a680.9,680.9,0,0,0-10,88.49q11-.29,22-.55c21.11-.44,33.92-9.6,35.61-37.53q.64-9.7,1.45-19.41c2.09-24.9-4.62-35.33-23.48-33.57Q210.07,126.47,197.24,127.86Zm-10.5,136.32A678.81,678.81,0,0,0,197.24,367q15.24,1.65,30.49,3c17.91,1.61,26.37-6.26,24.25-32.24q-1.24-15.22-2.06-30.45c-1.59-32.5-12.17-42.56-38-42.82Z"/><path class="cls-5" d="M342,67.55q25-.6,50,.08,7.07,179.81,0,359.63-25,.68-50,.08Q335.79,247.44,342,67.55Z"/><path class="cls-5" d="M521.41,228q39.58.56,79.16,1.42a456.61,456.61,0,0,1-7.11,100.25c-10.21,49.73-48,85.17-95.51,92.8-48,6.92-70-25.17-68-82.21q4.23-92.77,0-185.54c-2-57,20-89.13,68-82.21,47.49,7.63,85.3,43.06,95.51,92.79Q596.24,180.61,598,196q-26.44-1.64-52.87-2.9-1.49-17.89-4-35.78c-3.48-23.77-16.13-34.13-32.85-35.8s-26.05,7-23.83,31.94a1049.54,1049.54,0,0,1,0,188c-2.23,24.91,7,33.1,23.9,31.46s29.29-11.54,32.77-35.31q4.25-30.77,5.6-61.54-12.83.32-25.65.6Q522,252.31,521.41,228Z"/><path class="cls-6" d="M241.74,660.64c-1.2-.24-2.05.64-2.63,1.69a2.78,2.78,0,0,0-2-2.61,2.38,2.38,0,0,0-2.45,1.4,2.62,2.62,0,0,0-2-2.27c-1.2-.24-2.05.65-2.63,1.69-.2-1.22,4.07-20,.75-20.61-2.7-.47-6.61,23.24-6.73,24.17,0,0-7.41,76.29-22.57,77.47-14.26,1.1-29.55-44.89-29.55-44.89l-11.25,12.7s6.16,24.79,19.71,40.78H221.1c15.11-27.78,22.65-83.91,22.65-83.91C243.94,665,244.25,661.14,241.74,660.64Z"/><path class="cls-7" d="M171.93,696.68l-11.25,12.7a133.44,133.44,0,0,0,8.65,23.26l12.54-12.07A203,203,0,0,1,171.93,696.68Z"/><path class="cls-6" d="M172.17,695.92s2-193.06-109.88-113.15c0,0-22,15.74-33,116.82C87.14,792,172.17,695.92,172.17,695.92Z"/><g class="cls-3"><path class="cls-8" d="M171.93,696.68l-11.25,12.7s6,24.2,19.22,40.21l-6.13-47.76C172.16,697.63,171.93,696.68,171.93,696.68Z"/></g><path class="cls-2" d="M29.3,699.59S108,709,171.93,684.78l3.54,65.39H32.67Z"/><path class="cls-9" d="M148,504.12s63.17,95.31-92.41,109.63l1.78,25.57s-14.24-12.85-18.76,3c-4.59,16.16,18.2,9.72,18.2,9.72-2,4.31-11.35,32.72-27.52,47.54-1.09,1-58.38-119.73-9.76-118-2.22-27.29,17.43-45.37,45.94-52C109.61,519.43,130.4,563.81,148,504.12Z"/><path class="cls-6" d="M60.36,598.48l-.17-.12Z"/><path class="cls-8" d="M58.8,750.16c-1.5-12.5-3.68-23.74-4.78-38.43l-19.76,1.84c.56,11.4,1.91,25.38,3.13,36.59Z"/><path class="cls-8" d="M136.14,750.16h11.18a86.75,86.75,0,0,1,7.64-11l-4.41-25.26,4.16-7.17-3.42-5.81-12.43,1.93-2.54,5,5.51,7.16Z"/><polygon class="cls-9" points="139.44 750.16 160.22 750.16 150.54 713.89 154.7 706.73 151.28 700.92 138.85 702.85 136.31 707.82 141.82 714.98 139.44 750.16"/><path class="cls-10" d="M60.52,593.75l-.17-.12Z"/><path class="cls-6" d="M61.78,750.16c-3-13.29-5.25-24.45-8-40.37l-19.48,3.78c1.75,11.72,4.09,25.16,6.52,36.59Z"/><path class="cls-10" d="M58.36,598.56l-.2-.17Z"/><path class="cls-9" d="M92.68,638.2c2,6.21.94,10.29-1.68,11.13s-5.84-1.88-7.83-8.09-.94-10.29,1.68-11.13S90.69,632,92.68,638.2Z"/><path class="cls-9" d="M152.36,621.37c2,6.21.94,10.29-1.68,11.13s-5.84-1.88-7.83-8.09-.94-10.29,1.68-11.13S150.37,615.16,152.36,621.37Z"/><path class="cls-11" d="M146.4,652.43s-29.62,1.9-47.1,9.41c0,0,.54,26.14,28.18,21.43C154.84,678.63,146.4,652.43,146.4,652.43Z"/><path class="cls-2" d="M53.75,709.8l-19.48,3.78c.89,6,1.94,12.42,3.08,18.81l19.83-4C56.06,722.71,55,716.7,53.75,709.8Z"/><ellipse class="cls-2" cx="59.48" cy="447.08" rx="25.8" ry="23.46"/><circle class="cls-2" cx="73.97" cy="493.53" r="8.01"/></g></g></svg>