<svg id="Layer_1" data-name="Layer 1" xmlns="http://www.w3.org/2000/svg" viewBox="0 0 381.81 428.5"><defs><style>.cls-1{isolation:isolate;}.cls-2{fill:#6fc8b9;}.cls-3{fill:#57c1ac;}.cls-4{fill:#388a79;}.cls-5{fill:#0d7466;}.cls-6{fill:#11a692;}.cls-7{fill:#16b9a2;}.cls-8{fill:#fff;}.cls-9{fill:#0a404e;}.cls-10{fill:#105b6f;}.cls-11{fill:#148e93;}.cls-12{fill:#118083;}.cls-13{fill:#0d595c;}.cls-14{fill:#10667c;}</style></defs><title>2</title><g class="cls-1"><polygon class="cls-2" points="381.81 248.27 132.31 395.45 0.09 319.16 249.59 171.98 381.81 248.27"/><polygon class="cls-3" points="381.81 248.27 381.71 281.32 132.22 428.5 132.31 395.45 381.81 248.27"/><polygon class="cls-4" points="132.31 395.45 132.22 428.5 0 352.2 0.09 319.16 132.31 395.45"/></g><g class="cls-1"><polygon class="cls-5" points="293.76 215.01 293.65 253.12 239.97 222.13 240.08 184.02 293.76 215.01"/><polygon class="cls-6" points="240.08 184.02 239.97 222.13 186.64 253.12 186.75 215.02 240.08 184.02"/><path class="cls-7" d="M239.9,152.7,347.84,215,240.6,277.33,132.67,215Zm.53,93.31,53.33-31-53.68-31-53.33,31,53.68,31"/><polygon class="cls-6" points="347.84 215.01 347.73 253.12 240.5 315.44 240.6 277.33 347.84 215.01"/><polygon class="cls-5" points="240.6 277.33 240.5 315.44 132.56 253.12 132.67 215.02 240.6 277.33"/></g><polygon class="cls-8" points="273.38 271.27 273.39 273.5 269.33 275.84 269.34 278.65 273.11 276.47 273.12 278.69 269.35 280.87 269.36 284.17 273.41 281.83 273.42 284.08 267 287.78 266.96 274.98 273.38 271.27"/><path class="cls-8" d="M280.43,267a6.92,6.92,0,0,1,3.27-1l-.75,2.65a9.16,9.16,0,0,0-1.26.13,3.8,3.8,0,0,0-1.25.46,5.07,5.07,0,0,0-2.06,2.34,8.49,8.49,0,0,0-.73,3.64q0,4.28,2.81,2.66a15.25,15.25,0,0,0,2.84-2.31v2.27a13.35,13.35,0,0,1-3.06,2.42c-1.62.94-2.87,1.09-3.73.45s-1.3-2-1.3-4.12a11.89,11.89,0,0,1,.62-3.86,10.8,10.8,0,0,1,1.81-3.35A9.79,9.79,0,0,1,280.43,267Z"/><polygon class="cls-8" points="288.01 262.82 288.04 273.38 292.56 270.78 292.56 273.02 285.69 276.99 285.65 264.19 288.01 262.82"/><polygon class="cls-8" points="296.82 257.74 296.86 270.54 294.5 271.9 294.46 259.1 296.82 257.74"/><path class="cls-8" d="M306.28,253.28q1.06.39,1.06,2.39a6.85,6.85,0,0,1-1.11,3.81,9.14,9.14,0,0,1-3.2,2.94l-1,.58v4.56l-2.36,1.36,0-12.8,3.56-2.05Q305.22,252.89,306.28,253.28Zm-1.86,5.61a3.09,3.09,0,0,0,.54-1.75c0-.64-.16-1-.46-1.15s-.78,0-1.43.37L302,257v3.8l.77-.45a4.82,4.82,0,0,0,1.63-1.44"/><path class="cls-8" d="M312.64,248.41a7,7,0,0,1,1.66-.72,8.52,8.52,0,0,1,1.65-.29L315.2,250a8.64,8.64,0,0,0-1.48.26,5.27,5.27,0,0,0-1.15.49,3,3,0,0,0-1,1,2.15,2.15,0,0,0-.35,1.15.85.85,0,0,0,.15.54.75.75,0,0,0,.46.26,9.2,9.2,0,0,0,1.5,0,3.07,3.07,0,0,1,2.14.49,2.32,2.32,0,0,1,.59,1.78,5.93,5.93,0,0,1-1.08,3.36,8.87,8.87,0,0,1-3,2.75,6.72,6.72,0,0,1-3.16,1.05v-2.52a10.49,10.49,0,0,0,1.91-.29,6.21,6.21,0,0,0,1.43-.59,3.74,3.74,0,0,0,1.19-1,2.12,2.12,0,0,0,.41-1.25.77.77,0,0,0-.19-.56.93.93,0,0,0-.54-.26,8.45,8.45,0,0,0-1.45,0,3.79,3.79,0,0,1-1.54-.17,1.75,1.75,0,0,1-.82-.71,2.69,2.69,0,0,1-.3-1.4,5.86,5.86,0,0,1,1-3.25A7.94,7.94,0,0,1,312.64,248.41Z"/><polygon class="cls-8" points="324.44 241.79 324.45 244.01 320.39 246.35 320.4 249.16 324.18 246.99 324.18 249.21 320.41 251.39 320.42 254.69 324.47 252.35 324.48 254.59 318.06 258.3 318.03 245.5 324.44 241.79"/><g class="cls-1"><polygon class="cls-5" points="293.76 171.37 293.65 209.48 239.97 178.49 240.08 140.38 293.76 171.37"/><polygon class="cls-6" points="240.08 140.38 239.97 178.49 186.64 209.48 186.75 171.37 240.08 140.38"/><path class="cls-7" d="M239.9,109.05l107.94,62.32L240.6,233.69,132.67,171.37Zm.53,93.31,53.33-31-53.68-31-53.33,31,53.68,31"/><polygon class="cls-6" points="347.84 171.37 347.73 209.48 240.5 271.8 240.6 233.69 347.84 171.37"/><polygon class="cls-5" points="240.6 233.69 240.5 271.8 132.56 209.48 132.67 171.37 240.6 233.69"/></g><path class="cls-8" d="M278.82,225.78q1.36.92,1.37,4.1a11.58,11.58,0,0,1-1.36,5.68,10.12,10.12,0,0,1-3.93,4c-1.7,1-3,1.18-3.94.56s-1.37-2-1.38-4.11a11.43,11.43,0,0,1,1.36-5.67,10.23,10.23,0,0,1,3.94-4Q277.45,224.87,278.82,225.78Zm-3.92,11.49c1.89-1.09,2.82-3.07,2.82-6s-1-3.78-2.82-2.7a5.13,5.13,0,0,0-2.12,2.31,8.41,8.41,0,0,0-.71,3.65,4,4,0,0,0,.72,2.83c.47.45,1.18.41,2.12-.13"/><polygon class="cls-8" points="288.87 218.48 288.88 220.7 284.82 223.05 284.82 226.35 288.61 224.17 288.61 226.38 284.83 228.56 284.85 233.63 282.52 234.97 282.49 222.17 288.87 218.48"/><polygon class="cls-8" points="297.44 213.53 297.44 215.76 293.38 218.1 293.39 221.41 297.17 219.22 297.17 221.44 293.39 223.62 293.41 228.68 291.08 230.03 291.05 217.22 297.44 213.53"/><polygon class="cls-8" points="301.98 210.91 302.01 223.71 299.65 225.08 299.62 212.28 301.98 210.91"/><path class="cls-8" d="M309.51,206.38a6.84,6.84,0,0,1,3.27-1L312,208a8.72,8.72,0,0,0-1.26.13,3.8,3.8,0,0,0-1.25.46,5.07,5.07,0,0,0-2.06,2.34,8.49,8.49,0,0,0-.73,3.64q0,4.28,2.81,2.66a15.14,15.14,0,0,0,2.85-2.32v2.28a13.64,13.64,0,0,1-3.06,2.42q-2.43,1.4-3.73.45t-1.3-4.12a12,12,0,0,1,.62-3.86,11,11,0,0,1,1.81-3.35A9.88,9.88,0,0,1,309.51,206.38Z"/><polygon class="cls-8" points="321.14 199.84 321.15 202.07 317.1 204.41 317.1 207.23 320.88 205.05 320.88 207.27 317.11 209.45 317.12 212.75 321.17 210.41 321.18 212.65 314.76 216.35 314.73 203.55 321.14 199.84"/><g class="cls-1"><polygon class="cls-5" points="293.76 127.4 293.65 165.5 239.97 134.51 240.08 96.41 293.76 127.4"/><polygon class="cls-6" points="240.08 96.41 239.97 134.51 186.64 165.5 186.75 127.4 240.08 96.41"/><path class="cls-7" d="M239.9,65.08,347.84,127.4,240.6,189.72,132.67,127.4Zm.53,93.31,53.33-31-53.68-31-53.33,31,53.68,31"/><polygon class="cls-6" points="347.84 127.4 347.73 165.5 240.5 227.82 240.6 189.72 347.84 127.4"/><polygon class="cls-5" points="240.6 189.72 240.5 227.82 132.56 165.5 132.67 127.4 240.6 189.72"/></g><polygon class="cls-8" points="271.35 185.19 271.36 187.42 267.3 189.76 267.31 193.06 271.09 190.88 271.09 193.1 267.31 195.28 267.33 200.34 265 201.68 264.97 188.88 271.35 185.19"/><polygon class="cls-8" points="275.9 182.57 275.93 195.37 273.57 196.74 273.54 183.93 275.9 182.57"/><path class="cls-8" d="M284.35,184.93c1.68,1.91,2.78,3.14,3.29,3.68L285,190.13l-2.67-3.37-1.26.73v4.91l-2.36,1.36,0-12.8,3.24-1.87c1.51-.87,2.64-1.21,3.37-1s1.09,1,1.09,2.26a5.6,5.6,0,0,1-.53,2.32A8.54,8.54,0,0,1,284.35,184.93Zm-.85-1.48a2.72,2.72,0,0,0,.53-1.65c0-.61-.19-.93-.55-1a3.13,3.13,0,0,0-1.69.58l-.72.41v3.46l.76-.44a5.22,5.22,0,0,0,1.65-1.39"/><polygon class="cls-8" points="295.42 171.3 295.42 173.52 291.37 175.86 291.38 178.68 295.15 176.5 295.15 178.73 291.39 180.9 291.4 184.2 295.45 181.87 295.45 184.1 289.04 187.8 289.01 175 295.42 171.3"/><polygon class="cls-8" points="304.13 166.27 304.14 168.49 300.08 170.84 300.09 174.14 303.87 171.96 303.87 174.17 300.09 176.35 300.11 181.42 297.78 182.76 297.75 169.96 304.13 166.27"/><path class="cls-8" d="M315.07,161.45q1.36.92,1.37,4.1a11.58,11.58,0,0,1-1.36,5.68,10.12,10.12,0,0,1-3.93,4c-1.7,1-3,1.18-3.94.56s-1.37-2-1.38-4.11a11.43,11.43,0,0,1,1.36-5.67,10.21,10.21,0,0,1,3.94-4Q313.7,160.54,315.07,161.45Zm-3.92,11.49q2.83-1.63,2.82-6t-2.82-2.7A5.13,5.13,0,0,0,309,166.6a8.4,8.4,0,0,0-.71,3.65,4,4,0,0,0,.72,2.83c.47.45,1.18.4,2.12-.14"/><polygon class="cls-8" points="327.47 152.79 323.99 161.16 327.77 165.44 325.08 167 322.47 163.65 319.89 169.99 317.36 171.45 321.04 162.71 317.56 158.51 320.17 157.01 322.58 160.23 324.93 154.26 327.47 152.79"/><g class="cls-1"><polygon class="cls-5" points="293.76 83.53 293.65 121.63 239.97 90.64 240.08 52.53 293.76 83.53"/><polygon class="cls-6" points="240.08 52.53 239.97 90.64 186.64 121.63 186.75 83.53 240.08 52.53"/><path class="cls-7" d="M239.9,21.21,347.84,83.53,240.6,145.84,132.67,83.53Zm.53,93.31,53.33-31-53.68-31-53.33,31,53.68,31"/><polygon class="cls-6" points="347.84 83.53 347.73 121.63 240.5 183.95 240.6 145.84 347.84 83.53"/><polygon class="cls-5" points="240.6 145.84 240.5 183.95 132.56 121.63 132.67 83.53 240.6 145.84"/></g><path class="cls-8" d="M276.32,137.62a7,7,0,0,1,1.65-.72,9,9,0,0,1,1.66-.29l-.76,2.56a8.64,8.64,0,0,0-1.48.26,5.2,5.2,0,0,0-1.14.49,2.92,2.92,0,0,0-1,1,2.11,2.11,0,0,0-.35,1.15.86.86,0,0,0,.14.54.75.75,0,0,0,.46.26,8.81,8.81,0,0,0,1.5,0,3.07,3.07,0,0,1,2.14.49,2.3,2.3,0,0,1,.59,1.78,5.93,5.93,0,0,1-1.08,3.36,8.84,8.84,0,0,1-3,2.74,6.72,6.72,0,0,1-3.16,1.05v-2.52a10,10,0,0,0,1.91-.29,6.16,6.16,0,0,0,1.42-.59,3.69,3.69,0,0,0,1.19-1,2.08,2.08,0,0,0,.41-1.25.78.78,0,0,0-.18-.56,1,1,0,0,0-.54-.25,8.45,8.45,0,0,0-1.45,0,4,4,0,0,1-1.54-.17,1.7,1.7,0,0,1-.81-.71,2.67,2.67,0,0,1-.31-1.4,5.86,5.86,0,0,1,1-3.25A7.93,7.93,0,0,1,276.32,137.62Z"/><polygon class="cls-8" points="290.63 129.55 286.76 137.45 290.7 142.33 288.02 143.88 285.08 140.16 284.08 141.57 284.1 146.14 281.74 147.51 281.7 134.7 284.06 133.34 284.08 139.19 285.01 137.15 288.01 131.06 290.63 129.55"/><polygon class="cls-8" points="300.4 123.91 296.73 133.85 296.75 138.84 294.4 140.2 294.38 135.29 290.66 129.53 293.22 128.05 295.55 131.98 297.86 125.37 300.4 123.91"/><path class="cls-8" d="M308.45,120.26c.7.26,1.06,1.05,1.07,2.38a6.87,6.87,0,0,1-1.12,3.81,9.13,9.13,0,0,1-3.19,2.94l-1,.59v4.56l-2.36,1.36,0-12.8,3.56-2.05Q307.39,119.87,308.45,120.26Zm-1.86,5.61a3.05,3.05,0,0,0,.54-1.75c0-.64-.16-1-.46-1.15s-.78,0-1.43.37l-1.07.62v3.8l.78-.45a4.76,4.76,0,0,0,1.63-1.44"/><polygon class="cls-8" points="318.02 113.73 318.03 115.95 313.97 118.3 313.98 121.11 317.75 118.93 317.76 121.15 313.99 123.33 314 126.63 318.05 124.29 318.06 126.53 311.64 130.24 311.6 117.44 318.02 113.73"/><g class="cls-1"><polygon class="cls-9" points="181.69 236.05 181.58 274.15 127.9 243.16 128.01 205.06 181.69 236.05"/><polygon class="cls-10" points="128.01 205.06 127.9 243.16 74.57 274.15 74.68 236.05 128.01 205.06"/><path class="cls-11" d="M127.83,173.73l107.94,62.32L128.53,298.37,20.6,236Zm.53,93.31,53.33-31-53.68-31L74.68,236l53.68,31"/><polygon class="cls-12" points="235.76 236.05 235.66 317.12 128.43 379.43 128.53 298.37 235.76 236.05"/><polygon class="cls-13" points="128.53 298.37 128.43 379.43 20.49 317.12 20.6 236.05 128.53 298.37"/></g><path class="cls-8" d="M164.22,308.4l-3.75,15-2.58,1.49-3.82-10.62,2.39-1.38,2.12,6.41c.12.38.24.83.37,1.36s.2.9.23,1.11q.08-.85.57-3.15l2.09-8.84Z"/><polygon class="cls-8" points="167.99 306.23 168.03 319.03 165.66 320.39 165.63 307.59 167.99 306.23"/><path class="cls-8" d="M176.44,308.59c1.68,1.91,2.78,3.14,3.29,3.68l-2.62,1.52-2.67-3.37-1.26.73V316l-2.36,1.36,0-12.8,3.24-1.87c1.51-.87,2.64-1.21,3.37-1s1.09,1,1.09,2.26a5.6,5.6,0,0,1-.53,2.32A8.54,8.54,0,0,1,176.44,308.59Zm-.85-1.48a2.74,2.74,0,0,0,.53-1.65c0-.61-.19-.93-.55-1a3.13,3.13,0,0,0-1.69.58l-.72.41v3.46l.76-.44a5.22,5.22,0,0,0,1.65-1.39"/><polygon class="cls-8" points="196.13 311.53 196.17 324.34 193.82 325.69 193.8 320.17 189.39 322.72 189.41 328.24 187.04 329.61 187.01 316.8 189.37 315.44 189.38 320.46 193.79 317.91 193.78 312.89 196.13 311.53"/><polygon class="cls-8" points="188.42 294.43 188.43 296.69 185.4 298.44 185.43 308.98 183.07 310.35 183.04 299.8 180.01 301.55 180.01 299.29 188.42 294.43"/><path class="cls-8" d="M199.2,288.21l0,8.28a7.45,7.45,0,0,1-.54,2.8,8.56,8.56,0,0,1-1.59,2.56,9.86,9.86,0,0,1-2.47,2q-2.15,1.24-3.34.67c-.79-.39-1.19-1.32-1.2-2.78l0-8.25,2.36-1.36,0,7.84c0,1,.18,1.62.52,1.87s.92.17,1.72-.29a4.19,4.19,0,0,0,1.68-1.67,5.35,5.35,0,0,0,.52-2.49l0-7.82Z"/><path class="cls-8" d="M207.34,283.45l4,10.57-2.55,1.47-.82-2.58-4.06,2.34-.8,3.51-2.55,1.47,3.9-15.12Zm-2.85,9.19,2.9-1.68q-1.13-3.49-1.27-4c-.1-.3-.17-.55-.21-.74q-.25,1.27-1.43,6.37"/><polygon class="cls-8" points="215.06 279.05 215.09 289.62 219.61 287.01 219.61 289.25 212.73 293.22 212.69 280.42 215.06 279.05"/><path class="cls-8" d="M163.49,330.38l0,12.8-2.2,1.27,0-6.05c0-.29,0-.62,0-1s0-1.4.09-3l-.07,0-2.84,11.68-2.16,1.25-2.71-8.5-.06,0q.15,3,.15,4l0,6-2.11,1.22,0-12.8,3.21-1.85,2.66,8.27,0,0,2.78-11.41Z"/><path class="cls-8" d="M171.71,325.58l4,10.58-2.54,1.47-.82-2.58-4.06,2.34-.8,3.51-2.54,1.47,3.9-15.12Zm-2.85,9.19,2.9-1.68c-.75-2.33-1.18-3.65-1.28-4s-.16-.55-.2-.74q-.26,1.27-1.43,6.38"/><path class="cls-8" d="M181.79,319.63a6.84,6.84,0,0,1,3.27-1l-.75,2.65a9.16,9.16,0,0,0-1.26.13,3.8,3.8,0,0,0-1.25.46,5.07,5.07,0,0,0-2.06,2.34,8.49,8.49,0,0,0-.73,3.64q0,4.28,2.81,2.66a15,15,0,0,0,2.84-2.32v2.28a13.55,13.55,0,0,1-3.06,2.42q-2.43,1.4-3.73.45c-.86-.64-1.3-2-1.3-4.12a11.89,11.89,0,0,1,.62-3.86A10.8,10.8,0,0,1,179,322,9.79,9.79,0,0,1,181.79,319.63Z"/><polygon class="cls-8" points="201.31 308.54 201.34 321.35 198.98 322.71 198.95 309.91 201.31 308.54"/><path class="cls-8" d="M214,301.22l0,12.8-3,1.73-4.87-6.89-.07,0c.1,1.66.16,2.85.16,3.58l0,6-2.11,1.22,0-12.8,3-1.72L212,312l.05,0c-.08-1.61-.12-2.77-.12-3.46l0-6.06Z"/><polygon class="cls-8" points="223.21 295.9 223.22 298.13 219.16 300.47 219.17 303.28 222.95 301.1 222.95 303.32 219.18 305.5 219.19 308.8 223.24 306.46 223.25 308.7 216.83 312.4 216.8 299.6 223.21 295.9"/><g class="cls-1"><polygon class="cls-9" points="181.63 191.79 181.53 229.89 127.85 198.9 127.95 160.8 181.63 191.79"/><polygon class="cls-10" points="127.95 160.8 127.85 198.9 74.52 229.89 74.62 191.79 127.95 160.8"/><path class="cls-14" d="M127.77,129.47l107.94,62.32L128.48,254.11,20.54,191.79Zm.53,93.31,53.33-31L128,160.8l-53.33,31,53.68,31"/><polygon class="cls-10" points="235.71 191.79 235.6 229.9 128.37 292.21 128.48 254.11 235.71 191.79"/><polygon class="cls-9" points="128.48 254.11 128.37 292.21 20.43 229.89 20.54 191.79 128.48 254.11"/></g><path class="cls-8" d="M142.64,260.72a7.35,7.35,0,0,1,1.66-.72,9.12,9.12,0,0,1,1.65-.28l-.75,2.55a8.65,8.65,0,0,0-1.48.26,5.27,5.27,0,0,0-1.15.49,2.88,2.88,0,0,0-1,1,2.13,2.13,0,0,0-.35,1.15.86.86,0,0,0,.15.54.79.79,0,0,0,.46.26,9.2,9.2,0,0,0,1.5,0,3.15,3.15,0,0,1,2.14.48,2.35,2.35,0,0,1,.59,1.78,6,6,0,0,1-1.08,3.36,8.89,8.89,0,0,1-3,2.75,6.72,6.72,0,0,1-3.16,1.05v-2.52a9.35,9.35,0,0,0,1.91-.29,5.89,5.89,0,0,0,1.43-.58,3.74,3.74,0,0,0,1.19-1,2.12,2.12,0,0,0,.41-1.25.79.79,0,0,0-.19-.57,1,1,0,0,0-.54-.26,8.72,8.72,0,0,0-1.45,0,3.79,3.79,0,0,1-1.54-.17,1.75,1.75,0,0,1-.82-.71,2.71,2.71,0,0,1-.3-1.4,5.87,5.87,0,0,1,1-3.25A7.93,7.93,0,0,1,142.64,260.72Z"/><path class="cls-8" d="M157.47,262.53a10.27,10.27,0,0,1-2,3.42l2.69,1.89-3,1.75-2-1.7-.18.1c-1.7,1-3,1.18-3.94.56s-1.38-2-1.39-4.11a11.45,11.45,0,0,1,1.37-5.68,10.19,10.19,0,0,1,3.94-4q2.57-1.48,3.93-.57t1.37,4.1A12.34,12.34,0,0,1,157.47,262.53Zm-4.61,3.19q2.83-1.63,2.82-6t-2.82-2.7a5.13,5.13,0,0,0-2.12,2.31A8.4,8.4,0,0,0,150,263a4,4,0,0,0,.72,2.83c.47.45,1.18.4,2.12-.14"/><polygon class="cls-8" points="162.81 249.26 162.84 259.82 167.35 257.22 167.36 259.45 160.48 263.42 160.44 250.62 162.81 249.26"/><path class="cls-8" d="M176.53,241.15a7.4,7.4,0,0,1,1.66-.72,9.12,9.12,0,0,1,1.65-.28l-.75,2.55a8.65,8.65,0,0,0-1.48.26,5.27,5.27,0,0,0-1.15.49,2.86,2.86,0,0,0-1,1,2.13,2.13,0,0,0-.35,1.15.86.86,0,0,0,.15.54.79.79,0,0,0,.46.26,9.43,9.43,0,0,0,1.5,0,3.14,3.14,0,0,1,2.15.48,2.35,2.35,0,0,1,.59,1.78,6,6,0,0,1-1.08,3.36,8.84,8.84,0,0,1-3,2.74,6.72,6.72,0,0,1-3.16,1.05v-2.52a9.17,9.17,0,0,0,1.91-.29,5.89,5.89,0,0,0,1.43-.58,3.74,3.74,0,0,0,1.19-1,2.12,2.12,0,0,0,.41-1.25.79.79,0,0,0-.19-.57,1,1,0,0,0-.54-.26,9.21,9.21,0,0,0-1.45,0,3.79,3.79,0,0,1-1.54-.17,1.7,1.7,0,0,1-.82-.71,2.69,2.69,0,0,1-.31-1.4,5.89,5.89,0,0,1,1-3.25A7.93,7.93,0,0,1,176.53,241.15Z"/><polygon class="cls-8" points="188.32 234.52 188.33 236.75 184.28 239.09 184.28 241.9 188.06 239.73 188.06 241.95 184.29 244.13 184.3 247.43 188.35 245.09 188.36 247.33 181.94 251.03 181.91 238.23 188.32 234.52"/><path class="cls-8" d="M196.29,237.16c1.68,1.91,2.78,3.14,3.29,3.68L197,242.36,194.29,239l-1.26.73v4.91L190.69,246l0-12.8,3.24-1.87c1.51-.87,2.64-1.21,3.37-1s1.09,1,1.09,2.26a5.6,5.6,0,0,1-.53,2.32A8.54,8.54,0,0,1,196.29,237.16Zm-.85-1.48A2.74,2.74,0,0,0,196,234c0-.61-.19-.93-.55-1a3.12,3.12,0,0,0-1.69.58L193,234v3.46l.76-.44a5.22,5.22,0,0,0,1.65-1.39"/><path class="cls-8" d="M209.69,222.18l-3.76,15-2.57,1.49L199.55,228l2.39-1.38,2.12,6.41c.12.38.24.83.36,1.36s.21.89.24,1.11c.06-.57.24-1.61.56-3.15l2.09-8.84Z"/><polygon class="cls-8" points="217.51 217.67 217.51 219.9 213.46 222.24 213.47 225.05 217.24 222.88 217.25 225.1 213.47 227.28 213.49 230.58 217.54 228.24 217.54 230.47 211.13 234.18 211.09 221.38 217.51 217.67"/><path class="cls-8" d="M225.48,220.31c1.69,1.91,2.78,3.14,3.29,3.68l-2.62,1.51-2.68-3.37-1.26.73v4.91l-2.36,1.36,0-12.8,3.25-1.88q2.27-1.31,3.36-1t1.1,2.25A5.63,5.63,0,0,1,227,218,8.45,8.45,0,0,1,225.48,220.31Zm-.85-1.49a2.75,2.75,0,0,0,.53-1.65c0-.61-.18-.94-.55-1a3.15,3.15,0,0,0-1.69.59l-.72.41v3.46l.77-.44a5.22,5.22,0,0,0,1.65-1.39"/><g class="cls-1"><polygon class="cls-9" points="181.63 148.68 181.53 186.79 127.85 155.8 127.95 117.69 181.63 148.68"/><polygon class="cls-10" points="127.95 117.69 127.85 155.8 74.52 186.79 74.62 148.68 127.95 117.69"/><path class="cls-14" d="M127.77,86.37l107.94,62.32L128.48,211,20.54,148.68Zm.53,93.31,53.33-31-53.68-31-53.33,31,53.68,31"/><polygon class="cls-10" points="235.71 148.69 235.6 186.79 128.37 249.11 128.48 211 235.71 148.69"/><polygon class="cls-9" points="128.48 211 128.37 249.11 20.43 186.79 20.54 148.68 128.48 211"/></g><path class="cls-8" d="M154.93,209.77l0,12a8.27,8.27,0,0,1-.88,3.93,6.65,6.65,0,0,1-2.63,2.7,5.85,5.85,0,0,1-1.39.61v-2.26a5,5,0,0,0,1.11-.47,2.6,2.6,0,0,0,1.11-1.2,4.78,4.78,0,0,0,.33-1.93l0-12Z"/><polygon class="cls-8" points="164.15 204.45 164.15 206.67 160.1 209.01 160.11 211.82 163.88 209.65 163.89 211.87 160.11 214.05 160.12 217.35 164.18 215.01 164.18 217.25 157.77 220.96 157.73 208.16 164.15 204.45"/><path class="cls-8" d="M176.35,197.4l0,12.8-3,1.73-4.87-6.89-.07,0c.1,1.65.16,2.84.16,3.58l0,6-2.11,1.22,0-12.8,3-1.72,4.87,6.79.05,0c-.08-1.62-.12-2.77-.12-3.46l0-6.06Z"/><polygon class="cls-8" points="188.09 190.63 184.22 198.53 188.16 203.41 185.47 204.96 182.54 201.25 181.55 202.65 181.56 207.22 179.2 208.58 179.16 195.78 181.53 194.42 181.54 200.27 182.46 198.23 185.47 192.14 188.09 190.63"/><polygon class="cls-8" points="191.89 188.43 191.92 201.24 189.56 202.6 189.53 189.8 191.89 188.43"/><path class="cls-8" d="M204.57,181.11l0,12.8-3,1.73-4.87-6.89-.07,0c.1,1.65.16,2.84.16,3.58l0,6-2.11,1.22,0-12.8,3-1.72,4.87,6.79.05,0c-.08-1.62-.12-2.77-.12-3.46l0-6.06Z"/><path class="cls-8" d="M210.59,177.45a7.4,7.4,0,0,1,1.66-.72,9.12,9.12,0,0,1,1.65-.28l-.75,2.54a9.43,9.43,0,0,0-1.48.26,5.3,5.3,0,0,0-1.15.5,2.86,2.86,0,0,0-1,1,2.07,2.07,0,0,0-.35,1.14.9.9,0,0,0,.14.55.84.84,0,0,0,.47.24,7.85,7.85,0,0,0,1.5,0,3.21,3.21,0,0,1,2.15.49,2.34,2.34,0,0,1,.58,1.78,5.93,5.93,0,0,1-1.08,3.36,8.91,8.91,0,0,1-3,2.74,6.72,6.72,0,0,1-3.16,1.05v-2.52a10.27,10.27,0,0,0,1.91-.29,6.17,6.17,0,0,0,1.43-.59,3.67,3.67,0,0,0,1.19-1,2.1,2.1,0,0,0,.41-1.26.79.79,0,0,0-.18-.56,1,1,0,0,0-.54-.26,8.35,8.35,0,0,0-1.45,0,3.77,3.77,0,0,1-1.54-.18,1.7,1.7,0,0,1-.82-.71,2.67,2.67,0,0,1-.31-1.4,5.88,5.88,0,0,1,1-3.25A8,8,0,0,1,210.59,177.45Z"/><g class="cls-1"><polygon class="cls-9" points="181.63 105.72 181.53 143.83 127.85 112.83 127.95 74.73 181.63 105.72"/><polygon class="cls-10" points="127.95 74.73 127.85 112.83 74.52 143.83 74.62 105.72 127.95 74.73"/><path class="cls-14" d="M127.77,43.41l107.94,62.32L128.48,168,20.54,105.72Zm.53,93.31,53.33-31L128,74.73l-53.33,31,53.68,31"/><polygon class="cls-10" points="235.71 105.72 235.6 143.83 128.37 206.14 128.48 168.04 235.71 105.72"/><polygon class="cls-9" points="128.48 168.04 128.37 206.14 20.43 143.83 20.54 105.72 128.48 168.04"/></g><path class="cls-8" d="M150.72,169.55,147.93,184l-2.69,1.55-1.53-5.85c-.06-.21-.16-.65-.29-1.32s-.21-1.13-.23-1.38q0,.5-.23,1.65c-.12.77-.21,1.32-.28,1.66l-1.49,7.58-2.68,1.55-2.88-11.16,2.32-1.34,1.44,6.17c.25,1.15.44,2.16.55,3,0-.35.1-.91.21-1.67s.21-1.36.3-1.8l1.6-8.11,2.23-1.29,1.64,6.24c.08.28.17.71.27,1.31s.19,1.11.25,1.56c0-.48.13-1.1.24-1.85s.21-1.35.3-1.82l1.4-7.81Z"/><polygon class="cls-8" points="158.54 165.04 158.55 167.26 154.5 169.6 154.5 172.42 158.28 170.24 158.28 172.46 154.51 174.64 154.52 177.94 158.57 175.6 158.58 177.84 152.16 181.54 152.13 168.74 158.54 165.04"/><path class="cls-8" d="M168.68,166.31a2.42,2.42,0,0,1,.48,1.71,5.9,5.9,0,0,1-1.1,3.37,8.93,8.93,0,0,1-3,2.7l-4.17,2.41,0-12.8,3.47-2c1.58-.91,2.73-1.32,3.44-1.21s1.08.72,1.08,1.85a5.05,5.05,0,0,1-.47,2.16,4.22,4.22,0,0,1-1.24,1.6v.09C167.86,166,168.37,166,168.68,166.31Zm-2.44,4.43a2.79,2.79,0,0,0,.46-1.58c0-1.06-.67-1.21-2-.45l-1.46.84v3.34l1.54-.89a4.23,4.23,0,0,0,1.44-1.27m-3-6.19v2.85l1.37-.79a4.45,4.45,0,0,0,1.39-1.14,2.27,2.27,0,0,0,.42-1.38c0-.49-.16-.76-.47-.79a2.92,2.92,0,0,0-1.48.53l-1.25.72"/><path class="cls-8" d="M178.62,153.26a7.4,7.4,0,0,1,1.66-.72,9.12,9.12,0,0,1,1.65-.28l-.75,2.55a8.65,8.65,0,0,0-1.48.26,5.27,5.27,0,0,0-1.15.49,2.86,2.86,0,0,0-1,1,2.13,2.13,0,0,0-.35,1.15.82.82,0,0,0,.15.54.79.79,0,0,0,.46.26,9.43,9.43,0,0,0,1.5,0,3.17,3.17,0,0,1,2.15.48,2.36,2.36,0,0,1,.58,1.79,5.93,5.93,0,0,1-1.08,3.36,8.84,8.84,0,0,1-3,2.74,6.72,6.72,0,0,1-3.16,1.05v-2.52a9.17,9.17,0,0,0,1.91-.29,5.85,5.85,0,0,0,1.43-.58,3.74,3.74,0,0,0,1.19-1,2.12,2.12,0,0,0,.41-1.25.79.79,0,0,0-.19-.57,1,1,0,0,0-.54-.26,9.21,9.21,0,0,0-1.45,0,3.79,3.79,0,0,1-1.54-.17,1.7,1.7,0,0,1-.82-.71,2.69,2.69,0,0,1-.31-1.4,5.89,5.89,0,0,1,1-3.25A7.91,7.91,0,0,1,178.62,153.26Z"/><polygon class="cls-8" points="190.42 146.63 190.43 148.85 186.38 151.19 186.38 154.01 190.16 151.83 190.16 154.06 186.39 156.24 186.4 159.54 190.45 157.2 190.46 159.43 184.04 163.14 184.01 150.34 190.42 146.63"/><path class="cls-8" d="M211.79,134.29l-3.76,15-2.57,1.49-3.82-10.62,2.38-1.38,2.12,6.41c.12.38.24.83.36,1.36s.21.89.24,1.11c0-.57.24-1.61.56-3.15l2.09-8.84Z"/><path class="cls-8" d="M198.39,149.27c1.68,1.91,2.78,3.14,3.29,3.68l-2.62,1.52-2.67-3.37-1.26.73v4.91l-2.36,1.36,0-12.8,3.24-1.87c1.51-.87,2.64-1.21,3.37-1s1.09,1,1.09,2.26a5.6,5.6,0,0,1-.53,2.32A8.54,8.54,0,0,1,198.39,149.27Zm-.85-1.48a2.74,2.74,0,0,0,.53-1.65c0-.61-.19-.93-.55-1a3.13,3.13,0,0,0-1.69.58l-.72.41v3.46l.76-.44a5.22,5.22,0,0,0,1.65-1.39"/><polygon class="cls-8" points="219.61 129.78 219.61 132 215.56 134.34 215.57 137.16 219.34 134.98 219.35 137.21 215.57 139.38 215.58 142.69 219.64 140.35 219.64 142.58 213.23 146.29 213.19 133.49 219.61 129.78"/><path class="cls-8" d="M227.58,132.42c1.69,1.91,2.78,3.14,3.29,3.68l-2.62,1.51-2.68-3.37-1.26.73v4.91L222,141.24l0-12.8,3.25-1.88q2.27-1.31,3.36-1t1.1,2.25a5.63,5.63,0,0,1-.54,2.32A8.54,8.54,0,0,1,227.58,132.42Zm-.85-1.49a2.75,2.75,0,0,0,.53-1.65c0-.61-.18-.94-.55-1a3.15,3.15,0,0,0-1.69.59l-.72.41v3.46l.77-.44a5.22,5.22,0,0,0,1.65-1.39"/><g class="cls-1"><polygon class="cls-9" points="181.63 62.31 181.53 100.42 127.85 69.43 127.95 31.32 181.63 62.31"/><polygon class="cls-10" points="127.95 31.32 127.85 69.43 74.52 100.42 74.62 62.31 127.95 31.32"/><path class="cls-14" d="M127.77,0,235.71,62.32,128.48,124.63,20.54,62.32Zm.53,93.31,53.33-31L128,31.32l-53.33,31,53.68,31"/><polygon class="cls-10" points="235.71 62.32 235.6 100.42 128.37 162.74 128.48 124.63 235.71 62.32"/><polygon class="cls-9" points="128.48 124.63 128.37 162.74 20.43 100.42 20.54 62.31 128.48 124.63"/></g><polygon class="cls-8" points="136.09 138.28 136.12 146.44 139.61 144.42 139.61 146.15 134.3 149.22 134.27 139.33 136.09 138.28"/><path class="cls-8" d="M147.85,132.65c.7.47,1.05,1.52,1.06,3.17a8.94,8.94,0,0,1-1,4.39,7.84,7.84,0,0,1-3,3.08q-2,1.14-3,.43c-.7-.47-1.07-1.53-1.07-3.18a8.89,8.89,0,0,1,1.06-4.39,7.92,7.92,0,0,1,3-3.06C146.13,132.33,147.15,132.18,147.85,132.65Zm-3,8.87q2.18-1.26,2.17-4.6t-2.18-2.08a4,4,0,0,0-1.64,1.78,6.52,6.52,0,0,0-.55,2.82,3.12,3.12,0,0,0,.56,2.18c.37.35.92.31,1.64-.11"/><path class="cls-8" d="M154.86,127.4l3.08,8.17-2,1.14-.63-2-3.13,1.81-.62,2.72-2,1.14,3-11.69Zm-2.2,7.1,2.24-1.29q-.87-2.7-1-3.06c-.08-.23-.13-.43-.16-.57q-.19,1-1.1,4.93"/><path class="cls-8" d="M165,122.88c.78.4,1.17,1.37,1.18,2.9a8.4,8.4,0,0,1-1.2,4.44,9.53,9.53,0,0,1-3.49,3.32L159,134.94l0-9.89,2.7-1.56Q163.81,122.28,165,122.88Zm-3.35,8.82a5.11,5.11,0,0,0,2.63-4.77q0-3.19-2.46-1.78l-1,.56,0,6.44.79-.45"/><path class="cls-8" d="M177.1,120.11a1.86,1.86,0,0,1,.37,1.32,4.56,4.56,0,0,1-.85,2.61,6.88,6.88,0,0,1-2.31,2.09L171.09,128l0-9.89,2.68-1.54a5,5,0,0,1,2.66-.94c.55.09.83.56.83,1.43a3.82,3.82,0,0,1-.35,1.66,3.29,3.29,0,0,1-1,1.25V120C176.46,119.83,176.85,119.87,177.1,120.11Zm-1.89,3.43a2.13,2.13,0,0,0,.36-1.22q0-1.23-1.54-.35l-1.13.65v2.58l1.19-.69a3.23,3.23,0,0,0,1.11-1m-2.32-4.78V121l1.06-.61a3.43,3.43,0,0,0,1.07-.88,1.75,1.75,0,0,0,.33-1.06q0-.57-.37-.6a2.18,2.18,0,0,0-1.14.41l-1,.55"/><path class="cls-8" d="M183.35,110.95l3.07,8.18-2,1.14-.63-2-3.14,1.81-.62,2.72-2,1.14,3-11.69Zm-2.21,7.11,2.24-1.29q-.87-2.7-1-3.06c-.08-.23-.13-.43-.16-.57q-.19,1-1.1,4.93"/><polygon class="cls-8" points="189.31 107.55 189.33 115.71 192.82 113.7 192.83 115.43 187.51 118.5 187.48 108.61 189.31 107.55"/><path class="cls-8" d="M198.48,102.21l3.08,8.17-2,1.14-.63-2-3.14,1.81-.61,2.71-2,1.14,3-11.69Zm-2.21,7.11,2.25-1.3c-.59-1.8-.92-2.82-1-3.06s-.12-.43-.16-.57q-.2,1-1.11,4.93"/><path class="cls-8" d="M210.26,95.46l0,9.89L208,106.69l-3.76-5.32-.06,0c.08,1.28.12,2.2.12,2.77v4.65l-1.63.94,0-9.89,2.3-1.33,3.76,5.25,0,0c-.06-1.25-.1-2.14-.1-2.68V96.41Z"/><path class="cls-8" d="M216.08,92a5.26,5.26,0,0,1,2.52-.76l-.59,2a6.8,6.8,0,0,0-1,.1,2.89,2.89,0,0,0-1,.35,3.91,3.91,0,0,0-1.59,1.82,6.57,6.57,0,0,0-.56,2.81c0,2.2.73,2.89,2.17,2.06a11.93,11.93,0,0,0,2.19-1.79v1.76a10.42,10.42,0,0,1-2.37,1.87q-1.88,1.08-2.88.35c-.67-.49-1-1.55-1-3.18a9.28,9.28,0,0,1,.48-3,8.4,8.4,0,0,1,1.4-2.59A7.53,7.53,0,0,1,216.08,92Z"/><polygon class="cls-8" points="225.06 86.91 225.07 88.63 221.94 90.43 221.95 92.61 224.86 90.92 224.86 92.64 221.95 94.32 221.96 96.88 225.09 95.07 225.09 96.8 220.14 99.66 220.11 89.77 225.06 86.91"/><path class="cls-8" d="M231.22,88.95c1.3,1.47,2.15,2.43,2.55,2.84l-2,1.17-2.07-2.61-1,.56v3.79l-1.83,1.05,0-9.89,2.51-1.45a3.76,3.76,0,0,1,2.59-.76c.56.17.85.75.85,1.74a4.38,4.38,0,0,1-.41,1.8A6.7,6.7,0,0,1,231.22,88.95Zm-.66-1.15a2.11,2.11,0,0,0,.41-1.28c0-.47-.14-.72-.42-.76a2.47,2.47,0,0,0-1.31.45l-.55.32V89.2l.59-.34a4,4,0,0,0,1.28-1.07"/><path class="cls-8" d="M226.95,351l0,12.8-2.2,1.27,0-6.06c0-.29,0-.62,0-1s0-1.39.09-3l-.07,0L222,366.72,219.79,368l-2.71-8.5-.06,0c.1,2,.15,3.32.15,4l0,6-2.11,1.22,0-12.8,3.21-1.85,2.66,8.26,0,0,2.78-11.41Z"/><polygon class="cls-8" points="238.09 344.58 234.41 354.54 234.43 359.52 232.09 360.87 232.07 355.97 228.35 350.2 230.91 348.72 233.24 352.66 235.55 346.05 238.09 344.58"/><path class="cls-8" d="M257.23,333.53,254.43,348l-2.69,1.55-1.53-5.86c-.06-.21-.16-.65-.29-1.32s-.21-1.13-.23-1.38q0,.5-.23,1.65c-.12.77-.21,1.32-.28,1.65l-1.48,7.58L245,353.4l-2.88-11.16,2.32-1.34,1.44,6.16c.25,1.15.44,2.16.55,3q0-.52.21-1.66t.3-1.81l1.61-8.11,2.23-1.29,1.65,6.23c.07.28.16.72.27,1.32s.19,1.11.25,1.55c0-.48.12-1.09.24-1.84s.21-1.35.3-1.82l1.4-7.8Z"/><polygon class="cls-8" points="261 331.35 261.03 344.16 258.67 345.52 258.64 332.72 261 331.35"/><path class="cls-8" d="M273.68,324l0,12.8-3,1.73-4.87-6.89-.07,0c.1,1.65.16,2.84.16,3.57l0,6-2.11,1.22,0-12.8,3-1.72,4.87,6.79.05,0c-.08-1.62-.12-2.77-.12-3.46l0-6.06Z"/><path class="cls-8" d="M284.23,319.59c1,.53,1.51,1.78,1.52,3.75a10.78,10.78,0,0,1-1.55,5.75,12.33,12.33,0,0,1-4.52,4.3l-3.15,1.82,0-12.8,3.5-2C281.81,319.34,283.22,319.07,284.23,319.59ZM279.89,331a6.6,6.6,0,0,0,3.4-6.18q0-4.13-3.18-2.29l-1.26.73,0,8.33,1-.58"/><path class="cls-8" d="M296.8,312.18q1.36.91,1.37,4.1a11.58,11.58,0,0,1-1.36,5.68,10.17,10.17,0,0,1-3.93,4c-1.7,1-3,1.17-3.94.56s-1.37-2-1.38-4.12a11.43,11.43,0,0,1,1.36-5.67,10.26,10.26,0,0,1,3.94-4Q295.44,311.26,296.8,312.18Zm-3.92,11.48q2.83-1.63,2.82-5.95T292.88,315a5.15,5.15,0,0,0-2.12,2.32A8.4,8.4,0,0,0,290,321a4,4,0,0,0,.72,2.82c.47.45,1.18.4,2.12-.14"/><path class="cls-8" d="M314.15,300.66l-2.8,14.44-2.69,1.55-1.53-5.86c-.06-.21-.16-.65-.29-1.32s-.21-1.13-.24-1.37c0,.33-.1.88-.22,1.65s-.21,1.32-.28,1.65L304.62,319l-2.68,1.55-2.88-11.16,2.32-1.34,1.44,6.16c.25,1.15.43,2.16.55,3q0-.52.21-1.66t.3-1.81l1.6-8.1,2.23-1.29,1.64,6.23q.11.42.27,1.32c.11.6.19,1.11.25,1.55,0-.48.13-1.1.24-1.85s.21-1.35.3-1.82l1.4-7.8Z"/><path class="cls-8" d="M318.77,297.81a7,7,0,0,1,1.65-.72,8.39,8.39,0,0,1,1.66-.29l-.76,2.55a8.64,8.64,0,0,0-1.48.26,5.28,5.28,0,0,0-1.14.5,2.91,2.91,0,0,0-1,.95,2.13,2.13,0,0,0-.36,1.15.89.89,0,0,0,.15.55.78.78,0,0,0,.46.25,8.8,8.8,0,0,0,1.5,0,3.11,3.11,0,0,1,2.14.49,2.3,2.3,0,0,1,.59,1.78,5.93,5.93,0,0,1-1.08,3.36,8.88,8.88,0,0,1-3,2.75,6.6,6.6,0,0,1-3.16,1v-2.52a10.21,10.21,0,0,0,1.9-.28,6.26,6.26,0,0,0,1.43-.59,3.72,3.72,0,0,0,1.19-1,2.12,2.12,0,0,0,.41-1.25.74.74,0,0,0-.19-.56.93.93,0,0,0-.54-.26,8,8,0,0,0-1.45,0,4,4,0,0,1-1.54-.18,1.7,1.7,0,0,1-.81-.71,2.67,2.67,0,0,1-.31-1.4,5.86,5.86,0,0,1,1-3.25A7.93,7.93,0,0,1,318.77,297.81Z"/></svg>