<svg id="Layer_1" data-name="Layer 1" xmlns="http://www.w3.org/2000/svg" viewBox="0 0 593.81 579.44"><defs><style>.cls-1{isolation:isolate;}.cls-2{fill:#5adcc3;}.cls-3{fill:#51c5ae;}.cls-4{fill:#388979;}.cls-5{fill:#0a7365;}.cls-6{fill:#0fa692;}.cls-7{fill:#10b9a3;}.cls-8{fill:#fff;}.cls-9{fill:#083f4d;}.cls-10{fill:#0c5a6e;}.cls-11{fill:#118d92;}.cls-12{fill:#0f7f82;}.cls-13{fill:#0b585b;}.cls-14{fill:#0d657b;}</style></defs><title>blocks-3</title><g class="cls-1"><polygon class="cls-2" points="593.81 272.22 132.31 546.4 0.09 470.11 461.59 195.93 593.81 272.22"/><polygon class="cls-3" points="593.81 272.22 593.71 305.27 132.22 579.45 132.31 546.4 593.81 272.22"/><polygon class="cls-4" points="132.31 546.4 132.22 579.45 0 503.15 0.09 470.11 132.31 546.4"/></g><g class="cls-1"><polygon class="cls-5" points="515.37 237.07 515.26 275.18 461.59 244.19 461.69 206.08 515.37 237.07"/><polygon class="cls-6" points="461.69 206.08 461.59 244.19 408.26 275.18 408.36 237.07 461.69 206.08"/><path class="cls-7" d="M461.52,174.76l107.94,62.32L462.22,299.39,354.28,237.07Zm.53,93.31,53.33-31-53.68-31-53.33,31,53.68,31"/><polygon class="cls-6" points="569.46 237.07 569.35 275.18 462.11 337.5 462.22 299.39 569.46 237.07"/><polygon class="cls-5" points="462.22 299.39 462.11 337.5 354.17 275.18 354.28 237.07 462.22 299.39"/></g><path class="cls-8" d="M501.52,290.81c.7.26,1.06,1.06,1.06,2.38a6.88,6.88,0,0,1-1.11,3.81,9.09,9.09,0,0,1-3.2,2.94l-1,.59v4.56l-2.36,1.36,0-12.8,3.56-2.06Q500.45,290.42,501.52,290.81Zm-1.86,5.61a3.1,3.1,0,0,0,.53-1.76c0-.63-.15-1-.46-1.15s-.77,0-1.42.36l-1.08.62v3.8l.78-.45a4.8,4.8,0,0,0,1.63-1.44"/><path class="cls-8" d="M510.09,284.8l4,10.58-2.54,1.47-.82-2.58-4.06,2.34-.8,3.51-2.54,1.47,3.9-15.12ZM507.24,294l2.9-1.68-1.28-4c-.1-.31-.16-.56-.2-.74q-.26,1.27-1.43,6.37"/><polygon class="cls-8" points="517.8 280.4 517.84 293.2 515.48 294.57 515.44 281.77 517.8 280.4"/><path class="cls-8" d="M530.49,273.08l0,12.8-3,1.73-4.87-6.89-.07,0c.1,1.65.16,2.84.16,3.58l0,6-2.11,1.22,0-12.8,3-1.72,4.87,6.79.05,0c-.08-1.62-.12-2.77-.12-3.46l0-6.06Z"/><polygon class="cls-8" points="540.62 267.23 540.63 269.49 537.6 271.23 537.63 281.78 535.27 283.14 535.24 272.6 532.22 274.35 532.21 272.08 540.62 267.23"/><g class="cls-1"><polygon class="cls-5" points="515.37 193.5 515.26 231.61 461.59 200.62 461.69 162.51 515.37 193.5"/><polygon class="cls-6" points="461.69 162.51 461.59 200.62 408.26 231.61 408.36 193.5 461.69 162.51"/><path class="cls-7" d="M461.52,131.19,569.46,193.5,462.22,255.82,354.28,193.5ZM462,224.5l53.33-31-53.68-31-53.33,31,53.68,31"/><polygon class="cls-6" points="569.46 193.5 569.35 231.61 462.11 293.93 462.22 255.82 569.46 193.5"/><polygon class="cls-5" points="462.22 255.82 462.11 293.93 354.17 231.61 354.28 193.5 462.22 255.82"/></g><path class="cls-8" d="M486.87,254.08l4,10.58-2.54,1.47-.82-2.58-4.06,2.34-.8,3.51-2.54,1.47,3.9-15.12ZM484,263.26l2.91-1.68-1.28-4c-.1-.31-.16-.56-.2-.74q-.26,1.27-1.43,6.37"/><path class="cls-8" d="M497,248.12a6.84,6.84,0,0,1,3.27-1l-.75,2.65a10.46,10.46,0,0,0-1.26.12,3.85,3.85,0,0,0-1.25.47,5,5,0,0,0-2.06,2.34,8.43,8.43,0,0,0-.73,3.63q0,4.28,2.81,2.67a15.34,15.34,0,0,0,2.84-2.32V259a13.4,13.4,0,0,1-3.06,2.43c-1.62.93-2.86,1.09-3.72.45s-1.3-2-1.3-4.12a11.94,11.94,0,0,1,.62-3.86,11,11,0,0,1,1.81-3.35A9.76,9.76,0,0,1,497,248.12Z"/><path class="cls-8" d="M507.81,249.28q2.53,2.86,3.3,3.68l-2.62,1.52-2.68-3.38-1.26.73v4.92l-2.36,1.36,0-12.8,3.25-1.88q2.27-1.31,3.36-1c.73.22,1.1,1,1.1,2.26a5.57,5.57,0,0,1-.54,2.32A8.48,8.48,0,0,1,507.81,249.28Zm-.85-1.49a2.76,2.76,0,0,0,.53-1.66c0-.6-.18-.93-.55-1a3.13,3.13,0,0,0-1.69.58l-.72.42v3.46l.77-.44a5.22,5.22,0,0,0,1.65-1.39"/><path class="cls-8" d="M521.23,235.79c.91.61,1.37,2,1.37,4.1a11.58,11.58,0,0,1-1.36,5.68,10.17,10.17,0,0,1-3.93,4c-1.7,1-3,1.17-3.94.56s-1.37-2-1.38-4.11a11.46,11.46,0,0,1,1.36-5.68,10.26,10.26,0,0,1,3.94-4Q519.86,234.88,521.23,235.79Zm-3.92,11.49q2.83-1.64,2.82-6t-2.82-2.71a5.15,5.15,0,0,0-2.12,2.32,8.4,8.4,0,0,0-.71,3.65,4,4,0,0,0,.72,2.83c.47.45,1.18.4,2.12-.14"/><path class="cls-8" d="M532.7,234.79a2.42,2.42,0,0,1,.48,1.71,5.88,5.88,0,0,1-1.1,3.37,9,9,0,0,1-3,2.71L524.93,245l0-12.8,3.47-2c1.58-.91,2.73-1.32,3.44-1.21s1.07.72,1.07,1.85a5,5,0,0,1-.46,2.15,4.25,4.25,0,0,1-1.24,1.61v.09A1.45,1.45,0,0,1,532.7,234.79Zm-2.44,4.44a2.77,2.77,0,0,0,.46-1.58q0-1.6-2-.45l-1.46.84v3.33l1.54-.89a4.16,4.16,0,0,0,1.44-1.25m-3-6.19v2.85l1.37-.79A4.41,4.41,0,0,0,530,234a2.3,2.3,0,0,0,.43-1.38c0-.49-.16-.75-.48-.78a2.88,2.88,0,0,0-1.48.53l-1.24.72"/><path class="cls-8" d="M540.8,222.94l4,10.58L542.23,235l-.81-2.58-4.06,2.34-.8,3.51L534,239.74l3.9-15.12Zm-2.85,9.19,2.9-1.67c-.75-2.33-1.17-3.65-1.27-4s-.16-.56-.21-.74q-.25,1.27-1.42,6.37"/><polygon class="cls-8" points="553.47 215.67 553.48 217.93 550.45 219.68 550.48 230.22 548.12 231.59 548.09 221.04 545.06 222.79 545.05 220.53 553.47 215.67"/><g class="cls-1"><polygon class="cls-5" points="515.37 149.15 515.26 187.26 461.59 156.27 461.69 118.16 515.37 149.15"/><polygon class="cls-6" points="461.69 118.16 461.59 156.27 408.26 187.26 408.36 149.15 461.69 118.16"/><path class="cls-7" d="M461.52,86.84l107.94,62.32L462.22,211.47,354.28,149.15Zm.53,93.31,53.33-31-53.68-31-53.33,31,53.68,31"/><polygon class="cls-6" points="569.46 149.15 569.35 187.26 462.11 249.58 462.22 211.47 569.46 149.15"/><polygon class="cls-5" points="462.22 211.47 462.11 249.58 354.17 187.26 354.28 149.15 462.22 211.47"/></g><path class="cls-8" d="M488.68,210.72q1.36.92,1.37,4.1a11.58,11.58,0,0,1-1.36,5.68,10.17,10.17,0,0,1-3.93,4c-1.7,1-3,1.17-3.94.56s-1.37-2-1.38-4.11a11.46,11.46,0,0,1,1.36-5.68,10.26,10.26,0,0,1,3.94-4Q487.32,209.81,488.68,210.72Zm-3.92,11.49c1.89-1.09,2.82-3.07,2.82-6s-1-3.78-2.82-2.7a5.13,5.13,0,0,0-2.12,2.31,8.39,8.39,0,0,0-.71,3.65,4,4,0,0,0,.72,2.83c.47.45,1.18.41,2.12-.13"/><path class="cls-8" d="M501.42,201.87l0,8.28a7.57,7.57,0,0,1-.54,2.8,8.51,8.51,0,0,1-1.6,2.56,9.82,9.82,0,0,1-2.46,2q-2.15,1.24-3.34.67c-.79-.39-1.19-1.32-1.2-2.78l0-8.25,2.36-1.36,0,7.84c0,1,.18,1.62.52,1.87s.91.17,1.71-.29a4.21,4.21,0,0,0,1.68-1.67,5.36,5.36,0,0,0,.51-2.48l0-7.82Z"/><polygon class="cls-8" points="511.47 196.07 511.47 198.33 508.45 200.07 508.48 210.62 506.12 211.98 506.09 201.44 503.06 203.19 503.06 200.93 511.47 196.07"/><polygon class="cls-8" points="515.55 193.72 515.58 204.28 520.1 201.67 520.1 203.91 513.22 207.88 513.18 195.08 515.55 193.72"/><path class="cls-8" d="M530.76,186.43q1.36.92,1.37,4.1a11.58,11.58,0,0,1-1.36,5.68,10.18,10.18,0,0,1-3.93,4c-1.7,1-3,1.17-3.94.56s-1.38-2-1.39-4.11a11.48,11.48,0,0,1,1.37-5.68,10.22,10.22,0,0,1,3.93-4Q529.4,185.52,530.76,186.43Zm-3.92,11.49q2.83-1.63,2.82-6t-2.83-2.7a5.16,5.16,0,0,0-2.12,2.31,8.47,8.47,0,0,0-.71,3.65,4,4,0,0,0,.72,2.83c.47.45,1.18.4,2.12-.14"/><path class="cls-8" d="M543.18,179.26q1.36.92,1.37,4.1a11.52,11.52,0,0,1-1.36,5.68,10.16,10.16,0,0,1-3.92,4c-1.71,1-3,1.17-3.94.56s-1.38-2-1.39-4.11a11.52,11.52,0,0,1,1.36-5.68,10.26,10.26,0,0,1,3.94-4Q541.81,178.35,543.18,179.26Zm-3.91,11.48q2.83-1.63,2.81-6t-2.82-2.7a5.16,5.16,0,0,0-2.12,2.31,8.39,8.39,0,0,0-.71,3.65,4,4,0,0,0,.72,2.83c.47.45,1.18.41,2.12-.14"/><polygon class="cls-8" points="555.78 170.49 551.9 178.4 555.84 183.27 553.16 184.82 550.22 181.12 549.23 182.51 549.24 187.08 546.88 188.45 546.84 175.65 549.21 174.28 549.22 180.14 550.15 178.09 553.15 172 555.78 170.49"/><g class="cls-1"><polygon class="cls-5" points="515.37 105.89 515.26 143.99 461.59 113 461.69 74.9 515.37 105.89"/><polygon class="cls-6" points="461.69 74.9 461.59 113 408.26 143.99 408.36 105.89 461.69 74.9"/><path class="cls-7" d="M461.52,43.57l107.94,62.32L462.22,168.21,354.28,105.89Zm.53,93.31,53.33-31-53.68-31-53.33,31,53.68,31"/><polygon class="cls-6" points="569.46 105.89 569.35 143.99 462.11 206.31 462.22 168.21 569.46 105.89"/><polygon class="cls-5" points="462.22 168.21 462.11 206.31 354.17 143.99 354.28 105.89 462.22 168.21"/></g><polygon class="cls-8" points="489.44 165.16 489.44 167.41 486.42 169.16 486.45 179.71 484.09 181.07 484.06 170.53 481.03 172.27 481.02 170.01 489.44 165.16"/><path class="cls-8" d="M499.91,160.61q1.36.91,1.37,4.1a11.56,11.56,0,0,1-1.35,5.68,10.2,10.2,0,0,1-3.93,4c-1.71,1-3,1.17-3.94.56s-1.38-2-1.39-4.11a11.5,11.5,0,0,1,1.36-5.68,10.28,10.28,0,0,1,3.94-4C497.69,160.19,499,160,499.91,160.61ZM496,172.08q2.83-1.63,2.82-5.95t-2.83-2.7a5.18,5.18,0,0,0-2.12,2.32,8.39,8.39,0,0,0-.71,3.65,4,4,0,0,0,.72,2.82c.47.45,1.18.4,2.12-.14"/><path class="cls-8" d="M509.22,161q2.53,2.86,3.29,3.68l-2.62,1.51-2.68-3.38-1.26.73v4.92l-2.36,1.36,0-12.8,3.25-1.88q2.27-1.31,3.36-1c.73.22,1.1,1,1.1,2.26a5.65,5.65,0,0,1-.54,2.32A8.79,8.79,0,0,1,509.22,161Zm-.85-1.49a2.76,2.76,0,0,0,.53-1.66c0-.61-.18-.93-.55-1a3.17,3.17,0,0,0-1.69.6l-.72.41v3.46l.77-.44a5.24,5.24,0,0,0,1.65-1.38"/><path class="cls-8" d="M519.52,155q2.52,2.87,3.29,3.68l-2.62,1.52-2.67-3.38-1.26.73v4.92l-2.36,1.36,0-12.8,3.24-1.87q2.27-1.31,3.37-1c.72.22,1.09,1,1.09,2.26a5.63,5.63,0,0,1-.53,2.32A8.79,8.79,0,0,1,519.52,155Zm-.85-1.48a2.74,2.74,0,0,0,.53-1.66c0-.61-.19-.93-.55-1a3.14,3.14,0,0,0-1.69.59l-.72.41v3.46l.76-.44a5.21,5.21,0,0,0,1.65-1.38"/><polygon class="cls-8" points="530.6 141.39 530.61 143.61 526.55 145.95 526.56 148.76 530.33 146.59 530.33 148.81 526.57 150.99 526.58 154.29 530.63 151.95 530.64 154.19 524.22 157.9 524.18 145.09 530.6 141.39"/><path class="cls-8" d="M542.81,134.34l0,12.8-3,1.74L535,142l-.06,0c.1,1.65.15,2.85.15,3.58l0,6L533,152.85l0-12.8,3-1.72,4.87,6.79.06,0c-.08-1.62-.12-2.77-.12-3.46l0-6.06Z"/><polygon class="cls-8" points="552.93 128.49 552.94 130.75 549.91 132.5 549.94 143.04 547.58 144.41 547.55 133.86 544.52 135.61 544.52 133.35 552.93 128.49"/><g class="cls-1"><polygon class="cls-5" points="515.78 62.32 515.67 100.42 461.99 69.43 462.1 31.33 515.78 62.32"/><polygon class="cls-6" points="462.1 31.33 461.99 69.43 408.66 100.42 408.77 62.32 462.1 31.33"/><path class="cls-7" d="M461.92,0,569.86,62.32,462.62,124.64,354.69,62.32Zm.53,93.31,53.33-31-53.68-31-53.33,31,53.68,31"/><polygon class="cls-6" points="569.86 62.32 569.75 100.42 462.52 162.74 462.62 124.64 569.86 62.32"/><polygon class="cls-5" points="462.62 124.64 462.52 162.74 354.58 100.42 354.69 62.32 462.62 124.64"/></g><polygon class="cls-8" points="495.4 118.58 495.41 120.8 491.35 123.14 491.36 125.95 495.13 123.78 495.13 126 491.37 128.17 491.38 131.47 495.43 129.13 495.44 131.38 489.02 135.08 488.99 122.28 495.4 118.58"/><path class="cls-8" d="M502.46,114.32a6.86,6.86,0,0,1,3.27-1L505,116a8.72,8.72,0,0,0-1.26.13,3.78,3.78,0,0,0-1.24.47,5.08,5.08,0,0,0-2.07,2.35,8.5,8.5,0,0,0-.72,3.63q0,4.28,2.81,2.67a15.39,15.39,0,0,0,2.84-2.32v2.27a13.4,13.4,0,0,1-3.06,2.43q-2.43,1.4-3.72.45t-1.3-4.12a11.91,11.91,0,0,1,.62-3.86,10.89,10.89,0,0,1,1.81-3.35A9.76,9.76,0,0,1,502.46,114.32Z"/><polygon class="cls-8" points="510.03 110.13 510.06 120.69 514.58 118.08 514.59 120.32 507.7 124.3 507.67 111.5 510.03 110.13"/><polygon class="cls-8" points="518.85 105.04 518.88 117.84 516.52 119.21 516.48 106.4 518.85 105.04"/><path class="cls-8" d="M528.3,100.58c.7.27,1.06,1.06,1.06,2.39a6.89,6.89,0,0,1-1.11,3.81,9.14,9.14,0,0,1-3.2,2.94l-1,.59v4.56l-2.36,1.36,0-12.8,3.56-2.06C526.56,100.58,527.59,100.32,528.3,100.58Zm-1.86,5.61a3.1,3.1,0,0,0,.53-1.76c0-.64-.15-1-.46-1.15s-.77,0-1.42.36l-1.08.62v3.8l.78-.45a4.88,4.88,0,0,0,1.63-1.44"/><path class="cls-8" d="M534.67,95.72a7.08,7.08,0,0,1,1.66-.72,8.52,8.52,0,0,1,1.65-.28l-.75,2.54a8.64,8.64,0,0,0-1.48.26,5.3,5.3,0,0,0-1.15.5,2.86,2.86,0,0,0-1,1,2.11,2.11,0,0,0-.35,1.14.89.89,0,0,0,.15.55.78.78,0,0,0,.46.25,7.85,7.85,0,0,0,1.5,0,3.16,3.16,0,0,1,2.15.49,2.33,2.33,0,0,1,.58,1.78,5.93,5.93,0,0,1-1.08,3.36,8.91,8.91,0,0,1-3,2.74,6.72,6.72,0,0,1-3.16,1.05v-2.52a10.26,10.26,0,0,0,1.91-.29,6.21,6.21,0,0,0,1.43-.59,3.72,3.72,0,0,0,1.19-1,2.14,2.14,0,0,0,.41-1.26.77.77,0,0,0-.19-.56.93.93,0,0,0-.54-.26,8.35,8.35,0,0,0-1.45,0,3.9,3.9,0,0,1-1.54-.18,1.7,1.7,0,0,1-.82-.71,2.67,2.67,0,0,1-.31-1.4,5.92,5.92,0,0,1,1-3.25A8,8,0,0,1,534.67,95.72Z"/><polygon class="cls-8" points="546.47 89.09 546.47 91.32 542.42 93.66 542.42 96.47 546.2 94.29 546.21 96.51 542.43 98.69 542.44 101.99 546.5 99.65 546.5 101.89 540.09 105.6 540.05 92.8 546.47 89.09"/><g class="cls-1"><polygon class="cls-5" points="404.6 301 404.49 339.11 350.81 308.12 350.92 270.01 404.6 301"/><polygon class="cls-6" points="350.92 270.01 350.81 308.12 297.48 339.11 297.59 301 350.92 270.01"/><path class="cls-7" d="M350.75,238.69,458.68,301,351.45,363.32,243.51,301Zm.53,93.31,53.33-31-53.68-31-53.33,31,53.68,31"/><polygon class="cls-6" points="458.68 301 458.58 339.11 351.34 401.43 351.45 363.32 458.68 301"/><polygon class="cls-5" points="351.45 363.32 351.34 401.43 243.4 339.11 243.51 301 351.45 363.32"/></g><path class="cls-8" d="M378.31,360.29a6.84,6.84,0,0,1,3.27-1l-.75,2.65a9.16,9.16,0,0,0-1.26.13,3.83,3.83,0,0,0-1.25.46,5.07,5.07,0,0,0-2.06,2.34,8.49,8.49,0,0,0-.73,3.64q0,4.28,2.81,2.66a15,15,0,0,0,2.84-2.32v2.28a13.57,13.57,0,0,1-3.06,2.42c-1.62.93-2.86,1.09-3.72.45s-1.3-2-1.3-4.12a12,12,0,0,1,.62-3.86,11,11,0,0,1,1.81-3.35A9.88,9.88,0,0,1,378.31,360.29Z"/><polygon class="cls-8" points="392.65 352.19 392.68 364.99 390.33 366.35 390.32 360.82 385.9 363.38 385.91 368.9 383.55 370.26 383.52 357.46 385.88 356.1 385.89 361.12 390.31 358.56 390.3 353.55 392.65 352.19"/><path class="cls-8" d="M401.11,354.54c1.68,1.91,2.78,3.14,3.29,3.68l-2.62,1.52-2.67-3.37-1.26.73V362l-2.36,1.36,0-12.8,3.24-1.87c1.51-.87,2.64-1.2,3.37-1s1.09,1,1.09,2.26a5.6,5.6,0,0,1-.53,2.32A8.54,8.54,0,0,1,401.11,354.54Zm-.85-1.48a2.76,2.76,0,0,0,.53-1.66c0-.61-.19-.93-.55-1a3.16,3.16,0,0,0-1.69.59l-.72.41v3.46l.76-.44a5.31,5.31,0,0,0,1.65-1.38"/><path class="cls-8" d="M414.52,341.06q1.36.92,1.37,4.1a11.61,11.61,0,0,1-1.35,5.68,10.19,10.19,0,0,1-3.93,4q-2.57,1.48-3.94.57c-.92-.62-1.38-2-1.39-4.12a11.49,11.49,0,0,1,1.36-5.67,10.28,10.28,0,0,1,3.94-4Q413.15,340.15,414.52,341.06Zm-3.91,11.48q2.83-1.63,2.81-6t-2.82-2.7a5.16,5.16,0,0,0-2.12,2.31,8.41,8.41,0,0,0-.71,3.65,4,4,0,0,0,.72,2.83c.47.45,1.18.41,2.12-.14"/><path class="cls-8" d="M430.1,330.57l0,12.8-2.2,1.27,0-6.06c0-.29,0-.62,0-1s0-1.4.1-3l-.07,0-2.84,11.68-2.16,1.25-2.71-8.5-.07,0q.15,3,.16,4l0,6-2.11,1.22,0-12.8,3.22-1.86,2.66,8.27,0,0,2.77-11.41Z"/><polygon class="cls-8" points="439.32 325.24 439.32 327.47 435.27 329.81 435.28 332.62 439.05 330.44 439.06 332.67 435.28 334.85 435.29 338.15 439.35 335.81 439.35 338.05 432.94 341.75 432.9 328.95 439.32 325.24"/><g class="cls-1"><polygon class="cls-5" points="404.6 257.4 404.49 295.51 350.81 264.52 350.92 226.41 404.6 257.4"/><polygon class="cls-6" points="350.92 226.41 350.81 264.52 297.48 295.51 297.59 257.4 350.92 226.41"/><path class="cls-7" d="M350.75,195.09,458.68,257.4,351.45,319.72,243.51,257.4Zm.53,93.31,53.33-31-53.68-31-53.33,31,53.68,31"/><polygon class="cls-6" points="458.68 257.4 458.58 295.51 351.34 357.83 351.45 319.72 458.68 257.4"/><polygon class="cls-5" points="351.45 319.72 351.34 357.83 243.4 295.51 243.51 257.4 351.45 319.72"/></g><polygon class="cls-8" points="376.04 318.54 376.05 320.76 371.99 323.11 372 326.41 375.78 324.23 375.78 326.44 372 328.62 372.02 333.69 369.69 335.03 369.66 322.22 376.04 318.54"/><polygon class="cls-8" points="380.58 315.92 380.62 328.72 378.26 330.08 378.22 317.28 380.58 315.92"/><path class="cls-8" d="M389,318.28q2.53,2.86,3.29,3.68l-2.62,1.51L387,320.1l-1.26.73v4.92l-2.36,1.36,0-12.8,3.25-1.88q2.27-1.31,3.36-1t1.1,2.25a5.57,5.57,0,0,1-.54,2.32A8.47,8.47,0,0,1,389,318.28Zm-.85-1.49a2.76,2.76,0,0,0,.53-1.66c0-.6-.18-.93-.55-1a3.13,3.13,0,0,0-1.69.58l-.72.42v3.46l.77-.44a5.22,5.22,0,0,0,1.65-1.39"/><polygon class="cls-8" points="400.11 304.64 400.11 306.87 396.06 309.21 396.07 312.02 399.84 309.84 399.85 312.06 396.07 314.24 396.08 317.54 400.14 315.2 400.14 317.45 393.73 321.15 393.69 308.35 400.11 304.64"/><path class="cls-8" d="M422.94,291.41l4,10.58-2.54,1.47-.82-2.58-4.06,2.34-.8,3.51-2.54,1.47,3.9-15.12Zm-2.85,9.19,2.9-1.68-1.28-4c-.09-.32-.16-.56-.2-.74-.17.85-.64,3-1.43,6.37"/><path class="cls-8" d="M416.12,295.4l-2.8,14.44-2.69,1.56-1.53-5.86c-.06-.2-.16-.65-.29-1.32s-.21-1.13-.23-1.38q0,.5-.23,1.65c-.12.77-.21,1.32-.28,1.66l-1.48,7.57-2.68,1.55L401,304.11l2.32-1.34,1.44,6.16c.25,1.15.43,2.17.55,3,0-.35.09-.91.2-1.67s.21-1.37.31-1.8l1.6-8.11,2.23-1.29,1.64,6.24c.07.27.16.71.27,1.31s.19,1.12.25,1.56c0-.48.13-1.1.24-1.85s.21-1.35.3-1.83l1.4-7.8Z"/><polygon class="cls-8" points="430.65 287.01 430.68 297.57 435.2 294.96 435.21 297.2 428.32 301.18 428.29 288.37 430.65 287.01"/><polygon class="cls-8" points="439.47 281.92 439.5 292.48 444.02 289.87 444.02 292.11 437.14 296.08 437.11 283.28 439.47 281.92"/><g class="cls-1"><polygon class="cls-5" points="404.6 213.36 404.49 251.46 350.81 220.47 350.92 182.36 404.6 213.36"/><polygon class="cls-6" points="350.92 182.36 350.81 220.47 297.48 251.46 297.59 213.36 350.92 182.36"/><path class="cls-7" d="M350.75,151l107.94,62.32L351.45,275.67,243.51,213.36Zm.53,93.31,53.33-31-53.68-31-53.33,31,53.68,31"/><polygon class="cls-6" points="458.68 213.36 458.58 251.46 351.34 313.78 351.45 275.68 458.68 213.36"/><polygon class="cls-5" points="351.45 275.68 351.34 313.78 243.4 251.46 243.51 213.36 351.45 275.68"/></g><path class="cls-8" d="M390.65,265.42l-2.8,14.44-2.69,1.56-1.53-5.86c-.06-.2-.16-.65-.29-1.32s-.21-1.13-.23-1.38q0,.5-.23,1.65c-.12.77-.21,1.32-.28,1.66l-1.48,7.57-2.68,1.55-2.88-11.16,2.32-1.34,1.45,6.16c.25,1.15.43,2.16.55,3q0-.52.21-1.66c.11-.76.21-1.36.31-1.81l1.6-8.1,2.23-1.29,1.65,6.23c.07.28.16.72.27,1.32s.19,1.11.25,1.55c0-.48.12-1.09.24-1.84s.21-1.35.3-1.83l1.4-7.8Z"/><polygon class="cls-8" points="394.41 263.25 394.45 276.05 392.09 277.42 392.05 264.61 394.41 263.25"/><path class="cls-8" d="M407.11,255.92l0,12.8-3,1.74-4.87-6.89-.07,0c.11,1.65.16,2.84.16,3.58l0,6-2.11,1.22,0-12.8,3-1.72,4.87,6.79.05,0c-.07-1.62-.12-2.78-.12-3.47l0-6.06Z"/><polygon class="cls-8" points="421.08 247.85 421.09 249.6 415.77 261.49 421.25 258.33 421.26 260.57 412.97 265.36 412.97 263.6 418.28 251.71 413.08 254.71 413.08 252.47 421.08 247.85"/><polygon class="cls-8" points="425.36 245.38 425.4 258.18 423.03 259.55 423 246.75 425.36 245.38"/><path class="cls-8" d="M434.81,240.92c.7.27,1.06,1.06,1.06,2.39a6.89,6.89,0,0,1-1.11,3.81,9.14,9.14,0,0,1-3.2,2.94l-1,.58v4.56l-2.36,1.36,0-12.8,3.56-2.05Q433.76,240.53,434.81,240.92ZM433,246.54a3.11,3.11,0,0,0,.54-1.76q0-1-.46-1.14c-.3-.13-.77,0-1.42.36l-1.07.62v3.8l.77-.45a4.88,4.88,0,0,0,1.63-1.44"/><g class="cls-1"><polygon class="cls-5" points="404.6 169.79 404.49 207.89 350.81 176.9 350.92 138.79 404.6 169.79"/><polygon class="cls-6" points="350.92 138.79 350.81 176.9 297.48 207.89 297.59 169.79 350.92 138.79"/><path class="cls-7" d="M350.75,107.47l107.94,62.32L351.45,232.11,243.51,169.79Zm.53,93.31,53.33-31-53.68-31-53.33,31,53.68,31"/><polygon class="cls-6" points="458.68 169.79 458.58 207.89 351.34 270.21 351.45 232.1 458.68 169.79"/><polygon class="cls-5" points="351.45 232.1 351.34 270.21 243.4 207.89 243.51 169.79 351.45 232.1"/></g><polygon class="cls-8" points="390.88 222.36 390.89 224.58 386.83 226.93 386.84 229.74 390.61 227.56 390.62 229.78 386.85 231.96 386.86 235.26 390.91 232.92 390.92 235.16 384.5 238.87 384.46 226.07 390.88 222.36"/><polygon class="cls-8" points="401.94 215.97 398.46 224.34 402.25 228.62 399.55 230.18 396.94 226.83 394.36 233.17 391.84 234.63 395.51 225.9 392.04 221.69 394.64 220.19 397.05 223.41 399.4 217.44 401.94 215.97"/><path class="cls-8" d="M408.34,212.1a6.84,6.84,0,0,1,3.27-1l-.75,2.64a8.72,8.72,0,0,0-1.26.13,3.82,3.82,0,0,0-1.25.47,5,5,0,0,0-2.06,2.34,8.51,8.51,0,0,0-.73,3.63q0,4.28,2.81,2.67a15.44,15.44,0,0,0,2.85-2.32V223a13.47,13.47,0,0,1-3.06,2.43q-2.43,1.4-3.73.45t-1.3-4.12a11.91,11.91,0,0,1,.62-3.86,11,11,0,0,1,1.81-3.35A9.76,9.76,0,0,1,408.34,212.1Z"/><polygon class="cls-8" points="419.98 205.56 419.98 207.78 415.93 210.13 415.94 212.94 419.71 210.76 419.71 212.98 415.94 215.16 415.95 218.46 420 216.12 420.01 218.37 413.59 222.07 413.56 209.27 419.98 205.56"/><polygon class="cls-8" points="424.66 202.86 424.69 213.41 429.21 210.8 429.22 213.05 422.33 217.02 422.3 204.22 424.66 202.86"/><g class="cls-1"><polygon class="cls-5" points="405.01 126.22 404.9 164.32 351.22 133.33 351.33 95.23 405.01 126.22"/><polygon class="cls-6" points="351.33 95.23 351.22 133.33 297.89 164.32 298 126.22 351.33 95.23"/><path class="cls-7" d="M351.15,63.9l107.94,62.32L351.85,188.54,243.92,126.22Zm.53,93.31,53.33-31-53.68-31-53.33,31,53.68,31"/><polygon class="cls-6" points="459.09 126.22 458.98 164.32 351.75 226.64 351.85 188.54 459.09 126.22"/><polygon class="cls-5" points="351.85 188.54 351.75 226.64 243.81 164.32 243.91 126.22 351.85 188.54"/></g><path class="cls-8" d="M377,186.4a7,7,0,0,1,1.65-.72,8.39,8.39,0,0,1,1.66-.29l-.76,2.55a8.65,8.65,0,0,0-1.48.26,5.19,5.19,0,0,0-1.14.5,2.86,2.86,0,0,0-1,1,2.07,2.07,0,0,0-.35,1.14.9.9,0,0,0,.14.55.78.78,0,0,0,.46.25,8.81,8.81,0,0,0,1.5,0,3.11,3.11,0,0,1,2.14.49,2.3,2.3,0,0,1,.59,1.78,6,6,0,0,1-1.08,3.36,8.91,8.91,0,0,1-3,2.74,6.72,6.72,0,0,1-3.16,1.05v-2.52a10,10,0,0,0,1.91-.29,6.16,6.16,0,0,0,1.42-.59,3.61,3.61,0,0,0,1.19-1,2.12,2.12,0,0,0,.41-1.25.78.78,0,0,0-.18-.56,1,1,0,0,0-.54-.25,8,8,0,0,0-1.45,0,4.08,4.08,0,0,1-1.54-.18,1.7,1.7,0,0,1-.81-.71,2.67,2.67,0,0,1-.31-1.4,5.86,5.86,0,0,1,1-3.25A7.93,7.93,0,0,1,377,186.4Z"/><path class="cls-8" d="M391.48,178.24l0,8.28a7.48,7.48,0,0,1-.55,2.81,8.65,8.65,0,0,1-1.59,2.56,9.86,9.86,0,0,1-2.47,2q-2.15,1.24-3.34.66t-1.2-2.77l0-8.25,2.36-1.36,0,7.84c0,1,.18,1.61.52,1.87s.92.16,1.72-.3a4.13,4.13,0,0,0,1.68-1.67,5.25,5.25,0,0,0,.52-2.48l0-7.82Z"/><path class="cls-8" d="M402,179.28a2.41,2.41,0,0,1,.48,1.71,5.88,5.88,0,0,1-1.1,3.37,9,9,0,0,1-3,2.71l-4.17,2.41,0-12.8,3.47-2c1.58-.91,2.73-1.32,3.44-1.22s1.08.72,1.08,1.85a5,5,0,0,1-.47,2.16,4.16,4.16,0,0,1-1.24,1.6v.09C401.2,178.91,401.71,179,402,179.28Zm-2.44,4.43a2.81,2.81,0,0,0,.46-1.58q0-1.6-2-.45l-1.46.84v3.34l1.54-.89a4.22,4.22,0,0,0,1.44-1.26m-3-6.19v2.85l1.37-.79a4.46,4.46,0,0,0,1.39-1.15,2.25,2.25,0,0,0,.42-1.38c0-.49-.16-.75-.47-.79a3,3,0,0,0-1.48.54l-1.25.72"/><polygon class="cls-8" points="407.05 169.25 407.08 179.81 411.6 177.2 411.61 179.44 404.73 183.42 404.69 170.61 407.05 169.25"/><polygon class="cls-8" points="415.87 164.16 415.9 176.96 413.54 178.32 413.51 165.52 415.87 164.16"/><path class="cls-8" d="M430.58,155.66l0,12.8-2.2,1.27,0-6.06c0-.29,0-.62,0-1s0-1.39.09-3l-.07,0-2.84,11.69-2.16,1.25-2.71-8.5-.06,0c.1,2,.15,3.32.15,4l0,6-2.11,1.22,0-12.8,3.21-1.85,2.66,8.26,0,0,2.77-11.4Z"/><polygon class="cls-8" points="439.8 150.34 439.81 152.56 435.76 154.9 435.76 157.71 439.54 155.53 439.54 157.76 435.77 159.94 435.78 163.24 439.83 160.9 439.84 163.14 433.42 166.85 433.39 154.04 439.8 150.34"/><g class="cls-1"><polygon class="cls-5" points="293.76 365.96 293.65 404.07 239.97 373.08 240.08 334.97 293.76 365.96"/><polygon class="cls-6" points="240.08 334.97 239.97 373.08 186.64 404.07 186.75 365.96 240.08 334.97"/><path class="cls-7" d="M239.9,303.65,347.84,366,240.6,428.28,132.67,366Zm.53,93.31,53.33-31-53.68-31-53.33,31,53.68,31"/><polygon class="cls-6" points="347.84 365.96 347.73 404.07 240.5 466.39 240.6 428.28 347.84 365.96"/><polygon class="cls-5" points="240.6 428.28 240.5 466.39 132.56 404.07 132.67 365.96 240.6 428.28"/></g><path class="cls-8" d="M278.82,420.37q1.36.92,1.37,4.1a11.58,11.58,0,0,1-1.36,5.68,10.12,10.12,0,0,1-3.93,4c-1.7,1-3,1.18-3.94.56s-1.38-2-1.39-4.11a11.45,11.45,0,0,1,1.37-5.68,10.21,10.21,0,0,1,3.94-4Q277.45,419.46,278.82,420.37Zm-3.92,11.49q2.83-1.63,2.82-6t-2.82-2.7a5.13,5.13,0,0,0-2.12,2.31,8.42,8.42,0,0,0-.71,3.65,4,4,0,0,0,.72,2.83c.47.45,1.18.4,2.12-.14"/><polygon class="cls-8" points="288.87 413.07 288.88 415.29 284.81 417.64 284.82 420.94 288.6 418.76 288.61 420.97 284.83 423.16 284.85 428.22 282.52 429.56 282.49 416.76 288.87 413.07"/><polygon class="cls-8" points="297.43 408.13 297.44 410.35 293.38 412.69 293.39 416 297.17 413.81 297.17 416.03 293.39 418.21 293.41 423.27 291.08 424.62 291.05 411.81 297.43 408.13"/><polygon class="cls-8" points="301.98 405.5 302.01 418.31 299.65 419.67 299.62 406.87 301.98 405.5"/><path class="cls-8" d="M309.51,401a6.84,6.84,0,0,1,3.27-1l-.75,2.65a9.17,9.17,0,0,0-1.26.13,3.8,3.8,0,0,0-1.25.46,5.07,5.07,0,0,0-2.06,2.34,8.49,8.49,0,0,0-.73,3.64q0,4.28,2.81,2.66a15,15,0,0,0,2.84-2.32v2.28a13.55,13.55,0,0,1-3.06,2.42q-2.43,1.4-3.73.45c-.86-.64-1.3-2-1.3-4.12a12,12,0,0,1,.62-3.86,11.07,11.07,0,0,1,1.81-3.35A9.88,9.88,0,0,1,309.51,401Z"/><polygon class="cls-8" points="321.14 394.44 321.15 396.66 317.1 399 317.1 401.82 320.87 399.64 320.88 401.87 317.11 404.04 317.12 407.34 321.17 405 321.18 407.24 314.76 410.94 314.73 398.14 321.14 394.44"/><g class="cls-1"><polygon class="cls-5" points="293.76 322.32 293.65 360.43 239.97 329.44 240.08 291.33 293.76 322.32"/><polygon class="cls-6" points="240.08 291.33 239.97 329.44 186.64 360.43 186.75 322.32 240.08 291.33"/><path class="cls-7" d="M239.9,260l107.94,62.32L240.6,384.64,132.67,322.32Zm.53,93.31,53.33-31-53.68-31-53.33,31,53.68,31"/><polygon class="cls-6" points="347.84 322.32 347.73 360.43 240.5 422.75 240.6 384.64 347.84 322.32"/><polygon class="cls-5" points="240.6 384.64 240.5 422.75 132.56 360.43 132.67 322.32 240.6 384.64"/></g><path class="cls-8" d="M264.22,391.36a2.44,2.44,0,0,1,.47,1.71,5.86,5.86,0,0,1-1.09,3.36,8.9,8.9,0,0,1-3,2.71l-4.17,2.41,0-12.8,3.47-2c1.58-.91,2.73-1.32,3.44-1.21s1.08.72,1.08,1.85a5,5,0,0,1-.47,2.15,4.18,4.18,0,0,1-1.24,1.61v.09C263.39,391,263.9,391.05,264.22,391.36Zm-2.44,4.44a2.81,2.81,0,0,0,.46-1.58c0-1.06-.67-1.21-2-.45l-1.46.84V398l1.54-.89a4.23,4.23,0,0,0,1.44-1.27m-3-6.19v2.85l1.37-.79a4.45,4.45,0,0,0,1.39-1.14,2.27,2.27,0,0,0,.42-1.38c0-.49-.16-.76-.47-.79a2.9,2.9,0,0,0-1.48.53l-1.24.72"/><path class="cls-8" d="M270.1,380.66a7.36,7.36,0,0,1,1.66-.72,9.11,9.11,0,0,1,1.65-.28l-.75,2.55a8,8,0,0,0-1.48.26A5.27,5.27,0,0,0,270,383a2.88,2.88,0,0,0-1,1,2.13,2.13,0,0,0-.35,1.15.86.86,0,0,0,.15.54.74.74,0,0,0,.46.25,8.11,8.11,0,0,0,1.5,0,3.15,3.15,0,0,1,2.14.48,2.35,2.35,0,0,1,.59,1.78,6,6,0,0,1-1.08,3.36,8.89,8.89,0,0,1-3,2.75,6.72,6.72,0,0,1-3.16,1.05v-2.52a9.35,9.35,0,0,0,1.91-.29,5.9,5.9,0,0,0,1.43-.59,3.72,3.72,0,0,0,1.19-1,2.12,2.12,0,0,0,.41-1.26.78.78,0,0,0-.19-.56,1,1,0,0,0-.54-.26,8,8,0,0,0-1.45,0,3.79,3.79,0,0,1-1.54-.17,1.77,1.77,0,0,1-.82-.72,2.66,2.66,0,0,1-.31-1.39,5.89,5.89,0,0,1,1-3.25A7.93,7.93,0,0,1,270.1,380.66Z"/><path class="cls-8" d="M286.18,372.57c.7.26,1.06,1.06,1.06,2.38a6.83,6.83,0,0,1-1.11,3.81,9.06,9.06,0,0,1-3.19,2.94l-1,.59v4.56l-2.36,1.36,0-12.8,3.56-2.05Q285.12,372.17,286.18,372.57Zm-1.86,5.61a3.07,3.07,0,0,0,.54-1.76c0-.63-.16-1-.46-1.15s-.78,0-1.43.37l-1.07.62v3.8l.78-.45a4.77,4.77,0,0,0,1.63-1.43"/><polygon class="cls-8" points="291.7 368.37 291.73 378.94 296.25 376.33 296.26 378.57 289.38 382.54 289.34 369.74 291.7 368.37"/><g class="cls-1"><polygon class="cls-8" points="317.26 353.62 313.58 363.57 313.6 368.55 311.25 369.91 311.24 365.01 307.52 359.24 310.08 357.76 312.4 361.7 314.72 355.08 317.26 353.62"/><path class="cls-8" d="M303.58,361.47l4,10.58L305,373.51l-.81-2.58-4.07,2.35-.8,3.51-2.55,1.47,3.9-15.12Zm-2.85,9.19,2.9-1.67q-1.13-3.49-1.27-4c-.1-.31-.17-.55-.21-.74q-.25,1.27-1.42,6.37"/></g><polygon class="cls-8" points="325.08 349.1 325.09 351.32 321.03 353.67 321.04 356.48 324.81 354.3 324.82 356.53 321.05 358.7 321.06 362.01 325.11 359.67 325.12 361.9 318.7 365.61 318.66 352.81 325.08 349.1"/><path class="cls-8" d="M333,351.74c1.68,1.91,2.78,3.14,3.29,3.68l-2.62,1.52L331,353.56l-1.26.73v4.91l-2.36,1.36,0-12.8,3.24-1.87c1.51-.87,2.64-1.21,3.37-1s1.09,1,1.09,2.26a5.6,5.6,0,0,1-.53,2.32A8.66,8.66,0,0,1,333,351.74Zm-.85-1.48a2.74,2.74,0,0,0,.53-1.66c0-.6-.19-.93-.55-1a3.13,3.13,0,0,0-1.69.58l-.72.41v3.46l.76-.44a5.22,5.22,0,0,0,1.65-1.39"/><g class="cls-1"><polygon class="cls-5" points="293.76 278.35 293.65 316.45 239.97 285.46 240.08 247.36 293.76 278.35"/><polygon class="cls-6" points="240.08 247.36 239.97 285.46 186.64 316.45 186.75 278.35 240.08 247.36"/><path class="cls-7" d="M239.9,216l107.94,62.32L240.6,340.67,132.67,278.35Zm.53,93.31,53.33-31-53.68-31-53.33,31,53.68,31"/><polygon class="cls-6" points="347.84 278.35 347.73 316.45 240.5 378.77 240.6 340.67 347.84 278.35"/><polygon class="cls-5" points="240.6 340.67 240.5 378.77 132.56 316.45 132.67 278.35 240.6 340.67"/></g><path class="cls-8" d="M283.78,328.4l-3.75,15-2.58,1.49-3.82-10.62,2.39-1.38,2.12,6.41c.12.39.24.84.37,1.37s.2.9.23,1.11c.06-.57.24-1.63.57-3.16l2.09-8.83Z"/><path class="cls-8" d="M293,330.2a2.44,2.44,0,0,1,.47,1.71,5.86,5.86,0,0,1-1.09,3.36,8.88,8.88,0,0,1-3,2.71l-4.16,2.4,0-12.8,3.47-2c1.58-.91,2.73-1.32,3.44-1.21s1.08.72,1.08,1.85a5,5,0,0,1-.46,2.15,4.25,4.25,0,0,1-1.24,1.61v.09A1.45,1.45,0,0,1,293,330.2Zm-2.44,4.44a2.77,2.77,0,0,0,.46-1.58q0-1.6-2-.45l-1.46.84v3.33l1.54-.89a4.19,4.19,0,0,0,1.44-1.25m-3-6.19v2.85l1.37-.79a4.43,4.43,0,0,0,1.39-1.14,2.28,2.28,0,0,0,.43-1.38c0-.49-.16-.75-.48-.78a2.9,2.9,0,0,0-1.48.53l-1.24.72"/><path class="cls-8" d="M304.42,318q1.36.92,1.37,4.1a11.58,11.58,0,0,1-1.36,5.68,10.18,10.18,0,0,1-3.93,4c-1.7,1-3,1.17-3.94.56s-1.38-2-1.39-4.11a11.48,11.48,0,0,1,1.37-5.68,10.22,10.22,0,0,1,3.93-4Q303.06,317.07,304.42,318Zm-3.92,11.49c1.88-1.09,2.82-3.08,2.82-6s-1-3.78-2.83-2.7a5.16,5.16,0,0,0-2.12,2.31,8.47,8.47,0,0,0-.71,3.65,4,4,0,0,0,.72,2.83c.47.45,1.18.4,2.12-.14"/><polygon class="cls-8" points="316.82 309.32 313.35 317.68 317.13 321.97 314.43 323.52 311.83 320.18 309.25 326.52 306.72 327.98 310.4 319.24 306.92 315.04 309.53 313.53 311.94 316.75 314.28 310.79 316.82 309.32"/><g class="cls-1"><polygon class="cls-5" points="293.76 234.47 293.65 272.58 239.97 241.59 240.08 203.48 293.76 234.47"/><polygon class="cls-6" points="240.08 203.48 239.97 241.59 186.64 272.58 186.75 234.47 240.08 203.48"/><path class="cls-7" d="M239.9,172.16l107.94,62.32L240.6,296.79,132.67,234.48Zm.53,93.31,53.33-31-53.68-31-53.33,31,53.68,31"/><polygon class="cls-6" points="347.84 234.47 347.73 272.58 240.5 334.9 240.6 296.79 347.84 234.47"/><polygon class="cls-5" points="240.6 296.79 240.5 334.9 132.56 272.58 132.67 234.48 240.6 296.79"/></g><polygon class="cls-8" points="271.35 292.27 271.36 294.5 267.3 296.85 267.31 300.14 271.09 297.96 271.09 300.17 267.31 302.36 267.33 307.42 265 308.76 264.97 295.96 271.35 292.27"/><polygon class="cls-8" points="275.89 289.65 275.93 302.45 273.57 303.82 273.53 291.01 275.89 289.65"/><path class="cls-8" d="M284.34,292c1.69,1.91,2.78,3.14,3.3,3.68L285,297.21l-2.67-3.37-1.26.73v4.91l-2.36,1.36,0-12.8,3.24-1.87c1.51-.87,2.64-1.2,3.36-1s1.1,1,1.1,2.25a5.54,5.54,0,0,1-.54,2.32A8.36,8.36,0,0,1,284.34,292Zm-.85-1.49a2.72,2.72,0,0,0,.53-1.65c0-.61-.19-.93-.55-1a3.16,3.16,0,0,0-1.69.59l-.72.41v3.46l.76-.44a5.13,5.13,0,0,0,1.65-1.39"/><polygon class="cls-8" points="295.42 278.38 295.42 280.61 291.37 282.95 291.38 285.76 295.15 283.58 295.16 285.8 291.38 287.98 291.39 291.28 295.45 288.94 295.45 291.18 289.04 294.88 289 282.08 295.42 278.38"/><polygon class="cls-8" points="304.13 273.35 304.14 275.58 300.07 277.92 300.08 281.22 303.86 279.04 303.87 281.25 300.09 283.43 300.1 288.5 297.78 289.84 297.74 277.04 304.13 273.35"/><path class="cls-8" d="M315.07,268.53q1.36.92,1.37,4.1a11.58,11.58,0,0,1-1.36,5.68,10.12,10.12,0,0,1-3.93,4c-1.7,1-3,1.18-3.94.56s-1.38-2-1.39-4.11a11.45,11.45,0,0,1,1.37-5.68,10.19,10.19,0,0,1,3.94-4Q313.7,267.62,315.07,268.53ZM311.15,280q2.83-1.63,2.82-6t-2.82-2.7a5.13,5.13,0,0,0-2.12,2.31,8.45,8.45,0,0,0-.71,3.65,4,4,0,0,0,.72,2.83c.47.45,1.18.4,2.12-.14"/><polygon class="cls-8" points="327.47 259.87 323.99 268.24 327.77 272.52 325.08 274.07 322.47 270.73 319.89 277.07 317.37 278.53 321.04 269.79 317.56 265.59 320.17 264.08 322.58 267.31 324.93 261.34 327.47 259.87"/><g class="cls-1"><polygon class="cls-5" points="294.16 191.21 294.06 229.31 240.38 198.32 240.48 160.22 294.16 191.21"/><polygon class="cls-6" points="240.48 160.22 240.38 198.32 187.05 229.31 187.15 191.21 240.48 160.22"/><path class="cls-7" d="M240.31,128.89l107.94,62.32L241,253.53,133.07,191.21Zm.53,93.31,53.33-31-53.68-31-53.33,31,53.68,31"/><polygon class="cls-6" points="348.25 191.21 348.14 229.31 240.9 291.63 241.01 253.53 348.25 191.21"/><polygon class="cls-5" points="241.01 253.53 240.9 291.63 132.96 229.31 133.07 191.21 241.01 253.53"/></g><path class="cls-8" d="M276.73,245.3a7.34,7.34,0,0,1,1.65-.72,9.19,9.19,0,0,1,1.66-.29l-.76,2.56a8,8,0,0,0-1.48.26,4.91,4.91,0,0,0-1.14.49,2.91,2.91,0,0,0-1,1,2.11,2.11,0,0,0-.35,1.15.86.86,0,0,0,.15.54.74.74,0,0,0,.46.25,8.11,8.11,0,0,0,1.5,0,3.12,3.12,0,0,1,2.14.48,2.32,2.32,0,0,1,.59,1.78,6,6,0,0,1-1.08,3.36,8.86,8.86,0,0,1-3,2.74,6.75,6.75,0,0,1-3.16,1.05v-2.52a9.35,9.35,0,0,0,1.91-.29,6,6,0,0,0,1.43-.59,3.7,3.7,0,0,0,1.19-1,2.12,2.12,0,0,0,.41-1.26.75.75,0,0,0-.19-.56,1,1,0,0,0-.54-.26,8,8,0,0,0-1.45,0,3.64,3.64,0,0,1-1.54-.18,1.71,1.71,0,0,1-.82-.71,2.77,2.77,0,0,1-.3-1.4,5.88,5.88,0,0,1,1-3.25A7.93,7.93,0,0,1,276.73,245.3Z"/><polygon class="cls-8" points="291.04 237.22 287.16 245.13 291.1 250.01 288.42 251.56 285.49 247.85 284.49 249.25 284.5 253.82 282.14 255.19 282.1 242.38 284.47 241.02 284.48 246.88 285.41 244.83 288.41 238.74 291.04 237.22"/><polygon class="cls-8" points="300.8 231.58 297.13 241.54 297.14 246.52 294.8 247.87 294.79 242.98 291.07 237.21 293.63 235.73 295.95 239.67 298.26 233.05 300.8 231.58"/><path class="cls-8" d="M308.85,227.94c.7.26,1.06,1.06,1.06,2.38a6.83,6.83,0,0,1-1.11,3.81,9.06,9.06,0,0,1-3.19,2.94l-1,.59v4.56l-2.36,1.36,0-12.8,3.56-2.05Q307.8,227.55,308.85,227.94ZM307,233.55a3.07,3.07,0,0,0,.54-1.76c0-.63-.16-1-.46-1.15s-.78,0-1.43.37l-1.07.62v3.8l.78-.45a4.79,4.79,0,0,0,1.63-1.43"/><polygon class="cls-8" points="318.43 221.41 318.43 223.63 314.38 225.97 314.39 228.78 318.16 226.6 318.17 228.83 314.39 231.01 314.4 234.31 318.45 231.97 318.46 234.21 312.05 237.92 312.01 225.12 318.43 221.41"/><g class="cls-1"><polygon class="cls-9" points="181.69 387 181.58 425.1 127.9 394.11 128.01 356 181.69 387"/><polygon class="cls-10" points="128.01 356 127.9 394.11 74.57 425.1 74.68 387 128.01 356"/><path class="cls-11" d="M127.83,324.68,235.76,387,128.53,449.32,20.6,387Zm.53,93.31,53.33-31L128,356,74.68,387l53.68,31"/><polygon class="cls-12" points="235.76 387 235.66 468.07 128.43 530.38 128.53 449.31 235.76 387"/><polygon class="cls-13" points="128.53 449.31 128.43 530.38 20.49 468.06 20.6 387 128.53 449.31"/></g><path class="cls-8" d="M164,459.06l-3.75,15-2.58,1.49-3.82-10.62,2.39-1.38,2.12,6.41c.12.39.24.84.37,1.37s.2.9.23,1.11c.06-.58.24-1.63.57-3.16l2.09-8.83Z"/><polygon class="cls-8" points="167.78 456.89 167.81 469.69 165.45 471.06 165.41 458.25 167.78 456.89"/><path class="cls-8" d="M186.6,469.08q1.36.92,1.37,4.1a11.58,11.58,0,0,1-1.36,5.68,10.12,10.12,0,0,1-3.93,4c-1.7,1-3,1.18-3.94.56s-1.38-2-1.39-4.11a11.45,11.45,0,0,1,1.37-5.68,10.19,10.19,0,0,1,3.94-4Q185.23,468.17,186.6,469.08Zm-3.92,11.49q2.83-1.63,2.82-6t-2.82-2.7a5.13,5.13,0,0,0-2.12,2.31,8.4,8.4,0,0,0-.71,3.65,4,4,0,0,0,.72,2.83c.47.45,1.18.4,2.12-.14"/><path class="cls-8" d="M176.23,459.25q2.52,2.87,3.29,3.68l-2.62,1.52-2.67-3.38-1.26.73v4.92l-2.36,1.36,0-12.8,3.24-1.87q2.27-1.31,3.37-1c.72.22,1.09,1,1.09,2.26a5.57,5.57,0,0,1-.54,2.32A8.52,8.52,0,0,1,176.23,459.25Zm-.85-1.48a2.74,2.74,0,0,0,.53-1.66c0-.6-.19-.93-.55-1a3.13,3.13,0,0,0-1.69.58l-.72.41v3.46l.76-.44a5.22,5.22,0,0,0,1.65-1.39"/><polygon class="cls-8" points="188.21 445.09 188.21 447.35 185.19 449.1 185.22 459.64 182.86 461 182.83 450.46 179.81 452.21 179.8 449.95 188.21 445.09"/><path class="cls-8" d="M199,438.87l0,8.28a7.57,7.57,0,0,1-.54,2.8,8.56,8.56,0,0,1-1.59,2.56,9.86,9.86,0,0,1-2.47,2c-1.43.83-2.55,1-3.34.66s-1.19-1.31-1.2-2.78l0-8.25,2.36-1.36,0,7.84c0,1,.18,1.61.52,1.87s.92.16,1.72-.3a4.17,4.17,0,0,0,1.68-1.66,5.37,5.37,0,0,0,.52-2.49l0-7.82Z"/><path class="cls-8" d="M207.14,434.11l4,10.57-2.55,1.47-.82-2.58-4.06,2.34-.8,3.51-2.55,1.47,3.9-15.12Zm-2.85,9.19,2.9-1.68q-1.13-3.49-1.27-4c-.1-.31-.17-.56-.21-.74q-.25,1.27-1.43,6.37"/><polygon class="cls-8" points="214.85 429.71 214.88 440.27 219.4 437.66 219.41 439.9 212.52 443.88 212.49 431.07 214.85 429.71"/><path class="cls-8" d="M193.48,463.42a7.4,7.4,0,0,1,1.66-.72,9.12,9.12,0,0,1,1.65-.28L196,465a8.64,8.64,0,0,0-1.48.26,5.27,5.27,0,0,0-1.15.49,2.88,2.88,0,0,0-1,1,2.13,2.13,0,0,0-.35,1.15.86.86,0,0,0,.15.54.79.79,0,0,0,.46.26,9.2,9.2,0,0,0,1.5,0,3.15,3.15,0,0,1,2.14.48,2.35,2.35,0,0,1,.59,1.78,6,6,0,0,1-1.08,3.36,8.89,8.89,0,0,1-3,2.75,6.72,6.72,0,0,1-3.16,1.05v-2.52a9.35,9.35,0,0,0,1.91-.29,5.89,5.89,0,0,0,1.43-.58,3.74,3.74,0,0,0,1.19-1,2.12,2.12,0,0,0,.41-1.25.79.79,0,0,0-.19-.57,1,1,0,0,0-.54-.26,8.72,8.72,0,0,0-1.45,0,3.79,3.79,0,0,1-1.54-.17,1.75,1.75,0,0,1-.82-.71,2.69,2.69,0,0,1-.31-1.4,5.89,5.89,0,0,1,1-3.25A7.93,7.93,0,0,1,193.48,463.42Z"/><g class="cls-1"><polygon class="cls-9" points="181.63 342.74 181.53 380.84 127.85 349.85 127.95 311.75 181.63 342.74"/><polygon class="cls-10" points="127.95 311.75 127.85 349.85 74.52 380.84 74.62 342.74 127.95 311.75"/><path class="cls-14" d="M127.77,280.42l107.94,62.32L128.48,405.06,20.54,342.74Zm.53,93.31,53.33-31-53.68-31-53.33,31,53.68,31"/><polygon class="cls-10" points="235.71 342.74 235.6 380.85 128.37 443.16 128.48 405.06 235.71 342.74"/><polygon class="cls-9" points="128.48 405.06 128.37 443.16 20.43 380.84 20.54 342.74 128.48 405.06"/></g><path class="cls-8" d="M142.64,411.67a7.4,7.4,0,0,1,1.66-.72,9.11,9.11,0,0,1,1.65-.28l-.75,2.55a8,8,0,0,0-1.48.26,4.93,4.93,0,0,0-1.15.49,2.88,2.88,0,0,0-1,1,2.11,2.11,0,0,0-.35,1.15.86.86,0,0,0,.15.54.74.74,0,0,0,.46.25,8.29,8.29,0,0,0,1.5,0,3.14,3.14,0,0,1,2.15.48,2.35,2.35,0,0,1,.59,1.78,6,6,0,0,1-1.08,3.36,8.89,8.89,0,0,1-3,2.75,6.72,6.72,0,0,1-3.16,1.05v-2.52a9.35,9.35,0,0,0,1.91-.29,5.91,5.91,0,0,0,1.43-.59,3.72,3.72,0,0,0,1.19-1,2.12,2.12,0,0,0,.41-1.26.78.78,0,0,0-.19-.56,1,1,0,0,0-.54-.26,8,8,0,0,0-1.45,0,3.64,3.64,0,0,1-1.54-.18,1.71,1.71,0,0,1-.82-.71,2.66,2.66,0,0,1-.31-1.4,5.92,5.92,0,0,1,1-3.25A8,8,0,0,1,142.64,411.67Z"/><path class="cls-8" d="M157.47,413.48a10.13,10.13,0,0,1-2,3.42l2.69,1.89-3,1.75L153,418.85l-.17.1c-1.7,1-3,1.17-3.94.56s-1.38-2-1.39-4.11a11.48,11.48,0,0,1,1.37-5.68,10.22,10.22,0,0,1,3.93-4q2.58-1.49,3.94-.58t1.37,4.1A12.29,12.29,0,0,1,157.47,413.48Zm-4.61,3.2c1.88-1.09,2.82-3.08,2.82-6s-1-3.78-2.83-2.7a5.16,5.16,0,0,0-2.12,2.31A8.47,8.47,0,0,0,150,414a4,4,0,0,0,.72,2.83c.47.45,1.18.4,2.12-.14"/><polygon class="cls-8" points="162.8 400.21 162.83 410.77 167.35 408.16 167.36 410.4 160.47 414.38 160.44 401.58 162.8 400.21"/><path class="cls-8" d="M176.53,392.1a7.4,7.4,0,0,1,1.66-.72,9.11,9.11,0,0,1,1.65-.28l-.75,2.55a8,8,0,0,0-1.48.26,4.93,4.93,0,0,0-1.15.49,2.86,2.86,0,0,0-1,1,2.11,2.11,0,0,0-.35,1.15.82.82,0,0,0,.15.54.74.74,0,0,0,.46.25,8.29,8.29,0,0,0,1.5,0,3.17,3.17,0,0,1,2.15.48,2.36,2.36,0,0,1,.58,1.78,5.93,5.93,0,0,1-1.08,3.36,8.84,8.84,0,0,1-3,2.74,6.72,6.72,0,0,1-3.16,1.05v-2.52a9.17,9.17,0,0,0,1.91-.29,5.87,5.87,0,0,0,1.43-.59,3.72,3.72,0,0,0,1.19-1,2.12,2.12,0,0,0,.41-1.26.78.78,0,0,0-.19-.56,1,1,0,0,0-.54-.26,8.35,8.35,0,0,0-1.45,0,3.64,3.64,0,0,1-1.54-.18,1.67,1.67,0,0,1-.82-.71,2.66,2.66,0,0,1-.31-1.4,5.92,5.92,0,0,1,1-3.25A8,8,0,0,1,176.53,392.1Z"/><polygon class="cls-8" points="188.33 385.47 188.33 387.7 184.28 390.04 184.29 392.85 188.06 390.67 188.07 392.89 184.29 395.07 184.3 398.37 188.36 396.03 188.36 398.28 181.95 401.98 181.91 389.18 188.33 385.47"/><path class="cls-8" d="M209.69,373.14l-3.75,15-2.57,1.49L199.55,379l2.38-1.38,2.12,6.4c.12.39.24.84.36,1.37s.21.89.24,1.11c.06-.57.24-1.62.56-3.15l2.09-8.84Z"/><path class="cls-8" d="M196.3,388.11q2.52,2.87,3.29,3.68L197,393.31l-2.67-3.38-1.26.73v4.92l-2.36,1.36,0-12.8,3.24-1.87c1.51-.87,2.64-1.21,3.37-1s1.09,1,1.09,2.26a5.63,5.63,0,0,1-.53,2.32A8.66,8.66,0,0,1,196.3,388.11Zm-.85-1.48A2.74,2.74,0,0,0,196,385c0-.6-.19-.93-.55-1a3.13,3.13,0,0,0-1.69.58L193,385v3.46l.76-.44a5.22,5.22,0,0,0,1.65-1.39"/><polygon class="cls-8" points="217.51 368.62 217.52 370.85 213.46 373.19 213.47 376 217.24 373.82 217.25 376.04 213.48 378.22 213.49 381.52 217.54 379.18 217.55 381.43 211.13 385.13 211.09 372.33 217.51 368.62"/><path class="cls-8" d="M225.48,371.26q2.53,2.86,3.29,3.68l-2.62,1.51-2.68-3.38-1.26.73v4.92l-2.36,1.36,0-12.8,3.25-1.88q2.27-1.31,3.36-1t1.1,2.25A5.65,5.65,0,0,1,227,369,8.66,8.66,0,0,1,225.48,371.26Zm-.85-1.49a2.76,2.76,0,0,0,.53-1.66c0-.6-.18-.93-.55-1a3.15,3.15,0,0,0-1.69.59l-.72.41v3.46l.77-.44a5.25,5.25,0,0,0,1.65-1.39"/><g class="cls-1"><polygon class="cls-9" points="181.63 299.63 181.53 337.74 127.85 306.75 127.95 268.64 181.63 299.63"/><polygon class="cls-10" points="127.95 268.64 127.85 306.75 74.52 337.74 74.62 299.63 127.95 268.64"/><path class="cls-14" d="M127.77,237.32l107.94,62.32L128.48,362,20.54,299.63Zm.53,93.31,53.33-31-53.68-31-53.33,31,53.68,31"/><polygon class="cls-10" points="235.71 299.64 235.6 337.74 128.37 400.06 128.48 361.95 235.71 299.64"/><polygon class="cls-9" points="128.48 361.95 128.37 400.06 20.43 337.74 20.54 299.63 128.48 361.95"/></g><path class="cls-8" d="M150.73,363.47l-2.8,14.44-2.69,1.55-1.53-5.86c-.06-.21-.16-.65-.29-1.32s-.21-1.13-.24-1.37c0,.33-.1.88-.22,1.65s-.21,1.32-.28,1.66l-1.48,7.58-2.68,1.55-2.88-11.16,2.32-1.34,1.44,6.16c.25,1.15.43,2.16.55,3q0-.52.21-1.66c.11-.77.21-1.36.3-1.81l1.6-8.1,2.23-1.29,1.64,6.23q.11.42.27,1.32c.11.6.19,1.11.25,1.55,0-.48.13-1.1.24-1.84s.21-1.36.3-1.83l1.4-7.8Z"/><polygon class="cls-8" points="158.55 358.95 158.55 361.18 154.5 363.52 154.51 366.33 158.28 364.15 158.29 366.37 154.51 368.55 154.52 371.85 158.58 369.51 158.58 371.76 152.17 375.46 152.13 362.66 158.55 358.95"/><path class="cls-8" d="M168.68,360.23a2.4,2.4,0,0,1,.48,1.71,5.88,5.88,0,0,1-1.1,3.37,9,9,0,0,1-3,2.71l-4.17,2.41,0-12.8,3.47-2q2.37-1.37,3.44-1.22t1.08,1.85a5,5,0,0,1-.47,2.16,4.16,4.16,0,0,1-1.24,1.6v.09C167.86,359.86,168.37,359.91,168.68,360.23Zm-2.44,4.43a2.79,2.79,0,0,0,.46-1.58c0-1.06-.66-1.22-2-.46l-1.46.84v3.34l1.54-.89a4.22,4.22,0,0,0,1.44-1.26m-3-6.19v2.85l1.37-.79a4.46,4.46,0,0,0,1.39-1.15,2.25,2.25,0,0,0,.42-1.38c0-.49-.16-.76-.47-.79a3,3,0,0,0-1.49.54l-1.24.72"/><path class="cls-8" d="M178.63,347.18a7.08,7.08,0,0,1,1.66-.72,9.11,9.11,0,0,1,1.65-.29l-.75,2.55a8.64,8.64,0,0,0-1.48.26,5.3,5.3,0,0,0-1.15.5,2.91,2.91,0,0,0-1,.95,2.11,2.11,0,0,0-.35,1.15.86.86,0,0,0,.14.54.8.8,0,0,0,.47.25,8.57,8.57,0,0,0,1.5,0,3.12,3.12,0,0,1,2.15.49,2.33,2.33,0,0,1,.58,1.78,5.89,5.89,0,0,1-1.08,3.36,8.85,8.85,0,0,1-3,2.75,6.7,6.7,0,0,1-3.16,1V359.3a10.26,10.26,0,0,0,1.91-.29,6.17,6.17,0,0,0,1.43-.59,3.68,3.68,0,0,0,1.19-1,2.08,2.08,0,0,0,.41-1.25.78.78,0,0,0-.18-.56.93.93,0,0,0-.54-.26,8.9,8.9,0,0,0-1.45,0,3.79,3.79,0,0,1-1.54-.17,1.7,1.7,0,0,1-.82-.71,2.67,2.67,0,0,1-.31-1.4,5.86,5.86,0,0,1,1-3.25A8,8,0,0,1,178.63,347.18Z"/><polygon class="cls-8" points="190.43 340.55 190.43 342.77 186.38 345.11 186.38 347.92 190.15 345.75 190.16 347.97 186.39 350.15 186.4 353.45 190.45 351.11 190.46 353.35 184.04 357.06 184.01 344.25 190.43 340.55"/><path class="cls-8" d="M211.79,328.21l-3.75,15-2.57,1.49-3.82-10.62,2.38-1.38,2.12,6.4c.12.38.24.84.36,1.36s.21.9.24,1.11c0-.57.24-1.61.56-3.15l2.09-8.84Z"/><path class="cls-8" d="M198.39,343.18c1.68,1.92,2.78,3.14,3.29,3.69l-2.62,1.52L196.39,345l-1.26.73v4.92L192.78,352l0-12.8,3.24-1.87c1.51-.87,2.64-1.21,3.36-1s1.1,1,1.1,2.25a5.54,5.54,0,0,1-.54,2.32A8.41,8.41,0,0,1,198.39,343.18Zm-.85-1.48a2.74,2.74,0,0,0,.53-1.66c0-.61-.19-.93-.55-1a3.16,3.16,0,0,0-1.69.59l-.72.41v3.46l.76-.44a5.21,5.21,0,0,0,1.65-1.38"/><polygon class="cls-8" points="219.61 323.7 219.62 325.92 215.56 328.26 215.57 331.07 219.34 328.89 219.35 331.12 215.57 333.3 215.58 336.6 219.64 334.26 219.65 336.5 213.23 340.21 213.19 327.4 219.61 323.7"/><path class="cls-8" d="M227.58,326.33c1.69,1.91,2.78,3.14,3.29,3.69l-2.62,1.51-2.68-3.38-1.26.73v4.92L222,335.16l0-12.8,3.25-1.88q2.27-1.31,3.36-1c.73.21,1.1,1,1.1,2.25a5.63,5.63,0,0,1-.54,2.32A8.54,8.54,0,0,1,227.58,326.33Zm-.85-1.48a2.74,2.74,0,0,0,.53-1.66c0-.61-.19-.93-.55-1a3.17,3.17,0,0,0-1.69.6l-.72.41v3.46l.76-.44a5.19,5.19,0,0,0,1.65-1.38"/><g class="cls-1"><polygon class="cls-9" points="181.63 256.67 181.53 294.77 127.85 263.78 127.95 225.68 181.63 256.67"/><polygon class="cls-10" points="127.95 225.68 127.85 263.78 74.52 294.78 74.62 256.67 127.95 225.68"/><path class="cls-14" d="M127.77,194.36l107.94,62.32L128.48,319,20.54,256.67Zm.53,93.31,53.33-31-53.68-31-53.33,31,53.68,31"/><polygon class="cls-10" points="235.71 256.67 235.6 294.78 128.37 357.09 128.48 318.99 235.71 256.67"/><polygon class="cls-9" points="128.48 318.99 128.37 357.09 20.43 294.78 20.54 256.67 128.48 318.99"/></g><path class="cls-8" d="M154.51,319.89c.7.26,1.06,1.06,1.06,2.38a6.88,6.88,0,0,1-1.11,3.81,9.09,9.09,0,0,1-3.2,2.94l-1,.59v4.56l-2.36,1.36,0-12.8,3.56-2.06Q153.45,319.5,154.51,319.89Zm-1.86,5.61a3.1,3.1,0,0,0,.53-1.75c0-.63-.15-1-.46-1.15s-.77,0-1.42.36l-1.08.62v3.8l.78-.45a4.8,4.8,0,0,0,1.63-1.44"/><path class="cls-8" d="M163.31,321q2.53,2.86,3.29,3.68L164,326.24l-2.68-3.38-1.26.73v4.92l-2.36,1.36,0-12.8,3.25-1.88q2.27-1.31,3.36-1t1.1,2.25a5.57,5.57,0,0,1-.54,2.32A8.47,8.47,0,0,1,163.31,321Zm-.85-1.49a2.76,2.76,0,0,0,.53-1.66c0-.6-.18-.93-.55-1a3.15,3.15,0,0,0-1.69.59l-.72.41v3.46l.77-.44a5.22,5.22,0,0,0,1.65-1.39"/><path class="cls-8" d="M176.73,307.56q1.36.91,1.37,4.1a11.58,11.58,0,0,1-1.36,5.68,10.18,10.18,0,0,1-3.93,4c-1.7,1-3,1.17-3.94.56s-1.38-2-1.39-4.11a11.48,11.48,0,0,1,1.37-5.68,10.22,10.22,0,0,1,3.94-4Q175.36,306.65,176.73,307.56ZM172.81,319c1.88-1.09,2.82-3.08,2.82-6s-1-3.79-2.82-2.71a5.15,5.15,0,0,0-2.12,2.32,8.4,8.4,0,0,0-.71,3.65,4,4,0,0,0,.72,2.83c.47.45,1.18.4,2.12-.14"/><polygon class="cls-8" points="186.78 300.26 186.78 302.48 182.72 304.82 182.73 308.13 186.51 305.94 186.52 308.16 182.74 310.34 182.75 315.4 180.43 316.75 180.39 303.94 186.78 300.26"/><polygon class="cls-8" points="191.32 297.63 191.35 310.44 188.99 311.8 188.96 299 191.32 297.63"/><polygon class="cls-8" points="196.48 294.65 196.51 305.21 201.03 302.6 201.04 304.85 194.16 308.82 194.12 296.02 196.48 294.65"/><polygon class="cls-8" points="209.35 287.22 209.36 289.44 205.31 291.79 205.31 294.6 209.09 292.42 209.09 294.64 205.32 296.82 205.33 300.12 209.38 297.78 209.39 300.02 202.97 303.73 202.94 290.93 209.35 287.22"/><path class="cls-8" d="M217.32,289.86q2.53,2.86,3.29,3.68L218,295.05l-2.68-3.38-1.26.73v4.92l-2.36,1.36,0-12.8,3.25-1.88q2.27-1.31,3.36-1t1.1,2.25a5.57,5.57,0,0,1-.54,2.32A8.47,8.47,0,0,1,217.32,289.86Zm-.85-1.49a2.76,2.76,0,0,0,.53-1.66c0-.6-.18-.93-.55-1a3.13,3.13,0,0,0-1.69.58l-.72.42v3.46l.77-.44a5.22,5.22,0,0,0,1.65-1.39"/><g class="cls-1"><polygon class="cls-9" points="181.63 213.26 181.53 251.37 127.85 220.38 127.95 182.27 181.63 213.26"/><polygon class="cls-10" points="127.95 182.27 127.85 220.38 74.52 251.37 74.62 213.26 127.95 182.27"/><path class="cls-14" d="M127.77,150.95l107.94,62.32L128.48,275.58,20.54,213.26Zm.53,93.31,53.33-31-53.68-31-53.33,31,53.68,31"/><polygon class="cls-10" points="235.71 213.27 235.6 251.37 128.37 313.69 128.48 275.58 235.71 213.27"/><polygon class="cls-9" points="128.48 275.58 128.37 313.69 20.43 251.37 20.54 213.26 128.48 275.58"/></g><path class="cls-8" d="M144.43,280.68l4,10.57-2.55,1.47-.82-2.58L141,292.49l-.8,3.51-2.55,1.47,3.9-15.12Zm-2.85,9.19,2.9-1.68q-1.13-3.49-1.27-4c-.1-.31-.17-.56-.21-.74q-.25,1.27-1.43,6.37"/><path class="cls-8" d="M156.42,274.81c.71.26,1.06,1.05,1.07,2.37a6.88,6.88,0,0,1-1.11,3.81,9.11,9.11,0,0,1-3.2,2.94l-1,.59v4.56l-2.36,1.36,0-12.8,3.56-2.06Q155.36,274.42,156.42,274.81Zm-1.86,5.61a3.07,3.07,0,0,0,.54-1.76c0-.63-.16-1-.46-1.15s-.77,0-1.42.36l-1.08.62v3.8l.78-.45a4.75,4.75,0,0,0,1.63-1.43"/><path class="cls-8" d="M166.22,269.16c.71.26,1.06,1.05,1.07,2.37a6.88,6.88,0,0,1-1.11,3.81,9.11,9.11,0,0,1-3.2,2.94l-1,.59v4.56l-2.36,1.36,0-12.8,3.56-2.06Q165.16,268.76,166.22,269.16Zm-1.86,5.61a3.07,3.07,0,0,0,.54-1.76c0-.63-.16-1-.46-1.15s-.77,0-1.42.36l-1.08.62v3.8l.78-.45a4.75,4.75,0,0,0,1.63-1.43"/><path class="cls-8" d="M176.65,261.94a7.29,7.29,0,0,1,1.65-.72,9,9,0,0,1,1.66-.29l-.76,2.56a8.15,8.15,0,0,0-1.47.26,5.27,5.27,0,0,0-1.15.49,2.86,2.86,0,0,0-1,1,2.09,2.09,0,0,0-.35,1.15.88.88,0,0,0,.14.54.76.76,0,0,0,.47.24,8.29,8.29,0,0,0,1.5,0,3.12,3.12,0,0,1,2.14.48,2.32,2.32,0,0,1,.59,1.78A5.93,5.93,0,0,1,179,272.8a8.84,8.84,0,0,1-3,2.74,6.72,6.72,0,0,1-3.16,1.05v-2.52a9,9,0,0,0,1.91-.29,5.87,5.87,0,0,0,1.43-.59,3.67,3.67,0,0,0,1.19-1,2.09,2.09,0,0,0,.41-1.26.79.79,0,0,0-.18-.56,1,1,0,0,0-.54-.26,8.14,8.14,0,0,0-1.45,0,3.8,3.8,0,0,1-1.54-.18,1.71,1.71,0,0,1-.81-.71,2.66,2.66,0,0,1-.31-1.39,5.88,5.88,0,0,1,1-3.26A8,8,0,0,1,176.65,261.94Z"/><polygon class="cls-8" points="188.44 255.32 188.45 257.54 184.4 259.88 184.41 262.69 188.18 260.51 188.19 262.74 184.42 264.92 184.43 268.22 188.47 265.88 188.48 268.12 182.06 271.83 182.03 259.02 188.44 255.32"/><path class="cls-8" d="M209.81,243l-3.75,15-2.57,1.49-3.82-10.62,2.38-1.38,2.12,6.41c.12.38.25.84.37,1.37s.21.89.24,1.11c0-.57.24-1.61.56-3.15l2.09-8.84Z"/><path class="cls-8" d="M196.41,258q2.53,2.86,3.3,3.68l-2.62,1.52-2.68-3.38-1.25.72v4.92l-2.36,1.36,0-12.8L194,252.1c1.51-.87,2.64-1.21,3.36-1s1.1,1,1.1,2.25a5.57,5.57,0,0,1-.54,2.32A8.48,8.48,0,0,1,196.41,258Zm-.85-1.49a2.73,2.73,0,0,0,.53-1.66c0-.6-.18-.93-.55-1a3.13,3.13,0,0,0-1.69.58l-.72.41v3.46l.76-.44a5.22,5.22,0,0,0,1.65-1.39"/><polygon class="cls-8" points="217.64 238.46 217.64 240.69 213.59 243.03 213.6 245.84 217.37 243.66 217.38 245.89 213.6 248.07 213.61 251.37 217.67 249.03 217.67 251.27 211.25 254.97 211.22 242.17 217.64 238.46"/><path class="cls-8" d="M225.61,241.1q2.52,2.87,3.29,3.68l-2.62,1.52-2.67-3.38-1.26.73v4.92L220,249.93l0-12.8,3.24-1.87c1.51-.87,2.64-1.21,3.37-1s1.09,1,1.09,2.26a5.63,5.63,0,0,1-.53,2.32A8.66,8.66,0,0,1,225.61,241.1Zm-.85-1.48a2.74,2.74,0,0,0,.53-1.66c0-.6-.19-.93-.55-1a3.16,3.16,0,0,0-1.69.59l-.72.41v3.46l.76-.44a5.2,5.2,0,0,0,1.65-1.39"/><polygon class="cls-8" points="366.19 417.43 366.22 430.23 363.87 431.59 363.86 426.06 359.44 428.61 359.45 434.14 357.09 435.5 357.06 422.7 359.42 421.33 359.43 426.35 363.85 423.8 363.84 418.78 366.19 417.43"/><path class="cls-8" d="M377.76,412.24q1.36.92,1.37,4.1a11.58,11.58,0,0,1-1.36,5.68,10.14,10.14,0,0,1-3.93,4c-1.7,1-3,1.18-3.94.56s-1.38-2-1.39-4.11a11.45,11.45,0,0,1,1.37-5.68,10.19,10.19,0,0,1,3.93-4C375.53,411.83,376.85,411.64,377.76,412.24Zm-3.92,11.49q2.83-1.63,2.82-6t-2.83-2.7a5.16,5.16,0,0,0-2.12,2.31A8.47,8.47,0,0,0,371,421a4,4,0,0,0,.72,2.83c.47.45,1.18.4,2.12-.14"/><path class="cls-8" d="M384.64,406.59a7.4,7.4,0,0,1,1.66-.72,9.12,9.12,0,0,1,1.65-.28l-.75,2.55a8.64,8.64,0,0,0-1.48.26,5.27,5.27,0,0,0-1.15.49,2.86,2.86,0,0,0-1,1,2.09,2.09,0,0,0-.35,1.15.88.88,0,0,0,.14.54.8.8,0,0,0,.47.24,8.28,8.28,0,0,0,1.5,0,3.17,3.17,0,0,1,2.15.48,2.36,2.36,0,0,1,.58,1.79,5.93,5.93,0,0,1-1.08,3.36,8.84,8.84,0,0,1-3,2.74,6.72,6.72,0,0,1-3.16,1.05v-2.52a9.17,9.17,0,0,0,1.91-.29,5.85,5.85,0,0,0,1.43-.58,3.68,3.68,0,0,0,1.19-1,2.08,2.08,0,0,0,.41-1.25.8.8,0,0,0-.18-.57,1,1,0,0,0-.54-.26,9.21,9.21,0,0,0-1.45,0,3.79,3.79,0,0,1-1.54-.17,1.7,1.7,0,0,1-.82-.71,2.69,2.69,0,0,1-.31-1.4,5.84,5.84,0,0,1,1-3.25A7.91,7.91,0,0,1,384.64,406.59Z"/><polygon class="cls-8" points="397.34 399.44 397.35 401.7 394.32 403.44 394.35 413.99 391.99 415.35 391.96 404.81 388.94 406.56 388.93 404.3 397.34 399.44"/><path class="cls-8" d="M411.87,392.55q1.36.92,1.37,4.1a11.58,11.58,0,0,1-1.36,5.68,10.12,10.12,0,0,1-3.93,4c-1.7,1-3,1.18-3.94.56s-1.37-2-1.38-4.11a11.43,11.43,0,0,1,1.36-5.67,10.23,10.23,0,0,1,3.94-4Q410.5,391.64,411.87,392.55ZM407.95,404c1.89-1.09,2.82-3.07,2.82-6s-1-3.78-2.82-2.7a5.13,5.13,0,0,0-2.12,2.31,8.39,8.39,0,0,0-.71,3.65,4,4,0,0,0,.72,2.83c.47.45,1.18.41,2.12-.13"/><path class="cls-8" d="M418.74,386.9a7.36,7.36,0,0,1,1.66-.72,9.12,9.12,0,0,1,1.65-.28l-.75,2.55a8.64,8.64,0,0,0-1.48.26,5.27,5.27,0,0,0-1.15.49,2.88,2.88,0,0,0-1,1,2.13,2.13,0,0,0-.35,1.15.86.86,0,0,0,.15.54.75.75,0,0,0,.46.25,8.11,8.11,0,0,0,1.5,0,3.12,3.12,0,0,1,2.14.48,2.32,2.32,0,0,1,.59,1.78,6,6,0,0,1-1.08,3.36,8.87,8.87,0,0,1-3,2.75,6.74,6.74,0,0,1-3.16,1.05V399a9.35,9.35,0,0,0,1.91-.29,5.89,5.89,0,0,0,1.43-.58,3.72,3.72,0,0,0,1.19-1,2.12,2.12,0,0,0,.41-1.25.79.79,0,0,0-.19-.57,1,1,0,0,0-.54-.26,8.72,8.72,0,0,0-1.45,0,3.79,3.79,0,0,1-1.54-.17,1.75,1.75,0,0,1-.82-.71,2.78,2.78,0,0,1-.3-1.4,5.84,5.84,0,0,1,1-3.25A7.87,7.87,0,0,1,418.74,386.9Z"/></svg>