<svg id="Layer_1" data-name="Layer 1" xmlns="http://www.w3.org/2000/svg" viewBox="0 0 379.82 407.73"><defs><style>.cls-1{isolation:isolate;}.cls-2{fill:#6fc8b9;}.cls-3{fill:#57c1ac;}.cls-4{fill:#388a79;}.cls-5{fill:#0a404e;}.cls-6{fill:#105b6f;}.cls-7{fill:#10667c;}.cls-8{fill:#fff;}.cls-9{fill:#0d7466;}.cls-10{fill:#11a692;}.cls-11{fill:#16b9a2;}</style></defs><title>1</title><g class="cls-1"><polygon class="cls-2" points="379.82 228.68 132.31 374.68 0.09 298.39 247.6 152.39 379.82 228.68"/><polygon class="cls-3" points="379.82 228.68 379.73 261.73 132.22 407.73 132.31 374.68 379.82 228.68"/><polygon class="cls-4" points="132.31 374.68 132.22 407.73 0 331.44 0.09 298.39 132.31 374.68"/></g><g class="cls-1"><polygon class="cls-5" points="295.22 193.5 295.11 231.61 241.43 200.62 241.54 162.51 295.22 193.5"/><polygon class="cls-6" points="241.54 162.51 241.43 200.62 188.1 231.61 188.21 193.5 241.54 162.51"/><path class="cls-7" d="M241.36,131.19l107.94,62.32L242.06,255.82,134.13,193.5Zm.53,93.31,53.33-31-53.68-31-53.33,31,53.68,31"/><polygon class="cls-6" points="349.29 193.51 349.19 231.61 241.96 293.93 242.06 255.82 349.29 193.51"/><polygon class="cls-5" points="242.06 255.82 241.96 293.93 134.02 231.61 134.13 193.5 242.06 255.82"/></g><path class="cls-8" d="M256.22,262.44a7,7,0,0,1,1.65-.72,8.39,8.39,0,0,1,1.66-.29l-.76,2.55a8.65,8.65,0,0,0-1.48.26,5.24,5.24,0,0,0-1.14.5,2.91,2.91,0,0,0-1,1,2.11,2.11,0,0,0-.35,1.14.89.89,0,0,0,.15.55.78.78,0,0,0,.46.25,8.39,8.39,0,0,0,1.5,0,3.07,3.07,0,0,1,2.14.49,2.3,2.3,0,0,1,.59,1.78,6,6,0,0,1-1.08,3.36,8.91,8.91,0,0,1-3,2.74,6.75,6.75,0,0,1-3.16,1.05v-2.52a10.49,10.49,0,0,0,1.91-.29,6.26,6.26,0,0,0,1.43-.59,3.63,3.63,0,0,0,1.19-1,2.12,2.12,0,0,0,.41-1.25.74.74,0,0,0-.19-.56.93.93,0,0,0-.54-.26,8,8,0,0,0-1.45,0,3.9,3.9,0,0,1-1.54-.18,1.75,1.75,0,0,1-.82-.71,2.77,2.77,0,0,1-.3-1.4,5.86,5.86,0,0,1,1-3.25A7.93,7.93,0,0,1,256.22,262.44Z"/><path class="cls-8" d="M271,264.25a10.13,10.13,0,0,1-2,3.42l2.7,1.89-3,1.75-2.05-1.69-.18.1c-1.7,1-3,1.17-3.94.56s-1.37-2-1.38-4.12a11.43,11.43,0,0,1,1.36-5.67,10.28,10.28,0,0,1,3.94-4Q269,255,270.36,256t1.37,4.1A12.19,12.19,0,0,1,271,264.25Zm-4.61,3.19q2.83-1.64,2.82-5.95t-2.82-2.71a5.18,5.18,0,0,0-2.12,2.32,8.39,8.39,0,0,0-.71,3.65,4,4,0,0,0,.72,2.82c.47.45,1.18.41,2.12-.13"/><polygon class="cls-8" points="276.39 250.98 276.42 261.54 280.94 258.93 280.94 261.17 274.06 265.15 274.03 252.34 276.39 250.98"/><path class="cls-8" d="M290.11,242.87a7,7,0,0,1,1.66-.72,8.52,8.52,0,0,1,1.65-.28l-.75,2.54a8.65,8.65,0,0,0-1.48.26,5.3,5.3,0,0,0-1.15.5,2.88,2.88,0,0,0-1,1,2.11,2.11,0,0,0-.35,1.14.89.89,0,0,0,.15.55.78.78,0,0,0,.46.25,8.39,8.39,0,0,0,1.5,0,3.07,3.07,0,0,1,2.14.49,2.32,2.32,0,0,1,.59,1.78,6,6,0,0,1-1.08,3.36,8.94,8.94,0,0,1-3,2.75,6.74,6.74,0,0,1-3.16,1.05V255a10.49,10.49,0,0,0,1.91-.29,6.21,6.21,0,0,0,1.43-.59,3.63,3.63,0,0,0,1.19-1,2.12,2.12,0,0,0,.41-1.25.77.77,0,0,0-.19-.56.93.93,0,0,0-.54-.26,8,8,0,0,0-1.45,0,3.9,3.9,0,0,1-1.54-.18,1.75,1.75,0,0,1-.82-.71,2.77,2.77,0,0,1-.3-1.4,5.86,5.86,0,0,1,1-3.25A7.92,7.92,0,0,1,290.11,242.87Z"/><polygon class="cls-8" points="301.91 236.25 301.91 238.47 297.86 240.81 297.87 243.62 301.64 241.44 301.65 243.66 297.87 245.84 297.88 249.14 301.94 246.8 301.94 249.05 295.53 252.75 295.49 239.95 301.91 236.25"/><path class="cls-8" d="M309.88,238.87c1.69,1.91,2.78,3.14,3.29,3.69l-2.62,1.51-2.68-3.38-1.26.73v4.92l-2.36,1.36,0-12.8,3.25-1.88q2.27-1.31,3.36-1t1.1,2.25a5.63,5.63,0,0,1-.54,2.32A8.54,8.54,0,0,1,309.88,238.87ZM309,237.4a2.74,2.74,0,0,0,.53-1.66c0-.61-.18-.94-.55-1a3.17,3.17,0,0,0-1.69.6l-.72.41v3.46l.76-.44A5.19,5.19,0,0,0,309,237.4"/><path class="cls-8" d="M323.28,223.91l-3.75,15-2.58,1.49-3.82-10.62,2.39-1.38,2.12,6.41c.12.38.24.84.37,1.36s.2.91.23,1.11q.08-.85.57-3.15l2.09-8.83Z"/><polygon class="cls-8" points="331.09 219.39 331.1 221.62 327.04 223.96 327.05 226.77 330.82 224.59 330.83 226.81 327.06 228.99 327.07 232.29 331.12 229.95 331.13 232.2 324.71 235.9 324.68 223.1 331.09 219.39"/><path class="cls-8" d="M339.06,222q2.53,2.87,3.3,3.69l-2.62,1.52-2.68-3.38-1.26.73v4.92l-2.36,1.36,0-12.8,3.25-1.88q2.27-1.31,3.36-1t1.1,2.25a5.54,5.54,0,0,1-.54,2.32A8.36,8.36,0,0,1,339.06,222Zm-.85-1.48a2.73,2.73,0,0,0,.53-1.66c0-.61-.18-.94-.55-1a3.16,3.16,0,0,0-1.69.59l-.72.42v3.46l.77-.44a5.21,5.21,0,0,0,1.65-1.38"/><g class="cls-1"><polygon class="cls-9" points="295.16 149.94 295.05 188.04 241.37 157.05 241.48 118.94 295.16 149.94"/><polygon class="cls-10" points="241.48 118.94 241.37 157.05 188.04 188.04 188.15 149.94 241.48 118.94"/><path class="cls-11" d="M241.3,87.62l107.94,62.32L242,212.25,134.07,149.94Zm.53,93.31,53.33-31-53.68-31-53.33,31,53.68,31"/><polygon class="cls-10" points="349.24 149.94 349.13 188.04 241.9 250.36 242.01 212.25 349.24 149.94"/><polygon class="cls-9" points="242.01 212.25 241.9 250.36 133.96 188.04 134.07 149.94 242.01 212.25"/></g><path class="cls-8" d="M280.22,204.34q1.36.92,1.37,4.1a11.58,11.58,0,0,1-1.36,5.68,10.18,10.18,0,0,1-3.93,4c-1.7,1-3,1.17-3.94.56s-1.38-2-1.39-4.11a11.48,11.48,0,0,1,1.37-5.68,10.22,10.22,0,0,1,3.93-4C278,203.93,279.31,203.74,280.22,204.34Zm-3.92,11.49q2.83-1.63,2.82-6t-2.83-2.7a5.16,5.16,0,0,0-2.12,2.31,8.47,8.47,0,0,0-.71,3.65,4,4,0,0,0,.72,2.83c.47.45,1.18.4,2.12-.14"/><polygon class="cls-8" points="290.27 197.04 290.28 199.26 286.21 201.61 286.22 204.91 290 202.73 290.01 204.95 286.23 207.13 286.24 212.19 283.92 213.53 283.88 200.73 290.27 197.04"/><polygon class="cls-8" points="298.83 192.1 298.84 194.32 294.78 196.66 294.79 199.97 298.57 197.78 298.57 200 294.8 202.18 294.81 207.24 292.49 208.59 292.45 195.78 298.83 192.1"/><polygon class="cls-8" points="303.37 189.48 303.41 202.28 301.05 203.64 301.01 190.84 303.37 189.48"/><path class="cls-8" d="M310.91,184.94a6.86,6.86,0,0,1,3.27-1l-.76,2.65a8.31,8.31,0,0,0-1.26.13,3.76,3.76,0,0,0-1.24.46,5.08,5.08,0,0,0-2.07,2.35,8.52,8.52,0,0,0-.72,3.63c0,2.86.94,3.75,2.81,2.67a15.39,15.39,0,0,0,2.84-2.32v2.27a13.4,13.4,0,0,1-3.06,2.43c-1.62.93-2.86,1.09-3.72.45s-1.3-2-1.3-4.12a12,12,0,0,1,.62-3.86,11,11,0,0,1,1.81-3.35A9.76,9.76,0,0,1,310.91,184.94Z"/><polygon class="cls-8" points="322.54 178.41 322.55 180.63 318.49 182.97 318.5 185.78 322.27 183.6 322.28 185.84 318.51 188.01 318.51 191.31 322.57 188.97 322.58 191.21 316.16 194.92 316.12 182.11 322.54 178.41"/><g class="cls-1"><polygon class="cls-5" points="295.22 106.5 295.11 144.61 241.43 113.62 241.54 75.51 295.22 106.5"/><polygon class="cls-6" points="241.54 75.51 241.43 113.62 188.1 144.61 188.21 106.5 241.54 75.51"/><path class="cls-7" d="M241.36,44.19l107.94,62.32L242.06,168.82,134.13,106.5Zm.53,93.31,53.33-31-53.68-31-53.33,31,53.68,31"/><polygon class="cls-6" points="349.29 106.51 349.19 144.61 241.96 206.93 242.06 168.82 349.29 106.51"/><polygon class="cls-5" points="242.06 168.82 241.96 206.93 134.02 144.61 134.13 106.5 242.06 168.82"/></g><path class="cls-8" d="M264.31,170.34l-2.8,14.44-2.69,1.56-1.53-5.86c-.06-.2-.16-.65-.29-1.32s-.21-1.13-.23-1.38q0,.5-.23,1.65c-.12.77-.21,1.32-.28,1.66l-1.48,7.57-2.68,1.55L249.22,179l2.32-1.34,1.45,6.16c.25,1.15.43,2.17.55,3.05,0-.36.1-.91.21-1.67s.21-1.36.3-1.8l1.61-8.12,2.23-1.29,1.65,6.24c.07.27.16.71.27,1.32s.19,1.11.25,1.56c0-.48.12-1.1.24-1.85s.21-1.35.3-1.83l1.4-7.8Z"/><polygon class="cls-8" points="272.13 165.82 272.13 168.05 268.08 170.39 268.09 173.2 271.86 171.02 271.87 173.24 268.09 175.42 268.1 178.72 272.16 176.38 272.16 178.63 265.75 182.33 265.71 169.53 272.13 165.82"/><path class="cls-8" d="M282.27,167.09a2.43,2.43,0,0,1,.47,1.71,5.86,5.86,0,0,1-1.09,3.36,9,9,0,0,1-3,2.71l-4.17,2.41,0-12.8,3.47-2c1.58-.91,2.73-1.32,3.44-1.21s1.08.72,1.08,1.85a5,5,0,0,1-.46,2.15,4.24,4.24,0,0,1-1.25,1.61V167C281.44,166.73,282,166.78,282.27,167.09Zm-2.44,4.44a2.81,2.81,0,0,0,.46-1.58c0-1.06-.67-1.21-2-.45l-1.46.84v3.33l1.54-.89a4.22,4.22,0,0,0,1.44-1.26m-3-6.19v2.85l1.37-.79a4.45,4.45,0,0,0,1.39-1.14,2.28,2.28,0,0,0,.42-1.38c0-.49-.16-.76-.47-.79a2.9,2.9,0,0,0-1.48.53l-1.25.72"/><path class="cls-8" d="M292.21,154a7.36,7.36,0,0,1,1.66-.72,9.12,9.12,0,0,1,1.65-.28l-.75,2.55a8,8,0,0,0-1.48.26,4.93,4.93,0,0,0-1.15.49,2.88,2.88,0,0,0-1,1,2.11,2.11,0,0,0-.35,1.15.86.86,0,0,0,.15.54.74.74,0,0,0,.46.25,8.11,8.11,0,0,0,1.5,0,3.12,3.12,0,0,1,2.14.48,2.35,2.35,0,0,1,.59,1.78,6,6,0,0,1-1.08,3.36,8.89,8.89,0,0,1-3,2.75,6.72,6.72,0,0,1-3.16,1.05v-2.52a9.35,9.35,0,0,0,1.91-.29,5.91,5.91,0,0,0,1.43-.59,3.72,3.72,0,0,0,1.19-1,2.12,2.12,0,0,0,.41-1.26.78.78,0,0,0-.19-.56,1,1,0,0,0-.54-.26,8,8,0,0,0-1.45,0,3.64,3.64,0,0,1-1.54-.18,1.71,1.71,0,0,1-.82-.71,2.67,2.67,0,0,1-.31-1.4,5.92,5.92,0,0,1,1-3.25A8,8,0,0,1,292.21,154Z"/><polygon class="cls-8" points="304 147.42 304.01 149.64 299.96 151.98 299.96 154.79 303.74 152.61 303.74 154.84 299.97 157.01 299.98 160.31 304.03 157.97 304.04 160.22 297.62 163.92 297.59 151.12 304 147.42"/><path class="cls-8" d="M312,150.05c1.68,1.91,2.78,3.13,3.29,3.68l-2.62,1.51L310,151.87l-1.26.73v4.92l-2.36,1.36,0-12.8,3.24-1.87c1.52-.88,2.64-1.21,3.37-1s1.1,1,1.1,2.26a5.65,5.65,0,0,1-.54,2.32A8.66,8.66,0,0,1,312,150.05Zm-.85-1.48a2.74,2.74,0,0,0,.53-1.66c0-.6-.19-.93-.55-1a3.15,3.15,0,0,0-1.69.59l-.72.41v3.46l.76-.44a5.2,5.2,0,0,0,1.65-1.39"/><path class="cls-8" d="M325.37,135.08l-3.75,15L319,151.56l-3.82-10.62,2.39-1.38,2.12,6.41c.12.39.24.84.37,1.37s.2.9.23,1.11c.06-.57.24-1.63.57-3.16l2.09-8.83Z"/><polygon class="cls-8" points="333.19 130.57 333.19 132.79 329.14 135.13 329.15 137.94 332.92 135.76 332.93 137.99 329.15 140.16 329.16 143.47 333.22 141.12 333.23 143.37 326.81 147.07 326.77 134.27 333.19 130.57"/><path class="cls-8" d="M341.16,133.2q2.53,2.86,3.29,3.68l-2.62,1.51L339.15,135l-1.26.73v4.92L335.55,142l0-12.8,3.25-1.88q2.27-1.31,3.36-1c.73.22,1.1,1,1.1,2.26a5.57,5.57,0,0,1-.54,2.32A8.47,8.47,0,0,1,341.16,133.2Zm-.85-1.49a2.76,2.76,0,0,0,.53-1.66c0-.6-.18-.93-.55-1a3.13,3.13,0,0,0-1.69.58l-.72.42v3.46l.77-.44a5.22,5.22,0,0,0,1.65-1.39"/><g class="cls-1"><polygon class="cls-9" points="295.16 62.32 295.05 100.42 241.37 69.43 241.48 31.33 295.16 62.32"/><polygon class="cls-10" points="241.48 31.33 241.37 69.43 188.04 100.42 188.15 62.32 241.48 31.33"/><path class="cls-11" d="M241.3,0,349.24,62.32,242,124.64,134.07,62.32Zm.53,93.31,53.33-31-53.68-31-53.33,31,53.68,31"/><polygon class="cls-10" points="349.24 62.32 349.13 100.42 241.9 162.74 242.01 124.64 349.24 62.32"/><polygon class="cls-9" points="242.01 124.64 241.9 162.74 133.96 100.42 134.07 62.32 242.01 124.64"/></g><path class="cls-8" d="M277.72,116.42a7.36,7.36,0,0,1,1.66-.72,9.12,9.12,0,0,1,1.65-.28l-.75,2.54a9.43,9.43,0,0,0-1.48.26,5.3,5.3,0,0,0-1.15.5,2.88,2.88,0,0,0-1,1,2.11,2.11,0,0,0-.35,1.14.87.87,0,0,0,.15.55.74.74,0,0,0,.46.25,8.11,8.11,0,0,0,1.5,0,3.15,3.15,0,0,1,2.14.48,2.34,2.34,0,0,1,.59,1.78,6,6,0,0,1-1.08,3.36,9,9,0,0,1-3,2.75,6.72,6.72,0,0,1-3.16,1.05v-2.52a9.35,9.35,0,0,0,1.91-.29,6.21,6.21,0,0,0,1.43-.59,3.72,3.72,0,0,0,1.19-1,2.12,2.12,0,0,0,.41-1.26.78.78,0,0,0-.19-.56,1,1,0,0,0-.54-.26,8,8,0,0,0-1.45,0,3.77,3.77,0,0,1-1.54-.18,1.71,1.71,0,0,1-.82-.71,2.67,2.67,0,0,1-.31-1.4,5.92,5.92,0,0,1,1-3.25A8,8,0,0,1,277.72,116.42Z"/><polygon class="cls-8" points="301.8 102.69 298.13 112.65 298.14 117.63 295.8 118.98 295.79 114.09 292.07 108.32 294.63 106.84 296.95 110.78 299.25 104.17 301.8 102.69"/><polygon class="cls-8" points="292.04 108.33 288.16 116.24 292.1 121.12 289.42 122.67 286.48 118.96 285.49 120.36 285.5 124.93 283.14 126.29 283.1 113.49 285.46 112.13 285.48 117.98 286.41 115.94 289.41 109.85 292.04 108.33"/><path class="cls-8" d="M309.85,99.05c.7.26,1.06,1.06,1.06,2.38a6.88,6.88,0,0,1-1.11,3.81,9.07,9.07,0,0,1-3.2,2.94l-1,.58v4.56l-2.36,1.36,0-12.8,3.56-2.05C308.12,99,309.15,98.78,309.85,99.05ZM308,104.66a3.11,3.11,0,0,0,.54-1.76q0-.95-.46-1.14c-.3-.13-.77,0-1.42.36l-1.07.62v3.8l.77-.45a4.8,4.8,0,0,0,1.63-1.44"/><polygon class="cls-8" points="319.42 92.52 319.43 94.74 315.38 97.08 315.38 99.89 319.15 97.72 319.16 99.94 315.39 102.12 315.4 105.42 319.45 103.08 319.46 105.32 313.04 109.03 313.01 96.22 319.42 92.52"/><g class="cls-1"><polygon class="cls-9" points="184.32 258.5 184.21 296.6 130.53 265.61 130.64 227.5 184.32 258.5"/><polygon class="cls-10" points="130.64 227.5 130.53 265.61 77.2 296.6 77.31 258.5 130.64 227.5"/><path class="cls-11" d="M130.46,196.18,238.4,258.5,131.16,320.81,23.23,258.5Zm.53,93.31,53.33-31-53.68-31-53.33,31,53.68,31"/><polygon class="cls-10" points="238.4 258.5 238.29 296.6 131.06 358.92 131.16 320.81 238.4 258.5"/><polygon class="cls-9" points="131.16 320.81 131.06 358.92 23.12 296.6 23.23 258.5 131.16 320.81"/></g><polygon class="cls-8" points="163.94 314.75 163.95 316.98 159.89 319.32 159.9 322.13 163.67 319.95 163.67 322.18 159.91 324.35 159.92 327.65 163.97 325.31 163.98 327.55 157.56 331.26 157.52 318.45 163.94 314.75"/><path class="cls-8" d="M171,310.49a6.86,6.86,0,0,1,3.27-1l-.76,2.65a8.71,8.71,0,0,0-1.26.13,3.79,3.79,0,0,0-1.24.46,5.11,5.11,0,0,0-2.07,2.35,8.55,8.55,0,0,0-.72,3.63q0,4.28,2.81,2.66a15.3,15.3,0,0,0,2.84-2.31v2.27a13.36,13.36,0,0,1-3.06,2.42q-2.43,1.4-3.72.45t-1.3-4.12a12,12,0,0,1,.62-3.86,10.85,10.85,0,0,1,1.81-3.35A9.76,9.76,0,0,1,171,310.49Z"/><polygon class="cls-8" points="178.57 306.3 178.6 316.87 183.12 314.26 183.12 316.5 176.24 320.47 176.21 307.67 178.57 306.3"/><polygon class="cls-8" points="187.38 301.21 187.42 314.01 185.06 315.38 185.02 302.58 187.38 301.21"/><path class="cls-8" d="M196.84,296.76q1.06.39,1.06,2.39a6.89,6.89,0,0,1-1.11,3.81,9.16,9.16,0,0,1-3.2,2.94l-1,.59V311l-2.36,1.36,0-12.8,3.56-2.06Q195.77,296.37,196.84,296.76ZM195,302.37a3.07,3.07,0,0,0,.53-1.75c0-.64-.15-1-.46-1.15s-.77,0-1.42.36l-1.08.62v3.8l.78-.45a4.82,4.82,0,0,0,1.63-1.44"/><path class="cls-8" d="M203.2,291.89a7,7,0,0,1,1.66-.72,8.52,8.52,0,0,1,1.65-.29l-.75,2.55a8.64,8.64,0,0,0-1.48.26,5.27,5.27,0,0,0-1.15.49,2.92,2.92,0,0,0-1,1,2.13,2.13,0,0,0-.35,1.15.8.8,0,0,0,.15.54.75.75,0,0,0,.46.26,9.43,9.43,0,0,0,1.5,0,3.12,3.12,0,0,1,2.15.49,2.33,2.33,0,0,1,.58,1.78,5.91,5.91,0,0,1-1.08,3.36,8.84,8.84,0,0,1-3,2.74,6.72,6.72,0,0,1-3.16,1.05V304a10.26,10.26,0,0,0,1.91-.29,6.22,6.22,0,0,0,1.43-.59,3.74,3.74,0,0,0,1.19-1,2.12,2.12,0,0,0,.41-1.25.8.8,0,0,0-.19-.57,1,1,0,0,0-.54-.26,9.21,9.21,0,0,0-1.45,0,3.79,3.79,0,0,1-1.54-.17,1.7,1.7,0,0,1-.82-.71,2.69,2.69,0,0,1-.31-1.4,5.9,5.9,0,0,1,1-3.25A8,8,0,0,1,203.2,291.89Z"/><polygon class="cls-8" points="215 285.26 215.01 287.5 210.96 289.84 210.96 292.65 214.74 290.47 214.74 292.69 210.97 294.87 210.98 298.17 215.03 295.83 215.04 298.07 208.62 301.77 208.59 288.97 215 285.26"/><g class="cls-1"><polygon class="cls-5" points="184.32 214.85 184.22 252.96 130.54 221.97 130.64 183.86 184.32 214.85"/><polygon class="cls-6" points="130.64 183.86 130.54 221.97 77.2 252.96 77.31 214.85 130.64 183.86"/><path class="cls-7" d="M130.46,152.54,238.4,214.86,131.17,277.17,23.23,214.85Zm.53,93.31,53.33-31-53.68-31-53.33,31,53.68,31"/><polygon class="cls-6" points="238.4 214.86 238.29 252.96 131.06 315.28 131.17 277.17 238.4 214.86"/><polygon class="cls-5" points="131.17 277.17 131.06 315.28 23.12 252.96 23.23 214.85 131.17 277.17"/></g><path class="cls-8" d="M157.62,275.94l0,12a8.3,8.3,0,0,1-.88,3.94,6.65,6.65,0,0,1-2.63,2.7,5.81,5.81,0,0,1-1.39.61V292.9a4.9,4.9,0,0,0,1.11-.47,2.6,2.6,0,0,0,1.11-1.2,4.78,4.78,0,0,0,.33-1.93l0-12Z"/><polygon class="cls-8" points="166.84 270.62 166.84 272.84 162.79 275.19 162.8 278 166.57 275.82 166.58 278.04 162.8 280.22 162.81 283.52 166.87 281.18 166.87 283.42 160.46 287.13 160.42 274.33 166.84 270.62"/><path class="cls-8" d="M179,263.57l0,12.8-3,1.73-4.87-6.89-.07,0c.1,1.65.15,2.85.15,3.57l0,6-2.11,1.22,0-12.8,3-1.72,4.86,6.8.06,0c-.08-1.62-.12-2.77-.12-3.46l0-6.06Z"/><polygon class="cls-8" points="190.78 256.8 186.91 264.71 190.85 269.58 188.17 271.13 185.23 267.42 184.23 268.82 184.25 273.39 181.88 274.76 181.85 261.95 184.21 260.59 184.23 266.45 185.16 264.4 188.16 258.31 190.78 256.8"/><polygon class="cls-8" points="194.57 254.61 194.61 267.41 192.25 268.77 192.21 255.97 194.57 254.61"/><path class="cls-8" d="M207.27,247.28l0,12.8-3,1.74-4.87-6.89-.06,0c.1,1.65.15,2.85.15,3.57l0,6-2.11,1.22,0-12.8,3-1.72,4.87,6.79.06,0c-.08-1.62-.12-2.77-.12-3.46l0-6.06Z"/><path class="cls-8" d="M213.29,243.62a7,7,0,0,1,1.65-.72,8.39,8.39,0,0,1,1.66-.29l-.76,2.55a8.65,8.65,0,0,0-1.48.26,5.19,5.19,0,0,0-1.14.5,2.91,2.91,0,0,0-1,.95,2.11,2.11,0,0,0-.35,1.15.9.9,0,0,0,.14.55.78.78,0,0,0,.46.25,8.81,8.81,0,0,0,1.5,0,3.11,3.11,0,0,1,2.14.49,2.3,2.3,0,0,1,.59,1.78,5.93,5.93,0,0,1-1.08,3.36,8.85,8.85,0,0,1-3,2.75,6.72,6.72,0,0,1-3.16,1.05v-2.52a10,10,0,0,0,1.91-.29,6.16,6.16,0,0,0,1.42-.59,3.69,3.69,0,0,0,1.19-1,2.12,2.12,0,0,0,.41-1.25.78.78,0,0,0-.18-.56,1,1,0,0,0-.54-.25,8,8,0,0,0-1.45,0,4.08,4.08,0,0,1-1.54-.18,1.7,1.7,0,0,1-.81-.71,2.67,2.67,0,0,1-.31-1.4,5.86,5.86,0,0,1,1-3.25A7.93,7.93,0,0,1,213.29,243.62Z"/><g class="cls-1"><polygon class="cls-9" points="184.32 170.88 184.21 208.98 130.53 177.99 130.64 139.89 184.32 170.88"/><polygon class="cls-10" points="130.64 139.89 130.53 177.99 77.2 208.98 77.31 170.88 130.64 139.89"/><path class="cls-11" d="M130.46,108.56,238.4,170.88,131.16,233.2,23.23,170.88Zm.53,93.31,53.33-31-53.68-31-53.33,31,53.68,31"/><polygon class="cls-10" points="238.4 170.88 238.29 208.98 131.06 271.3 131.16 233.2 238.4 170.88"/><polygon class="cls-9" points="131.16 233.2 131.06 271.3 23.12 208.98 23.23 170.88 131.16 233.2"/></g><polygon class="cls-8" points="161.91 228.68 161.92 230.9 157.86 233.24 157.87 236.54 161.65 234.36 161.65 236.58 157.87 238.76 157.89 243.82 155.56 245.16 155.53 232.36 161.91 228.68"/><polygon class="cls-8" points="166.45 226.06 166.49 238.86 164.13 240.22 164.09 227.42 166.45 226.06"/><path class="cls-8" d="M174.9,228.42c1.69,1.91,2.78,3.14,3.3,3.68l-2.62,1.52-2.68-3.37-1.26.73v4.91l-2.36,1.36,0-12.8,3.25-1.88q2.27-1.31,3.36-1t1.1,2.25a5.54,5.54,0,0,1-.54,2.32A8.36,8.36,0,0,1,174.9,228.42Zm-.85-1.49a2.72,2.72,0,0,0,.53-1.65c0-.61-.18-.94-.55-1a3.13,3.13,0,0,0-1.69.58l-.72.42v3.46l.77-.44a5.22,5.22,0,0,0,1.65-1.39"/><polygon class="cls-8" points="185.98 214.78 185.98 217 181.93 219.35 181.94 222.16 185.71 219.99 185.72 222.21 181.94 224.39 181.95 227.69 186.01 225.35 186.01 227.59 179.6 231.29 179.56 218.49 185.98 214.78"/><polygon class="cls-8" points="194.69 209.75 194.69 211.98 190.63 214.32 190.64 217.62 194.42 215.44 194.43 217.66 190.65 219.84 190.66 224.9 188.34 226.24 188.3 213.44 194.69 209.75"/><path class="cls-8" d="M205.63,204.94q1.36.92,1.37,4.1a11.58,11.58,0,0,1-1.36,5.68,10.14,10.14,0,0,1-3.93,4c-1.7,1-3,1.18-3.94.56s-1.38-2-1.39-4.11a11.48,11.48,0,0,1,1.37-5.68,10.22,10.22,0,0,1,3.93-4C203.4,204.52,204.72,204.33,205.63,204.94Zm-3.92,11.49q2.83-1.63,2.82-6t-2.83-2.7a5.16,5.16,0,0,0-2.12,2.31,8.47,8.47,0,0,0-.71,3.65,4,4,0,0,0,.72,2.83c.47.45,1.18.4,2.12-.14"/><polygon class="cls-8" points="218.03 196.28 214.55 204.65 218.33 208.92 215.64 210.48 213.03 207.13 210.45 213.47 207.93 214.93 211.6 206.2 208.13 201.99 210.73 200.49 213.14 203.71 215.49 197.74 218.03 196.28"/><g class="cls-1"><polygon class="cls-5" points="184.78 127 184.67 165.11 130.99 134.12 131.1 96.01 184.78 127"/><polygon class="cls-6" points="131.1 96.01 130.99 134.12 77.66 165.11 77.77 127 131.1 96.01"/><path class="cls-7" d="M130.92,64.69,238.85,127,131.62,189.32,23.69,127Zm.53,93.31,53.33-31L131.1,96,77.77,127l53.68,31"/><polygon class="cls-6" points="238.85 127.01 238.75 165.11 131.52 227.43 131.63 189.32 238.85 127.01"/><polygon class="cls-5" points="131.63 189.32 131.52 227.43 23.58 165.11 23.69 127 131.63 189.32"/></g><polygon class="cls-8" points="139.24 202.97 139.26 211.13 142.75 209.12 142.76 210.85 137.44 213.91 137.42 204.02 139.24 202.97"/><path class="cls-8" d="M151,197.34c.7.47,1.06,1.53,1.06,3.17a9,9,0,0,1-1,4.38,7.87,7.87,0,0,1-3,3.08q-2,1.14-3,.43t-1.07-3.17a8.83,8.83,0,0,1,1-4.38,7.89,7.89,0,0,1,3-3.06C149.28,197,150.29,196.87,151,197.34Zm-3,8.87q2.18-1.26,2.17-4.59T148,199.53a4,4,0,0,0-1.64,1.79,6.47,6.47,0,0,0-.55,2.82,3.1,3.1,0,0,0,.56,2.18c.37.35.92.31,1.64-.11"/><path class="cls-8" d="M158,192.09l3.08,8.17-2,1.14-.63-2-3.14,1.81-.62,2.72-2,1.14,3-11.69Zm-2.21,7.1L158,197.9c-.58-1.8-.91-2.82-1-3.06s-.13-.43-.16-.58q-.19,1-1.1,4.93"/><path class="cls-8" d="M168.12,187.57c.78.4,1.17,1.37,1.18,2.9a8.38,8.38,0,0,1-1.2,4.44,9.56,9.56,0,0,1-3.5,3.32l-2.44,1.41,0-9.9,2.71-1.56C166.26,187.37,167.35,187.16,168.12,187.57Zm-3.35,8.82a5.11,5.11,0,0,0,2.63-4.78c0-2.13-.83-2.71-2.46-1.77l-1,.56,0,6.44.79-.45"/><path class="cls-8" d="M180.24,184.8a1.88,1.88,0,0,1,.37,1.32,4.54,4.54,0,0,1-.84,2.6,6.92,6.92,0,0,1-2.31,2.1l-3.22,1.86,0-9.9,2.68-1.55a4.93,4.93,0,0,1,2.66-.93c.56.08.83.56.84,1.43a3.88,3.88,0,0,1-.36,1.66,3.21,3.21,0,0,1-1,1.24v.07C179.61,184.52,180,184.55,180.24,184.8Zm-1.88,3.42a2.15,2.15,0,0,0,.35-1.22q0-1.23-1.54-.35l-1.13.65v2.58l1.19-.69a3.22,3.22,0,0,0,1.12-1M176,183.45v2.19l1.06-.61a3.38,3.38,0,0,0,1.07-.88,1.75,1.75,0,0,0,.34-1.07q0-.56-.37-.6a2.33,2.33,0,0,0-1.15.42l-1,.55"/><path class="cls-8" d="M186.5,175.64l3.08,8.17-2,1.14-.63-2-3.14,1.81-.61,2.71-2,1.14,3-11.69Zm-2.21,7.1,2.25-1.3c-.59-1.8-.92-2.81-1-3.05s-.12-.44-.16-.58q-.2,1-1.11,4.93"/><polygon class="cls-8" points="192.45 172.24 192.47 180.41 195.97 178.39 195.97 180.12 190.65 183.19 190.63 173.29 192.45 172.24"/><path class="cls-8" d="M201.63,166.91l3.08,8.17-2,1.14-.63-2L199,176l-.62,2.72-2,1.14,3-11.69Zm-2.2,7.1,2.24-1.29-1-3.05c-.07-.25-.12-.44-.16-.58q-.19,1-1.1,4.93"/><path class="cls-8" d="M213.4,160.15l0,9.9-2.32,1.34-3.77-5.32-.05,0c.07,1.28.11,2.2.12,2.76v4.66l-1.63.94,0-9.9,2.3-1.33,3.76,5.25,0,0c-.07-1.25-.1-2.14-.1-2.67v-4.69Z"/><path class="cls-8" d="M219.22,156.64a5.32,5.32,0,0,1,2.52-.76l-.58,2a7.28,7.28,0,0,0-1,.11,3,3,0,0,0-1,.36,3.91,3.91,0,0,0-1.59,1.81,6.58,6.58,0,0,0-.55,2.8q0,3.31,2.17,2.06a11.57,11.57,0,0,0,2.19-1.79V165a10.41,10.41,0,0,1-2.36,1.87q-1.89,1.09-2.88.36t-1-3.19a9.21,9.21,0,0,1,.48-3,8.44,8.44,0,0,1,1.4-2.59A7.59,7.59,0,0,1,219.22,156.64Z"/><polygon class="cls-8" points="228.21 151.59 228.22 153.32 225.08 155.13 225.09 157.3 228 155.62 228 157.34 225.09 159.02 225.1 161.57 228.24 159.76 228.24 161.49 223.28 164.35 223.25 154.46 228.21 151.59"/><path class="cls-8" d="M234.37,153.63c1.3,1.48,2.15,2.43,2.54,2.85l-2,1.17L232.82,155l-1,.56v3.8L230,160.46l0-9.9,2.51-1.45a3.83,3.83,0,0,1,2.6-.77c.56.17.84.75.84,1.75a4.27,4.27,0,0,1-.41,1.8A6.54,6.54,0,0,1,234.37,153.63Zm-.66-1.14a2.14,2.14,0,0,0,.41-1.28c0-.47-.14-.73-.42-.76a2.45,2.45,0,0,0-1.3.46l-.56.32v2.67l.59-.34a4,4,0,0,0,1.28-1.07"/><path class="cls-8" d="M221.43,331.38l0,12.8-2.2,1.27,0-6.06c0-.29,0-.62,0-1s0-1.39.09-3l-.07,0-2.84,11.68-2.16,1.25-2.72-8.49-.06,0q.15,3,.15,4l0,6-2.11,1.22,0-12.8,3.21-1.85,2.66,8.27.05,0,2.77-11.41Z"/><polygon class="cls-8" points="232.57 324.95 228.9 334.9 228.91 339.88 226.57 341.24 226.56 336.34 222.84 330.57 225.4 329.09 227.72 333.03 230.03 326.41 232.57 324.95"/><path class="cls-8" d="M251.72,313.89l-2.8,14.44-2.69,1.56L244.7,324c-.06-.21-.16-.65-.29-1.32s-.21-1.13-.23-1.38c0,.33-.11.89-.23,1.66s-.21,1.31-.28,1.65l-1.48,7.57-2.69,1.55-2.88-11.16,2.32-1.34,1.44,6.17c.25,1.15.44,2.16.55,3,0-.35.1-.91.21-1.67s.21-1.36.3-1.8l1.61-8.12,2.23-1.29,1.65,6.24c.07.28.16.72.27,1.32s.19,1.11.25,1.56c0-.48.12-1.1.24-1.84s.21-1.35.3-1.82l1.4-7.81Z"/><polygon class="cls-8" points="255.48 311.72 255.52 324.52 253.16 325.89 253.12 313.08 255.48 311.72"/><path class="cls-8" d="M268.17,304.39l0,12.8-3,1.73L260.33,312l-.07,0c.1,1.65.16,2.85.16,3.58l0,6-2.11,1.22,0-12.8,3-1.72,4.87,6.79.05,0c-.08-1.62-.12-2.77-.12-3.46l0-6.06Z"/><path class="cls-8" d="M278.71,300q1.52.78,1.53,3.75a10.84,10.84,0,0,1-1.56,5.75,12.3,12.3,0,0,1-4.52,4.29L271,315.58l0-12.8,3.5-2C276.29,299.71,277.71,299.44,278.71,300Zm-4.34,11.42a6.61,6.61,0,0,0,3.4-6.18q0-4.13-3.18-2.3l-1.26.73,0,8.34,1-.58"/><path class="cls-8" d="M291.28,292.55q1.36.92,1.37,4.1a11.58,11.58,0,0,1-1.36,5.68,10.12,10.12,0,0,1-3.93,4c-1.7,1-3,1.18-3.94.56s-1.37-2-1.38-4.11a11.43,11.43,0,0,1,1.36-5.67,10.23,10.23,0,0,1,3.94-4Q289.92,291.64,291.28,292.55ZM287.36,304q2.83-1.64,2.82-6t-2.82-2.7a5.13,5.13,0,0,0-2.12,2.31,8.45,8.45,0,0,0-.71,3.65,4,4,0,0,0,.72,2.83c.47.45,1.18.4,2.12-.14"/><path class="cls-8" d="M308.63,281l-2.8,14.44L303.15,297l-1.53-5.85c-.06-.21-.16-.65-.29-1.32s-.21-1.13-.23-1.38c0,.33-.11.89-.23,1.66s-.21,1.31-.28,1.65l-1.49,7.58-2.68,1.55-2.88-11.16,2.32-1.34,1.44,6.17c.25,1.15.44,2.16.55,3,0-.35.1-.91.21-1.67s.21-1.36.3-1.8L300,286l2.23-1.29,1.64,6.24c.08.28.16.72.27,1.31s.2,1.11.25,1.56c0-.48.13-1.1.24-1.85s.21-1.35.3-1.82l1.4-7.81Z"/><path class="cls-8" d="M313.26,278.18a7.33,7.33,0,0,1,1.65-.72,9,9,0,0,1,1.66-.29l-.76,2.56a8.65,8.65,0,0,0-1.48.26,5.16,5.16,0,0,0-1.14.49,2.92,2.92,0,0,0-1,1,2.11,2.11,0,0,0-.36,1.15.86.86,0,0,0,.15.54.75.75,0,0,0,.46.26,9.71,9.71,0,0,0,1.5,0,3.07,3.07,0,0,1,2.14.49,2.3,2.3,0,0,1,.59,1.78,6,6,0,0,1-1.08,3.36,8.84,8.84,0,0,1-3,2.74,6.7,6.7,0,0,1-3.16,1.05V290.3a9,9,0,0,0,1.91-.29,5.84,5.84,0,0,0,1.42-.58,3.72,3.72,0,0,0,1.19-1,2.12,2.12,0,0,0,.41-1.25.8.8,0,0,0-.18-.57,1.11,1.11,0,0,0-.54-.25,8.73,8.73,0,0,0-1.45,0,4,4,0,0,1-1.54-.17,1.7,1.7,0,0,1-.81-.71,2.69,2.69,0,0,1-.31-1.4,5.84,5.84,0,0,1,1-3.25A7.88,7.88,0,0,1,313.26,278.18Z"/></svg>