<svg id="Layer_1" data-name="Layer 1" xmlns="http://www.w3.org/2000/svg" viewBox="0 0 484.82 515.2"><defs><style>.cls-1{isolation:isolate;}.cls-2{fill:#5adcc3;}.cls-3{fill:#51c5ae;}.cls-4{fill:#388979;}.cls-5{fill:#0a7365;}.cls-6{fill:#0fa692;}.cls-7{fill:#10b9a3;}.cls-8{fill:#fff;}.cls-9{fill:#083f4d;}.cls-10{fill:#0c5a6e;}.cls-11{fill:#0d657b;}</style></defs><title>blocks-2</title><g class="cls-1"><polygon class="cls-2" points="484.82 274.15 132.31 482.15 0.09 405.86 352.6 197.86 484.82 274.15"/><polygon class="cls-3" points="484.82 274.15 484.73 307.2 132.22 515.2 132.31 482.15 484.82 274.15"/><polygon class="cls-4" points="132.31 482.15 132.22 515.2 0 438.91 0.09 405.86 132.31 482.15"/></g><g class="cls-1"><polygon class="cls-5" points="405.93 237.07 405.82 275.18 352.14 244.19 352.25 206.08 405.93 237.07"/><polygon class="cls-6" points="352.25 206.08 352.14 244.19 298.81 275.18 298.92 237.07 352.25 206.08"/><path class="cls-7" d="M352.08,174.76,460,237.07,352.78,299.39,244.84,237.07Zm.53,93.31,53.33-31-53.68-31-53.33,31,53.68,31"/><polygon class="cls-6" points="460.01 237.07 459.91 275.18 352.67 337.5 352.78 299.39 460.01 237.07"/><polygon class="cls-5" points="352.78 299.39 352.67 337.5 244.73 275.18 244.84 237.07 352.78 299.39"/></g><path class="cls-8" d="M379.64,296.36a6.83,6.83,0,0,1,3.26-1l-.75,2.64a8.72,8.72,0,0,0-1.26.13,3.81,3.81,0,0,0-1.24.47,5.06,5.06,0,0,0-2.07,2.34,8.57,8.57,0,0,0-.73,3.64q0,4.28,2.81,2.67a15.45,15.45,0,0,0,2.84-2.32v2.27a13.43,13.43,0,0,1-3.06,2.43c-1.62.94-2.86,1.08-3.73.45s-1.29-2-1.3-4.12a11.91,11.91,0,0,1,.62-3.86,11,11,0,0,1,1.81-3.35A9.77,9.77,0,0,1,379.64,296.36Z"/><polygon class="cls-8" points="393.98 288.26 394.01 301.07 391.66 302.43 391.64 296.9 387.23 299.45 387.25 304.97 384.88 306.34 384.85 293.54 387.21 292.17 387.23 297.19 391.64 294.64 391.62 289.62 393.98 288.26"/><path class="cls-8" d="M402.43,290.61c1.69,1.91,2.78,3.14,3.29,3.69l-2.62,1.51-2.68-3.38-1.26.73v4.92l-2.36,1.36,0-12.8,3.25-1.88q2.27-1.31,3.36-1c.73.21,1.1,1,1.1,2.25a5.54,5.54,0,0,1-.54,2.32A8.45,8.45,0,0,1,402.43,290.61Zm-.85-1.48a2.76,2.76,0,0,0,.53-1.66c0-.61-.18-.94-.55-1a3.17,3.17,0,0,0-1.69.6l-.72.41V291l.77-.44a5.21,5.21,0,0,0,1.65-1.38"/><path class="cls-8" d="M415.85,277.13q1.36.91,1.37,4.1a11.58,11.58,0,0,1-1.36,5.68,10.17,10.17,0,0,1-3.93,4c-1.7,1-3,1.17-3.94.56s-1.38-2-1.39-4.12a11.45,11.45,0,0,1,1.37-5.68,10.24,10.24,0,0,1,3.94-4Q414.48,276.22,415.85,277.13Zm-3.92,11.48q2.83-1.63,2.82-5.95T411.92,280a5.19,5.19,0,0,0-2.13,2.32,8.47,8.47,0,0,0-.71,3.65,4,4,0,0,0,.72,2.82c.47.45,1.18.4,2.12-.14"/><path class="cls-8" d="M431.42,266.64l0,12.8-2.2,1.27,0-6.06c0-.29,0-.62,0-1s0-1.39.09-3l-.07,0-2.84,11.69-2.16,1.25-2.71-8.5-.07,0c.11,2,.16,3.32.16,4l0,6-2.11,1.22,0-12.8,3.22-1.86,2.66,8.26,0,0,2.77-11.4Z"/><polygon class="cls-8" points="440.64 261.32 440.65 263.54 436.6 265.88 436.6 268.69 440.38 266.51 440.38 268.74 436.61 270.92 436.62 274.22 440.67 271.88 440.68 274.12 434.26 277.83 434.23 265.02 440.64 261.32"/><g class="cls-1"><polygon class="cls-5" points="405.93 193.5 405.82 231.61 352.14 200.62 352.25 162.51 405.93 193.5"/><polygon class="cls-6" points="352.25 162.51 352.14 200.62 298.81 231.61 298.92 193.5 352.25 162.51"/><path class="cls-7" d="M352.08,131.19,460,193.5,352.78,255.82,244.84,193.5Zm.53,93.31,53.33-31-53.68-31-53.33,31,53.68,31"/><polygon class="cls-6" points="460.01 193.5 459.91 231.61 352.67 293.93 352.78 255.82 460.01 193.5"/><polygon class="cls-5" points="352.78 255.82 352.67 293.93 244.73 231.61 244.84 193.5 352.78 255.82"/></g><path class="cls-8" d="M379.24,255.07q1.36.91,1.37,4.1a11.58,11.58,0,0,1-1.36,5.68,10.17,10.17,0,0,1-3.93,4c-1.7,1-3,1.18-3.94.57s-1.38-2-1.39-4.12a11.45,11.45,0,0,1,1.37-5.68,10.24,10.24,0,0,1,3.93-4C377,254.66,378.33,254.46,379.24,255.07Zm-3.92,11.48q2.83-1.63,2.82-5.95t-2.83-2.7a5.18,5.18,0,0,0-2.12,2.32,8.47,8.47,0,0,0-.71,3.65,4,4,0,0,0,.72,2.82c.47.45,1.18.4,2.12-.14"/><path class="cls-8" d="M392,246.22l0,8.28a7.48,7.48,0,0,1-.55,2.81,8.65,8.65,0,0,1-1.59,2.56,9.84,9.84,0,0,1-2.47,2q-2.15,1.24-3.34.66t-1.2-2.77l0-8.25,2.36-1.36,0,7.84c0,1,.18,1.61.52,1.87s.92.16,1.72-.3a4.17,4.17,0,0,0,1.68-1.67,5.26,5.26,0,0,0,.52-2.49l0-7.81Z"/><polygon class="cls-8" points="402.03 240.42 402.03 242.67 399.01 244.42 399.04 254.97 396.67 256.34 396.64 245.78 393.62 247.53 393.61 245.28 402.03 240.42"/><polygon class="cls-8" points="406.11 238.07 406.14 248.62 410.65 246.02 410.66 248.26 403.78 252.23 403.74 239.43 406.11 238.07"/><path class="cls-8" d="M421.31,230.79q1.36.91,1.37,4.1a11.56,11.56,0,0,1-1.35,5.68,10.18,10.18,0,0,1-3.93,4q-2.57,1.48-3.94.57T412.08,241a11.49,11.49,0,0,1,1.36-5.67,10.28,10.28,0,0,1,3.94-4Q419.95,229.87,421.31,230.79Zm-3.91,11.47q2.83-1.63,2.82-5.95t-2.83-2.7a5.18,5.18,0,0,0-2.12,2.32,8.39,8.39,0,0,0-.71,3.65,4,4,0,0,0,.72,2.82c.47.45,1.18.41,2.12-.14"/><path class="cls-8" d="M433.74,223.61q1.36.91,1.37,4.1a11.58,11.58,0,0,1-1.36,5.68,10.15,10.15,0,0,1-3.93,4q-2.56,1.48-3.94.57t-1.39-4.12a11.45,11.45,0,0,1,1.37-5.68,10.26,10.26,0,0,1,3.94-4Q432.37,222.69,433.74,223.61Zm-3.92,11.48q2.83-1.63,2.82-5.95t-2.82-2.71a5.15,5.15,0,0,0-2.12,2.32,8.4,8.4,0,0,0-.71,3.65,4,4,0,0,0,.72,2.82c.47.45,1.18.4,2.12-.14"/><polygon class="cls-8" points="446.33 214.84 442.46 222.75 446.4 227.63 443.71 229.17 440.78 225.46 439.79 226.86 439.8 231.43 437.44 232.8 437.4 220 439.76 218.63 439.78 224.49 440.7 222.45 443.71 216.35 446.33 214.84"/><g class="cls-1"><polygon class="cls-9" points="405.94 149.15 405.83 187.26 352.15 156.26 352.26 118.16 405.94 149.15"/><polygon class="cls-10" points="352.26 118.16 352.15 156.26 298.82 187.26 298.93 149.15 352.26 118.16"/><path class="cls-11" d="M352.08,86.84,460,149.15,352.78,211.47,244.85,149.15Zm.53,93.31,53.33-31-53.68-31-53.33,31,53.68,31"/><polygon class="cls-10" points="460.01 149.16 459.91 187.26 352.68 249.57 352.78 211.47 460.01 149.16"/><polygon class="cls-9" points="352.78 211.47 352.68 249.57 244.74 187.26 244.85 149.15 352.78 211.47"/></g><path class="cls-8" d="M366.95,218.08a7.33,7.33,0,0,1,1.65-.72,9,9,0,0,1,1.66-.29l-.76,2.55a8.57,8.57,0,0,0-1.48.27,4.84,4.84,0,0,0-1.14.49,2.86,2.86,0,0,0-1,1,2.09,2.09,0,0,0-.36,1.14.87.87,0,0,0,.15.55.74.74,0,0,0,.46.25,8.51,8.51,0,0,0,1.5,0,3.12,3.12,0,0,1,2.14.48,2.32,2.32,0,0,1,.59,1.78,6,6,0,0,1-1.08,3.36,8.91,8.91,0,0,1-3,2.74,6.7,6.7,0,0,1-3.16,1.05V230.2a9,9,0,0,0,1.91-.29,5.85,5.85,0,0,0,1.42-.59,3.7,3.7,0,0,0,1.19-1A2.12,2.12,0,0,0,368,227a.79.79,0,0,0-.18-.56,1,1,0,0,0-.54-.25,7.94,7.94,0,0,0-1.45,0,3.8,3.8,0,0,1-1.54-.18,1.66,1.66,0,0,1-.81-.71,2.67,2.67,0,0,1-.31-1.4,5.88,5.88,0,0,1,1-3.25A7.93,7.93,0,0,1,366.95,218.08Z"/><path class="cls-8" d="M381.77,219.9a10.13,10.13,0,0,1-2,3.42l2.7,1.89-3,1.75-2.05-1.69-.18.1q-2.56,1.48-3.93.56c-.92-.61-1.38-2-1.39-4.11a11.5,11.5,0,0,1,1.36-5.68,10.26,10.26,0,0,1,3.94-4q2.57-1.48,3.93-.57t1.37,4.1A12.18,12.18,0,0,1,381.77,219.9Zm-4.61,3.2q2.83-1.64,2.82-6t-2.82-2.71a5.18,5.18,0,0,0-2.12,2.32,8.39,8.39,0,0,0-.71,3.65,4,4,0,0,0,.72,2.83c.47.45,1.18.41,2.12-.13"/><polygon class="cls-8" points="387.11 206.63 387.14 217.18 391.66 214.57 391.67 216.82 384.78 220.79 384.75 207.99 387.11 206.63"/><path class="cls-8" d="M400.83,198.52a7.35,7.35,0,0,1,1.66-.72,8.9,8.9,0,0,1,1.65-.28l-.75,2.54a8.57,8.57,0,0,0-1.48.27,4.92,4.92,0,0,0-1.14.49,2.91,2.91,0,0,0-1,1,2.11,2.11,0,0,0-.35,1.14.87.87,0,0,0,.15.55.74.74,0,0,0,.46.25,8.12,8.12,0,0,0,1.5,0,3.12,3.12,0,0,1,2.14.48,2.32,2.32,0,0,1,.59,1.78,6,6,0,0,1-1.08,3.36,8.94,8.94,0,0,1-3,2.75,6.74,6.74,0,0,1-3.16,1.05v-2.52a9.35,9.35,0,0,0,1.91-.29,6,6,0,0,0,1.43-.59,3.7,3.7,0,0,0,1.19-1,2.12,2.12,0,0,0,.41-1.26.78.78,0,0,0-.19-.56,1,1,0,0,0-.54-.26,7.94,7.94,0,0,0-1.45,0,3.64,3.64,0,0,1-1.54-.18,1.71,1.71,0,0,1-.82-.71,2.76,2.76,0,0,1-.3-1.4,5.88,5.88,0,0,1,1-3.25A7.92,7.92,0,0,1,400.83,198.52Z"/><polygon class="cls-8" points="412.63 191.89 412.63 194.12 408.58 196.46 408.59 199.26 412.36 197.09 412.37 199.31 408.6 201.49 408.6 204.79 412.66 202.45 412.67 204.69 406.25 208.4 406.21 195.6 412.63 191.89"/><path class="cls-8" d="M434,179.55l-3.75,15L427.67,196l-3.82-10.62,2.39-1.38,2.12,6.41c.12.39.24.84.37,1.37s.2.9.23,1.11c.06-.57.24-1.63.57-3.16l2.09-8.83Z"/><path class="cls-8" d="M420.6,194.53q2.53,2.86,3.29,3.68l-2.62,1.51-2.68-3.38-1.26.73V202L415,203.35l0-12.8,3.25-1.88q2.27-1.31,3.36-1c.73.22,1.1,1,1.1,2.26a5.65,5.65,0,0,1-.54,2.32A8.66,8.66,0,0,1,420.6,194.53Zm-.85-1.49a2.76,2.76,0,0,0,.53-1.66c0-.6-.18-.93-.55-1A3.15,3.15,0,0,0,418,191l-.72.41v3.46l.77-.44a5.22,5.22,0,0,0,1.65-1.39"/><polygon class="cls-8" points="441.82 175.04 441.82 177.26 437.77 179.6 437.78 182.41 441.55 180.24 441.55 182.46 437.79 184.63 437.79 187.94 441.85 185.59 441.86 187.84 435.44 191.54 435.4 178.74 441.82 175.04"/><path class="cls-8" d="M449.78,177.68q2.53,2.86,3.3,3.68l-2.62,1.52-2.67-3.38-1.26.73v4.92l-2.36,1.36,0-12.8,3.24-1.87c1.51-.87,2.64-1.21,3.36-1s1.1,1,1.1,2.26a5.57,5.57,0,0,1-.54,2.32A8.48,8.48,0,0,1,449.78,177.68Zm-.85-1.49a2.73,2.73,0,0,0,.53-1.66c0-.6-.18-.93-.55-1a3.13,3.13,0,0,0-1.69.58l-.72.41V178l.76-.44a5.22,5.22,0,0,0,1.65-1.39"/><g class="cls-1"><polygon class="cls-5" points="405.93 105.89 405.82 143.99 352.14 113 352.25 74.9 405.93 105.89"/><polygon class="cls-6" points="352.25 74.9 352.14 113 298.81 143.99 298.92 105.89 352.25 74.9"/><path class="cls-7" d="M352.08,43.57,460,105.89,352.78,168.21,244.84,105.89Zm.53,93.31,53.33-31-53.68-31-53.33,31,53.68,31"/><polygon class="cls-6" points="460.01 105.89 459.91 143.99 352.67 206.31 352.78 168.21 460.01 105.89"/><polygon class="cls-5" points="352.78 168.21 352.67 206.31 244.73 143.99 244.84 105.89 352.78 168.21"/></g><polygon class="cls-8" points="380 165.15 380 167.41 376.98 169.16 377.01 179.7 374.65 181.06 374.62 170.52 371.59 172.27 371.58 170.01 380 165.15"/><path class="cls-8" d="M390.47,160.6q1.36.92,1.37,4.1a11.58,11.58,0,0,1-1.36,5.68,10.12,10.12,0,0,1-3.93,4c-1.7,1-3,1.18-3.94.56s-1.37-2-1.38-4.11a11.43,11.43,0,0,1,1.36-5.67,10.28,10.28,0,0,1,3.94-4Q389.1,159.69,390.47,160.6Zm-3.92,11.49q2.83-1.64,2.82-6t-2.82-2.7a5.15,5.15,0,0,0-2.12,2.31,8.43,8.43,0,0,0-.71,3.65,4,4,0,0,0,.71,2.83c.47.45,1.18.4,2.12-.14"/><path class="cls-8" d="M399.78,161c1.68,1.91,2.78,3.14,3.29,3.68l-2.62,1.52-2.67-3.37-1.26.73v4.91l-2.36,1.36,0-12.8,3.24-1.87c1.51-.87,2.64-1.2,3.36-1s1.1,1,1.1,2.25a5.54,5.54,0,0,1-.54,2.32A8.41,8.41,0,0,1,399.78,161Zm-.85-1.48a2.76,2.76,0,0,0,.53-1.66c0-.61-.19-.93-.55-1a3.16,3.16,0,0,0-1.69.59l-.72.41v3.46l.76-.44a5.21,5.21,0,0,0,1.65-1.38"/><path class="cls-8" d="M410.08,155c1.69,1.91,2.78,3.14,3.3,3.68l-2.62,1.52-2.68-3.37-1.26.73v4.91l-2.36,1.36,0-12.8,3.25-1.88c1.51-.87,2.63-1.2,3.36-1s1.1,1,1.1,2.25a5.54,5.54,0,0,1-.54,2.32A8.36,8.36,0,0,1,410.08,155Zm-.85-1.48a2.74,2.74,0,0,0,.53-1.66c0-.61-.18-.94-.55-1a3.16,3.16,0,0,0-1.69.59l-.72.42v3.46l.77-.44a5.21,5.21,0,0,0,1.65-1.38"/><polygon class="cls-8" points="421.15 141.39 421.16 143.62 417.11 145.96 417.11 148.77 420.89 146.59 420.89 148.81 417.12 150.99 417.13 154.29 421.18 151.95 421.19 154.19 414.77 157.89 414.74 145.09 421.15 141.39"/><path class="cls-8" d="M433.36,134.34l0,12.8-3,1.73L425.52,142l-.07,0c.1,1.65.16,2.85.16,3.58l0,6-2.11,1.22,0-12.8,3-1.72,4.87,6.79.05,0c-.08-1.61-.12-2.77-.12-3.46l0-6.06Z"/><polygon class="cls-8" points="443.49 128.49 443.49 130.75 440.47 132.49 440.5 143.04 438.14 144.4 438.11 133.86 435.08 135.61 435.08 133.35 443.49 128.49"/><g class="cls-1"><polygon class="cls-5" points="406.34 62.32 406.23 100.42 352.55 69.43 352.66 31.33 406.34 62.32"/><polygon class="cls-6" points="352.66 31.33 352.55 69.43 299.22 100.42 299.33 62.32 352.66 31.33"/><path class="cls-7" d="M352.48,0,460.42,62.32,353.18,124.64,245.25,62.32ZM353,93.31l53.33-31-53.68-31-53.33,31,53.68,31"/><polygon class="cls-6" points="460.42 62.32 460.31 100.42 353.07 162.74 353.18 124.64 460.42 62.32"/><polygon class="cls-5" points="353.18 124.64 353.07 162.74 245.14 100.42 245.25 62.32 353.18 124.64"/></g><polygon class="cls-8" points="385.95 118.57 385.96 120.79 381.91 123.14 381.91 125.95 385.69 123.77 385.69 126 381.92 128.18 381.93 131.48 385.98 129.14 385.99 131.37 379.57 135.08 379.54 122.28 385.95 118.57"/><path class="cls-8" d="M393,114.31a6.84,6.84,0,0,1,3.27-1l-.75,2.65a8.71,8.71,0,0,0-1.26.13,3.8,3.8,0,0,0-1.25.46,5.07,5.07,0,0,0-2.06,2.34,8.57,8.57,0,0,0-.73,3.64q0,4.28,2.81,2.66a15.14,15.14,0,0,0,2.85-2.32v2.28a13.6,13.6,0,0,1-3.06,2.42q-2.43,1.4-3.73.45t-1.3-4.12a12,12,0,0,1,.62-3.86,11,11,0,0,1,1.81-3.35A9.88,9.88,0,0,1,393,114.31Z"/><polygon class="cls-8" points="400.59 110.12 400.62 120.69 405.14 118.08 405.14 120.31 398.26 124.29 398.23 111.49 400.59 110.12"/><polygon class="cls-8" points="409.4 105.03 409.44 117.83 407.08 119.2 407.04 106.39 409.4 105.03"/><path class="cls-8" d="M418.85,100.58c.7.26,1.06,1.05,1.07,2.38a6.87,6.87,0,0,1-1.11,3.8,9.13,9.13,0,0,1-3.2,2.95l-1,.59v4.55l-2.36,1.36,0-12.8,3.56-2.05Q417.79,100.19,418.85,100.58ZM417,106.19a3.05,3.05,0,0,0,.54-1.75c0-.64-.16-1-.46-1.15s-.78,0-1.43.36l-1.07.62v3.81l.78-.45a4.76,4.76,0,0,0,1.63-1.44"/><path class="cls-8" d="M425.23,95.71a7.33,7.33,0,0,1,1.65-.72,9,9,0,0,1,1.66-.29l-.76,2.56a8.64,8.64,0,0,0-1.48.26,5.2,5.2,0,0,0-1.14.49,2.92,2.92,0,0,0-1,1,2.09,2.09,0,0,0-.35,1.15.86.86,0,0,0,.14.54.79.79,0,0,0,.46.26,9.71,9.71,0,0,0,1.5,0,3.12,3.12,0,0,1,2.14.48,2.32,2.32,0,0,1,.59,1.78,6,6,0,0,1-1.08,3.36,8.84,8.84,0,0,1-3,2.74,6.72,6.72,0,0,1-3.16,1.05v-2.52a9,9,0,0,0,1.91-.29,5.84,5.84,0,0,0,1.42-.58,3.69,3.69,0,0,0,1.19-1,2.08,2.08,0,0,0,.41-1.25.8.8,0,0,0-.18-.57,1.11,1.11,0,0,0-.54-.25,8.72,8.72,0,0,0-1.45,0,4,4,0,0,1-1.54-.17,1.7,1.7,0,0,1-.81-.71,2.69,2.69,0,0,1-.31-1.4,5.84,5.84,0,0,1,1-3.25A7.9,7.9,0,0,1,425.23,95.71Z"/><polygon class="cls-8" points="437.02 89.09 437.02 91.31 432.97 93.65 432.98 96.47 436.75 94.29 436.76 96.51 432.98 98.69 432.99 101.99 437.05 99.65 437.05 101.89 430.64 105.59 430.6 92.79 437.02 89.09"/><g class="cls-1"><polygon class="cls-9" points="295.22 300.97 295.11 339.08 241.43 308.09 241.54 269.98 295.22 300.97"/><polygon class="cls-10" points="241.54 269.98 241.43 308.09 188.1 339.08 188.21 300.97 241.54 269.98"/><path class="cls-11" d="M241.36,238.66,349.29,301,242.06,363.29,134.13,301Zm.53,93.31,53.33-31-53.68-31-53.33,31,53.68,31"/><polygon class="cls-10" points="349.29 300.98 349.19 339.08 241.96 401.4 242.06 363.29 349.29 300.98"/><polygon class="cls-9" points="242.06 363.29 241.96 401.4 134.02 339.08 134.13 300.97 242.06 363.29"/></g><path class="cls-8" d="M264.31,364.81l-2.8,14.44-2.69,1.55-1.53-5.86c-.06-.2-.16-.65-.29-1.32s-.21-1.13-.23-1.38q0,.5-.23,1.65c-.12.77-.21,1.32-.28,1.66l-1.49,7.58-2.68,1.55-2.88-11.16,2.32-1.34,1.44,6.17c.25,1.14.44,2.16.55,3,0-.36.1-.91.21-1.67s.21-1.36.3-1.8l1.6-8.11,2.23-1.29,1.64,6.24c.08.27.17.71.27,1.31s.19,1.11.25,1.56c0-.48.13-1.1.24-1.85s.21-1.35.3-1.82l1.4-7.81Z"/><polygon class="cls-8" points="272.13 360.29 272.13 362.51 268.08 364.86 268.09 367.67 271.86 365.49 271.87 367.72 268.09 369.89 268.1 373.2 272.16 370.86 272.16 373.09 265.75 376.8 265.71 364 272.13 360.29"/><path class="cls-8" d="M282.27,361.56a2.47,2.47,0,0,1,.47,1.71,5.88,5.88,0,0,1-1.1,3.37,8.87,8.87,0,0,1-3,2.71l-4.17,2.41,0-12.8,3.47-2c1.58-.91,2.73-1.32,3.44-1.21s1.08.72,1.08,1.85a5,5,0,0,1-.47,2.15,4.25,4.25,0,0,1-1.24,1.61v.09Q281.8,361.09,282.27,361.56ZM279.82,366a2.81,2.81,0,0,0,.46-1.58c0-1.06-.67-1.21-2-.45l-1.46.84v3.34l1.54-.89a4.23,4.23,0,0,0,1.44-1.27m-3-6.19v2.85l1.37-.79a4.45,4.45,0,0,0,1.39-1.14,2.27,2.27,0,0,0,.42-1.38c0-.49-.16-.76-.47-.79a2.92,2.92,0,0,0-1.48.53l-1.24.72"/><path class="cls-8" d="M292.21,348.51a7.4,7.4,0,0,1,1.66-.72,9.11,9.11,0,0,1,1.65-.28l-.75,2.55a8,8,0,0,0-1.48.26,5.27,5.27,0,0,0-1.15.49,2.86,2.86,0,0,0-1,1,2.13,2.13,0,0,0-.35,1.15.86.86,0,0,0,.15.54.74.74,0,0,0,.46.25,8.28,8.28,0,0,0,1.5,0,3.17,3.17,0,0,1,2.15.48,2.36,2.36,0,0,1,.58,1.78,5.93,5.93,0,0,1-1.08,3.36,8.84,8.84,0,0,1-3,2.74,6.72,6.72,0,0,1-3.16,1.05v-2.52a9.16,9.16,0,0,0,1.91-.29,5.91,5.91,0,0,0,1.43-.59,3.72,3.72,0,0,0,1.19-1,2.12,2.12,0,0,0,.41-1.26.78.78,0,0,0-.19-.56,1,1,0,0,0-.54-.26,8.35,8.35,0,0,0-1.45,0,3.64,3.64,0,0,1-1.54-.18,1.67,1.67,0,0,1-.82-.71,2.64,2.64,0,0,1-.31-1.39,5.93,5.93,0,0,1,1-3.26A8,8,0,0,1,292.21,348.51Z"/><polygon class="cls-8" points="304.01 341.88 304.01 344.11 299.96 346.45 299.97 349.26 303.74 347.08 303.75 349.31 299.97 351.49 299.98 354.79 304.04 352.45 304.04 354.69 297.63 358.39 297.59 345.59 304.01 341.88"/><path class="cls-8" d="M325.38,329.55l-3.76,15L319,346l-3.82-10.62,2.38-1.38,2.12,6.4c.12.39.24.84.36,1.37s.21.89.24,1.11c.06-.57.24-1.61.56-3.15l2.09-8.84Z"/><path class="cls-8" d="M312,344.52q2.52,2.87,3.29,3.68l-2.62,1.52L310,346.34l-1.26.73V352l-2.36,1.36,0-12.8,3.24-1.87c1.51-.87,2.64-1.21,3.37-1s1.09,1,1.09,2.26a5.63,5.63,0,0,1-.53,2.32A8.66,8.66,0,0,1,312,344.52Zm-.85-1.48a2.74,2.74,0,0,0,.53-1.66c0-.6-.19-.93-.55-1a3.13,3.13,0,0,0-1.69.58l-.72.41v3.46l.76-.44a5.22,5.22,0,0,0,1.65-1.39"/><polygon class="cls-8" points="333.19 325.03 333.2 327.26 329.14 329.6 329.15 332.41 332.92 330.23 332.93 332.46 329.16 334.64 329.17 337.94 333.22 335.6 333.23 337.84 326.81 341.54 326.77 328.74 333.19 325.03"/><path class="cls-8" d="M341.16,327.67q2.53,2.86,3.29,3.68l-2.62,1.51-2.68-3.38-1.26.73v4.92l-2.36,1.36,0-12.8,3.25-1.88q2.27-1.31,3.36-1t1.1,2.25a5.65,5.65,0,0,1-.54,2.32A8.66,8.66,0,0,1,341.16,327.67Zm-.85-1.49a2.76,2.76,0,0,0,.53-1.66c0-.6-.18-.93-.55-1a3.15,3.15,0,0,0-1.69.59l-.72.41V328l.77-.44a5.22,5.22,0,0,0,1.65-1.39"/><g class="cls-1"><polygon class="cls-5" points="295.16 257.4 295.05 295.51 241.37 264.52 241.48 226.41 295.16 257.4"/><polygon class="cls-6" points="241.48 226.41 241.37 264.52 188.04 295.51 188.15 257.4 241.48 226.41"/><path class="cls-7" d="M241.3,195.09,349.24,257.4,242,319.72,134.07,257.4Zm.53,93.31,53.33-31-53.68-31-53.33,31,53.68,31"/><polygon class="cls-6" points="349.24 257.4 349.13 295.51 241.9 357.83 242.01 319.72 349.24 257.4"/><polygon class="cls-5" points="242.01 319.72 241.9 357.83 133.96 295.51 134.07 257.4 242.01 319.72"/></g><polygon class="cls-8" points="266.6 318.54 266.6 320.76 262.54 323.11 262.55 326.41 266.33 324.23 266.34 326.44 262.56 328.63 262.57 333.69 260.25 335.03 260.21 322.23 266.6 318.54"/><polygon class="cls-8" points="271.14 315.92 271.18 328.72 268.81 330.08 268.78 317.28 271.14 315.92"/><path class="cls-8" d="M279.59,318.27c1.68,1.92,2.78,3.14,3.29,3.69l-2.62,1.51-2.68-3.38-1.26.73v4.92L274,327.1l0-12.8,3.24-1.87c1.52-.88,2.64-1.21,3.37-1s1.1,1,1.1,2.25a5.63,5.63,0,0,1-.54,2.32A8.54,8.54,0,0,1,279.59,318.27Zm-.85-1.48a2.76,2.76,0,0,0,.53-1.66c0-.61-.18-.94-.55-1a3.17,3.17,0,0,0-1.69.6l-.72.41v3.46l.76-.44a5.19,5.19,0,0,0,1.65-1.38"/><polygon class="cls-8" points="290.67 304.64 290.67 306.87 286.62 309.21 286.63 312.02 290.4 309.84 290.4 312.06 286.63 314.24 286.64 317.54 290.69 315.2 290.7 317.45 284.29 321.15 284.25 308.35 290.67 304.64"/><path class="cls-8" d="M306.67,295.4l-2.8,14.44-2.69,1.55-1.53-5.86c-.06-.21-.16-.65-.29-1.32s-.21-1.13-.23-1.38q0,.5-.23,1.65c-.12.77-.21,1.32-.28,1.65l-1.49,7.58-2.68,1.55-2.88-11.16,2.32-1.34,1.44,6.16c.25,1.15.44,2.16.55,3q0-.52.21-1.66c.11-.77.21-1.36.3-1.81L298,300.4l2.23-1.29,1.64,6.23q.12.42.27,1.32c.11.6.2,1.11.25,1.55,0-.48.13-1.1.24-1.85s.21-1.35.3-1.82l1.4-7.8Z"/><path class="cls-8" d="M313.5,291.4l4,10.58-2.55,1.47-.81-2.59-4.06,2.34-.8,3.52-2.55,1.47,3.9-15.13Zm-2.85,9.19,2.9-1.67c-.75-2.33-1.17-3.65-1.27-4s-.16-.55-.21-.74q-.25,1.27-1.42,6.38"/><polygon class="cls-8" points="321.21 287.01 321.24 297.56 325.75 294.96 325.76 297.2 318.88 301.17 318.85 288.37 321.21 287.01"/><polygon class="cls-8" points="330.03 281.92 330.06 292.47 334.57 289.87 334.58 292.11 327.7 296.08 327.66 283.28 330.03 281.92"/><g class="cls-1"><polygon class="cls-5" points="295.16 213.36 295.05 251.46 241.37 220.47 241.48 182.36 295.16 213.36"/><polygon class="cls-6" points="241.48 182.36 241.37 220.47 188.04 251.46 188.15 213.36 241.48 182.36"/><path class="cls-7" d="M241.3,151l107.94,62.32L242,275.67,134.07,213.36Zm.53,93.31,53.33-31-53.68-31-53.33,31,53.68,31"/><polygon class="cls-6" points="349.24 213.36 349.13 251.46 241.9 313.78 242.01 275.68 349.24 213.36"/><polygon class="cls-5" points="242.01 275.68 241.9 313.78 133.96 251.46 134.07 213.36 242.01 275.68"/></g><path class="cls-8" d="M281.21,265.42l-2.8,14.44-2.69,1.55-1.53-5.85c-.06-.21-.16-.65-.29-1.32s-.21-1.13-.24-1.37c0,.33-.1.89-.22,1.66s-.21,1.31-.28,1.66l-1.48,7.57L269,285.29l-2.88-11.16,2.32-1.34,1.44,6.17c.25,1.15.43,2.16.55,3,0-.35.1-.91.21-1.67s.21-1.36.3-1.8l1.6-8.11,2.23-1.29,1.64,6.24c.07.28.16.72.27,1.31s.19,1.12.25,1.56c0-.48.13-1.1.24-1.84s.21-1.36.3-1.83l1.4-7.81Z"/><polygon class="cls-8" points="284.98 263.24 285.01 276.05 282.65 277.41 282.61 264.61 284.98 263.24"/><path class="cls-8" d="M297.66,255.92l0,12.8-3,1.73-4.87-6.89-.07,0c.1,1.65.16,2.85.16,3.58l0,6-2.11,1.22,0-12.8,3-1.72,4.87,6.79.05,0c-.08-1.61-.12-2.77-.12-3.46l0-6.06Z"/><polygon class="cls-8" points="311.64 247.85 311.64 249.6 306.34 261.49 311.81 258.33 311.82 260.57 303.53 265.36 303.52 263.6 308.84 251.71 303.64 254.71 303.64 252.47 311.64 247.85"/><polygon class="cls-8" points="315.92 245.38 315.96 258.18 313.6 259.54 313.56 246.74 315.92 245.38"/><path class="cls-8" d="M325.37,240.93c.71.26,1.06,1.05,1.07,2.38a6.87,6.87,0,0,1-1.11,3.8,9.13,9.13,0,0,1-3.2,2.95l-1,.59v4.55l-2.36,1.36,0-12.8,3.56-2.06Q324.31,240.53,325.37,240.93Zm-1.86,5.61a3.05,3.05,0,0,0,.54-1.75c0-.64-.16-1-.46-1.15s-.77,0-1.42.36l-1.08.62v3.81l.78-.45a4.76,4.76,0,0,0,1.63-1.44"/><g class="cls-1"><polygon class="cls-5" points="295.16 169.79 295.05 207.89 241.37 176.9 241.48 138.79 295.16 169.79"/><polygon class="cls-6" points="241.48 138.79 241.37 176.9 188.04 207.89 188.15 169.79 241.48 138.79"/><path class="cls-7" d="M241.3,107.47l107.94,62.32L242,232.11,134.07,169.79Zm.53,93.31,53.33-31-53.68-31-53.33,31,53.68,31"/><polygon class="cls-6" points="349.24 169.79 349.13 207.89 241.9 270.21 242.01 232.1 349.24 169.79"/><polygon class="cls-5" points="242.01 232.1 241.9 270.21 133.96 207.89 134.07 169.79 242.01 232.1"/></g><polygon class="cls-8" points="281.43 222.36 281.44 224.58 277.38 226.92 277.39 229.74 281.17 227.56 281.17 229.78 277.4 231.96 277.41 235.26 281.46 232.92 281.47 235.16 275.05 238.86 275.02 226.06 281.43 222.36"/><polygon class="cls-8" points="292.5 215.97 289.02 224.34 292.8 228.62 290.11 230.17 287.5 226.82 284.92 233.16 282.39 234.62 286.07 225.89 282.6 221.69 285.2 220.18 287.61 223.4 289.96 217.43 292.5 215.97"/><path class="cls-8" d="M298.9,212.09a6.86,6.86,0,0,1,3.27-1l-.76,2.65a8.62,8.62,0,0,0-1.25.13,3.83,3.83,0,0,0-1.25.46,5.07,5.07,0,0,0-2.06,2.34,8.49,8.49,0,0,0-.73,3.64q0,4.28,2.81,2.66a15.09,15.09,0,0,0,2.84-2.32V223a13.57,13.57,0,0,1-3.06,2.42c-1.62.93-2.86,1.09-3.72.45s-1.3-2-1.3-4.12a12,12,0,0,1,.62-3.86,11,11,0,0,1,1.81-3.35A9.88,9.88,0,0,1,298.9,212.09Z"/><polygon class="cls-8" points="310.53 205.56 310.53 207.78 306.48 210.12 306.49 212.94 310.26 210.76 310.27 212.98 306.49 215.16 306.5 218.46 310.56 216.12 310.56 218.36 304.15 222.06 304.11 209.26 310.53 205.56"/><polygon class="cls-8" points="315.21 202.85 315.24 213.42 319.76 210.81 319.77 213.04 312.89 217.02 312.85 204.22 315.21 202.85"/><g class="cls-1"><polygon class="cls-5" points="295.56 126.22 295.46 164.32 241.78 133.33 241.89 95.23 295.56 126.22"/><polygon class="cls-6" points="241.89 95.23 241.78 133.33 188.45 164.32 188.56 126.22 241.89 95.23"/><path class="cls-7" d="M241.71,63.9l107.94,62.32L242.41,188.54,134.47,126.22Zm.53,93.31,53.33-31-53.68-31-53.33,31,53.68,31"/><polygon class="cls-6" points="349.65 126.22 349.54 164.32 242.3 226.64 242.41 188.54 349.65 126.22"/><polygon class="cls-5" points="242.41 188.54 242.3 226.64 134.37 164.32 134.47 126.22 242.41 188.54"/></g><path class="cls-8" d="M267.58,186.4a7.35,7.35,0,0,1,1.66-.72,9.12,9.12,0,0,1,1.65-.28l-.75,2.55a8.65,8.65,0,0,0-1.48.26,5.27,5.27,0,0,0-1.15.49,2.88,2.88,0,0,0-1,1,2.13,2.13,0,0,0-.35,1.15.86.86,0,0,0,.15.54.79.79,0,0,0,.46.26,9.2,9.2,0,0,0,1.5,0,3.12,3.12,0,0,1,2.14.48,2.35,2.35,0,0,1,.59,1.78,6,6,0,0,1-1.08,3.36,8.89,8.89,0,0,1-3,2.75,6.72,6.72,0,0,1-3.16,1.05v-2.52a9.35,9.35,0,0,0,1.91-.29,5.89,5.89,0,0,0,1.43-.58,3.74,3.74,0,0,0,1.19-1,2.12,2.12,0,0,0,.41-1.25.79.79,0,0,0-.19-.57,1,1,0,0,0-.54-.26,8.73,8.73,0,0,0-1.45,0,3.79,3.79,0,0,1-1.54-.17,1.75,1.75,0,0,1-.82-.71,2.69,2.69,0,0,1-.31-1.4,5.89,5.89,0,0,1,1-3.25A7.93,7.93,0,0,1,267.58,186.4Z"/><path class="cls-8" d="M282,178.24l0,8.28a7.57,7.57,0,0,1-.54,2.8,8.68,8.68,0,0,1-1.59,2.57,10,10,0,0,1-2.47,2c-1.43.83-2.55,1.05-3.34.67s-1.19-1.32-1.2-2.78l0-8.25,2.36-1.36,0,7.84c0,1,.18,1.61.52,1.87s.92.16,1.72-.3a4.19,4.19,0,0,0,1.68-1.67,5.35,5.35,0,0,0,.52-2.49l0-7.82Z"/><path class="cls-8" d="M292.58,179.27A2.44,2.44,0,0,1,293,181a5.9,5.9,0,0,1-1.09,3.37,8.93,8.93,0,0,1-3,2.7l-4.17,2.41,0-12.8,3.47-2c1.58-.91,2.73-1.32,3.44-1.21s1.07.72,1.07,1.85a5,5,0,0,1-.46,2.15,4.19,4.19,0,0,1-1.24,1.61v.09C291.75,178.92,292.26,179,292.58,179.27Zm-2.44,4.44a2.75,2.75,0,0,0,.46-1.58q0-1.6-2-.45l-1.46.84v3.34l1.54-.89a4.18,4.18,0,0,0,1.44-1.26m-3-6.19v2.85l1.37-.79a4.42,4.42,0,0,0,1.39-1.14,2.28,2.28,0,0,0,.43-1.38c0-.49-.16-.75-.48-.78a2.9,2.9,0,0,0-1.48.53l-1.24.72"/><polygon class="cls-8" points="297.61 169.24 297.64 179.81 302.16 177.2 302.17 179.44 295.29 183.41 295.25 170.61 297.61 169.24"/><polygon class="cls-8" points="306.43 164.15 306.46 176.95 304.1 178.32 304.07 165.52 306.43 164.15"/><path class="cls-8" d="M321.15,155.65l0,12.8-2.2,1.27,0-6.06c0-.29,0-.62,0-1s0-1.39.09-3l-.07,0-2.84,11.68L314,172.61l-2.71-8.5-.07,0q.15,3,.16,4l0,6-2.11,1.22,0-12.8,3.22-1.86,2.66,8.27,0,0,2.77-11.41Z"/><polygon class="cls-8" points="330.37 150.33 330.37 152.56 326.32 154.9 326.32 157.71 330.1 155.53 330.1 157.76 326.33 159.94 326.34 163.24 330.39 160.9 330.4 163.13 323.98 166.84 323.95 154.04 330.37 150.33"/><g class="cls-1"><polygon class="cls-5" points="184.32 365.96 184.21 404.07 130.53 373.08 130.64 334.97 184.32 365.96"/><polygon class="cls-6" points="130.64 334.97 130.53 373.08 77.2 404.07 77.31 365.96 130.64 334.97"/><path class="cls-7" d="M130.46,303.65,238.4,366,131.16,428.28,23.23,366ZM131,397l53.33-31-53.68-31L77.31,366,131,397"/><polygon class="cls-6" points="238.4 365.96 238.29 404.07 131.06 466.39 131.16 428.28 238.4 365.96"/><polygon class="cls-5" points="131.16 428.28 131.06 466.39 23.12 404.07 23.23 365.96 131.16 428.28"/></g><path class="cls-8" d="M154.77,435a2.42,2.42,0,0,1,.48,1.71,5.88,5.88,0,0,1-1.1,3.37,9,9,0,0,1-3,2.71L147,445.2l0-12.8,3.47-2c1.58-.91,2.73-1.32,3.44-1.21s1.08.72,1.08,1.84a5,5,0,0,1-.47,2.16,4.25,4.25,0,0,1-1.24,1.61v.09C154,434.65,154.46,434.69,154.77,435Zm-2.44,4.43a2.79,2.79,0,0,0,.46-1.58q0-1.6-2-.45l-1.46.84v3.33l1.54-.89a4.22,4.22,0,0,0,1.44-1.26m-3-6.19v2.85l1.37-.79a4.46,4.46,0,0,0,1.39-1.15,2.29,2.29,0,0,0,.42-1.38c0-.48-.16-.74-.47-.78a2.93,2.93,0,0,0-1.49.54l-1.24.72"/><path class="cls-8" d="M160.66,424.3a7,7,0,0,1,1.65-.72,8.39,8.39,0,0,1,1.66-.29l-.75,2.54a10.06,10.06,0,0,0-1.48.26,5.3,5.3,0,0,0-1.15.5,2.86,2.86,0,0,0-1,1,2.07,2.07,0,0,0-.35,1.14.9.9,0,0,0,.14.55.8.8,0,0,0,.47.24,7.85,7.85,0,0,0,1.5,0,3.16,3.16,0,0,1,2.15.49,2.34,2.34,0,0,1,.58,1.78,5.93,5.93,0,0,1-1.08,3.36,8.91,8.91,0,0,1-3,2.74,6.72,6.72,0,0,1-3.16,1.05v-2.52a10.27,10.27,0,0,0,1.91-.29,6.17,6.17,0,0,0,1.43-.59,3.67,3.67,0,0,0,1.19-1,2.1,2.1,0,0,0,.41-1.26.79.79,0,0,0-.18-.56,1,1,0,0,0-.54-.26,8.15,8.15,0,0,0-1.45,0,3.8,3.8,0,0,1-1.53-.18,1.7,1.7,0,0,1-.82-.71,2.67,2.67,0,0,1-.31-1.4,5.88,5.88,0,0,1,1-3.25A8,8,0,0,1,160.66,424.3Z"/><path class="cls-8" d="M176.74,416.21c.7.26,1.06,1.06,1.06,2.38a6.88,6.88,0,0,1-1.11,3.81,9.14,9.14,0,0,1-3.2,2.94l-1,.58v4.56l-2.36,1.36,0-12.8,3.56-2.05C175,416.2,176,415.94,176.74,416.21Zm-1.86,5.61a3.1,3.1,0,0,0,.53-1.75c0-.63-.15-1-.46-1.15s-.77,0-1.42.36l-1.07.62v3.8l.77-.45a4.8,4.8,0,0,0,1.63-1.44"/><polygon class="cls-8" points="182.25 412.02 182.28 422.58 186.81 419.97 186.81 422.21 179.93 426.19 179.89 413.38 182.25 412.02"/><path class="cls-8" d="M194.13,405.11l4,10.58-2.54,1.47-.82-2.58-4.06,2.34-.8,3.52-2.54,1.47,3.9-15.12Zm-2.85,9.19,2.9-1.68-1.28-4c-.09-.32-.16-.56-.2-.74q-.26,1.26-1.43,6.37"/><polygon class="cls-8" points="207.82 397.26 204.14 407.21 204.16 412.2 201.81 413.55 201.79 408.66 198.08 402.88 200.64 401.41 202.96 405.34 205.27 398.73 207.82 397.26"/><polygon class="cls-8" points="215.63 392.75 215.64 394.97 211.59 397.31 211.59 400.12 215.37 397.94 215.37 400.17 211.6 402.35 211.61 405.65 215.66 403.31 215.67 405.55 209.25 409.25 209.22 396.45 215.63 392.75"/><path class="cls-8" d="M223.6,395.38q2.53,2.86,3.29,3.68l-2.62,1.51-2.68-3.38-1.26.73v4.92L218,404.21l0-12.8,3.25-1.88q2.27-1.31,3.36-1c.73.22,1.1,1,1.1,2.26a5.57,5.57,0,0,1-.54,2.32A8.47,8.47,0,0,1,223.6,395.38Zm-.85-1.49a2.76,2.76,0,0,0,.53-1.66c0-.61-.18-.93-.55-1a3.13,3.13,0,0,0-1.69.58l-.72.42v3.46l.77-.44a5.21,5.21,0,0,0,1.65-1.38"/><g class="cls-1"><polygon class="cls-9" points="184.32 322.32 184.22 360.43 130.54 329.44 130.64 291.33 184.32 322.32"/><polygon class="cls-10" points="130.64 291.33 130.54 329.44 77.2 360.43 77.31 322.32 130.64 291.33"/><path class="cls-11" d="M130.46,260,238.4,322.32,131.17,384.64,23.23,322.32Zm.53,93.31,53.33-31-53.68-31-53.33,31,53.68,31"/><polygon class="cls-10" points="238.4 322.32 238.29 360.43 131.06 422.75 131.17 384.64 238.4 322.32"/><polygon class="cls-9" points="131.17 384.64 131.06 422.75 23.12 360.43 23.23 322.32 131.17 384.64"/></g><path class="cls-8" d="M147.12,389.74l4,10.58-2.54,1.47-.82-2.58-4.06,2.34-.8,3.51-2.54,1.47,3.9-15.12Zm-2.85,9.19,2.9-1.68-1.28-4a7.4,7.4,0,0,1-.2-.74q-.26,1.27-1.43,6.37"/><path class="cls-8" d="M159.12,383.87c.7.26,1.06,1.06,1.06,2.38a6.83,6.83,0,0,1-1.11,3.81,9.06,9.06,0,0,1-3.19,2.94l-1,.59v4.56l-2.36,1.36,0-12.8,3.56-2.05Q158.06,383.47,159.12,383.87Zm-1.86,5.61a3.07,3.07,0,0,0,.54-1.75c0-.64-.16-1-.46-1.15s-.78,0-1.43.37l-1.07.62v3.8l.78-.45a4.77,4.77,0,0,0,1.63-1.43"/><path class="cls-8" d="M168.92,378.21c.7.26,1.06,1.06,1.06,2.38a6.83,6.83,0,0,1-1.11,3.81,9.06,9.06,0,0,1-3.19,2.94l-1,.59v4.56l-2.36,1.36,0-12.8,3.56-2.05Q167.86,377.82,168.92,378.21Zm-1.86,5.61a3.11,3.11,0,0,0,.54-1.75c0-.64-.16-1-.46-1.15s-.78,0-1.43.37l-1.07.62v3.8l.78-.45a4.79,4.79,0,0,0,1.63-1.43"/><path class="cls-8" d="M179.34,371a7.36,7.36,0,0,1,1.66-.72,9.11,9.11,0,0,1,1.65-.28l-.75,2.55a8,8,0,0,0-1.48.26,5.27,5.27,0,0,0-1.15.49,2.88,2.88,0,0,0-1,1,2.13,2.13,0,0,0-.35,1.15.86.86,0,0,0,.15.54.74.74,0,0,0,.46.25,8.12,8.12,0,0,0,1.5,0,3.12,3.12,0,0,1,2.14.48,2.32,2.32,0,0,1,.59,1.78,6,6,0,0,1-1.08,3.36,8.87,8.87,0,0,1-3,2.75,6.74,6.74,0,0,1-3.16,1.05v-2.52a9.35,9.35,0,0,0,1.91-.29,5.91,5.91,0,0,0,1.43-.59,3.7,3.7,0,0,0,1.19-1,2.12,2.12,0,0,0,.41-1.26.78.78,0,0,0-.19-.56,1,1,0,0,0-.54-.26,8.72,8.72,0,0,0-1.45,0,3.79,3.79,0,0,1-1.54-.17,1.77,1.77,0,0,1-.82-.72,2.74,2.74,0,0,1-.3-1.4,5.84,5.84,0,0,1,1-3.25A7.87,7.87,0,0,1,179.34,371Z"/><polygon class="cls-8" points="191.14 364.38 191.14 366.6 187.09 368.94 187.1 371.75 190.87 369.57 190.88 371.8 187.1 373.98 187.11 377.28 191.17 374.94 191.17 377.18 184.76 380.88 184.72 368.08 191.14 364.38"/><g class="cls-1"><path class="cls-8" d="M212.51,352l-3.75,15-2.58,1.49-3.82-10.62,2.39-1.38,2.12,6.41c.12.38.24.83.37,1.36s.2.9.23,1.11q.08-.85.57-3.15l2.09-8.84Z"/><path class="cls-8" d="M199.11,367c1.69,1.91,2.78,3.14,3.29,3.68l-2.62,1.51-2.68-3.37-1.26.73v4.91l-2.36,1.36,0-12.8,3.25-1.88q2.27-1.31,3.36-1t1.1,2.25a5.63,5.63,0,0,1-.54,2.32A8.66,8.66,0,0,1,199.11,367Zm-.85-1.49a2.76,2.76,0,0,0,.53-1.66c0-.6-.18-.93-.55-1a3.15,3.15,0,0,0-1.69.59l-.72.41v3.46l.76-.44a5.26,5.26,0,0,0,1.66-1.39"/></g><polygon class="cls-8" points="220.32 347.52 220.33 349.75 216.28 352.08 216.29 354.89 220.06 352.72 220.06 354.95 216.29 357.13 216.3 360.43 220.35 358.09 220.36 360.33 213.94 364.03 213.91 351.23 220.32 347.52"/><path class="cls-8" d="M228.29,350.16c1.69,1.91,2.78,3.14,3.3,3.68L229,355.36,226.29,352l-1.25.72v4.91L222.69,359l0-12.8,3.24-1.87c1.51-.87,2.64-1.21,3.36-1s1.1,1,1.1,2.25a5.54,5.54,0,0,1-.54,2.32A8.48,8.48,0,0,1,228.29,350.16Zm-.85-1.49A2.73,2.73,0,0,0,228,347c0-.6-.18-.93-.55-1a3.13,3.13,0,0,0-1.69.58L225,347v3.46l.76-.44a5.22,5.22,0,0,0,1.65-1.39"/><g class="cls-1"><polygon class="cls-5" points="184.32 278.35 184.21 316.45 130.53 285.46 130.64 247.36 184.32 278.35"/><polygon class="cls-6" points="130.64 247.36 130.53 285.46 77.2 316.45 77.31 278.35 130.64 247.36"/><path class="cls-7" d="M130.46,216,238.4,278.35,131.16,340.67,23.23,278.35Zm.53,93.31,53.33-31-53.68-31-53.33,31,53.68,31"/><polygon class="cls-6" points="238.4 278.35 238.29 316.45 131.06 378.77 131.16 340.67 238.4 278.35"/><polygon class="cls-5" points="131.16 340.67 131.06 378.77 23.12 316.45 23.23 278.35 131.16 340.67"/></g><polygon class="cls-8" points="161.91 336.15 161.92 338.37 157.85 340.72 157.86 344.02 161.64 341.84 161.65 344.05 157.87 346.24 157.88 351.3 155.56 352.64 155.52 339.84 161.91 336.15"/><polygon class="cls-8" points="166.45 333.53 166.49 346.33 164.13 347.69 164.09 334.89 166.45 333.53"/><path class="cls-8" d="M174.9,335.88c1.69,1.91,2.78,3.14,3.29,3.69l-2.62,1.51-2.68-3.38-1.26.73v4.92l-2.36,1.36,0-12.8,3.25-1.88q2.27-1.31,3.36-1t1.1,2.25a5.63,5.63,0,0,1-.54,2.32A8.45,8.45,0,0,1,174.9,335.88Zm-.85-1.48a2.78,2.78,0,0,0,.53-1.66c0-.61-.18-.94-.55-1a3.17,3.17,0,0,0-1.69.6l-.72.41v3.46l.77-.44a5.21,5.21,0,0,0,1.65-1.38"/><polygon class="cls-8" points="185.98 322.25 185.98 324.48 181.93 326.82 181.94 329.63 185.71 327.45 185.72 329.67 181.94 331.85 181.95 335.15 186.01 332.81 186.01 335.06 179.6 338.76 179.56 325.96 185.98 322.25"/><polygon class="cls-8" points="194.69 317.22 194.69 319.45 190.63 321.79 190.64 325.09 194.42 322.91 194.43 325.13 190.65 327.31 190.66 332.37 188.34 333.71 188.3 320.91 194.69 317.22"/><path class="cls-8" d="M205.62,312.41q1.36.91,1.37,4.1a11.56,11.56,0,0,1-1.35,5.68,10.18,10.18,0,0,1-3.93,4q-2.57,1.48-3.94.57t-1.39-4.12a11.49,11.49,0,0,1,1.36-5.67,10.28,10.28,0,0,1,3.94-4Q204.26,311.49,205.62,312.41Zm-3.91,11.47q2.83-1.63,2.82-5.95t-2.83-2.7a5.18,5.18,0,0,0-2.12,2.32,8.39,8.39,0,0,0-.71,3.65,4,4,0,0,0,.72,2.82c.47.45,1.18.41,2.12-.14"/><polygon class="cls-8" points="218.03 303.75 214.55 312.11 218.33 316.39 215.63 317.95 213.03 314.61 210.45 320.94 207.92 322.41 211.6 313.67 208.12 309.47 210.73 307.96 213.14 311.18 215.48 305.22 218.03 303.75"/><g class="cls-1"><polygon class="cls-9" points="184.78 234.47 184.67 272.58 130.99 241.59 131.1 203.48 184.78 234.47"/><polygon class="cls-10" points="131.1 203.48 130.99 241.59 77.66 272.58 77.77 234.47 131.1 203.48"/><path class="cls-11" d="M130.92,172.16l107.94,62.32L131.62,296.79,23.69,234.47Zm.53,93.31,53.33-31-53.68-31-53.33,31,53.68,31"/><polygon class="cls-10" points="238.85 234.48 238.75 272.58 131.52 334.9 131.63 296.79 238.85 234.48"/><polygon class="cls-9" points="131.63 296.79 131.52 334.9 23.58 272.58 23.69 234.47 131.63 296.79"/></g><path class="cls-8" d="M157.66,297.7c.7.26,1.06,1.06,1.06,2.38a6.88,6.88,0,0,1-1.11,3.81,9.09,9.09,0,0,1-3.2,2.95l-1,.58V312l-2.36,1.36,0-12.8,3.56-2.05Q156.6,297.3,157.66,297.7Zm-1.86,5.61a3.09,3.09,0,0,0,.53-1.75c0-.64-.15-1-.46-1.15s-.77,0-1.42.36l-1.07.62v3.8l.77-.45a4.8,4.8,0,0,0,1.63-1.44"/><path class="cls-8" d="M166.45,298.85c1.69,1.91,2.78,3.14,3.3,3.68L167.13,304l-2.68-3.37-1.25.72v4.91l-2.37,1.37,0-12.8,3.25-1.88c1.51-.87,2.64-1.21,3.36-1s1.1,1,1.1,2.25a5.54,5.54,0,0,1-.54,2.32A8.36,8.36,0,0,1,166.45,298.85Zm-.85-1.49a2.73,2.73,0,0,0,.53-1.66c0-.6-.18-.93-.55-1a3.13,3.13,0,0,0-1.69.58l-.72.41v3.46l.76-.44a5.22,5.22,0,0,0,1.65-1.39"/><path class="cls-8" d="M179.87,285.36q1.36.92,1.37,4.1a11.58,11.58,0,0,1-1.36,5.68,10.17,10.17,0,0,1-3.93,4c-1.7,1-3,1.17-3.94.56s-1.37-2-1.38-4.11A11.43,11.43,0,0,1,172,289.9a10.23,10.23,0,0,1,3.94-4Q178.51,284.45,179.87,285.36ZM176,296.85q2.83-1.64,2.82-6t-2.82-2.7a5.16,5.16,0,0,0-2.12,2.31,8.39,8.39,0,0,0-.71,3.65,4,4,0,0,0,.72,2.83c.47.45,1.18.41,2.12-.13"/><polygon class="cls-8" points="189.92 278.06 189.93 280.28 185.87 282.63 185.88 285.93 189.66 283.75 189.66 285.96 185.88 288.14 185.9 293.21 183.57 294.55 183.54 281.75 189.92 278.06"/><polygon class="cls-8" points="194.46 275.44 194.5 288.24 192.14 289.61 192.1 276.8 194.46 275.44"/><polygon class="cls-8" points="199.63 272.45 199.66 283.02 204.18 280.41 204.19 282.65 197.31 286.62 197.27 273.82 199.63 272.45"/><polygon class="cls-8" points="212.51 265.02 212.51 267.25 208.46 269.59 208.47 272.4 212.23 270.22 212.24 272.45 208.47 274.63 208.48 277.93 212.54 275.59 212.54 277.82 206.13 281.53 206.09 268.73 212.51 265.02"/><path class="cls-8" d="M220.47,267.66c1.69,1.91,2.78,3.14,3.3,3.68l-2.62,1.52-2.67-3.37-1.26.73v4.91l-2.36,1.36,0-12.8,3.24-1.87c1.51-.87,2.64-1.21,3.36-1s1.1,1,1.1,2.25a5.54,5.54,0,0,1-.54,2.32A8.36,8.36,0,0,1,220.47,267.66Zm-.85-1.49a2.73,2.73,0,0,0,.53-1.66c0-.6-.18-.93-.55-1a3.13,3.13,0,0,0-1.69.58l-.72.41V268l.76-.44a5.22,5.22,0,0,0,1.65-1.39"/><g class="cls-1"><polygon class="cls-5" points="184.72 191.21 184.61 229.31 130.94 198.32 131.04 160.22 184.72 191.21"/><polygon class="cls-6" points="131.04 160.22 130.94 198.32 77.6 229.31 77.71 191.21 131.04 160.22"/><path class="cls-7" d="M130.87,128.89,238.8,191.21,131.57,253.53,23.63,191.21Zm.53,93.31,53.33-31-53.68-31-53.33,31,53.68,31"/><polygon class="cls-6" points="238.8 191.21 238.7 229.31 131.46 291.63 131.57 253.53 238.8 191.21"/><polygon class="cls-5" points="131.57 253.53 131.46 291.63 23.52 229.31 23.63 191.21 131.57 253.53"/></g><path class="cls-8" d="M167.28,245.3a7,7,0,0,1,1.66-.72,8.52,8.52,0,0,1,1.65-.29l-.75,2.55a8.64,8.64,0,0,0-1.48.26,5.27,5.27,0,0,0-1.15.49,2.92,2.92,0,0,0-1,1,2.15,2.15,0,0,0-.35,1.15.85.85,0,0,0,.15.54.75.75,0,0,0,.46.26,8.57,8.57,0,0,0,1.5,0,3.12,3.12,0,0,1,2.15.49,2.32,2.32,0,0,1,.59,1.78,5.91,5.91,0,0,1-1.08,3.36,8.84,8.84,0,0,1-3,2.74,6.72,6.72,0,0,1-3.16,1.05v-2.52a10.26,10.26,0,0,0,1.91-.29,6.21,6.21,0,0,0,1.43-.59,3.74,3.74,0,0,0,1.19-1,2.12,2.12,0,0,0,.41-1.25.77.77,0,0,0-.19-.56.93.93,0,0,0-.54-.26,8.9,8.9,0,0,0-1.45,0,3.79,3.79,0,0,1-1.54-.17,1.7,1.7,0,0,1-.82-.71,2.67,2.67,0,0,1-.31-1.4,5.9,5.9,0,0,1,1-3.25A8,8,0,0,1,167.28,245.3Z"/><polygon class="cls-8" points="191.37 231.59 187.69 241.53 187.7 246.52 185.35 247.88 185.34 242.98 181.62 237.21 184.19 235.73 186.51 239.66 188.82 233.06 191.37 231.59"/><polygon class="cls-8" points="181.6 237.22 177.72 245.13 181.66 250.01 178.98 251.56 176.04 247.85 175.05 249.25 175.06 253.82 172.7 255.19 172.66 242.38 175.03 241.02 175.04 246.87 175.97 244.84 178.97 238.74 181.6 237.22"/><path class="cls-8" d="M199.41,227.94q1.06.39,1.06,2.39a6.89,6.89,0,0,1-1.11,3.81,9.14,9.14,0,0,1-3.2,2.94l-1,.59v4.56l-2.36,1.36,0-12.8,3.56-2.06C197.68,227.94,198.7,227.68,199.41,227.94Zm-1.86,5.61a3.07,3.07,0,0,0,.53-1.75c0-.64-.15-1-.46-1.15s-.77,0-1.42.36l-1.08.62v3.8l.78-.45a4.82,4.82,0,0,0,1.63-1.44"/><polygon class="cls-8" points="208.98 221.41 208.99 223.64 204.93 225.98 204.94 228.79 208.71 226.61 208.72 228.83 204.95 231.01 204.96 234.31 209.01 231.97 209.02 234.22 202.6 237.92 202.56 225.12 208.98 221.41"/><polygon class="cls-8" points="294.67 396.31 294.71 409.12 292.35 410.48 292.34 404.95 287.93 407.5 287.94 413.02 285.58 414.39 285.54 401.59 287.9 400.22 287.92 405.24 292.33 402.69 292.32 397.68 294.67 396.31"/><path class="cls-8" d="M306.24,391.14q1.36.92,1.37,4.1a11.52,11.52,0,0,1-1.36,5.68,10.11,10.11,0,0,1-3.92,4c-1.71,1-3,1.18-3.94.56s-1.38-2-1.39-4.11a11.49,11.49,0,0,1,1.36-5.67,10.23,10.23,0,0,1,3.94-4Q304.88,390.23,306.24,391.14Zm-3.91,11.48q2.83-1.63,2.81-6t-2.82-2.7a5.16,5.16,0,0,0-2.12,2.31,8.39,8.39,0,0,0-.71,3.65,4,4,0,0,0,.72,2.83c.47.45,1.18.41,2.12-.14"/><path class="cls-8" d="M313.12,385.48a7.33,7.33,0,0,1,1.65-.72,9,9,0,0,1,1.66-.29l-.76,2.56a8.64,8.64,0,0,0-1.48.26,5.2,5.2,0,0,0-1.14.49,2.86,2.86,0,0,0-1,1,2.09,2.09,0,0,0-.35,1.15.88.88,0,0,0,.14.54.79.79,0,0,0,.46.26,9.71,9.71,0,0,0,1.5,0,3.12,3.12,0,0,1,2.14.48,2.32,2.32,0,0,1,.59,1.78,6,6,0,0,1-1.08,3.36,8.84,8.84,0,0,1-3,2.74,6.72,6.72,0,0,1-3.16,1.05V397.6a9.12,9.12,0,0,0,1.9-.28,5.94,5.94,0,0,0,1.43-.58,3.69,3.69,0,0,0,1.19-1,2.12,2.12,0,0,0,.41-1.25.8.8,0,0,0-.18-.57,1.11,1.11,0,0,0-.54-.25,8.72,8.72,0,0,0-1.45,0,4,4,0,0,1-1.54-.17,1.7,1.7,0,0,1-.81-.71,2.69,2.69,0,0,1-.31-1.4,5.84,5.84,0,0,1,1-3.25A7.88,7.88,0,0,1,313.12,385.48Z"/><polygon class="cls-8" points="325.82 378.33 325.83 380.59 322.81 382.33 322.84 392.88 320.48 394.24 320.45 383.7 317.42 385.44 317.42 383.18 325.82 378.33"/><path class="cls-8" d="M340.35,371.44q1.36.92,1.37,4.1a11.58,11.58,0,0,1-1.36,5.68,10.14,10.14,0,0,1-3.93,4c-1.7,1-3,1.18-3.94.56s-1.38-2-1.39-4.11a11.45,11.45,0,0,1,1.37-5.68,10.19,10.19,0,0,1,3.93-4Q339,370.53,340.35,371.44Zm-3.92,11.49q2.83-1.63,2.82-6t-2.83-2.7a5.16,5.16,0,0,0-2.12,2.31,8.47,8.47,0,0,0-.71,3.65,4,4,0,0,0,.72,2.83c.47.45,1.18.4,2.12-.14"/><path class="cls-8" d="M347.23,365.79a7.4,7.4,0,0,1,1.66-.72,9.12,9.12,0,0,1,1.65-.28l-.75,2.55a8.64,8.64,0,0,0-1.48.26,5.27,5.27,0,0,0-1.15.49,2.86,2.86,0,0,0-1,1,2.13,2.13,0,0,0-.35,1.15.82.82,0,0,0,.15.54.79.79,0,0,0,.46.26,9.43,9.43,0,0,0,1.5,0,3.17,3.17,0,0,1,2.15.48,2.36,2.36,0,0,1,.58,1.79,5.93,5.93,0,0,1-1.08,3.36,8.84,8.84,0,0,1-3,2.74,6.72,6.72,0,0,1-3.16,1.05v-2.52a9.17,9.17,0,0,0,1.91-.29,5.89,5.89,0,0,0,1.43-.58,3.74,3.74,0,0,0,1.19-1,2.12,2.12,0,0,0,.41-1.25.79.79,0,0,0-.19-.57,1,1,0,0,0-.54-.26,9.21,9.21,0,0,0-1.45,0,3.79,3.79,0,0,1-1.54-.17,1.7,1.7,0,0,1-.82-.71,2.69,2.69,0,0,1-.31-1.4,5.89,5.89,0,0,1,1-3.25A7.9,7.9,0,0,1,347.23,365.79Z"/></svg>