<svg id="Layer_1" data-name="Layer 1" xmlns="http://www.w3.org/2000/svg" viewBox="0 0 215.28 292.21"><defs><style>.cls-1{isolation:isolate;}.cls-2{fill:#083f4d;}.cls-3{fill:#0c5a6e;}.cls-4{fill:#0d657b;}.cls-5{fill:#fff;}</style></defs><title>Untitled-1</title><g class="cls-1"><polygon class="cls-2" points="161.2 191.79 161.09 229.89 107.41 198.9 107.52 160.8 161.2 191.79"/><polygon class="cls-3" points="107.52 160.8 107.41 198.9 54.08 229.89 54.19 191.79 107.52 160.8"/><path class="cls-4" d="M107.34,129.47l107.94,62.32L108,254.11.11,191.79Zm.53,93.31,53.33-31-53.68-31-53.33,31,53.68,31"/><polygon class="cls-3" points="215.28 191.79 215.17 229.9 107.94 292.21 108.05 254.11 215.28 191.79"/><polygon class="cls-2" points="108.05 254.11 107.94 292.21 0 229.89 0.11 191.79 108.05 254.11"/></g><path class="cls-5" d="M122.2,260.72a7,7,0,0,1,1.66-.72,9.12,9.12,0,0,1,1.65-.29l-.75,2.55a8.64,8.64,0,0,0-1.48.26,5.27,5.27,0,0,0-1.15.49,2.94,2.94,0,0,0-1,1,2.15,2.15,0,0,0-.35,1.15.89.89,0,0,0,.15.55.78.78,0,0,0,.46.25,8.38,8.38,0,0,0,1.5,0,3.07,3.07,0,0,1,2.14.49,2.32,2.32,0,0,1,.59,1.78,5.93,5.93,0,0,1-1.08,3.36,8.89,8.89,0,0,1-3,2.75,6.64,6.64,0,0,1-3.16,1.05v-2.52a10.49,10.49,0,0,0,1.91-.29,6.21,6.21,0,0,0,1.43-.59,3.74,3.74,0,0,0,1.19-1,2.12,2.12,0,0,0,.41-1.25.77.77,0,0,0-.19-.56.93.93,0,0,0-.54-.26,8.45,8.45,0,0,0-1.45,0,3.79,3.79,0,0,1-1.54-.17,1.75,1.75,0,0,1-.82-.71,2.69,2.69,0,0,1-.3-1.4,5.88,5.88,0,0,1,1-3.25A8,8,0,0,1,122.2,260.72Z"/><path class="cls-5" d="M137,262.53a10.2,10.2,0,0,1-2,3.42l2.69,1.89-3,1.75-2-1.7-.18.1c-1.7,1-3,1.18-3.94.57s-1.38-2-1.39-4.12a11.45,11.45,0,0,1,1.37-5.68,10.24,10.24,0,0,1,3.94-4q2.57-1.48,3.93-.56t1.37,4.1A12.32,12.32,0,0,1,137,262.53Zm-4.61,3.19q2.83-1.63,2.82-5.95t-2.82-2.71a5.15,5.15,0,0,0-2.12,2.32,8.4,8.4,0,0,0-.71,3.65,4,4,0,0,0,.72,2.82c.47.45,1.18.4,2.12-.14"/><polygon class="cls-5" points="142.37 249.26 142.4 259.82 146.91 257.21 146.92 259.46 140.04 263.43 140.01 250.63 142.37 249.26"/><path class="cls-5" d="M156.09,241.16a7.08,7.08,0,0,1,1.66-.72,9.12,9.12,0,0,1,1.65-.29l-.75,2.55a8.64,8.64,0,0,0-1.48.26,5.27,5.27,0,0,0-1.15.49,2.92,2.92,0,0,0-1,1,2.15,2.15,0,0,0-.35,1.15.89.89,0,0,0,.15.55.78.78,0,0,0,.46.25,8.57,8.57,0,0,0,1.5,0,3.09,3.09,0,0,1,2.15.49,2.32,2.32,0,0,1,.59,1.78A5.91,5.91,0,0,1,158.4,252a8.84,8.84,0,0,1-3,2.74,6.64,6.64,0,0,1-3.16,1.05v-2.52a10.26,10.26,0,0,0,1.91-.29,6.21,6.21,0,0,0,1.43-.59,3.74,3.74,0,0,0,1.19-1,2.12,2.12,0,0,0,.41-1.25.77.77,0,0,0-.19-.56.93.93,0,0,0-.54-.26,8.91,8.91,0,0,0-1.45,0,3.79,3.79,0,0,1-1.54-.17,1.7,1.7,0,0,1-.82-.71,2.67,2.67,0,0,1-.31-1.4,5.9,5.9,0,0,1,1-3.25A8,8,0,0,1,156.09,241.16Z"/><polygon class="cls-5" points="167.89 234.53 167.9 236.75 163.84 239.09 163.85 241.9 167.62 239.72 167.63 241.94 163.86 244.12 163.87 247.43 167.92 245.08 167.93 247.33 161.51 251.03 161.47 238.23 167.89 234.53"/><path class="cls-5" d="M189.26,222.19l-3.76,15-2.57,1.49L179.11,228l2.39-1.38,2.12,6.41c.12.38.24.84.36,1.36s.21.9.24,1.11c.06-.57.24-1.61.56-3.15l2.09-8.84Z"/><path class="cls-5" d="M175.86,237.16c1.68,1.92,2.78,3.14,3.29,3.69l-2.62,1.52L173.86,239l-1.26.73v4.92L170.25,246l0-12.8,3.24-1.87q2.27-1.31,3.37-1c.72.22,1.09,1,1.09,2.26a5.6,5.6,0,0,1-.53,2.32A8.54,8.54,0,0,1,175.86,237.16Zm-.85-1.48a2.76,2.76,0,0,0,.53-1.66c0-.61-.19-.93-.55-1a3.14,3.14,0,0,0-1.69.59l-.72.41v3.46l.76-.44a5.19,5.19,0,0,0,1.65-1.38"/><polygon class="cls-5" points="197.07 217.68 197.08 219.9 193.03 222.24 193.03 225.05 196.81 222.87 196.81 225.09 193.04 227.27 193.05 230.57 197.1 228.23 197.11 230.48 190.69 234.18 190.66 221.38 197.07 217.68"/><path class="cls-5" d="M205,220.31c1.69,1.91,2.78,3.14,3.29,3.69l-2.62,1.51L203,222.13l-1.26.73v4.92l-2.36,1.36,0-12.8,3.25-1.88q2.27-1.31,3.36-1t1.1,2.25a5.54,5.54,0,0,1-.54,2.32A8.45,8.45,0,0,1,205,220.31Zm-.85-1.48a2.78,2.78,0,0,0,.53-1.66c0-.61-.18-.94-.55-1a3.16,3.16,0,0,0-1.69.59l-.72.42v3.46l.77-.44a5.21,5.21,0,0,0,1.65-1.38"/><g class="cls-1"><polygon class="cls-2" points="161.2 148.68 161.09 186.79 107.41 155.8 107.52 117.69 161.2 148.68"/><polygon class="cls-3" points="107.52 117.69 107.41 155.8 54.08 186.79 54.19 148.68 107.52 117.69"/><path class="cls-4" d="M107.34,86.37l107.94,62.32L108,211,.11,148.68Zm.53,93.31,53.33-31-53.68-31-53.33,31,53.68,31"/><polygon class="cls-3" points="215.28 148.69 215.17 186.79 107.94 249.11 108.05 211 215.28 148.69"/><polygon class="cls-2" points="108.05 211 107.94 249.11 0 186.79 0.11 148.68 108.05 211"/></g><path class="cls-5" d="M130.29,212.52,127.49,227l-2.69,1.55-1.53-5.85c-.06-.21-.16-.65-.29-1.32s-.21-1.13-.23-1.38c0,.33-.11.88-.23,1.66s-.21,1.31-.28,1.65l-1.49,7.58-2.68,1.55-2.88-11.16,2.32-1.34,1.44,6.17c.25,1.15.44,2.16.55,3,0-.36.1-.91.21-1.67s.21-1.36.3-1.8l1.61-8.12,2.23-1.29,1.64,6.24c.08.28.17.71.27,1.31s.2,1.11.25,1.56c0-.48.13-1.1.24-1.85s.21-1.35.3-1.82l1.4-7.81Z"/><polygon class="cls-5" points="138.11 208 138.12 210.22 134.06 212.56 134.07 215.38 137.84 213.2 137.85 215.43 134.08 217.6 134.09 220.91 138.14 218.56 138.15 220.8 131.73 224.51 131.69 211.71 138.11 208"/><path class="cls-5" d="M148.24,209.27a2.42,2.42,0,0,1,.48,1.71,5.92,5.92,0,0,1-1.1,3.37,8.93,8.93,0,0,1-3,2.7l-4.17,2.41,0-12.8,3.47-2c1.58-.91,2.73-1.32,3.44-1.21s1.08.72,1.08,1.85a5,5,0,0,1-.47,2.15,4.19,4.19,0,0,1-1.24,1.61v.09C147.42,208.91,147.94,209,148.24,209.27Zm-2.44,4.43a2.79,2.79,0,0,0,.46-1.58c0-1.06-.67-1.21-2-.45l-1.46.84v3.34l1.54-.89a4.23,4.23,0,0,0,1.44-1.27m-3-6.19v2.85l1.37-.79a4.45,4.45,0,0,0,1.39-1.14,2.27,2.27,0,0,0,.42-1.38c0-.49-.16-.76-.47-.79a2.92,2.92,0,0,0-1.48.53l-1.24.72"/><path class="cls-5" d="M158.19,196.22a7.4,7.4,0,0,1,1.66-.72,9.12,9.12,0,0,1,1.65-.28l-.75,2.55a8.64,8.64,0,0,0-1.48.26,5.27,5.27,0,0,0-1.15.49,2.86,2.86,0,0,0-1,1,2.13,2.13,0,0,0-.35,1.15.82.82,0,0,0,.15.54.79.79,0,0,0,.46.26,9.43,9.43,0,0,0,1.5,0,3.17,3.17,0,0,1,2.15.48,2.35,2.35,0,0,1,.59,1.78,6,6,0,0,1-1.08,3.36,8.84,8.84,0,0,1-3,2.74,6.72,6.72,0,0,1-3.16,1.05v-2.52a9.17,9.17,0,0,0,1.91-.29,5.89,5.89,0,0,0,1.43-.58,3.74,3.74,0,0,0,1.19-1,2.12,2.12,0,0,0,.41-1.25.79.79,0,0,0-.19-.57,1,1,0,0,0-.54-.26,9.21,9.21,0,0,0-1.45,0,3.79,3.79,0,0,1-1.54-.17,1.7,1.7,0,0,1-.82-.71,2.69,2.69,0,0,1-.31-1.4,5.89,5.89,0,0,1,1-3.25A7.9,7.9,0,0,1,158.19,196.22Z"/><polygon class="cls-5" points="169.99 189.59 170 191.82 165.94 194.16 165.95 196.97 169.72 194.8 169.73 197.02 165.96 199.2 165.97 202.5 170.02 200.16 170.03 202.4 163.61 206.1 163.57 193.3 169.99 189.59"/><path class="cls-5" d="M191.35,177.26l-3.75,15L185,193.73l-3.82-10.62,2.38-1.38,2.12,6.41c.12.38.24.83.36,1.36s.21.89.24,1.11c.06-.57.24-1.61.56-3.15l2.09-8.84Z"/><path class="cls-5" d="M178,192.23c1.68,1.91,2.78,3.14,3.29,3.68l-2.62,1.52L176,194.06l-1.26.73v4.91l-2.36,1.36,0-12.8,3.24-1.87c1.51-.87,2.64-1.21,3.37-1s1.09,1,1.09,2.26a5.6,5.6,0,0,1-.53,2.32A8.54,8.54,0,0,1,178,192.23Zm-.85-1.48a2.74,2.74,0,0,0,.53-1.65c0-.61-.19-.93-.55-1a3.12,3.12,0,0,0-1.69.58l-.72.41v3.46l.76-.44a5.22,5.22,0,0,0,1.65-1.39"/><polygon class="cls-5" points="199.17 172.74 199.18 174.97 195.13 177.31 195.13 180.12 198.91 177.95 198.91 180.17 195.14 182.35 195.15 185.65 199.2 183.31 199.21 185.55 192.79 189.25 192.76 176.45 199.17 172.74"/><path class="cls-5" d="M207.14,175.38c1.69,1.91,2.78,3.14,3.29,3.68l-2.62,1.51-2.68-3.37-1.26.73v4.91l-2.36,1.36,0-12.8,3.25-1.88q2.27-1.31,3.36-1t1.1,2.25a5.63,5.63,0,0,1-.54,2.32A8.54,8.54,0,0,1,207.14,175.38Zm-.85-1.49a2.75,2.75,0,0,0,.53-1.65c0-.61-.18-.94-.55-1a3.15,3.15,0,0,0-1.69.59l-.72.41v3.46l.77-.44a5.22,5.22,0,0,0,1.65-1.39"/><g class="cls-1"><polygon class="cls-2" points="161.2 105.72 161.09 143.83 107.41 112.83 107.52 74.73 161.2 105.72"/><polygon class="cls-3" points="107.52 74.73 107.41 112.83 54.08 143.83 54.19 105.72 107.52 74.73"/><path class="cls-4" d="M107.34,43.41l107.94,62.32L108,168,.11,105.72Zm.53,93.31,53.33-31-53.68-31-53.33,31,53.68,31"/><polygon class="cls-3" points="215.28 105.72 215.17 143.83 107.94 206.14 108.05 168.04 215.28 105.72"/><polygon class="cls-2" points="108.05 168.04 107.94 206.14 0 143.83 0.11 105.72 108.05 168.04"/></g><path class="cls-5" d="M134.08,168.94q1.06.39,1.06,2.39a6.89,6.89,0,0,1-1.11,3.81,9.14,9.14,0,0,1-3.2,2.94l-1,.59v4.56l-2.36,1.36,0-12.8,3.56-2.06C132.35,168.94,133.37,168.68,134.08,168.94Zm-1.86,5.61a3.07,3.07,0,0,0,.53-1.75c0-.64-.15-1-.46-1.15s-.77,0-1.42.36l-1.08.62v3.8l.78-.45a4.82,4.82,0,0,0,1.63-1.44"/><path class="cls-5" d="M142.88,170.09c1.69,1.91,2.78,3.14,3.29,3.69l-2.62,1.51-2.68-3.38-1.26.73v4.92l-2.36,1.36,0-12.8,3.25-1.88q2.27-1.31,3.36-1c.73.21,1.1,1,1.1,2.25a5.54,5.54,0,0,1-.54,2.32A8.36,8.36,0,0,1,142.88,170.09Zm-.85-1.48a2.76,2.76,0,0,0,.53-1.66c0-.61-.18-.94-.55-1a3.16,3.16,0,0,0-1.69.59l-.72.42v3.46l.77-.44a5.21,5.21,0,0,0,1.65-1.38"/><path class="cls-5" d="M156.29,156.61q1.36.91,1.37,4.1a11.58,11.58,0,0,1-1.36,5.68,10.17,10.17,0,0,1-3.93,4c-1.7,1-3,1.17-3.94.56s-1.37-2-1.38-4.12a11.43,11.43,0,0,1,1.36-5.67,10.26,10.26,0,0,1,3.94-4Q154.93,155.7,156.29,156.61Zm-3.92,11.48q2.83-1.63,2.82-5.95t-2.82-2.71a5.15,5.15,0,0,0-2.12,2.32,8.4,8.4,0,0,0-.71,3.65c0,1.43.24,2.37.72,2.82s1.18.41,2.12-.13"/><polygon class="cls-5" points="166.34 149.31 166.35 151.53 162.29 153.88 162.3 157.18 166.08 155 166.09 157.21 162.31 159.4 162.32 164.46 160 165.8 159.96 153 166.34 149.31"/><polygon class="cls-5" points="170.88 146.69 170.92 159.49 168.56 160.86 168.52 148.05 170.88 146.69"/><polygon class="cls-5" points="176.05 143.71 176.08 154.26 180.6 151.66 180.6 153.9 173.72 157.87 173.69 145.07 176.05 143.71"/><polygon class="cls-5" points="188.92 136.28 188.93 138.5 184.87 140.84 184.88 143.65 188.65 141.47 188.66 143.69 184.89 145.87 184.9 149.17 188.95 146.83 188.96 149.08 182.54 152.78 182.5 139.98 188.92 136.28"/><path class="cls-5" d="M196.89,138.91q2.53,2.87,3.3,3.69l-2.62,1.52-2.68-3.38-1.26.73v4.92l-2.36,1.36,0-12.8,3.25-1.88q2.27-1.31,3.36-1c.73.21,1.1,1,1.1,2.25a5.54,5.54,0,0,1-.54,2.32A8.36,8.36,0,0,1,196.89,138.91Zm-.85-1.48a2.76,2.76,0,0,0,.53-1.66c0-.61-.18-.94-.55-1a3.16,3.16,0,0,0-1.69.59l-.72.42v3.46l.77-.44a5.21,5.21,0,0,0,1.65-1.38"/><g class="cls-1"><polygon class="cls-2" points="161.2 62.31 161.09 100.42 107.41 69.43 107.52 31.32 161.2 62.31"/><polygon class="cls-3" points="107.52 31.32 107.41 69.43 54.08 100.42 54.19 62.31 107.52 31.32"/><path class="cls-4" d="M107.34,0,215.28,62.32,108,124.63.11,62.32Zm.53,93.31,53.33-31-53.68-31-53.33,31,53.68,31"/><polygon class="cls-3" points="215.28 62.32 215.17 100.42 107.94 162.74 108.05 124.63 215.28 62.32"/><polygon class="cls-2" points="108.05 124.63 107.94 162.74 0 100.42 0.11 62.31 108.05 124.63"/></g><path class="cls-5" d="M124,129.73l4,10.58-2.55,1.47-.81-2.59-4.07,2.35-.8,3.52-2.55,1.47,3.9-15.12Zm-2.85,9.19,2.9-1.67q-1.13-3.49-1.27-4c-.1-.3-.17-.55-.21-.74q-.25,1.27-1.42,6.38"/><path class="cls-5" d="M136,123.86c.7.27,1.06,1.06,1.06,2.39a6.89,6.89,0,0,1-1.11,3.81,9.16,9.16,0,0,1-3.2,2.94l-1,.59v4.56l-2.36,1.36,0-12.8,3.56-2.06Q134.93,123.47,136,123.86Zm-1.86,5.61a3.06,3.06,0,0,0,.53-1.75c0-.64-.15-1-.46-1.15s-.77,0-1.42.36l-1.08.62v3.8l.78-.45a4.82,4.82,0,0,0,1.63-1.44"/><path class="cls-5" d="M145.79,118.2c.7.27,1.06,1.06,1.06,2.39a6.89,6.89,0,0,1-1.11,3.81,9.16,9.16,0,0,1-3.2,2.94l-1,.59v4.56l-2.36,1.36,0-12.8,3.56-2.06Q144.73,117.81,145.79,118.2Zm-1.86,5.61a3.06,3.06,0,0,0,.53-1.75c0-.64-.15-1-.46-1.15s-.77,0-1.42.36l-1.08.62v3.8l.78-.45a4.82,4.82,0,0,0,1.63-1.44"/><path class="cls-5" d="M156.22,111a7.08,7.08,0,0,1,1.66-.72,8.52,8.52,0,0,1,1.65-.28l-.75,2.54a8.64,8.64,0,0,0-1.48.26,5.3,5.3,0,0,0-1.15.5,2.86,2.86,0,0,0-1,1,2.11,2.11,0,0,0-.35,1.14.9.9,0,0,0,.14.55.84.84,0,0,0,.47.24,8.57,8.57,0,0,0,1.5,0,3.16,3.16,0,0,1,2.15.49,2.33,2.33,0,0,1,.58,1.78,5.93,5.93,0,0,1-1.08,3.36,8.91,8.91,0,0,1-3,2.74,6.72,6.72,0,0,1-3.16,1.05v-2.52a10.26,10.26,0,0,0,1.91-.29,6.17,6.17,0,0,0,1.43-.59,3.6,3.6,0,0,0,1.19-1,2.08,2.08,0,0,0,.41-1.25.78.78,0,0,0-.18-.56.93.93,0,0,0-.54-.26,8.15,8.15,0,0,0-1.45,0,3.94,3.94,0,0,1-1.53-.18,1.7,1.7,0,0,1-.82-.71,2.67,2.67,0,0,1-.31-1.4,5.86,5.86,0,0,1,1-3.25A8,8,0,0,1,156.22,111Z"/><polygon class="cls-5" points="168.02 104.37 168.02 106.59 163.97 108.93 163.98 111.74 167.74 109.57 167.75 111.79 163.98 113.97 163.99 117.27 168.05 114.93 168.05 117.17 161.64 120.88 161.6 108.07 168.02 104.37"/><path class="cls-5" d="M189.38,92l-3.75,15-2.57,1.49-3.82-10.62,2.38-1.38,2.12,6.4c.12.38.24.84.36,1.36s.21.9.24,1.11c0-.57.24-1.61.56-3.15L187,93.41Z"/><path class="cls-5" d="M176,107q2.53,2.87,3.3,3.69l-2.62,1.52L174,108.82l-1.26.73v4.92l-2.36,1.36,0-12.8,3.24-1.87q2.27-1.31,3.37-1c.72.22,1.09,1,1.09,2.26a5.54,5.54,0,0,1-.54,2.32A8.36,8.36,0,0,1,176,107Zm-.85-1.48a2.74,2.74,0,0,0,.53-1.66c0-.61-.19-.93-.55-1a3.16,3.16,0,0,0-1.69.59l-.72.41v3.46l.76-.44a5.21,5.21,0,0,0,1.65-1.38"/><polygon class="cls-5" points="197.2 87.52 197.21 89.74 193.15 92.08 193.16 94.89 196.93 92.71 196.94 94.94 193.17 97.11 193.18 100.42 197.23 98.08 197.24 100.32 190.82 104.03 190.78 91.22 197.2 87.52"/><path class="cls-5" d="M205.17,90.15c1.68,1.92,2.78,3.14,3.29,3.69l-2.62,1.51L203.17,92l-1.26.73v4.92L199.56,99l0-12.8,3.24-1.87c1.52-.88,2.64-1.21,3.37-1s1.1,1,1.1,2.25a5.63,5.63,0,0,1-.54,2.32A8.54,8.54,0,0,1,205.17,90.15Zm-.85-1.48a2.74,2.74,0,0,0,.53-1.66c0-.61-.19-.93-.55-1a3.17,3.17,0,0,0-1.69.6l-.72.41v3.46l.76-.44a5.19,5.19,0,0,0,1.65-1.38"/></svg>