<svg xmlns="http://www.w3.org/2000/svg" viewBox="0 0 668.1 699.18"><defs><style>.cls-1{isolation:isolate;}.cls-2{fill:#e8e8e8;}.cls-3{fill:#fddcbe;}.cls-4{fill:#f5f5f5;}.cls-5{mix-blend-mode:multiply;}.cls-6{fill:#e6e7e8;}.cls-7{fill:#533e29;}.cls-8{fill:none;}.cls-9{fill:#eb7d86;}.cls-10{fill:#e6e6e6;}.cls-11{fill:#fbc250;}.cls-12{fill:#333;}.cls-13{fill:#fdda96;}</style></defs><title>box-repositories</title><g class="cls-1"><g id="Layer_1" data-name="Layer 1"><path class="cls-2" d="M0,216.38c0,119.5,69.82,216.38,331.05,216.38S662.1,335.89,662.1,216.38,592.29,0,331.05,0,0,96.88,0,216.38Z" transform="translate(0 0)"/><path class="cls-3" d="M394.62,597.9c1.36-.27,2.32.73,3,1.91.23-1.38.84-2.66,2.3-3a2.7,2.7,0,0,1,2.77,1.58,3,3,0,0,1,2.23-2.57c1.36-.27,2.32.73,3,1.91.22-1.38-4.6-22.67-.85-23.32,3.06-.53,7.47,26.29,7.61,27.35,0,0,8.39,86.31,25.53,87.64,16.13,1.25,33.43-50.78,33.43-50.78L486.32,653s-7,28-22.3,46.14H418c-17.1-31.43-25.62-94.93-25.62-94.93C392.13,602.77,391.77,598.46,394.62,597.9Z" transform="translate(0 0)"/><path class="cls-4" d="M473.59,638.67,486.32,653a151,151,0,0,1-9.78,26.31L462.35,665.7A229.65,229.65,0,0,0,473.59,638.67Z" transform="translate(0 0)"/><path class="cls-3" d="M473.32,637.81S471,419.4,597.63,509.8c0,0,24.94,17.8,37.32,132.16C569.52,746.48,473.32,637.81,473.32,637.81Z" transform="translate(0 0)"/><g class="cls-5"><path class="cls-6" d="M473.59,638.67,486.32,653s-6.8,27.38-21.75,45.49l6.94-54C473.33,639.75,473.59,638.67,473.59,638.67Z" transform="translate(0 0)"/></g><path class="cls-2" d="M635,642s-89,10.69-161.36-16.76l-4,74H631.15Z" transform="translate(0 0)"/><path class="cls-7" d="M500.67,420.82s-71.46,107.82,104.54,124l-2,28.93s16.11-14.54,21.22,3.42c5.2,18.28-20.6,9.86-20.6,9.86C606.1,591.93,616.67,625.2,635,642c1.24,1.13,66-135.46,11-133.45,2.51-30.87-19.72-51.33-52-58.81C544.1,438.14,520.58,488.35,500.67,420.82Z" transform="translate(0 0)"/><path class="cls-3" d="M599.81,527.58l.2-.14Z" transform="translate(0 0)"/><path class="cls-6" d="M601.58,699.18c1.69-14.14,4.17-26.86,5.41-43.48l22.36,2.08c-.64,12.9-2.16,28.72-3.54,41.39Z" transform="translate(0 0)"/><path class="cls-6" d="M514.08,699.18H501.44a98.14,98.14,0,0,0-8.64-12.46l5-28.57-4.7-8.11,3.87-6.57L511,645.65l2.87,5.62-6.24,8.1Z" transform="translate(0 0)"/><polygon class="cls-7" points="510.35 699.18 486.85 699.18 497.79 658.15 493.08 650.04 496.96 643.47 511.02 645.65 513.89 651.27 507.65 659.38 510.35 699.18"/><path class="cls-8" d="M599.63,522.22l.2-.14Z" transform="translate(0 0)"/><path class="cls-3" d="M598.21,699.18c3.4-15,5.94-27.66,9.09-45.67l22,4.28c-2,13.26-4.63,28.46-7.37,41.39Z" transform="translate(0 0)"/><path class="cls-8" d="M602.08,527.67l.23-.19Z" transform="translate(0 0)"/><path class="cls-7" d="M563.26,568.38c-2.25,7-1.07,11.64,1.9,12.59s6.61-2.13,8.85-9.15,1.07-11.64-1.9-12.59S565.5,561.35,563.26,568.38Z" transform="translate(0 0)"/><path class="cls-7" d="M496.87,545.94c-2.25,7-1.07,11.64,1.9,12.59s6.61-2.12,8.86-9.15,1.07-11.64-1.9-12.59S499.12,538.92,496.87,545.94Z" transform="translate(0 0)"/><path class="cls-9" d="M504.82,585.76s33.24,4.79,52.28,14.84c0,0-3,29.43-33.71,21.65C493,614.55,504.82,585.76,504.82,585.76Z" transform="translate(0 0)"/><path class="cls-4" d="M607.3,653.51l22,4.28c-1,6.77-2.2,14.05-3.48,21.28l-22.43-4.53C604.68,668.11,605.93,661.32,607.3,653.51Z" transform="translate(0 0)"/><circle class="cls-2" cx="435.51" cy="478" r="18.26"/><circle class="cls-2" cx="472.27" cy="511.25" r="9.87"/><g class="cls-5"><path class="cls-10" d="M151.72,312.69c-10.74-56.35-61.84-62.48-48.45-128,17.4-85.22,118.82-75.74,146.26-29.34,40.68,68.84-26.19,99.22-29,152.27,0,0,13.28,5.93,2.11,18.61,0,0,12.08,5.91,1.55,13.71,0,0,12.07,6.44.29,13.78l-14.23,1.61-9.85,13.13-17.79,2L170.5,359.21l-12,.16s-17-4.82-4.58-15.1c0,0-11.36-8.93-1-13.1C152.9,331.17,140.22,320.37,151.72,312.69Z" transform="translate(0 0)"/></g><path class="cls-11" d="M226.94,302.67c4.63-52.92,72.5-81,34.18-151.2-25.84-47.3-126.89-60.23-147.17,24.35-15.61,65.05,35.25,72.92,44.07,129.6Z" transform="translate(0 0)"/><path class="cls-12" d="M163.21,352.3l12,.25,11.69,11.65,17.85-1.4L215,350l14.28-1.13c12-6.93.18-13.78.18-13.78,10.79-7.44-1.09-13.76-1.09-13.76,11.6-12.29-1.47-18.67-1.47-18.67l-13.18.52c.46-3.34.66-6.67,1-9,1.82-11.31,3.6-22.65,5.49-33.95,3.74-22.4,7.69-46.47,5.31-69.26-.51-4.88-4.15-28.57-13.91-24.38-6.36,2.73-7.87,10.92-9.64,17a77.69,77.69,0,0,0-1.86,8.16c-.14-.44-.26-.88-.38-1.31-1.47-5.06-4.74-18.57-11.31-19.9-5.39-1.11-8.21,4.22-9.63,11.33A52.61,52.61,0,0,0,173.76,169c-1.7-2.8-5.23-7.13-9-4.67-5.54,3.64-5.42,11.49-5.69,17.45-.52,11.31,1.74,22.74,3.08,34s2.58,22.75,4,34.1c2.34,18.31,5.61,36.59,8,54.94l-16.15.64c-11.75,7.28.56,18.5.56,18.5-10.47,3.82.58,13.13.58,13.13C146.43,346.91,163.21,352.3,163.21,352.3Zm16.08-47.73c-1.87-12.3-4.23-24.52-5.57-36.88q-2.86-26.21-6.22-52.37c-1.09-8.36-2.59-16.93-3-25.34a94.54,94.54,0,0,1,.62-13.7c.45-5,3.27-7,5.43-1.82a116.23,116.23,0,0,1,3.91,11.43,66,66,0,0,1,2.74,13.26,12.26,12.26,0,0,0,.42,2.11c.07,3.5.26,6.39.39,8,.2,2.49,4.17,3.58,5.1,1,1.26-3.59,1-7.93.17-12.23.1-2.06.25-4.1.46-6.06.25-2.39,2.07-19.91,6.28-12.17,3.46,6.36,7.75,17.26,8.31,26.41-.35,3.09-.7,6.18-1.18,9.25-.44,2.89,4,4.65,5.06,1.67.08-.22.14-.44.21-.66h0a.21.21,0,0,1,0-.07,24.43,24.43,0,0,0,1-8.12c.51-5.15,1-10.31,1.95-15.38a97,97,0,0,1,3.5-12.81c.91-2.63,4.41-11.38,7.24-4.84,5.23,12.1,4.6,25,4.22,37.9-.55,18.64-3.74,36.91-6.44,55.31-1.22,8.29-3,16.47-4.31,24.74-.52,3.23-.76,6.92-1.51,10.27Z" transform="translate(0 0)"/><path class="cls-13" d="M248.34,222.91c.71-6.09,3-11.83,4.09-17.86a66.66,66.66,0,0,0,.87-13.54c-.08-4.89-.06-10-.43-14.85a1.72,1.72,0,0,1,3-1.46c4,4.18,5.34,8.66,5.55,14.44a71.78,71.78,0,0,1-.69,14.07,59.19,59.19,0,0,1-7.37,20.88c-1.37,2.29-5.28,1-5-1.69Z" transform="translate(0 0)"/><path class="cls-13" d="M249.2,158.31l.18,0-.9.31c1.39-.56,3.19-1,4.47.13l-1.83-.62h.12a3.66,3.66,0,0,1,3,2,3.57,3.57,0,0,1-.25,3.59l-.06.09.62-1.83a4,4,0,0,1-2.4,3.4,4.39,4.39,0,0,1-4.27-.39,3.68,3.68,0,0,1,1.33-6.65Z" transform="translate(0 0)"/><path class="cls-13" d="M136.26,237.23c-3,.9-4.89-2.78-5.94-4.91-1.63-3.3-2.91-6.81-4.31-10.21a38.55,38.55,0,0,1-3-9.23c-.31-2.29.21-6.69,3.07-7.28,2.31-.48,3.83,3.09,4.44,4.7,1.26,3.29,2.13,6.72,3.44,10s2.42,6.34,3.43,9.58c.72,2.28,2.09,6.36-1.18,7.34Z" transform="translate(0 0)"/><g class="cls-5"><path class="cls-10" d="M355.35,330.11c-4.16-37.63-37.46-44.29-25.28-86.72,15.84-55.17,82.08-43.7,97.74-11.77C451,279,405.47,295.55,400.87,330.3c0,0,8.43,4.59.43,12.35,0,0,7.65,4.51.32,9.1,0,0,7.61,4.86-.52,9.08l-9.44.33-7.16,8.13-11.81.41-7.37-8-7.9-.51s-10.91-4-2.23-10.17c0,0-7-6.46,0-8.67C355.18,342.33,347.4,334.57,355.35,330.11Z" transform="translate(0 0)"/></g><path class="cls-11" d="M396,323.53c4.08-34.82,49.39-52,25.48-99.07-16.13-31.7-82.53-42.19-97.55,13.21-11.56,42.61,21.84,48.78,26.56,86.34Z" transform="translate(0 0)"/><path class="cls-12" d="M353,355l7.91.4,7.48,7.91,11.8-.58,7-8.24,9.44-.47c8.07-4.34.39-9.09.39-9.09,7.26-4.7-.45-9.1-.45-9.1,7.89-7.88-.61-12.34-.61-12.34l-8.7.09c.37-2.2.56-4.39.86-5.94,1.42-7.42,2.81-14.87,4.28-22.29,2.9-14.7,6-30.51,4.85-45.58-.24-3.23-2.18-18.92-8.7-16.35-4.25,1.68-5.4,7-6.69,11a51.31,51.31,0,0,0-1.39,5.34c-.08-.29-.15-.59-.23-.87-.87-3.37-2.77-12.34-7.08-13.35-3.54-.83-5.5,2.63-6.58,7.29a34.72,34.72,0,0,0-3.11-8.58c-1.07-1.88-3.31-4.81-5.85-3.25-3.73,2.29-3.79,7.47-4.09,11.4-.56,7.45.7,15,1.37,22.46s1.26,15.06,2,22.57c1.19,12.12,3,24.24,4.21,36.39l-10.67.11c-7.89,4.57,0,12.22,0,12.22-7,2.32.13,8.67.13,8.67C342,351.15,353,355,353,355Zm11.53-31.17c-1-8.15-2.32-16.26-3-24.43-.92-11.56-1.93-23.13-3.09-34.67-.55-5.53-1.38-11.22-1.51-16.77a62.39,62.39,0,0,1,.67-9c.4-3.31,2.29-4.58,3.62-1.09a76.7,76.7,0,0,1,2.35,7.62,43.58,43.58,0,0,1,1.55,8.8,8.1,8.1,0,0,0,.23,1.4c0,2.31,0,4.22.1,5.29.08,1.64,2.68,2.44,3.34.73a15.93,15.93,0,0,0,.35-8.06c.11-1.36.24-2.7.42-4,.21-1.57,1.75-13.09,4.38-7.9,2.16,4.26,4.78,11.54,5,17.58-.29,2-.58,4.06-1,6.08s2.54,3.14,3.3,1.2c.06-.14.1-.29.15-.43h0a.13.13,0,0,1,0,0,16.12,16.12,0,0,0,.79-5.34c.44-3.39.83-6.78,1.58-10.11a64,64,0,0,1,2.56-8.38c.65-1.72,3.13-7.42,4.87-3.05,3.22,8.08,2.55,16.56,2,25.08-.72,12.29-3.18,24.27-5.32,36.36-1,5.44-2.29,10.81-3.32,16.24-.41,2.12-.63,4.55-1.2,6.75Z" transform="translate(0 0)"/><path class="cls-13" d="M417.72,247.58c-1.86-3.84-2.67-8.05-4.26-12a46.37,46.37,0,0,0-4.54-8.27c-1.87-2.84-3.77-5.85-5.79-8.56a1.2,1.2,0,0,1,1.19-2c3.93,1,6.37,3.09,8.65,6.41a49.93,49.93,0,0,1,4.85,8.52,41.17,41.17,0,0,1,3.47,15,1.91,1.91,0,0,1-3.55.86Z" transform="translate(0 0)"/><path class="cls-13" d="M394.11,209.34l.09-.09-.41.52c.61-.85,1.5-1.77,2.68-1.59l-1.3.32.07,0a2.54,2.54,0,0,1,2.5,0,2.48,2.48,0,0,1,1.19,2.2s0,.05,0,.08l-.32-1.31a2.76,2.76,0,0,1-.14,2.89,3.05,3.05,0,0,1-2.65,1.37,2.56,2.56,0,0,1-1.7-4.4Z" transform="translate(0 0)"/><path class="cls-13" d="M346.38,291.74c-2,.92-3.65-1.42-4.58-2.78-1.45-2.11-2.69-4.4-4-6.6a26.83,26.83,0,0,1-3-6.05c-.45-1.55-.53-4.63,1.38-5.32,1.54-.56,2.95,1.74,3.53,2.79,1.2,2.14,2.14,4.41,3.38,6.54s2.3,4.12,3.33,6.24c.73,1.5,2.08,4.16-.07,5.17Z" transform="translate(0 0)"/><g class="cls-5"><path class="cls-10" d="M495.87,349.1s-3.22-4,.71-4.63c0,0-3.52-4.78,1.09-6.51.87-20.44-16.38-26.73-6.38-48.4,13-28.17,47.43-16.61,53.17,1.74,8.51,27.22-17.18,32.31-22.49,50.5,0,0,4.13,3.14-.79,6.63,0,0,3.71,3-.58,4.89,0,0,3.67,3.22-1,4.81l-5.07-.6L510,361.28l-6.34-.75-3.28-4.89-4.18-.92S490.74,351.66,495.87,349.1Z" transform="translate(0 0)"/></g><path class="cls-11" d="M517,335.22c3.68-18.58,28.83-25.93,17.95-52.28-7.34-17.77-42.66-26.24-53.12,3-8,22.46,9.69,27.21,10.63,47.64Z" transform="translate(0 0)"/><path class="cls-12" d="M492.49,350.36l4.24.55,3.69,4.58,6.38.19,4.14-4.14,5.1.15c4.53-2,.6-4.88.6-4.88,4.11-2.22.15-4.92.15-4.92,4.58-3.91.2-6.68.2-6.68l-4.69-.32c.29-1.17.49-2.34.71-3.16,1.08-3.94,2.15-7.89,3.25-11.82,2.19-7.8,4.52-16.18,4.55-24.35,0-1.75-.37-10.29-4-9.18-2.36.72-3.21,3.57-4.07,5.65a27.75,27.75,0,0,0-1,2.82c0-.16-.06-.32-.08-.48-.33-1.85-1-6.76-3.24-7.49-1.87-.6-3.07,1.18-3.85,3.65a18.76,18.76,0,0,0-1.31-4.75c-.49-1.06-1.58-2.73-3-2-2.11,1.08-2.36,3.87-2.69,6-.62,4-.26,8.13-.22,12.16s0,8.16.11,12.24c.12,6.58.58,13.19.72,19.79l-5.75-.4c-4.45,2.13-.52,6.58-.52,6.58-3.86,1-.3,4.68-.3,4.68C486.75,347.8,492.49,350.36,492.49,350.36Zm7.54-16.3c-.19-4.43-.56-8.86-.55-13.29,0-6.27-.05-12.54-.19-18.81-.06-3-.26-6.1-.1-9.1a33.74,33.74,0,0,1,.75-4.83c.35-1.77,1.43-2.37,2-.43a41.47,41.47,0,0,1,.94,4.2,23.56,23.56,0,0,1,.46,4.81,4.37,4.37,0,0,0,.07.76c-.11,1.24-.15,2.27-.17,2.85,0,.89,1.34,1.43,1.77.53a8.61,8.61,0,0,0,.53-4.33c.12-.73.25-1.44.4-2.13.18-.84,1.5-7,2.7-4.07a25.45,25.45,0,0,1,1.93,9.68c-.24,1.08-.49,2.16-.78,3.23s1.24,1.8,1.73.79c0-.07.07-.15.1-.23h0v0a8.71,8.71,0,0,0,.66-2.84c.38-1.81.73-3.62,1.28-5.38A34.59,34.59,0,0,1,515.3,291c.42-.9,2-3.86,2.75-1.44,1.39,4.49.67,9,0,13.6-.91,6.59-2.75,12.94-4.41,19.36-.75,2.89-1.69,5.72-2.48,8.6-.31,1.13-.54,2.42-.93,3.58Z" transform="translate(0 0)"/><path class="cls-13" d="M486.57,292c1-2.06,1.4-4.31,2.24-6.42a24.75,24.75,0,0,1,2.4-4.43c1-1.52,2-3.13,3.06-4.59a.64.64,0,0,0-.64-1A7.45,7.45,0,0,0,489,279a26.65,26.65,0,0,0-2.56,4.56,22,22,0,0,0-1.8,8,1,1,0,0,0,1.9.45Z" transform="translate(0 0)"/><path class="cls-13" d="M499.05,271.52l0,0,.22.28a1.59,1.59,0,0,0-1.43-.84l.7.17,0,0a1.36,1.36,0,0,0-1.33,0,1.32,1.32,0,0,0-.63,1.18s0,0,0,0l.17-.7a1.47,1.47,0,0,0,.08,1.54,1.63,1.63,0,0,0,1.42.72,1.38,1.38,0,0,0,1.15-.71,1.36,1.36,0,0,0-.25-1.65Z" transform="translate(0 0)"/><path class="cls-13" d="M524.79,315.35c1,.48,1.94-.77,2.44-1.5.77-1.13,1.42-2.35,2.11-3.53a14.32,14.32,0,0,0,1.57-3.24c.23-.83.27-2.47-.75-2.83-.83-.29-1.57.94-1.88,1.5-.64,1.15-1.13,2.36-1.78,3.5s-1.22,2.21-1.76,3.34c-.38.8-1.1,2.23.05,2.76Z" transform="translate(0 0)"/><path d="M494.51,258.84v-1.69h1v-10.6h-1v-1.69H497a3.8,3.8,0,0,1,3.49,1.72,10.27,10.27,0,0,1,1.08,5.33,9.83,9.83,0,0,1-1.1,5.24,3.77,3.77,0,0,1-3.41,1.7Zm3-12.29v10.6A1.55,1.55,0,0,0,499,256a12.22,12.22,0,0,0,.42-3.9,24.52,24.52,0,0,0-.18-3.38,3.61,3.61,0,0,0-.59-1.7A1.42,1.42,0,0,0,497.51,246.55Z" transform="translate(0 0)"/><path d="M502.59,258.84v-1.69h1v-10.6h-1v-1.69H509v4.08h-1.69v-2.39h-1.74v4.24H507v1.69h-1.42v4.68h1.74v-2.61H509v4.3Z" transform="translate(0 0)"/><path d="M511.18,257.16v-10.6h-1.07v-1.69h3.12a3.75,3.75,0,0,1,2.73,1,3.51,3.51,0,0,1,1,2.64,3.44,3.44,0,0,1-.56,2,2.11,2.11,0,0,1-1.56.9v0a2.74,2.74,0,0,1,1.8,1.17,4,4,0,0,1,.65,2.3,3.88,3.88,0,0,1-1.06,2.89,4.09,4.09,0,0,1-3,1h-3.1v-1.69Zm2-10.6v4.14a3.56,3.56,0,0,0,1-.12,1,1,0,0,0,.6-.55,3,3,0,0,0,.24-1.36,2.86,2.86,0,0,0-.35-1.62A1.72,1.72,0,0,0,513.15,246.55Zm0,5.83v4.78a2,2,0,0,0,1.58-.56,2.68,2.68,0,0,0,.49-1.78,3.35,3.35,0,0,0-.31-1.63,1.38,1.38,0,0,0-.71-.67A3.36,3.36,0,0,0,513.15,252.38Z" transform="translate(0 0)"/><path d="M518.2,258.84v-1.69h1.07v-10.6H518.2v-1.69h4.11v1.69h-1.07v10.6h1.07v1.69Z" transform="translate(0 0)"/><path d="M526.23,254l-.34,3.17h.89v1.69H523v-1.69h.87l1.54-10.6h-1v-1.69h5.18v1.69h-1l1.54,10.6h.87v1.69h-3.74v-1.69h.89L527.9,254Zm.13-1.69h1.42l-.6-6.23H527Z" transform="translate(0 0)"/><path d="M531.91,258.84v-1.69h1v-10.6h-1v-1.69H535l1.6,5.07.95,4.08h.06l-.21-4.22v-3.25h-.95v-1.69H540v1.69h-1v12.29h-1.56l-1.72-5.36q-.28-.87-.58-2.12l-.77-3.15h-.06l.15,4.26v4.68h.95v1.69Z" transform="translate(0 0)"/><path d="M348.76,186.84l2.56.71a9.88,9.88,0,0,1-1.18,5.11,3.53,3.53,0,0,1-3.14,1.87,3.86,3.86,0,0,1-3.65-2.58q-1.19-2.58-1.19-7.84,0-10.87,4.2-10.87a2.44,2.44,0,0,1,2.24,1.34h.05v-1h2.49v6.69h-2.49a8.36,8.36,0,0,0-.48-3.2q-.48-1.11-1.37-1.11a1,1,0,0,0-1,.53,5.85,5.85,0,0,0-.4,2.11q-.11,1.58-.11,5.13a39,39,0,0,0,.33,6.48q.34,1.59,1.37,1.59t1.3-1.15A12.52,12.52,0,0,0,348.76,186.84Z" transform="translate(0 0)"/><path d="M353.1,194.18v-2.49h1.52V176.06H353.1v-2.49h9.49v6H360.1v-3.53h-2.57v6.25h2.09v2.49h-2.09v6.89h2.57v-3.84h2.49v6.33Z" transform="translate(0 0)"/><path d="M364.27,194.18v-2.49h1.41V176.06h-1.41v-2.49h4.57l2.37,7.48,1.39,6h.08l-.31-6.22v-4.79H371v-2.49h5.29v2.49h-1.41v18.12h-2.3l-2.53-7.9q-.41-1.28-.86-3.12L368,178.52h-.08l.22,6.28v6.89h1.39v2.49Z" transform="translate(0 0)"/><path d="M388.33,173.57v7.53h-2.17v-5.36h-1.75v15.94H386v2.49h-6.17v-2.49h1.63V175.75h-1.75v5.36h-2.17v-7.53Z" transform="translate(0 0)"/><path d="M408.84,184q0,10.53-4.76,10.53a3.82,3.82,0,0,1-3.62-2.61q-1.17-2.61-1.17-7.92a26.68,26.68,0,0,1,.56-6,8.12,8.12,0,0,1,1.64-3.6,3.36,3.36,0,0,1,2.58-1.2q2.27,0,3.51,2.7T408.84,184Zm-6.36.11a35.75,35.75,0,0,0,.33,6.08q.34,1.61,1.26,1.61t1.24-1.61a35.51,35.51,0,0,0,.33-6.06,42.78,42.78,0,0,0-.31-6.51Q405,176,404.08,176t-1.3,1.83A44.93,44.93,0,0,0,402.48,184.1Z" transform="translate(0 0)"/><path d="M411.22,194.18V187.1h2.49V189a5.54,5.54,0,0,0,.34,2.32,1.23,1.23,0,0,0,1.19.67,1.26,1.26,0,0,0,1.06-.55,2.39,2.39,0,0,0,.41-1.46,5.83,5.83,0,0,0-.28-1.7,6,6,0,0,0-.67-1.52q-.39-.6-2-2.63a16.49,16.49,0,0,1-2.2-3.35,7.41,7.41,0,0,1-.55-3,5.6,5.6,0,0,1,.91-3.31,2.75,2.75,0,0,1,4.41-.33v-.62h2.49v6.15h-2.49v-1.56a3.89,3.89,0,0,0-.33-1.85,1.11,1.11,0,0,0-1-.57q-1.2,0-1.2,1.52a4.93,4.93,0,0,0,.36,1.8,7.82,7.82,0,0,0,1.25,2l1.28,1.59q2.91,3.61,2.91,6.89a5.79,5.79,0,0,1-1,3.55,3.15,3.15,0,0,1-2.61,1.41,2.94,2.94,0,0,1-2.21-1v.64Z" transform="translate(0 0)"/><path d="M109.66,104.18V96.08h2.84v2.17a6.34,6.34,0,0,0,.39,2.66,1.4,1.4,0,0,0,1.37.77,1.44,1.44,0,0,0,1.22-.62,2.74,2.74,0,0,0,.46-1.67,6.69,6.69,0,0,0-.32-1.94,6.86,6.86,0,0,0-.77-1.74q-.45-.69-2.27-3a18.87,18.87,0,0,1-2.51-3.82,8.46,8.46,0,0,1-.62-3.38,6.4,6.4,0,0,1,1-3.78,3.14,3.14,0,0,1,5-.37v-.7h2.84v7h-2.84V85.88a4.45,4.45,0,0,0-.37-2.12,1.27,1.27,0,0,0-1.19-.65q-1.38,0-1.37,1.73A5.63,5.63,0,0,0,113,86.9a8.93,8.93,0,0,0,1.42,2.3L115.88,91q3.32,4.13,3.32,7.88A6.62,6.62,0,0,1,118,103a3.6,3.6,0,0,1-3,1.61,3.36,3.36,0,0,1-2.52-1.12v.73Z" transform="translate(0 0)"/><path d="M129.24,95.79l2.92.81a11.29,11.29,0,0,1-1.34,5.84,4,4,0,0,1-3.59,2.13,4.42,4.42,0,0,1-4.17-2.95q-1.36-2.95-1.36-9,0-12.42,4.8-12.42a2.79,2.79,0,0,1,2.56,1.53h.06V80.63H132v7.64h-2.84a9.57,9.57,0,0,0-.55-3.66Q128,83.35,127,83.35a1.15,1.15,0,0,0-1.09.61,6.68,6.68,0,0,0-.46,2.41q-.13,1.8-.12,5.87a44.62,44.62,0,0,0,.38,7.41q.38,1.81,1.57,1.81,1,0,1.48-1.31A14.3,14.3,0,0,0,129.24,95.79Z" transform="translate(0 0)"/><path d="M138.74,96l-.58,5.34h1.5v2.84h-6.3v-2.84h1.47l2.59-17.86h-1.64V80.63h8.72v2.84h-1.64l2.59,17.86h1.47v2.84h-6.3v-2.84h1.5L141.55,96Zm.21-2.84h2.39l-1-10.5H140Z" transform="translate(0 0)"/><path d="M148.24,104.18v-2.84h1.7V83.47h-1.7V80.63h6.83v2.84h-1.8v17.86h2.88V93.94H159v10.23Z" transform="translate(0 0)"/><path d="M160.21,104.18v-2.84h1.73V83.47h-1.73V80.63h10.84v6.88h-2.84v-4h-2.94v7.14h2.39v2.84h-2.39v7.88h2.94V96.94h2.84v7.23Z" transform="translate(0 0)"/><path d="M183.53,104.18v-2.84h1.7V83.47h-1.7V80.63h10.88v6.88h-2.84v-4h-3v7.14H191v2.84h-2.45v7.88h2v2.84Z" transform="translate(0 0)"/><path d="M206.93,92.54q0,12-5.44,12-2.8,0-4.13-3t-1.34-9a30.5,30.5,0,0,1,.64-6.8,9.27,9.27,0,0,1,1.88-4.12,3.84,3.84,0,0,1,3-1.37q2.59,0,4,3.09T206.93,92.54Zm-7.27.13a40.89,40.89,0,0,0,.38,7q.38,1.84,1.45,1.84t1.41-1.84a40.66,40.66,0,0,0,.38-6.92,49,49,0,0,0-.36-7.45q-.36-1.9-1.44-1.9T200,85.44A51.24,51.24,0,0,0,199.66,92.66Z" transform="translate(0 0)"/><path d="M216.91,95.79l2.92.81a11.29,11.29,0,0,1-1.34,5.84,4,4,0,0,1-3.59,2.13,4.42,4.42,0,0,1-4.17-2.95q-1.36-2.95-1.36-9,0-12.42,4.8-12.42a2.79,2.79,0,0,1,2.56,1.53h.06V80.63h2.84v7.64h-2.84a9.57,9.57,0,0,0-.55-3.66q-.55-1.27-1.56-1.27a1.15,1.15,0,0,0-1.09.61,6.68,6.68,0,0,0-.46,2.41q-.13,1.8-.12,5.87a44.62,44.62,0,0,0,.38,7.41q.38,1.81,1.57,1.81,1,0,1.48-1.31A14.3,14.3,0,0,0,216.91,95.79Z" transform="translate(0 0)"/><path d="M221.68,83.47V80.63h6.38v2.84H226.8V98.58a4.77,4.77,0,0,0,.44,2.4,1.94,1.94,0,0,0,3,0,4.93,4.93,0,0,0,.42-2.39V83.47h-1.22V80.63h5.81v2.84h-1.75v15q0,3.2-1.44,4.66a5.28,5.28,0,0,1-7.23.05,5,5,0,0,1-1.34-3.63V83.47Z" transform="translate(0 0)"/><path d="M237.28,104.18V96.08h2.84v2.17a6.34,6.34,0,0,0,.39,2.66,1.4,1.4,0,0,0,1.37.77,1.44,1.44,0,0,0,1.22-.62,2.74,2.74,0,0,0,.46-1.67,6.69,6.69,0,0,0-.32-1.94,6.86,6.86,0,0,0-.77-1.74q-.45-.69-2.27-3a18.87,18.87,0,0,1-2.51-3.82,8.46,8.46,0,0,1-.62-3.38,6.4,6.4,0,0,1,1-3.78,3.14,3.14,0,0,1,5-.37v-.7H246v7h-2.84V85.88a4.45,4.45,0,0,0-.37-2.12,1.27,1.27,0,0,0-1.19-.65q-1.38,0-1.37,1.73a5.63,5.63,0,0,0,.41,2.05A8.93,8.93,0,0,0,242,89.2L243.51,91q3.32,4.13,3.32,7.88a6.62,6.62,0,0,1-1.2,4.06,3.6,3.6,0,0,1-3,1.61,3.36,3.36,0,0,1-2.52-1.12v.73Z" transform="translate(0 0)"/><path d="M270.88,92.54q0,12-5.44,12-2.8,0-4.13-3t-1.34-9a30.5,30.5,0,0,1,.64-6.8,9.27,9.27,0,0,1,1.88-4.12,3.84,3.84,0,0,1,3-1.37q2.59,0,4,3.09T270.88,92.54Zm-7.27.13a40.89,40.89,0,0,0,.38,7q.38,1.84,1.45,1.84t1.41-1.84a40.66,40.66,0,0,0,.38-6.92,49,49,0,0,0-.36-7.45q-.36-1.9-1.44-1.9T264,85.44A51.24,51.24,0,0,0,263.61,92.66Z" transform="translate(0 0)"/><path d="M273.6,104.18V96.08h2.84v2.17a6.34,6.34,0,0,0,.39,2.66,1.4,1.4,0,0,0,1.37.77,1.44,1.44,0,0,0,1.22-.62,2.74,2.74,0,0,0,.46-1.67,6.69,6.69,0,0,0-.32-1.94,6.86,6.86,0,0,0-.77-1.74q-.45-.69-2.27-3A18.87,18.87,0,0,1,274,88.87a8.46,8.46,0,0,1-.62-3.38,6.4,6.4,0,0,1,1-3.78,3.14,3.14,0,0,1,5-.37v-.7h2.84v7h-2.84V85.88a4.45,4.45,0,0,0-.37-2.12,1.27,1.27,0,0,0-1.19-.65q-1.38,0-1.37,1.73a5.63,5.63,0,0,0,.41,2.05,8.93,8.93,0,0,0,1.42,2.3L279.82,91q3.32,4.13,3.32,7.88a6.62,6.62,0,0,1-1.2,4.06,3.6,3.6,0,0,1-3,1.61,3.36,3.36,0,0,1-2.52-1.12v.73Z" transform="translate(0 0)"/></g></g></svg>