<svg xmlns="http://www.w3.org/2000/svg" viewBox="0 0 235.6 283.2"><defs><style>.cls-1{isolation:isolate;}.cls-2{fill:#fddcbe;}.cls-3{fill:#e2e2e2;}.cls-4{fill:#b05033;}.cls-5{fill:#e6e7e8;}.cls-10,.cls-5,.cls-9{mix-blend-mode:multiply;}.cls-6{fill:#efa734;}.cls-10,.cls-7{fill:#f5f5f5;}.cls-8{fill:#843c26;}.cls-11{fill:#533e29;}.cls-12{fill:#eb7d86;}.cls-13{fill:#e6e6e6;}</style></defs><title>bye</title><g class="cls-1"><g id="Layer_1" data-name="Layer 1"><path class="cls-2" d="M176.82,90.07c10.83,28.67,28.65,43.41,29.66,44.06,1.29.83,3.76,2.71,2.82,3.82-.48.57-1,.58-1.9.12.46.47.91,1,.59,1.62s-1.46.52-2.08.21l-.16-.09.16.09a1.5,1.5,0,0,1,.56,1.68c-.34.65-1.31.45-1.94.09a1.26,1.26,0,0,1,.4,1.57c-.66,1.25-2.83-.48-4.12-1.52-1-.83-19.82-16.28-31.41-48.42Z"/><path class="cls-3" d="M67.5,207.91l12,25.94a8.09,8.09,0,0,0,5.42,4.49c25.35,6.12,54.75,3.52,82.57-9.31,34.66-16,58.84-44.17,67.66-74.33a11.6,11.6,0,0,0-6.4-13.86C200,128,162.92,128.1,128.26,144.09c-27.82,12.84-48.87,33.52-60.66,56.79A8.09,8.09,0,0,0,67.5,207.91Z"/><path class="cls-4" d="M90.45,240.18a28.3,28.3,0,0,1-10,35.43A3.86,3.86,0,0,0,79,280.45l.24.52a3.82,3.82,0,0,0,4.33,2.13,75.93,75.93,0,0,0,52.33-43.88,122.37,122.37,0,0,1-45.79.25C90.22,239.7,90.34,239.94,90.45,240.18Z"/><path class="cls-4" d="M69.8,195.46a28.3,28.3,0,0,0-33.48-15.35,3.86,3.86,0,0,1-4.6-2.05l-.24-.52a3.82,3.82,0,0,1,1.19-4.68A75.93,75.93,0,0,1,100,161.51a122.37,122.37,0,0,0-29.9,34.68C70,196,69.91,195.7,69.8,195.46Z"/><path class="cls-4" d="M228.79,140.87a109.15,109.15,0,0,0-41.59-9.2l28,60.58a109.16,109.16,0,0,0,20-37.62A11.55,11.55,0,0,0,228.79,140.87Z"/><path class="cls-5" d="M192.28,137.49a1.59,1.59,0,0,1,.78-2.11,1.59,1.59,0,0,1,1.22,0,1.64,1.64,0,0,1,.94,2,1.59,1.59,0,0,1-2.93.12Z"/><path class="cls-5" d="M196.72,143.32a1.59,1.59,0,0,1,2.11.78h0a1.59,1.59,0,0,1-.78,2.11h0a1.59,1.59,0,0,1-2.11-.78h0A1.59,1.59,0,0,1,196.72,143.32Z"/><path class="cls-5" d="M211.37,175.07a1.59,1.59,0,0,1,2.11.78h0a1.59,1.59,0,0,1-.78,2.11h0a1.59,1.59,0,0,1-2.11-.78h0A1.59,1.59,0,0,1,211.37,175.07Zm-3.66-7.94a1.59,1.59,0,0,1,2.11.78h0A1.59,1.59,0,0,1,209,170h0a1.59,1.59,0,0,1-2.11-.78h0A1.59,1.59,0,0,1,207.71,167.14ZM204,159.2a1.59,1.59,0,0,1,2.11.78h0a1.59,1.59,0,0,1-.78,2.11h0a1.59,1.59,0,0,1-2.11-.78h0A1.59,1.59,0,0,1,204,159.2Zm-3.66-7.94a1.59,1.59,0,0,1,2.11.78h0a1.59,1.59,0,0,1-.78,2.11h0a1.59,1.59,0,0,1-2.11-.78h0A1.59,1.59,0,0,1,200.38,151.26Z"/><path class="cls-5" d="M214.26,185.12a1.59,1.59,0,0,1,2-2.16,1.65,1.65,0,0,1,.94,2,1.59,1.59,0,0,1-2.93.12Z"/><path class="cls-5" d="M185.94,131.63l28.43,61.6.79-1-28-60.58Z"/><path class="cls-5" d="M96.22,160.45a131.35,131.35,0,0,0-28.36,31.49,28.51,28.51,0,0,1,1.94,3.52c.11.24.21.49.32.73A122.37,122.37,0,0,1,100,161.51Q98.14,160.93,96.22,160.45Z"/><path class="cls-5" d="M135.89,239.22a122.37,122.37,0,0,1-45.79.25c.12.24.24.47.35.72A28.53,28.53,0,0,1,91.88,244a131.34,131.34,0,0,0,42.35-1.14Q135.1,241,135.89,239.22Z"/><path class="cls-4" d="M61.12,252.2C38.17,262.79,0,254.79,0,254.79S18.68,220.57,41.63,210c11.66-5.38,22,1.31,27.39,13S72.77,246.82,61.12,252.2Z"/><path class="cls-6" d="M60.93,247.24c-9.36,4.32-26.15,2.86-30.47-6.5s5.46-23.08,14.82-27.4,17,1.36,21.32,10.73S70.29,242.92,60.93,247.24Z"/><path class="cls-7" d="M62.49,238.12c-5.54,2.56-15.62,1.76-18.18-3.78s3.38-13.73,8.92-16.28,8.64,1.46,11.2,7S68,235.57,62.49,238.12Z"/><path class="cls-4" d="M67.6,200.87a8.09,8.09,0,0,0-.1,7l12,25.94a8.09,8.09,0,0,0,5.42,4.49q2.58.62,5.21,1.12l-20-43.26Q68.8,198.52,67.6,200.87Z"/><path class="cls-8" d="M71.76,199.75l-4.57,2.11a7.92,7.92,0,0,0-.28,1.06l5.2-2.4Z"/><path class="cls-8" d="M73.57,203.68l-6.51,3a8.23,8.23,0,0,0,.27.8l6.59-3Z"/><rect class="cls-8" x="68.61" y="209.11" width="7.29" height="0.84" transform="translate(-81.19 49.61) rotate(-24.79)"/><rect class="cls-8" x="70.43" y="213.04" width="7.29" height="0.84" transform="translate(-82.68 50.73) rotate(-24.79)"/><rect class="cls-8" x="72.24" y="216.97" width="7.29" height="0.84" transform="translate(-84.16 51.85) rotate(-24.79)"/><rect class="cls-8" x="74.06" y="220.91" width="7.29" height="0.84" transform="translate(-85.64 52.98) rotate(-24.79)"/><rect class="cls-8" x="75.87" y="224.84" width="7.29" height="0.84" transform="translate(-87.12 54.1) rotate(-24.79)"/><rect class="cls-8" x="77.69" y="228.77" width="7.3" height="0.84" transform="translate(-88.6 55.22) rotate(-24.79)"/><path class="cls-8" d="M86.29,231.21l-6.6,3a8.22,8.22,0,0,0,.43.73l6.52-3Z"/><path class="cls-8" d="M88.11,235.15l-5.2,2.4a7.92,7.92,0,0,0,1,.47l4.57-2.11Z"/><g class="cls-9"><path class="cls-7" d="M234.52,146.57c.44,1,0,2.31-1.36,3.88-14.91,17-43.05,36.55-77.71,52.54-27.82,12.84-54.66,21-75.86,23.87-2,.27-3.39-.09-3.79-1h0l3.67,8a8.09,8.09,0,0,0,5.42,4.49c25.35,6.12,54.75,3.52,82.57-9.31,34.66-16,58.84-44.17,67.66-74.33A11.59,11.59,0,0,0,234.52,146.57Z"/></g><path class="cls-5" d="M118.74,184C123.06,172,112,170.25,112,170.25l15.94-11.17-2.23-13.77q-3.85,1.87-7.52,3.95l2.73,6.94L106.35,170S114.65,195.24,118.74,184Z"/><path class="cls-3" d="M176.82,90.07l-7.42,3.24a136.3,136.3,0,0,0,6.35,14.81l6.86-5.08A121.54,121.54,0,0,1,176.82,90.07Z"/><path class="cls-10" d="M175.75,108.12h0c.93,1.85,1.87,3.62,2.82,5.32-1.8-10.1-1.75-23.37-1.75-23.37L173.2,102.7C174,104.57,174.88,106.39,175.75,108.12Z"/><path class="cls-3" d="M104.68,76.25l72.14,13.82c-2.24,11.4.63,29.54.71,34-11.42,8.27-50.41,20.41-63.25,17.84C109.48,128.62,102.22,117.14,104.68,76.25Z"/><path class="cls-11" d="M177.53,124l-63.25,17.84L118,156.16,101.88,168.1s5.2,26.07,10.62,15.36c5.73-11.32-5.06-14.42-5.06-14.42l17.17-9.17L124,145.19a427,427,0,0,1,47.15-14.1l.5,1.12q4-.39,8-.52Z"/><path class="cls-2" d="M104.68,76.25s5.23-78.53,61.65-42.86c0,0,16.79,17.22,10.5,56.68C127.45,93.15,104.68,76.25,104.68,76.25Z"/><path class="cls-11" d="M108.1,0S100.22,49.73,162,45.72l1.22,18s7.46-4.87,8.23,2.45-7.42,2.89-7.42,2.89,4.79,14.89,12.74,21c-.4.53,30.82-71.66-1.11-66.5,0,0-2.29-14.61-21.91-18.57C133.46.88,121.18,24.76,108.1,0Z"/><path class="cls-12" d="M138.47,72.47a125.12,125.12,0,0,0-19.57-4.55s-2.06,10.62,7.36,12.81C136.65,83.15,138.47,72.47,138.47,72.47Z"/><path class="cls-3" d="M104.37,86.16l5.29-5.93c-3.63-2.85-7.15-5.75-10.53-8.65l-5.57,5.88Q98.69,81.72,104.37,86.16Z"/><path class="cls-2" d="M99.13,71.59C75.85,51.66,81,28.63,81.37,27.49c.48-1.46,1.23-4.47-.2-4.75-.73-.14-1.18.2-1.55,1.09.06-.65.06-1.36-.56-1.63s-1.47.51-1.75,1.14a1,1,0,0,1-.06.17,1,1,0,0,0,.06-.17,1.5,1.5,0,0,0-.62-1.65c-.67-.29-1.3.47-1.57,1.15a1.26,1.26,0,0,0-.67-1.47c-1.3-.56-1.91,2.15-2.25,3.77-.28,1.29-4.92,30.51,21.37,52.33Z"/><ellipse class="cls-11" cx="145.88" cy="61.73" rx="5.47" ry="2.52" transform="translate(47.72 186.05) rotate(-74.64)"/><ellipse class="cls-11" cx="117.44" cy="53.91" rx="5.47" ry="2.52" transform="translate(34.35 152.88) rotate(-74.64)"/><g class="cls-9"><path class="cls-13" d="M163.5,94.4l1.19,3.43-3,3.34s-7.39,23.3-36.35,17.28L120.15,109l9.27-4.22c22.05,10.25,27.6-4,27.6-4l-2.14-4.36,1.87-2.35Z"/></g><path class="cls-11" d="M163.5,94.4l1.19,3.43-3,3.34s-6.64,21.22-35.6,15.21l-5.23-9.44,9.27-4.22c22.05,10.25,26.85-1.9,26.85-1.9l-2.14-4.36,1.87-2.35Z"/></g></g></svg>