<svg xmlns="http://www.w3.org/2000/svg" viewBox="0 0 918.85 893.6"><defs><style>.cls-1{isolation:isolate;}.cls-2{fill:#fddcbe;}.cls-3{fill:#e0b062;}.cls-4{fill:#f8c36c;}.cls-5{fill:#efa734;}.cls-6{fill:#f1f2f2;}.cls-18,.cls-20,.cls-6{mix-blend-mode:multiply;}.cls-7{fill:#2a180c;}.cls-8{fill:#140b06;}.cls-9{fill:#e15e18;}.cls-10{fill:#c95515;}.cls-11{fill:#d1cec0;}.cls-12{fill:#efebda;}.cls-13{fill:#f9d2a7;}.cls-14{fill:#e3be97;}.cls-15{fill:#c98214;}.cls-16{fill:#3b2918;}.cls-17{fill:#f5f5f5;}.cls-19,.cls-20{fill:#e6e6e6;}.cls-21{fill:#eb7d86;}</style></defs><title>create-own-box</title><g class="cls-1"><g id="Layer_1" data-name="Layer 1"><polygon class="cls-2" points="654 350.43 571.58 385.49 580.23 412.73 670.28 373.91 654 350.43"/><path class="cls-3" d="M264.88,108,803.06,514.25s2.76-21.14,10.49-31.38L283.77,83Z"/><path class="cls-4" d="M302.67,58l-18.9,25L813.55,482.87c7.73-10.24,27.3-18.69,27.3-18.69Z"/><path class="cls-5" d="M840.85,464.18s-.56-10.18,4.53-16.92c4.45-5.89,12.62-8.36,14.6-8.88a22,22,0,0,0-2.63-2.42L322.23,32,302.67,58Z"/><path class="cls-6" d="M522.28,183,406.74,95.83c-26.11-5.89-55.18-9.7-84.56,2.09-34.14,13.7-52.56,31.39-62.49,46.86L573,381.25c-1.58-10.08-19.25-115.7-76.08-170.85A105.7,105.7,0,0,0,522.28,183Z"/><path class="cls-7" d="M913.92,554.62l-16-35.71-13.3,17.62,29.26,22.08C914.58,557.67,914.65,556.27,913.92,554.62Z"/><path class="cls-8" d="M871.33,554.14l38.73,5.59c1.79.25,3.12-.2,3.82-1.13l-29.26-22.08Z"/><path class="cls-9" d="M301.22,16.19l-7.09-5.35c-28.13-21.24-59.76-9.3-81,18.84l49.63,37.46Z"/><path class="cls-10" d="M213.13,29.67c-21.24,28.14-24,61.82,4.09,83.06l7.09,5.35,38.45-50.95Z"/><path class="cls-11" d="M283.77,83l-21-15.86-38.45,50.95,21,15.86L264.88,108Z"/><path class="cls-12" d="M283.77,83l18.9-25L322.23,32l-21-15.86L262.76,67.14Z"/><path class="cls-13" d="M840.85,464.18s-19.57,8.45-27.3,18.69l71.08,53.65,13.3-17.62-32.68-73a30,30,0,0,0-5.28-7.56c-2,.52-10.14,3-14.6,8.88C840.29,454,840.85,464.18,840.85,464.18Z"/><path class="cls-14" d="M813.55,482.87c-7.73,10.24-10.49,31.38-10.49,31.38s-9.94,2.25-15,9c-4.45,5.9-4.58,14.43-4.54,16.47a29.94,29.94,0,0,0,8.72,3l79.13,11.43,13.3-17.62Z"/><path class="cls-15" d="M803.06,514.25,264.88,108l-19.56,25.91L780.43,537.85a21.94,21.94,0,0,0,3,1.86c0-2,.09-10.57,4.54-16.47C793.11,516.5,803.06,514.25,803.06,514.25Z"/><path class="cls-16" d="M709.73,562.16c-13.26-28.59-38,23.63-38,23.63s3.2-41.25-9.05-53.24C651,521.07,628.89,542,623,547.36L364.56,643.25l16.38,41.31-31.2.69S334,735.69,358.2,735.43s3.54-32.84,3.54-32.84,24.47,9.41,40.2,2.33c12.27-5.53-3.06-41.05-6.41-52.23,173.71-35.19,248.76-94.06,250.93-96.23,0,0,10.4,42.48,18,63.33C664.5,619.8,723,590.75,709.73,562.16Z"/><path class="cls-2" d="M567,371.18S496,52.43,287.16,234.35c0,0-58,81.23-7.24,239.07C531.67,442.4,567,371.18,567,371.18Z"/><path class="cls-16" d="M475.61,45.29S625.14,218,314.48,267.67l1.07,70.19S281,320.14,282.49,350.67s33.1,9.63,33.1,9.63-6.92,83-35.68,113.11c0,0-180.79-254.29-52.12-279.1,0,0-6.88-50.94,67.66-87.58C380.17,65.1,472.52,161.93,475.61,45.29Z"/><path class="cls-17" d="M567,371.18l56,176.18s-100.27,60.2-258.46,95.89L279.92,473.41S481.3,436.41,567,371.18Z"/><g class="cls-18"><path class="cls-19" d="M512.44,416.2l9.81,9.18-3.92,16s16,89.1-89.23,119.41L395.66,539l23.08-29.84c90-4.54,83.54-60.72,83.54-60.72l-14.56-10.59,2.05-10.93Z"/></g><path class="cls-16" d="M512.44,416.2l9.81,9.18-3.92,16s14.89,81-90.36,111.31l-33.44-21.87L417.61,501c90-4.54,84.67-52.62,84.67-52.62l-14.56-10.59,2.05-10.93Z"/><polygon class="cls-20" points="607.53 498.63 602.86 483.92 326.85 507.65 607.53 498.63"/><polygon class="cls-17" points="325.16 479.07 326.85 507.65 381.99 502.9 378.33 474.76 325.16 479.07"/><path class="cls-2" d="M691.83,449.39,378.33,474.76,382,502.9l313.32-25.3s8.59.15,8.54-3.87-7.25-2.36-7.25-2.36,8.69-.65,8.08-5c-.66-4.73-8.9-2.91-8.9-2.91s8,0,7.6-4.74c-.48-5.15-8.24-3.33-8.24-3.33s7.14.1,7.07-4C702.15,448.33,691.83,449.39,691.83,449.39Z"/><path class="cls-16" d="M390.25,323.37c4,11.91,2.06,19.8-3,21.48S376,341.36,372,329.45s-2.06-19.8,3-21.48S386.28,311.45,390.25,323.37Z"/><path class="cls-16" d="M507.68,284.23c4,11.91,2.06,19.8-3,21.47s-11.3-3.48-15.27-15.39-2.06-19.8,3-21.48S503.71,272.31,507.68,284.23Z"/><path class="cls-21" d="M410.44,368a44.83,44.83,0,0,0,83.89-31.63Z"/><path class="cls-16" d="M.85,892.31c-1.4.39-.62,1.07-.78,1.29C2.31,892.64.72,892.11.85,892.31Z"/><polygon class="cls-16" points="22.78 882.74 22.5 883.22 25.53 881.25 22.78 882.74"/><path class="cls-16" d="M43.85,875.54c-2.48-.75-7.55,2.85-11.48,3.63l-.73-.11-1.3,1.73C34.84,879,40.5,876.24,43.85,875.54Z"/><path class="cls-16" d="M56.15,874.77c-.89-.32,2.26-1.32-2.68.73.27,0,.36,0,.52,0C54.44,875.31,55.07,875.1,56.15,874.77Z"/><path class="cls-16" d="M54,875.48c-2.2.81,1.61,0,0,0Z"/><path class="cls-16" d="M64.12,871.62l-2.75,1.51c.72.12,3.35-.71,2.47-.13C66.74,871.68,66,871.57,64.12,871.62Z"/><path class="cls-16" d="M66.53,869.62l-1.44.73C65.4,870.4,65.81,870.31,66.53,869.62Z"/><path class="cls-16" d="M62,871.9l3.06-1.55c-.5-.09-.71-.53-1.42.67C63.78,870.5,63.29,871.13,62,871.9Z"/><path class="cls-16" d="M60.14,872.31c-1.75.25-3.93.79-1.17-.72C53.45,873.72,54.62,874.44,60.14,872.31Z"/><path class="cls-16" d="M44.42,873.68l-2.34.33-1.73,1.13C41.22,874.58,44.71,874.09,44.42,873.68Z"/><path class="cls-16" d="M82.56,866.07c.08-.37-1.26-.47-1.62-.78l-2,1.1C80.1,866.21,82.26,865.67,82.56,866.07Z"/><path class="cls-16" d="M80.95,865.28l3-1.65C81.09,864.58,80.65,865,80.95,865.28Z"/><polygon class="cls-16" points="66.5 867.85 61.58 870.78 67.51 867.48 66.5 867.85"/><polygon class="cls-16" points="94.89 861.82 93.31 863.16 96.2 860.96 94.89 861.82"/><path class="cls-16" d="M103,858.85c-1.15,1.05,2.2.34.89,1.2a28.58,28.58,0,0,0,5.45-3.08A19.78,19.78,0,0,1,103,858.85Z"/><path class="cls-16" d="M112,855.32c-.86.45-1.71,1-2.64,1.65A16.06,16.06,0,0,0,112,855.32Z"/><path class="cls-16" d="M89.54,861.88a4.45,4.45,0,0,0,2.84,0l-1.57-.42Z"/><path class="cls-16" d="M90.76,861.43h.05l2.76-.91Z"/><path class="cls-16" d="M89.22,862l.32-.11C89.39,861.83,89.3,861.83,89.22,862Z"/><path class="cls-16" d="M75.22,865.7c1.73-1.13,5.5-3,1.43-2.42C75.49,864.33,77.83,864,75.22,865.7Z"/><path class="cls-16" d="M87.27,861.46l-3.49,1c.15.2.88.32,0,.88Z"/><polygon class="cls-16" points="88.85 860.6 87.27 861.46 88.56 861.09 88.85 860.6"/><path class="cls-16" d="M105.86,856.56a25,25,0,0,1,4.76-2.18c-2,.51-4.08,1.13-6,1.8C104.44,856.54,103.77,857.32,105.86,856.56Z"/><path class="cls-16" d="M98.49,858.85l.31-.16C98.58,858.69,98.41,858.72,98.49,858.85Z"/><path class="cls-16" d="M128.61,848.1l-.34-.05,0,.17Z"/><path class="cls-16" d="M104.24,856.13a7.38,7.38,0,0,0-3.08,1.42c1.07-.47,2.22-.93,3.47-1.37C104.7,856,104.7,855.92,104.24,856.13Z"/><path class="cls-16" d="M116.88,853.17c-.83.09-1.75.24-2.71.42C115,853.6,116.69,853.49,116.88,853.17Z"/><path class="cls-16" d="M99.38,858.75l-.21.11C99.72,858.88,99.63,858.81,99.38,858.75Z"/><path class="cls-16" d="M99.38,858.75a13.84,13.84,0,0,0,1.77-1.2c-.87.38-1.67.76-2.35,1.14A2.49,2.49,0,0,1,99.38,858.75Z"/><path class="cls-16" d="M132.13,840.69c0,.88-3.59,3-7.23,3.29-3.08,1.75,0,3.6,3.36,4.06,0-.38-.13-.7,3.09-2.36-1.34,0-7.86,1.61-5.26-.1,4.34-2,3.77-1,6.09-1.35-2.2-.34,5.19-3.44,3.71-4.55l-3.75,1.89C132,841.37,133.3,840.51,132.13,840.69Z"/><path class="cls-16" d="M121.79,850.22l-1.36.59a23.72,23.72,0,0,1,5.19-.61c2.18-1.2,2.56-1.66,2.62-2l-6.89,2.29Z"/><path class="cls-16" d="M114.19,853c.79-1.24,4-2.78,1.63-3-4.06,1.49-2.61,1.72-4.92,2.94,6.52-2.51-1.73,1.14,3.21,0-1.25.6-2.4,1-3.48,1.47,1.22-.31,2.41-.58,3.55-.79H114v0c-.32,0-.44,0-.1-.09l.13-.07a.9.9,0,0,1,.18-.43c2-.49.38.12-.18.43,0,0,0,.11,0,.16h0l6.44-2.78A62,62,0,0,0,114.19,853Z"/><path class="cls-16" d="M79.53,860.19c.23,0,.24.07.28.13C80.2,860.07,80.34,859.94,79.53,860.19Z"/><path class="cls-16" d="M82.43,859.77A5.31,5.31,0,0,1,80.12,861c-1.44.21-.14-.42-.31-.68-.86.56-3.08,1.77,0,1.16l.43-.28c2.76-.63,6.55-.74,6.13-.46A9.33,9.33,0,0,0,82.43,859.77Z"/><path class="cls-16" d="M98.42,856.09l5.35-2.34-3.06.23.3.4C97.82,855.3,98.69,855.61,98.42,856.09Z"/><polygon class="cls-16" points="129.39 848.3 128.98 849.47 131.7 847.07 129.39 848.3"/><polygon class="cls-16" points="136.49 845.69 136.51 846.58 138.23 845.44 136.49 845.69"/><path class="cls-16" d="M535.17,692.2l1.53-.81A13.66,13.66,0,0,0,535.17,692.2Z"/><path class="cls-16" d="M523.5,696.37l-.14.49C523.82,696.45,524,696.21,523.5,696.37Z"/><path class="cls-16" d="M311.71,783.59c2.61-.1,5.64.11,5-.68l-1-.61A15.38,15.38,0,0,1,311.71,783.59Z"/><path class="cls-16" d="M429.69,735.45l-.78,0-1.29,1.4Z"/><path class="cls-16" d="M430.05,731.27l3.29-.56A23.75,23.75,0,0,0,430.05,731.27Z"/><path class="cls-16" d="M598.43,668.21l1.56-1.56C597.06,667.72,598.51,667.69,598.43,668.21Z"/><path class="cls-16" d="M209.51,819.65a38.53,38.53,0,0,0,5.24-1.27C212.14,818.75,209.91,818.7,209.51,819.65Z"/><path class="cls-16" d="M533.92,703.06c.93-.51,1.28-.84,1.19-1C534.14,702.55,533.63,702.92,533.92,703.06Z"/><path class="cls-16" d="M220.61,816.3c-.39,0-.75.12-1.14.18a37.62,37.62,0,0,1-4.71,1.9A12.63,12.63,0,0,0,220.61,816.3Z"/><path class="cls-16" d="M829.15,584.68c.18,0,.39-.08.56-.09C829.72,584.46,829.48,584.54,829.15,584.68Z"/><path class="cls-16" d="M899.45,568.73c-.64.3-1.72.69-2.73,1.08A16.14,16.14,0,0,0,899.45,568.73Z"/><path class="cls-16" d="M165.37,836c-1.49.59-.21.18,0,0Z"/><path class="cls-16" d="M156.8,835.15c.29-.21.49-.42.46-.63A1.05,1.05,0,0,1,156.8,835.15Z"/><path class="cls-16" d="M233.77,805.55l.13,0C233.39,805.5,233.48,805.5,233.77,805.55Z"/><path class="cls-16" d="M163,836.4c.61-.09,1.29-.24,2-.42C164.64,836,164,836.14,163,836.4Z"/><path class="cls-16" d="M163.4,836.7l-1.35.38C161.91,837.3,162.11,837.33,163.4,836.7Z"/><path class="cls-16" d="M167.46,835.2c-.86.32-1.68.56-2.48.77.32,0,.46,0,.39,0Z"/><path class="cls-16" d="M706.55,632.23l.35,0C708.29,631.28,707.65,631.58,706.55,632.23Z"/><path class="cls-16" d="M347.83,760.52c-.07,0-.1.07-.16.1l.23,0Z"/><path class="cls-16" d="M353,757.93a8.69,8.69,0,0,1-5.12,2.65l2.69,1.86Z"/><path class="cls-16" d="M563,681.85l-4.09.6c4.13-2.95,7.61-3.71,3.64-3.51.45,2.91-14.69,5.64-14.24,8.54l-2.72.34c.73-.23.79-.44,1.51-.67-5.35.47-2.91,3.27-9.34,5.17-2.27.59-3.94.75-2.56-.12l-4.64,2.44c-1.44.46-1.26-.13.17-.6L523.33,697l0-.1a48.39,48.39,0,0,1-4.15,3c-2,.3.84-.63.24-.79l-3.89,2.15c-1.93-.09,1.24-2,4.12-2.95-4.83-1.31-3.17,1.92-12.06,3.35l3.77-1.76c-3.07-.63-5.9,1-10.65,1.67,1.23.12,9.69-.78,5.46,1.52a14.27,14.27,0,0,0-5.25,2.18c-.37-1-2.64.13-5.57,1.26l-.26-1.35c-3.06,1.52-2.57,2.08-4.24,3.34-3.6,1.16-4.7.43-5.83-.1-5.77,1.85,4.51.17-2.15,2.84-4.91,1.22-8,2.94-13.44,5.75-3.47.76.3-1-1-.93l-2.57,2.08c-.73.23-.61-.16-.55-.36-2.33,1.29.26,1.35-3.51,3.1-.54,1.79-8.73.82-13,4.16-1.32.07.29-1-.25-1.35-6.23,3.43-5.39,2.8-10.31,6.17l-4.93.83c3.74-.27-.19,2.44-3.65,4.74,1.37,0,2.55.06,3.31,0l-5.82,2.87c-.81.05-.36-.6.45-1.5l-1,.71c-2.34.31-1.48-.83-.18-2.11h2.47c1.22-1.32,2.31-2.68,1.73-3.32a9.4,9.4,0,0,1-1.86,1.06c.32-.35.5-.63.27-.69s-.79.45-1.66,1.13l-1.89-.93-.13.69-8.26,2c-5.16,3.48-9.34,7.37-18.16,11.19,1.86-1.85-.13-1.88-.46-3.16,2.93.43,6.79-3.06,11.56-4.47-2.49.74-2.16,0-1.62-.47l-7.91,4.18c-.18-1.08-2-.12-4.37.24,2.37,1.41-5.74,3.56-8.91,5.39-.45-.6.12-1.57,4.31-2.9-5.11.13-5.06,4.47-10,4.79,1-.38,1.59-.47,1.86-1-2.15,1.44-8.09,3-6.94,2l1-.38c-6.79,2.17-20.43,7.31-20.82,9.37a7.31,7.31,0,0,1,.43-2.85l-9.92,10c.53-1.84-4.76-3.86.51-6.69a23.41,23.41,0,0,0-6.92,2.55c1.16-.18,3.47,1.14,2,1.81-4.67-.16-3.15.15-8.68.57,1.75-.27.75,2.67-1.86,3.52.28-.49-1-2.18-.16-2.76l-5.63,4.54c1.46-1-.4-2-2.06-2.13.82.2-5.57,1.94-7.21,2.78l2.91-.45c-7.38,2.25-6,5.72-13.28,8.17.71-.78,1.13-3.63-2.63-2.6-1.27,1.75-5.46,8.19-11.51,11.35l-1.46-.22-4.62,2.49a119.84,119.84,0,0,1,13.83-12.6c-2.9.45-1-.51-5.08,1-1.66-.11,1.88-1.73,3.07-2.19l-9.61,3c.9,1.2-6.76,3.93-6,4.92l9.79-5.06c.9,1.19-4.59,5.94-11.38,8.09-1.9.07.42-2.85.12-3.25-.71.77-6.05,3.16-6.79,3l2.59-1.73c-3.92.83-5.46,4-10.41,4.27-1.58.46-5.24-.09-5.23.8,3.07.64,5.26,5.21,4,7-.58.09-8.66,1.42-10.7,1.29-3-.3,2.81-4.23.27-4.49,0,.4-1.21,1.35-1.75,1.71-1.74.26.27-1.38-3.21,0-.11,1.57-7.24,2.44-1.26,1.75-3.32,1.62-3.78,1-7.82,2.52,1.61.42-2.59,4.29-5.92,5.91.08-.42-.86-.59-1.31-.67-7.14,2.39-11.17,3.12-17.79,5.46-.73-.11-4.06.62-2.91-.45a13,13,0,0,1-3.61,2.11c-4.37.22,4.48-1.8,1-2.15,0,.89-4.89,3-7.63,4.48,1.33.91,6.8-2.13,9.54-3.66.61,1.69-3.83,5.25-10.48,8.47-5.35,2.36-2.77-.25-3.64.33-10.43,3.35-7.76,6.05-16.77,7.86-3.78.12-.91-2.09-1.94-2.6,4.34-2,7.12-1.74,10.14-2.85l-3.92.81a19.18,19.18,0,0,1,5.93-2.45c-3.19,0-17.52,6-25.8,7.88-1.29.86-3.6,2.1-2.29,2.12l2.47-1c2.62.05-4.32,2.87-1,2.15-3.17,1.8-6.62,4.1-11.56,5.28l-1.33-.92c.23.32,3.37-.36,4.58-1.2-1.8,1.24-7.89.9-9.5,3.27l3.64-.32c-3.18,1.81-6.93,4.58-11.29,5.68,2.35.54.93-.48,4.42-.11-3.22-.85,10.83-3.71,6-4.1,3.66.57,5.58-1.17,10.1-1.17-.27-.36-1.7-.27,1.92-1.32a4.25,4.25,0,0,1,.65-.63l.25-.05-.21,0c.13-.11.14-.13-.08,0a5.42,5.42,0,0,1-2,0c1.43-1.55,7.08-3.51,8.81-4.66,2.17-.55-.72.77.58.8l2.59-1.72c.6.8,6.11-.47,1.34,1.8l4.47-1.53a29.36,29.36,0,0,0,8.58-2.66c2.17-.55,5-2.87,3.38-1.52l6.8-3,.14.2c6.94-2.32,13.68-6.49,22.13-7.67a48.93,48.93,0,0,1,8.51-3.3l1,.51c2.88-1.33,9.22-2.39,10.22-3.66,4,1,14.63-4.67,20-6.16l-.16-1.09a112.63,112.63,0,0,0,11.32-4.73l-.59-.8c3.6-2.11,10.15-2.9,16.22-5.17-.29.49-1.87,1-3,1.14,8-.57,14.86-7,22-7.84a10.25,10.25,0,0,1,4-1.41,2,2,0,0,0-.39.19l.68-.23c.78-.11,1.6-.19,2.46-.34a13.54,13.54,0,0,0-2.1.21c1.26-.47,3.15-1.27,5-2.17l1.15.68.43-.18c2-.31,1.33-1,.08-1.36a17.26,17.26,0,0,0,2.29-1.47c2.06,1,4.77-2.29,7.42-1.37,1-1.26,9.28-4,9.68-6.05.14.2.74.11-.28.48a19.54,19.54,0,0,0,6.06-2.28l1.33.9,4-3.29c3.06-.26,4.37-.24,1.94,1.7,6.18-3.85,5.24-2.49,10.41-6v.89c2-.76,4.9-3,6.36-2.77,5.09-.13,22.6-7.87,34.78-10.66-3.1-1.52,5.81-.9,5.62-2.87.88.31,2.62,0,.9,1.19,5.77-2.68,9.27-2.35,12.84-5.35.88.31-1,1.27-.26,1.38.44-.29,1.72-1.16,2.46-1.06s-.71.78-1.56,1.36c6.05-2.29,6.06-4.21,5.93-6,3.36-.36,4.86-1,6.71-2.87,1.26.13,3.25,0-.47,1.58,2.16-.69,13.27-3.92,13-5.28a9.46,9.46,0,0,0,3.52-1.33c4.8-1.65,5.26-1.68,9.91-3.49l-1.38.26c1.3-2.21,3.77-1.75,7.49-3.3l-.05.2c9.07-2,3.55-1.88,12.56-3.7l-.81-.79c.05-2.35,8-1.52,12.69-4.09l-2,.1c2.46-1.68,8.59.07,11.4-.66.66,0-.83.63-1.61,1.06,7.56-1.37.47-1.59,5.67-3.8,1.22.32-.64,2.18,3,1,2-.1,9.57-6,14.91-6.42-1.26-.13-2.52-.27-.19-1.55,3.71-1.56,10.93-1.73,13.75-4.61.53,0,.76,0,.83.16,2.73-1.47,9.13-4.11,10.55-5.63,3.87,2.34,17.37-8.12,18.41-5l8.82-3.38-.12.4c5.75-1.86,7.49-3.31,9.22-4.77,1.39-.27.53.36.48.56,8.52-2.39,9.29-2.83,15.7-6.88l1.08.73c1.68-1.26,12.55-2.82,20.27-6.93,0,.14-.14.39-.73.77,8.73-4.49,22.91-5.24,24.95-10.06l5.71-3.09c-7.91,2.57.59-2-2.84-1.41,3-1.33,8.34-1.81,4.63-.25l-.66,0c-.7,2.38,10-2.87,10.21-1.52,15.34-5.69,30.7-10.1,45.12-15.3l-2.19-.85,5.05-1.75c1.44-.14,2.19.49-1.42,1.74,2.19.14,5.75-2.89,5.74-3.25,7.23-2-2.12,2.7,0,2l2.88-1.18-.72.07c2.15-1.46,2.13-2.17,6.46-3.67,2.83-.7,1.73.39,2.82.05,0,.11.41,0,1.66-.56l6.37-2.19-3-.23c2.6-1.59,6-2.12,2.57-2.35,5,.44,23.86-7.91,26.72-8.25,3.62-2.28,7.5-3.68,12.34-5.34-1.28.2-2.47-.84,1.73-2.19-.54,3.23,8-1.62,12.06-.92-3.46-.18,11.66-4.62,6.3-4.72,3.53-1,.58.92,3.43.59,7.84-4,18.36-6,28.39-10.07,0-.41-1.87-.32.12-1.64l6-.22c1.94-.91,1.1-2.7,5.22-2.83-.63-.1-1.56-.27-.26-.87,20.53-5.61,40.15-16.35,61.55-20.58-3,.33-1.19-.41.89-1.2-1.42.34-.29-.88-.73-1.25l8.95-1.79c1.06-1.89,9-3.43,9.46-5L911.8,563c3-2.8-6.2-1.47-6.39-3.57-3.37,3.16-11.44,1.36-17.1,6.19-1.59.14,1-1.07.07-1.23-1.36,1.43-3.3,2.34-7.15,3.33l.35-.36c-10.36,4-15.13,4.87-27,8.65l1.21.62a19.62,19.62,0,0,1-4.47.9c-2.36,2.49,7.1-2.52,5.05,0-4-.69-17.77,6.5-20.83,5.15-3.88,1.41,1.54.68-2.34,2.09l-1.24-.21-.7,1.12c-2.59.81-4.14.54-4.42.08a21.1,21.1,0,0,0,2.35-1.07c-3.55.52-9.2,3.65-10.41,3.84l3.86-1c-10.37,4.44-23.56,8.42-33.34,13.36l.94.16c-7.5,3.68-6.43,1.8-14.86,5.32l.27-.22a26.1,26.1,0,0,1-6.12,2.94c2-1.31-4.44.48-1.82-1.14-8.14,4-3.93,2.23-8.92,5.93l-1.56-.27c-1.66,1.37-1.69,1.78-5.9,3.54,3.28-1.92-3.14-.13.48-2.41-9.57,1.67-12.74,6.51-17.72,5.66-3.38,3.56,8.19-1.71,6-.42,2.18,0-2.84,2.78-5.74,3.6-2.89,1-5.84-.83-13,1.85.72-.25.71-.43,1.43-.68-2.89.47-5,2.64-8.66,3-1.4,1.92-4.33,1.5-4.29,3.28l6.49-2.79c-3.6,1.79-6.45,4.92-13,6.29a16.81,16.81,0,0,1,3.23-2.28c-2,.2-3.37,1.58-5.42,1.79,0-1.78,7.92-3.29,11.5-6-2.18,0-7.19,3.93-5.79,1.48-2.11,3.24-7.21,2.33-11.49,5.78l0-1.06a19.33,19.33,0,0,1-3.59,2l2.13-2.17c-3.57,2.49-8,1.88-11.55,3.83,7.94-2.93,2.2.49,5.81,0-9.34,4.84-6.54-.42-17.36,4,1.44-.67,5.79-1.46,3.62-.18a31.47,31.47,0,0,1-6.52,1.18c-7.2,2.85,1.47.57-1.41,2.28-2.9-.25-3.4,1.77-6.45,3.3l-.37-1c-8.51,2.4-1.47,2.81-9.2,4.78l2.67-2.48-3.76,1.76.4-1.39c-3.94,2.35-5.33,2.62-9.59,3.83,1.21.33.09,1.94-3.57,3.31-2.71.34,1.07-1.43-4.09.61a5.26,5.26,0,0,1,4.56-2.19c.12-.4.94-1,1.06-1.42-2.94.32-6.83,2.32-8.71,3a11.25,11.25,0,0,1,2.12-.52l-7.06,4.08c-1.32.07-.48-.56.35-1.19-1.49.66-2.39,1.49-4.6,2.39.3-1-.14-1.75,2.91-3.28l-6.87,3.49c-.6-.17-4,.41-3.2-.22-4.15,1-9.22,5.08-14.73,6.4a6,6,0,0,1-1.8,1.12c-5,1.63-9.78,2.28-15.27,5.49l-3.85-.19c-4.5,2,5.16.13-2.32,3.44-5.27,2.42-2.46-.46-4.51-.16-2.45,1.69-6.63,4.83-12,5.5A45.94,45.94,0,0,1,563,681.85Zm-56.65,21.24c1-.6,3-2,4-1.75C509.47,702.9,508.31,702.72,506.31,703.08Zm-85.67,33.54a6.81,6.81,0,0,1,3.59-1.06A14.22,14.22,0,0,1,420.64,736.62Zm-239,92.74.1-.09C184.39,828.78,183.46,828.94,181.69,829.36Zm-5.27,1.39c-.47.32-.38.44-.12.5a7.11,7.11,0,0,1,2.75-1.19C178.59,829.93,177.87,830,176.42,830.74ZM725,632.82l-1.08.11C726.07,631.83,725.54,632.31,725,632.82Z"/><path class="cls-16" d="M430,731.76a.94.94,0,0,1,.66.35C431,731.8,431,731.61,430,731.76Z"/><path class="cls-16" d="M598.15,668.5l.18-.05a.45.45,0,0,0,.11-.24Z"/><path class="cls-16" d="M252.83,794.51a7.38,7.38,0,0,1,2.21-.22C255,794,254.46,794,252.83,794.51Z"/><path class="cls-16" d="M149.84,841.93l3.2-1.4a10.66,10.66,0,0,1-3.07.72C150.12,841.45,150.86,841.56,149.84,841.93Z"/><path class="cls-16" d="M119.25,845.93c-.44.29-1,.37-1.44.66l.29.4C120.13,846.25,121.43,845.38,119.25,845.93Z"/><path class="cls-16" d="M145.68,839.79c-.55-.72-2.51.28-4.76,1.23.14-.05.27-.1.41-.14C141,842.25,143.37,841,145.68,839.79Z"/><path class="cls-16" d="M140.4,841.23a20.8,20.8,0,0,1-2.12.77C138.17,842.55,139.17,841.79,140.4,841.23Z"/><path class="cls-16" d="M170.11,833.57c-1.16.17-.32,1.28-1.05,1.17C168.2,836.2,175.88,830.93,170.11,833.57Z"/><polygon class="cls-16" points="142.87 837.76 144.05 838.48 145.06 837.22 142.87 837.76"/><path class="cls-16" d="M161.29,832.13l-3.77,1c.11.15-.32.41-.86.69C158.93,833.07,161.48,832.4,161.29,832.13Z"/><path class="cls-16" d="M156.65,833.83a14.35,14.35,0,0,0-2.9,1.2C154.39,834.8,155.75,834.29,156.65,833.83Z"/><polygon class="cls-16" points="147.79 835.7 148.95 835.53 151.57 834.69 147.79 835.7"/><path class="cls-16" d="M200.83,818.41l3.91-1.7c.29-.49-.88-.31-2.32.35C201.54,817.64,200.1,818.3,200.83,818.41Z"/><path class="cls-16" d="M187.74,819.94a4.33,4.33,0,0,1,2,.14l-.32-1.29Z"/><path class="cls-16" d="M199.33,815.53c.28-.49,5.47-3,.41-1.17C199.45,814.84,195.54,816.54,199.33,815.53Z"/><polygon class="cls-16" points="260.23 795.72 259.22 796.1 260.09 798.08 260.23 795.72"/><path class="cls-16" d="M311.65,771.91c-4.92,1.2-.68,1.66-5.18,2.58-.94.88,3.68-.75,2.69.07C311.83,773,313.44,772.78,311.65,771.91Z"/><path class="cls-16" d="M309.15,774.56c-.43.24-.88.51-1.35.83A9,9,0,0,0,309.15,774.56Z"/><polygon class="cls-16" points="910.99 565.73 914.18 565.03 911.97 565.07 910.99 565.73"/><path class="cls-16" d="M916.27,562.08l1.19,1,1.39-1.84A6.5,6.5,0,0,1,916.27,562.08Z"/><path class="cls-16" d="M496.91,703.54l-.12.4c.59.17,1.31-.07,2.76-.53Z"/><polygon class="cls-16" points="538.54 689.54 537.83 689.78 539.58 690.47 538.54 689.54"/><path class="cls-16" d="M572.65,675.5c-1.43.46-3,1.33-4.44,1.79C571.22,676,573.56,676.82,572.65,675.5Z"/></g></g></svg>