<svg id="Layer_1" data-name="Layer 1" xmlns="http://www.w3.org/2000/svg" viewBox="0 0 262.77 130"><defs><style>.cls-1{fill:#403526;}.cls-2{fill:#f7d8ba;}.cls-3{fill:#f0f0f0;}.cls-4{fill:#221f1f;}.cls-5{fill:#bbbdbf;}.cls-6{fill:#e6e6e7;}.cls-7{fill:#5c6987;}</style></defs><title>expecation</title><path class="cls-1" d="M35.25,107.35c-3.32-2.75-6.24,1.88-6.24,1.88L24.4,92.35C.56,98.79-11.87,107.61-11.87,107.61l5.56,18.55s-4.12-2.4-7.25,1.26c-4.18,4.89,10.62,1.22,10.62,1.22l-2.4-18.87A77.92,77.92,0,0,0,22,97.16L27.58,113S39.93,111.24,35.25,107.35Z" transform="translate(40.43)"/><path class="cls-2" d="M15.85,63.94S3.7,17.07-26.32,45.09c0,0-8.17,12.33.16,35.46C11,74.68,15.85,63.94,15.85,63.94Z" transform="translate(40.43)"/><path class="cls-1" d="M5.06,18.25S15.5,47.41-22.32,52.08l.86,9.33s-5.07-2.08-4.69,2.43,4.81.9,4.81.9S-22.08,76-26.18,80.59c.29.27-26.84-39.78-7-40.33,0,0-.29-9.09,11.11-13.74C-10.18,21.69,0,34.72,5.06,18.25Z" transform="translate(40.43)"/><path class="cls-3" d="M15.85,63.94,24.4,92.35s-13,9.15-36.27,15.26l-14.31-27S3.48,74.05,15.85,63.94Z" transform="translate(40.43)"/><polygon class="cls-1" points="47.27 73.33 48.74 74.68 48.17 77.08 53.53 91.45 49.7 97.22 44.7 92.98 45.8 78.12 43.64 76.56 43.93 74.94 47.27 73.33"/><path class="cls-4" d="M202.67,123.28V9.79A9.79,9.79,0,0,0,192.88,0H29.46a9.79,9.79,0,0,0-9.79,9.79h0V123.28Z" transform="translate(40.43)"/><path class="cls-5" d="M217.26,130H5.08C.68,130,0,124.13,0,124.13H222.34S221.67,130,217.26,130Z" transform="translate(40.43)"/><rect class="cls-6" x="40.43" y="121.85" width="222.34" height="3.27"/><rect class="cls-5" x="130.15" y="121.85" width="42.91" height="1.85"/><rect class="cls-7" x="67.26" y="9.25" width="168.68" height="106.6"/><path class="cls-1" d="M5.55,51.71c-.47-1.14-1.32-1.87-1.9-1.63S3,51.45,3.41,52.59s1.32,1.87,1.9,1.63S6,52.85,5.55,51.71Z" transform="translate(40.43)"/><path class="cls-1" d="M-14.44,60c-.47-1.14-1.32-1.87-1.9-1.63s-.69,1.35-.24,2.51,1.32,1.87,1.9,1.63S-14,61.13-14.44,60Z" transform="translate(40.43)"/><path class="cls-1" d="M-10.75,63.33A38.93,38.93,0,0,1,3.58,57.17S6.43,64-.13,67.08C-7.45,70.54-10.75,63.33-10.75,63.33Z" transform="translate(40.43)"/><path class="cls-2" d="M29.44,66.3c.49-.88,1.3-2.4.47-2.65a.78.78,0,0,0-.9.41c.16-.41.16-1-.27-1.16a1,1,0,0,0-1,.63c.18-.37.06-1.22-.31-1.34a1.23,1.23,0,0,0-1.2.47c.18-.57,2.26-4.67,1.41-4.95s-3,5.14-3.42,6S16.78,84.91-12.93,82.32l-.33,5.34C19.33,90.11,29,67.2,29.44,66.3Z" transform="translate(40.43)"/><path class="cls-3" d="M-20.53,86.52a32.35,32.35,0,0,0,7.26,1.1l.33-5.34a33.47,33.47,0,0,1-7.91-1.34Z" transform="translate(40.43)"/></svg>