<svg id="Layer_1" data-name="Layer 1" xmlns="http://www.w3.org/2000/svg" viewBox="0 0 493.4 632.32"><defs><style>.cls-1{fill:#7f988b;}.cls-2{fill:#56665e;}.cls-3{fill:#fee04e;}.cls-4{fill:#563726;}.cls-5{fill:#f3f3f3;}.cls-6{fill:#feddc0;}.cls-7{fill:#432213;}.cls-8{fill:#c0bfbf;}</style></defs><title>Untitled-1</title><polygon class="cls-1" points="142.26 160.84 142.26 508.47 359.53 598.59 390.21 270.75 142.26 160.84"/><polygon class="cls-2" points="142.26 160.84 267.94 123.14 493.4 212.82 487.65 515.13 359.53 598.59 390.21 270.75 142.26 160.84"/><path class="cls-3" d="M306.13,150.58c4-44.23-61.88-83-15.85-132.4C325.87-20,379.75,8.3,390.46,44.84c10,34.25-33.08,68.65-36.25,111.09Z"/><path class="cls-4" d="M352.82,178.34s7.89-6.07.65-9.3c0,0,8.8-7.37.74-13.12l-11.27-1.26c2-12.91,4.63-25.74,6.61-38.63,1.22-8,2.29-16,3.45-24s2.93-15.91,2.78-24c-.08-4.25.16-9.82-3.65-12.67-2.58-1.94-5.13,1-6.37,2.87A36.22,36.22,0,0,0,342,67.12c-.85-5.12-2.73-9-6.51-8.53-4.61.63-7.15,10.06-8.27,13.58l-.29.91a58.22,58.22,0,0,0-1.15-5.88c-1.12-4.41-2-10.3-6.41-12.55-6.75-3.46-9.73,13.19-10.17,16.63-2.09,16.07.21,33.36,2.4,49.46,1.1,8.12,2.14,16.27,3.2,24.4.22,1.7.29,4.07.55,6.46l-9.19-1s-9.25,3.89-1.38,13.19c0,0-8.41,3.9-1,9.72,0,0-8.4,4.28-.14,9.8l10,1.5,6.95,9.59,12.43,1.88,8.39-7.7,8.38.42S361.52,186,352.82,178.34ZM319.33,152c-.46-2.43-.55-5.05-.86-7.37-.77-5.94-1.85-11.84-2.55-17.78-1.54-13.21-3.42-26.34-3.46-39.62,0-9.19-.22-18.37,3.66-26.7,2.1-4.51,4.38,1.87,5,3.79a72.19,72.19,0,0,1,2.21,9.26c.6,3.65.81,7.34,1.07,11a17.87,17.87,0,0,0,.53,5.82.34.34,0,0,1,0,.05h0c0,.16.08.32.14.48.69,2.16,3.81,1.13,3.55-.94s-.46-4.42-.64-6.62c.55-6.47,3.76-14,6.29-18.36,3.08-5.29,4,7.24,4.16,9,.11,1.41.17,2.87.2,4.33a17.52,17.52,0,0,0-.1,8.69c.59,1.91,3.39,1.33,3.57-.43.13-1.14.31-3.18.42-5.66a8.55,8.55,0,0,0,.33-1.48A46.85,46.85,0,0,1,345,70.2a80.26,80.26,0,0,1,2.94-7.93c1.6-3.6,3.54-2,3.75,1.56a68.52,68.52,0,0,1,.18,9.76c-.48,6-1.69,12-2.6,17.85q-2.87,18.4-5.32,36.9c-1.17,8.72-3,17.28-4.59,25.93Z"/><path class="cls-5" d="M157.68,212.82V450.55l100.55,40.9,15-231.76Z"/><polygon class="cls-2" points="348.48 517.31 343.02 523.59 343.02 523.59 348.48 517.31"/><path class="cls-2" d="M321.28,462.27c15.87,5.89,17.42,32.55,32,46.85l7.24-71.06-83.8-30.68-7,89.18,14.36,6a38.47,38.47,0,0,1-1.9-6.86C277.3,469.63,303.86,455.81,321.28,462.27Z"/><polygon class="cls-2" points="341.69 525.12 340.74 526.21 340.74 526.21 341.69 525.12 341.69 525.12"/><path class="cls-3" d="M349.63,516c-3-3.21-5.78-6.54-8.87-9.62q-6.54-6.53-13-13.19c-2-2.13-4.07-4.42-6.27-6.39a34,34,0,0,0-3.89-2.84c-1.48-1-2.64-.65-1.69,1.08a40.49,40.49,0,0,0,2.27,3.57,23.35,23.35,0,0,0,3,3.67,4.23,4.23,0,0,1,.49.58c.94.79,1.69,1.47,2.11,1.86.64.6.07,1.93-.86,1.6a8.46,8.46,0,0,1-3.39-2.63c-.58-.42-1.17-.84-1.76-1.21s-5.9-3.8-4.71-.95a24.93,24.93,0,0,0,5.41,8.06c.92.58,1.84,1.16,2.79,1.71s.4,2.1-.65,1.75l-.23-.09h0a8.58,8.58,0,0,1-2.44-1.52c-1.52-1-3-2-4.64-2.84a33.27,33.27,0,0,0-4.27-1.85c-.92-.33-4.08-1.29-2.91.92,2.16,4.09,5.83,6.74,9.44,9.46,5.22,3.94,10.93,7.08,16.56,10.38,2.54,1.48,5.16,2.8,7.71,4.24,1,.57,2.06,1.31,3.15,1.84l5.46-6.28Z"/><path class="cls-3" d="M321.28,462.27c-17.42-6.46-44,7.36-39.18,33.43a38.47,38.47,0,0,0,1.9,6.86l56.73,23.65,1-1.09c-1-.61-2-1.29-2.7-1.7-3.49-2-7-4-10.5-5.95-7-3.9-14.41-8.09-20.12-13.75-1.22-1.21-6.91-7.4-3.62-9.15,2.14-1.15,4.71.24,6.76,1.09a26.7,26.7,0,0,1,2.64,1.28l-.28-.39c-1.06-1.51-4-5.37-3-7.46.88-1.72,3-1.32,5.22-.15a18.66,18.66,0,0,1-2.4-4.21c-.39-1.08-.8-3,.7-3.49,2.21-.72,4.33,1,6,2.27,3.21,2.34,5.84,5.47,8.62,8.29s5.66,5.7,8.45,8.58c4.5,4.65,8.79,9.56,13.28,14.24l2.17-2.49.26-3C338.7,494.82,337.15,468.16,321.28,462.27Z"/><polygon class="cls-4" points="343.02 523.59 343.02 523.59 341.69 525.12 341.69 525.12 340.74 526.21 351.38 530.65 352.98 512.13 348.48 517.31 343.02 523.59"/><path class="cls-4" d="M350.81,514.62c-4.5-4.68-8.78-9.58-13.28-14.24-2.78-2.89-5.64-5.72-8.45-8.58s-5.41-5.95-8.62-8.29c-1.69-1.23-3.81-3-6-2.27-1.5.49-1.09,2.41-.7,3.49a18.66,18.66,0,0,0,2.4,4.21c-2.26-1.17-4.34-1.57-5.22.15-1.07,2.09,1.9,6,3,7.46l.28.39a26.7,26.7,0,0,0-2.64-1.28c-2.05-.85-4.62-2.24-6.76-1.09-3.29,1.75,2.4,7.94,3.62,9.15,5.71,5.65,13.17,9.85,20.12,13.75,3.51,2,7,4,10.5,5.95.73.42,1.68,1.09,2.7,1.7l1.33-1.53c-1.09-.53-2.14-1.27-3.15-1.84-2.55-1.45-5.18-2.76-7.71-4.24-5.63-3.3-11.33-6.44-16.56-10.38-3.62-2.73-7.28-5.38-9.44-9.46-1.17-2.21,2-1.25,2.91-.92a33.27,33.27,0,0,1,4.27,1.85c1.61.84,3.12,1.85,4.64,2.84a8.58,8.58,0,0,0,2.44,1.52h0l.23.09c1,.36,1.53-1.24.65-1.75s-1.87-1.13-2.79-1.71a24.93,24.93,0,0,1-5.41-8.06c-1.2-2.85,4,.49,4.71.95s1.17.79,1.76,1.21A8.46,8.46,0,0,0,323,496.3c.92.33,1.49-1,.86-1.6-.42-.39-1.16-1.08-2.11-1.86a4.23,4.23,0,0,0-.49-.58,23.35,23.35,0,0,1-3-3.67,40.49,40.49,0,0,1-2.27-3.57c-1-1.73.21-2.07,1.69-1.08a34,34,0,0,1,3.89,2.84c2.2,2,4.22,4.26,6.27,6.39q6.41,6.66,13,13.19c3.09,3.08,5.92,6.41,8.87,9.62l-1.15,1.33,4.5-5.18h0Z"/><path class="cls-3" d="M189.63,417.77c3.48-36-43.67-83.55-9.7-114.17C206.18,279.94,244.8,316,252.06,349c6.81,30.9-24.85,49.67-27.71,84.36Z"/><path class="cls-4" d="M223,451.71s5.79-3.24.6-7.61c0,0,6.47-4.12.71-10.78l-8.14-3.65c1.63-10.31,3.69-20.41,5.3-30.72,1-6.38,1.87-12.84,2.82-19.25s2.34-12.61,2.34-19.37c0-3.57.24-8.16-2.47-11.42-1.84-2.21-3.73-.37-4.65.93a24.1,24.1,0,0,0-2.86,6.54c-.55-4.47-1.85-8.18-4.6-8.62-3.35-.54-5.31,6.75-6.17,9.43-.07.23-.14.46-.22.7-.18-1.71-.42-3.43-.75-5.18-.75-3.94-1.32-9.06-4.47-12-4.83-4.44-7.21,8.77-7.58,11.53-1.73,12.94-.29,27.9,1.08,41.84.69,7,1.33,14.07,2,21.1.13,1.47.15,3.46.31,5.52l-6.64-3s-6.75,1.12-1.17,10.69c0,0-6.14,1.32-.87,7.88,0,0-6.13,1.63-.23,8.15l7.18,3.55,4.9,9.61,9,4.44,6.17-4.49,6.06,2.28S229.24,460.08,223,451.71ZM199.16,422c-.3-2.13-.33-4.34-.52-6.35-.48-5.13-1.18-10.31-1.61-15.43-.94-11.38-2.13-22.78-2-33.86.11-7.67.08-15.38,3-21.45,1.58-3.28,3.15,2.57,3.54,4.31a78.61,78.61,0,0,1,1.48,8.25c.39,3.18.49,6.31.63,9.45a18.17,18.17,0,0,0,.3,5,.21.21,0,0,1,0,0h0c0,.14.05.29.09.43.47,2,2.75,1.82,2.59,0s-.27-3.79-.38-5.68a35.14,35.14,0,0,1,4.79-13.87c2.3-3.71,2.82,7,2.89,8.43.06,1.2.08,2.44.09,3.66a16.6,16.6,0,0,0-.19,7.23c.4,1.74,2.44,1.9,2.59.47.1-.93.26-2.59.38-4.63a7,7,0,0,0,.26-1.16,36.75,36.75,0,0,1,1.69-7.25,56.56,56.56,0,0,1,2.23-5.94c1.21-2.63,2.59-.89,2.7,2.17a67.52,67.52,0,0,1,0,8.19c-.42,4.86-1.38,9.6-2.12,14.3q-2.32,14.7-4.34,29.57c-1,7-2.43,13.72-3.66,20.58Z"/><path class="cls-4" d="M185.4,275.51s.06.1.18.15a4.24,4.24,0,0,0,.73.22l1,.25q.54.14,1.06.23a3.4,3.4,0,0,1,.82.22,1.66,1.66,0,0,1,.05.53,1.2,1.2,0,0,1,0,.35,1.41,1.41,0,0,0-.1.25,17.36,17.36,0,0,1-2.58-.58c-.95-.28-2-.64-3-1.06l-.91-.41a2.39,2.39,0,0,1-.6-.38,1,1,0,0,1-.23-.79,1.5,1.5,0,0,1,.07-.48.29.29,0,0,1,.31,0,5.2,5.2,0,0,1,.6.42,1.56,1.56,0,0,0,.39.25l.39.18.6.27.49.15q-.19-3.06-.28-5.18t-.17-4.08q-.09-2-.14-4.13t-.12-5.32q.18-3.55.28-5.58c.06-1.35.11-2.65.13-3.9,0-.62,0-1.15,0-1.59s0-.83.05-1.18,0-.73,0-1.14,0-.9,0-1.48a5.21,5.21,0,0,0-1.15-.16,3.64,3.64,0,0,1-1.15-.23,1.64,1.64,0,0,1-.05-.53,1.11,1.11,0,0,1,0-.35,1.61,1.61,0,0,0,.1-.25q1.15.16,2.58.4a14.64,14.64,0,0,1,3,.88l.91.41a2.32,2.32,0,0,1,.6.38,1,1,0,0,1,.23.79,1.57,1.57,0,0,1-.07.48.28.28,0,0,1-.3,0,4.52,4.52,0,0,1-.6-.42,1.61,1.61,0,0,0-.39-.25l-.39-.18a8,8,0,0,0-1.33-.46c-.48-.12-.89-.23-1.21-.33L185.2,249q0,2.31-.11,4.6c-.05,1.53-.09,3.06-.11,4.6s0,3.07,0,4.17.12,2.19.18,3.28.12,2.32.18,3.68.07,3.12,0,5.28Z"/><path class="cls-4" d="M193.75,244a2.48,2.48,0,0,0,.39.14,3.1,3.1,0,0,1,.39.14,10.1,10.1,0,0,1,2.08,1.27q1,.77,1.89,1.54l.42.34a11,11,0,0,1,2.89,3.52,18.88,18.88,0,0,1,1.54,4.65q.28,1.37.5,2.73A15.46,15.46,0,0,1,204,261a47.39,47.39,0,0,1-1.08,9.72,18.89,18.89,0,0,1-3,7.09,8.2,8.2,0,0,1-2.69,2.38,5.16,5.16,0,0,1-3.57.46,3.37,3.37,0,0,1-.5-1.31c-.09-.53-.16-.94-.19-1.25a5.09,5.09,0,0,1,0-.79c0-.26,0-.52,0-.76s0-.74,0-1.08a8.25,8.25,0,0,1,.08-1q.11-2.71.21-4.81c.06-1.4.11-2.87.14-4.41l.12-6.78q0-1.22.13-2.34t.13-2.27v-.58q0-1,0-2.08t0-2.08s0-.24,0-.59,0-.72,0-1.13,0-.85,0-1.31,0-.87,0-1.2A3.27,3.27,0,0,1,193.75,244Zm.77,14.89q-.1,2-.13,4.08t-.07,4q0,2.59-.09,5.23t0,5.54l0,1.3a4.37,4.37,0,0,0,2.2-.17,4.33,4.33,0,0,0,1.66-1.07,4.08,4.08,0,0,0,.84-1.18c.27-.53.54-1,.78-1.43a5.34,5.34,0,0,0,1-1.78c.24-.69.5-1.43.8-2.22a30.43,30.43,0,0,0,1.18-4.63,33.14,33.14,0,0,0,.52-5.29,26.93,26.93,0,0,0-.32-4.58,17.3,17.3,0,0,0-1.3-4.36,8.93,8.93,0,0,0-2.56-3.34q-1.74-1.44-3.55-2.69l-.66-.44,0,1c0,.67,0,1.35,0,2s0,1.36,0,2q0,2-.07,4T194.52,258.84Z"/><path class="cls-4" d="M208.59,251.39q1.52.39,3,.73a15.76,15.76,0,0,1,3,1,8.47,8.47,0,0,1,1.87,1.14l.26.59a1.26,1.26,0,0,1,.14.54c-.09.25-.27.31-.55.19a2.46,2.46,0,0,1-.57-.37c-.18-.15-.37-.3-.57-.44l-.6-.27a10.27,10.27,0,0,0-2.55-.79,22.58,22.58,0,0,1-2.6-.6,25.16,25.16,0,0,0-.17,2.65c0,1,0,1.94,0,2.85l-.1,5.55a1.15,1.15,0,0,1,0,.28,1.2,1.2,0,0,0,0,.27,1.64,1.64,0,0,0,.11.49.6.6,0,0,0,.36.31,2.31,2.31,0,0,0,.73.18c.28,0,.53.07.73.11a13.65,13.65,0,0,1,1.36.4c.47.16.94.35,1.42.57a11.29,11.29,0,0,1,1.81,1,7.79,7.79,0,0,1,.46,1.3c-.16.17-.43.17-.79,0a4.21,4.21,0,0,1-.63-.36,4.6,4.6,0,0,0-.64-.36,11.56,11.56,0,0,0-2.54-.82,20.8,20.8,0,0,1-2.42-.62c0,.51-.08,1-.08,1.49s0,1,0,1.51,0,1,0,1.55,0,1-.09,1.52c-.06,1.09-.11,2.09-.14,3s-.06,1.83-.08,2.69q0,1.66,0,3.34c0,1.13.08,2.29.18,3.5a2.28,2.28,0,0,0,.51.31l.7.31,1.63.74c.57.21,1.12.43,1.67.68a7.15,7.15,0,0,0,1.42.5,1.55,1.55,0,0,0,.4,0,.59.59,0,0,1,.39,0,1.76,1.76,0,0,1,.3.28,1.62,1.62,0,0,1,.35,1.17,1,1,0,0,1-.07.41,5.77,5.77,0,0,1-1.94-.51,13.89,13.89,0,0,0-1.87-.7q-2-.69-3.75-1.48a1.94,1.94,0,0,1-.42-.52q-.12-.23-.29-.53,0-1.9-.18-3.82c-.1-1.28-.14-2.5-.12-3.65v-.5c0-1.25.08-2.48.19-3.7s.19-2.46.25-3.74.16-2.84.17-4.32.06-2.94.17-4.4a12.39,12.39,0,0,0,.08-1.27c0-.43,0-.86,0-1.3l0-3c0-.53,0-1.11,0-1.73s0-1.19.09-1.7l0-1.15A.88.88,0,0,1,208.59,251.39Z"/><path class="cls-4" d="M229.67,296.6a.89.89,0,0,1-.67,0,.58.58,0,0,1-.36-.45,4.89,4.89,0,0,1-.1-1.32q0-.9,0-1.51a70.58,70.58,0,0,1-.24-7.09q0-1.66.12-3.25t.18-3.37a6.64,6.64,0,0,0-.78-.43l-.73-.33c-1-.44-1.88-.8-2.75-1.1s-1.87-.67-3-1.14l0,.87c0,.65-.09,1.29-.12,1.9s0,1.21-.06,1.79a38.62,38.62,0,0,0,.27,5.36,35.67,35.67,0,0,1,.28,5v.79c0,.53-.09.83-.26.9a1.08,1.08,0,0,1-.48-.44,4.63,4.63,0,0,0-.36-.52v-.72a19.22,19.22,0,0,0-.08-2.25c-.07-.69-.14-1.35-.21-2s-.14-1.32-.21-2.06a22.67,22.67,0,0,1-.08-2.54q0-1.08.1-2.17c.05-.73.11-1.49.16-2.29l0-.94q0-1.44,0-3.09c0-1.1,0-2.2,0-3.31l0-1.51q0-1.66.12-3.43a21.18,21.18,0,0,1,.42-3.33,9.93,9.93,0,0,1,.93-2.67,3,3,0,0,1,1.7-1.48,6.2,6.2,0,0,1,1.16-.2,2.9,2.9,0,0,1,1.46.29l.3.14a5.09,5.09,0,0,1,1.8,1.65,12.63,12.63,0,0,1,1.24,2.19,8.12,8.12,0,0,1,.51,2.3q.1,1.25.08,2.54c0,.48,0,1-.06,1.43s0,.95-.06,1.43v.58q0,1.44,0,2.85t0,2.85l0,1.15q-.16,1.68-.22,3.61t-.16,3.71v.5q0,1.66.09,3.28t.1,3.21c0,1,0,1.75,0,2.21s0,1,0,1.64ZM228.44,262a4,4,0,0,0-2-2.08q-2-.9-3,.05a5.25,5.25,0,0,0-1.42,2.81,22.3,22.3,0,0,0-.47,4q-.07,2.11-.15,3.6l-.09,5a8,8,0,0,0,1.42.5,8,8,0,0,1,1.36.47l3.56,1.61a2.05,2.05,0,0,0,1,.25,13,13,0,0,1,0-1.32q0-.72,0-1.3c0-1.3.09-2.59.19-3.88s.17-2.55.19-3.8a30,30,0,0,0-.1-3A18.72,18.72,0,0,0,228.44,262Z"/><path class="cls-4" d="M238.74,299.76a4.33,4.33,0,0,0,3.65.34,2.65,2.65,0,0,0,1-1.24,5.49,5.49,0,0,0,.44-2.2,13.47,13.47,0,0,0-1.2-6.11,33,33,0,0,0-3.28-5.37c-.68-.89-1.31-1.78-1.9-2.68s-1.19-1.87-1.78-2.91a17.57,17.57,0,0,1-1.66-4.24,16.89,16.89,0,0,1-.44-4.2,10,10,0,0,1,.8-4.07,7,7,0,0,1,2.26-2.29,3.68,3.68,0,0,1,3.56.12l1,.47c.4.21.79.43,1.18.68a3.75,3.75,0,0,1,1,.87,1.59,1.59,0,0,1,.38,1,2,2,0,0,1-.13.52c-.44-.35-.91-.68-1.41-1a11.4,11.4,0,0,0-1.48-.81,6.81,6.81,0,0,0-1.76-.54,2.45,2.45,0,0,0-1.52.22,4.75,4.75,0,0,0-2.05,2.2,8.6,8.6,0,0,0-.86,3.83,11.1,11.1,0,0,0,1.25,5.43,47.15,47.15,0,0,0,3.14,5.12l2,2.73c.6.8,1.17,1.65,1.72,2.56a12.94,12.94,0,0,1,1.29,2.8,13.79,13.79,0,0,1,.8,3.2,23.81,23.81,0,0,1,.13,2.89,5.89,5.89,0,0,1-1.41,4.23c-.91.9-2.23,1-4,.17a11.21,11.21,0,0,1-2.8-1.88,13,13,0,0,1-2.18-2.4c-.24-.35-.55-.83-.95-1.45a2.91,2.91,0,0,1-.58-1.43.36.36,0,0,1,.31-.37,4,4,0,0,1,.89,1c.36.5.76,1.06,1.22,1.68a15.63,15.63,0,0,0,1.55,1.79A6.44,6.44,0,0,0,238.74,299.76Z"/><polygon class="cls-5" points="341.73 316.78 334.48 389.21 361.32 399.43 368.99 329.13 341.73 316.78"/><polygon class="cls-2" points="350.14 333.61 347.58 358.1 352.27 359.6 355.89 336.59 350.14 333.61"/><polygon class="cls-5" points="312.27 311.05 312.27 326.11 323.91 331.29 325.62 316.17 312.27 311.05"/><polygon class="cls-2" points="312.27 311.05 317.31 308.26 330.52 312.76 329.45 327.88 323.91 331.29 325.62 316.17 312.27 311.05"/><polygon class="cls-5" points="285.86 301.17 285.86 316.22 297.5 321.4 299.2 306.28 285.86 301.17"/><polygon class="cls-2" points="285.86 301.17 290.9 298.37 304.1 302.87 303.04 317.99 297.5 321.4 299.2 306.28 285.86 301.17"/><polygon class="cls-5" points="309.04 339.96 309.04 355.02 320.68 360.2 322.39 345.07 309.04 339.96"/><polygon class="cls-2" points="309.04 339.96 314.08 337.16 327.29 341.67 326.22 356.79 320.68 360.2 322.39 345.07 309.04 339.96"/><polygon class="cls-5" points="282.62 328.37 282.62 343.42 294.27 348.61 295.97 333.48 282.62 328.37"/><polygon class="cls-2" points="282.62 328.37 287.66 325.57 300.87 330.07 299.81 345.2 294.27 348.61 295.97 333.48 282.62 328.37"/><polygon class="cls-5" points="306.24 364.76 306.24 379.81 317.88 384.99 319.59 369.87 306.24 364.76"/><polygon class="cls-2" points="306.24 364.76 311.28 361.96 324.49 366.46 323.42 381.58 317.88 384.99 319.59 369.87 306.24 364.76"/><polygon class="cls-5" points="279.83 354.87 279.83 369.92 291.47 375.1 293.17 359.98 279.83 354.87"/><polygon class="cls-2" points="279.83 354.87 284.87 352.07 298.07 356.57 297.01 371.69 291.47 375.1 293.17 359.98 279.83 354.87"/><path class="cls-6" d="M279.34,479.51c-.51-1.62-2.56-1.53-4.44-1.06,1.79-1,3.41-2.65,2.53-5.31-.71-2.13-4-.93-6.06.1,1.89-1.16,4.53-3.24,3.68-5.44-1.41-3.65-7.63-1-7.63-1s5.27-2.22,4.86-4.41c-1.09-5.73-10.51.63-10.51.63S202.65,506,102,461.1l-6.24,13.82S156.07,522,272.5,485.8C272.5,485.8,280.83,484.24,279.34,479.51Z"/><path class="cls-7" d="M25.71,563.72c.62,9.72,1.37,21.19-3.62,29.33C15.24,604.24.27,607.34.27,607.34s10.5,30.31,16.63,24.17c14.08-14.12-3.79-19.24-3.79-19.24,6.06-2.33,18.11-6.64,22.47-12.65,5.78-8,4.6-19.29,4.6-19.29s58.47,17.3,126,3c0,0,17.91,12,11.06,42.26,0,0,29.08,8.54,28.29-4.79-1.09-18.49-18-.27-18-.27,13.63-34.59-8.27-52.57-8.27-52.57Z"/><path class="cls-6" d="M79.67,320.18s101.32-18.54,111,119.28c-10.29,2.72-73.92,21.21-179.32,9.56h0C13.08,393.7,17.7,335.92,79.67,320.18Z"/><path class="cls-5" d="M190.71,439.46C132.63,457,11.39,449,11.39,449c1.41,51.57,14.32,114.7,14.32,114.7,97.41,16.09,153.52,4.21,153.52,4.21C195.54,500.62,190.71,439.46,190.71,439.46Z"/><path class="cls-4" d="M138.95,466.5l-4,19.81,10.45,4.88-11.53,41.32,15.89,19.24,15.37-12.89-6.53-47.42s6.51-3.91,7-4.79-6.19-20.22-6.19-20.22Z"/><path class="cls-4" d="M170.37,415.87s5.12,17.88-14.53,21.88c-30,6.09-31.49-15.19-31.49-15.19S149,412.83,170.37,415.87Z"/><ellipse class="cls-4" cx="172.57" cy="399.82" rx="3.36" ry="8.97" transform="translate(-32.52 15.67) rotate(-4.75)"/><ellipse class="cls-4" cx="112.31" cy="410.75" rx="3.37" ry="8.97" transform="matrix(1, -0.08, 0.08, 1, -33.67, 10.73)"/><path class="cls-6" d="M245.31,530.12c-.21-1.69-2.23-2-4.17-1.85,1.93-.65,3.84-2,3.45-4.76-.31-2.22-3.75-1.64-6-1,2.07-.8,5-2.36,4.61-4.67-.72-3.85-7.33-2.34-7.33-2.34s5.59-1.22,5.58-3.45c0-5.83-10.45-1.3-10.45-1.3s-66,31.42-156.74-31.13l-8.66,14.07S126.53,545.16,237.44,535C237.44,535,245.91,535,245.31,530.12Z"/><path class="cls-8" d="M42.1,477.64c-.26-.09,0,.29-.21,0C42,477.56,42.07,477.52,42.1,477.64Z"/><path class="cls-8" d="M73.54,482.72v0S73.57,482.76,73.54,482.72Z"/><path class="cls-8" d="M73.85,481.42a.28.28,0,0,1,0,.05h0S73.87,481.43,73.85,481.42Z"/><path class="cls-8" d="M73.85,481.42s0-.06,0-.09S73.8,481.39,73.85,481.42Z"/><path class="cls-8" d="M45.62,482.19c.05.07,0,.3.16.23,0,.1-.18.15-.1.24.18-.09.2-.41.09-.58a.14.14,0,0,1,0-.05A.31.31,0,0,1,45.62,482.19Z"/><path class="cls-8" d="M45.48,482.21a.21.21,0,0,0,.15,0S45.56,482.15,45.48,482.21Z"/><path class="cls-8" d="M74.64,480.21c-.09,0-.21-.93-.53-.62.13,0,.05-.35.27-.38-.32-.15-.71.08-1,.15-.05-.1-.42-.17-.52-.22.05-.19.07.06.18,0l0-.28c.21.1.16-.3.34-.34-.22,0-.52-.35-.71-.56-.06.44-.42,0-.61.27-.31-.12,0-.33,0-.47-.36-.07-.57-.33-.85-.46l0-.06c-.3-.06-.62-.4-1-.28l.16-.14c-.18-.27-.3.36-.48,0l.17-.1c-.28,0-.26-.37-.63-.27l.17-.11c-.23-.06-.43-.23-.72-.14l.24-.2c-.11-.24-.38.13-.49-.08,0,0-.05-.24,0-.22-.17.07-.43-.1-.56-.11l0-.37a12.27,12.27,0,0,0-3-1.65c0-.41.34,0,.38-.32-.16.27-.21,0-.55-.13v0c-.16,0-.12-.24-.3-.24l0,.07c-.25.08-.09-.54-.38-.25l0-.26c-.33.21-.16-.24-.49-.1l.05,0c-.14-.28-.68,0-.61-.28-.22-.08-.49-.17-.67,0l.21-.3a9.39,9.39,0,0,0-2.43-1.06l.12-.12c-.58,0-.64-.83-1.27-.51l-.25.15,0-.42c-.17.09-.39-.2-.57,0l.13-.17c-.16-.17-.58,0-.71-.17l.12-.06c-.68-1-1.68-2-2.75-2.06-.26-.05.1-.34,0-.38-1-.12-1.56-1.36-2.68-1.21a1.5,1.5,0,0,0-1.29.37,10.18,10.18,0,0,1,3.62,2.95,5,5,0,0,1,1.48.91c1.78,1.08,3.17,2.76,5.1,3.7,0-.15.15-.22.26-.2l0,.09.25-.08c.14.07-.05.25-.19.2.71.47,1.39.81,2,1.31.21-.22.37.22.57,0l-.09.1c.57.18.61.2.83.81,1.71,1.44,3.62,2.43,5.4,3.71l1.52.88-.64,1.18c.23.55-.21.84-.07,1.41l-.11-.1c0,.41-.27.35-.65.64.14.09,0,.17.22.26.12.26-.49,0-.49.28-.09,0,.15.08,0,.08,0,.67-.08-.18-.69.3a11.12,11.12,0,0,1-1.41,2.7c0-.06.23,0,.18.12-.44-.16-.07.35-.31.4l-.07-.21c-.4.28-.35.75-.75,1v-.11c.06.52-.64.71-.57,1.09-.12-.15-.21.08-.33.11.31.53-.57.57-.45,1.07l-.07-.06-.55.89a1.78,1.78,0,0,0-.84-.57c-.15,0-.13.15-.24.13s.09-.14.07-.23c-.41,0-.64-.47-1-.71-.09,0-.2,0-.24.13-.2-.57-1-.52-1.28-1-.12.49-.38.05-.59.05s0-.18.07-.23a1.87,1.87,0,0,1-.81-.61c-.2-.07-.39.12-.55-.07.05-.36-.42-.29-.55-.53a.35.35,0,0,1-.62.06l.28-.29c-.78-.2-1.45-1.18-2.47-1.25l.07-.23c-.92-.28-1.52-1-2.5-1.12a2.19,2.19,0,0,0-.6-.64c-.38,0-.46-.09-.82.05-.11,0-.07-.24-.07-.34-.31-.27-.45-.76-.93-.62l.1-.17c-.38,0-.9-.06-1.08-.45-.18.09-.53-.05-.51.23-.14,0,.11-.33-.13-.23l.27-.16a7.86,7.86,0,0,0-2-1.07c0-.41-.65-.38-.92-.78-.32,0-.55-.46-.95-.21l.1-.17a8.58,8.58,0,0,1-1-.81c-.19-.19-.35.06-.59,0l.1-.17c-.26,0-.48.2-.66.32-.08-.21-.17-.1-.25-.31a1.31,1.31,0,0,0,.69-.26c-.19-.22-.7,0-.68-.31-.16-.2-.37-.23-.53,0,.09,0,0-.22.13-.24a.5.5,0,0,0-.46-.09c.06-.07.08.05.14.07-.18.12-.32,0-.45.29.12,0,.15-.05.23,0-.16.15-.44,0-.4-.16s.36-.18.32-.36l-.71.16c.18-.09.26.12.1.27h.23l-.13.17c.31.11.38.42.76.46l0-.25c.17.1.5,0,.51.27-.12,0-.13.15-.19.25h.18l-.28.26c.34-.37.55.14.66.12l-.06,0c.16.29.07-.2.24-.1s-.17.37-.12.59c.26.15.84.2,1,.62l.87.13c.2.13-.22.32.07.3a1.18,1.18,0,0,0-.19.35c.11-.12.36.27.38-.12a2.85,2.85,0,0,0,.9.63c-.11,0-.27.14-.25.29a.74.74,0,0,1,.8.17c.13-.21,0-.26.2-.44h.23c-.1.24-.33.55-.1.71-.28.29-.36-.3-.47.1a.45.45,0,0,1-.68-.28c-.39.15.14.14-.08.39.2.1.38,0,.69.15.09-.14,0-.22.22-.25.45-.13.18.42.24.47h-.17c.1.21.29.05.46.19-.2.41-.31-.14-.53,0l0,.35c.25.22.28-.26.49,0l-.12.11.23,0c.1-.14.2-.38,0-.45.34-.3.17,0,.46.13.21-.16-.12-.05,0-.26s.27-.1.41-.06,0,.29-.06.48c-.06,0-.23-.06-.14-.17-.38.06-.17.5-.44.54.13.3.33-.14.5,0-.26,0,.07-.2.08-.33.69-.35-.06.55.31.65.17-.4.74-.23.78-.78.11,0,.26,0,.32.05-.24.19,0,.28-.29.42l.11.07-.36.18c0,.25.11.55.1.71.23,0,.1-.27.33-.2a.18.18,0,0,0,0,.31c-.11-.2.23-.35.37-.34a.38.38,0,0,1,.09.46l-.3.1c.24-.1,0,.13.17.14l.49-.42c.15,0,.1.24.16.23l-.26,0c.25.09-.2.41.09.46l.18-.15-.1.2c.13-.11.23,0,.32,0l-.07.14c.15,0,.45-.22.41.1.11-.36-.11-.08-.19-.32s.3-.1.36-.11c-.22.32.23.19.34.27V487l.18-.18c-.23.44.29.05.34.27-.15.08-.25.25-.2.38.08-.39.45-.26.55-.49.16.26-.31.36-.39.62.27-.16.16.32.44.07-.1-.2.16-.18.28-.3.19.16-.12.12,0,.33.12,0,.39-.15.31-.33.08.15.41-.06.42.22s-.31-.08-.33.11c.28.21.46-.38.77-.27,0-.18.29-.45.5-.48.25.28-.21,0-.25.35l.14,0c-.06.45-.72.33-.74.71l.21,0c-.09.08-.25.22-.25.35.19-.22.34.14.4.1s-.14,0,0-.15c.17,0,.45-.26.58,0-.21.06-.13.3-.26.38.05.15.19-.22.26,0l-.09.11a2.54,2.54,0,0,0,2,.65c0,.26.12.39.31.71-.08-.14.13-.21.22-.19l0,.32c.07.24.43.16.66.13l-.07.2c0,.25.23,0,.32,0v.23l.13-.15c.2,0,.37.17.18.42.09,0,.18,0,.16-.15,0,.25.44.51.75.58-.08-.14,0-.22.08-.39s0,.09.23,0c-.07.1,0,.29-.19.28.11.58.78.61,1.17,1l.21-.1c.09.46.62.39.84.7,0-.16.32-.42.49-.32.33-.11-.14.37-.07.61a.39.39,0,0,1,.37.07l0,0c.18-.06.38,0,.43.16h0c.08.09.1.3.21.35.19-.18.35.11.53,0l0,.1.13-.18.13.23-.24.13c.13.27.18-.12.36-.15s.11.14.13.27-.08-.12-.14-.11,0,.12,0,.23.19-.18.27-.07.34.17.18.35l.1,0h0c3.11-.7.86-.21,1.56-.37V494l-.16.09c-2,.44-1.29.21-1.17.13,2-.42.56-.17,1-.28l.11-.07V494c0-.09.18-.26-.08-.27h.35c-.12-.15,0-.29,0-.44.21.12.38.36.57.16l-.09-.32c0-.11.11-.11.22,0,.34-.28-.35-.71,0-.88.17.27.25.18.4.1l-.09-.15c-.13,0,.13.18-.1.17s0-.17,0-.26c.68.08.63-.74,1.13-1-.31-.16,0-.23,0-.38.29.21.08-.26.34-.25l-.34-.13c.32-.14-.21-.68.24-.61.18-.08.19.18.21.27.45,0,0-.67.5-.6-.11-.09-.35-.16-.36-.39.21-.05.54-.22.58-.16,0-.15-.07-.24.11-.29l.06.18c.2-.14.15-.37.15-.61.29,0,.38-.37.64-.5-.21-.3.33-.28,0-.52l.13,0c-.06-.15-.25-.36-.21-.47l.22.18c.29.21.24-.26.41-.19-.26,0,.08-.12-.1-.24v-.17c.06-.23-.11-.1,0-.36s.31.13.25.15c.2,0,.2-.2.21-.35,0,0-.05,0-.08,0a.09.09,0,0,0,.08,0,.43.43,0,0,1,0-.15h0a.61.61,0,0,1,0,.15.32.32,0,0,0,.11-.12v0a.15.15,0,0,1,.12-.07l.17.15a.57.57,0,0,0-.1-.49,1.8,1.8,0,0,0,.59-1.22c0,.11.08.23,0,.12s-.05-.36.08-.3c0-.16.19,0,.31-.18,0,0-.17-.14-.18-.08.47-.11.22-.78.63-1-.07,0,.05.14.11.22a2.13,2.13,0,0,0,.05-1l.17.21a.68.68,0,0,0,.09-.47c-.23,0-.26-.31-.14-.4l0,0c.11-.19,0-.26.12-.44s0,.13.14.16c.33.15.45-.3.51-.31l-.14-.22C74.38,480.08,74.59,480.32,74.64,480.21Zm-2.87,5.09v.05A.2.2,0,0,1,71.77,485.3Z"/><path class="cls-8" d="M71.64,485.74v0h0Z"/><path class="cls-8" d="M61.08,488.89l0,0,.11,0Z"/><path class="cls-8" d="M45.79,482l0,0Z"/><path class="cls-8" d="M42.38,477.79c0,.16.07.34-.17.44Z"/><path class="cls-8" d="M45.61,481.87s0,.09,0,.12-.18.06-.18,0Z"/><path class="cls-8" d="M46.62,482.64c-.09.11-.38.06-.52,0Z"/><path class="cls-8" d="M47.28,483.78c0,.16,0,.2-.15.12Z"/><path class="cls-8" d="M47.53,483.55l.07.24C47.67,483.69,47.37,483.73,47.53,483.55Z"/><path class="cls-8" d="M49.44,485.3c.06,0,.23,0,.2.16C49.64,485.33,49.29,485.45,49.44,485.3Z"/><path class="cls-8" d="M50.55,485.77l.08.05c0,.09-.09.14-.15.12Z"/><polygon class="cls-8" points="68.98 490.27 68.98 490.41 68.87 490.32 68.98 490.27"/><path class="cls-8" d="M73.94,482.19c0-.16.16,0,.19,0S74,482.05,73.94,482.19Z"/><polygon class="cls-8" points="72.2 477.81 72.23 477.83 72.06 478.07 72.2 477.81"/><path class="cls-4" d="M29.42,332.69s.91-56.82,68.38-43.43c52.15,10.35,91.74,35.47,112.1-2.11,0,0-22.58,103.13-150.69,77,0,0-2.12,23.92-5.44,34.68,0,0-11.92-7.24-13.55,2.27s10.86,7.1,10.86,7.1-4.26,27.43-39.25,40.2C11.84,448.44-24.17,336.9,29.42,332.69Z"/></svg>