<svg id="Layer_1" data-name="Layer 1" xmlns="http://www.w3.org/2000/svg" viewBox="0 0 388.08 562.02"><defs><style>.cls-1{fill:#feddc0;}.cls-2{fill:#432213;}.cls-3{fill:#563726;}.cls-4{fill:#f3f3f3;}.cls-5{fill:#fee04e;}</style></defs><title>install-2</title><path class="cls-1" d="M195.07,104c2.66-2.93,6.87,3.14,6.87,3.14,5.9,8.2,7.21,18.38,7.21,18.38s9.59-.42,9.12,5.37-11.21,2.67-11.21,2.67c-27.24,26.88-66.56,125.48-83.38,162l-23-8.6c35.43-78,83.33-154.39,89.26-161.43,0,0-11.46-10.53-7.64-13.47,1.89-1.46,5.45,3.61,6,4.4l.07.11-.07-.11c-.5-.75-3.64-5.63-1.51-7.33,1.94-1.55,4.66,2.5,5.48,3.83.14.25.24.41.24.41l-.24-.41c-.75-1.3-2.93-5.42-1.08-6.56,2.05-1.27,5.67,3.09,6.15,3.69l.06.07-.06-.07C196.84,109.52,193.71,105.47,195.07,104Z"/><path class="cls-2" d="M269.46,515,267,540.66l15.52-5.59S300.77,557,288,561.39s-8.36-15.53-8.36-15.53-16.9,9.39-26.55,8.82-5.76-21-5.76-21S132.18,538,42.82,500.1c0,0-7.79,31.26-7.68,43,0,0-36.41-3.44-35.11-20s24.59,4.58,24.59,4.58-1.86-31.83,2.19-40,23.91,2.49,23.91,2.49Z"/><path class="cls-1" d="M230.31,203.11S101.26,162,62.08,329.85c12.94,5.21,108,41.62,248.17,46.32l1.67.19C320.33,308,308.39,233.66,230.31,203.11Z"/><path class="cls-3" d="M294.55,237.56s-5.38-83.8-86-69.89c-70.53,12.18-127.3,20-151.8-29,0,0-5,136.46,200.23,124.8,0,0-.76,24.29,2.88,38.16,0,0,16.61-8.31,18.06,3.86s-15.18,8.2-15.18,8.2,3.13,43.07,49.25,61.79C312,375.46,359.34,261.88,294.55,237.56Z"/><path class="cls-4" d="M62.08,329.85c12.41,5,100.39,38.7,231.26,45.58L303.26,343l22.32,8.71-17.14,47c-11.75,63.2-37.29,116.13-37.29,116.13C140.58,517.12,52.42,490,52.42,490,44,404.24,62.08,329.85,62.08,329.85Z"/><path class="cls-3" d="M148.32,373.7l1.46,25.1-14.61,4.11,7.15,52.93-24.49,20.82L100.2,458l17.66-57.17s-7.76-6-8.26-7.16,12-23.76,12-23.76Z"/><path class="cls-3" d="M115.35,314.78s-8.8,21.61,16.65,28.67C170.82,354.23,175.24,328,175.24,328S143.82,313.32,115.35,314.78Z"/><path class="cls-3" d="M116.87,295.08c-1.49,6-4.63,10.44-7,9.91s-3.13-5.81-1.64-11.81,4.64-10.44,7-9.92S118.36,289.08,116.87,295.08Z"/><path class="cls-3" d="M192.64,311.92c-1.49,6-4.64,10.44-7,9.91S182.48,316,184,310s4.63-10.44,7-9.91S194.13,305.92,192.64,311.92Z"/><path class="cls-1" d="M385.74,142.63c.5-3.82-7.1-2.64-7.1-2.64-10.41,1.45-19.27,7.44-19.27,7.44s-6.17-6.93-10.38-2.69,5.49,9.58,5.49,9.58c-2.65,37-21.14,111.63-51.22,188.71l22.32,8.71c31.43-82.93,45.28-182.09,46.8-191,0,0,16,.82,15.71-3.81-.14-2.29-6.52-1.33-7.5-1.17l-.13,0,.13,0c.92-.16,6.87-1.28,6.76-3.91-.1-2.39-5.11-1.54-6.71-1.2l-.49.11.49-.11c1.53-.36,6.23-1.64,5.87-3.68-.4-2.27-6.26-1.84-7.05-1.77h0C380.19,145.16,385.49,144.59,385.74,142.63Z"/><path class="cls-5" d="M351.32,93.27C303.76,71.5,308.49-13.29,227.52,1.78c-62.57,11.65-69.9,79-40,110.29,28.05,29.29,91.84,8.32,137,29.82Z"/><path class="cls-3" d="M361.14,156.71l5.19-8.18,13.43-3.5,6.41-12.87-5.08-12.12,5.13-10.29c-.07-11-10-5.53-10-5.53-1-10.37-10.54-4.65-10.54-4.65-4.17-12.83-14.32-6.31-14.32-6.31l-5.11,9.29c-2.26-1.63-4.62-3.06-6.19-4.25-7.54-5.7-15.12-11.39-22.62-17.12-14.88-11.37-30.88-23.55-48.6-30.85-3.79-1.56-22.68-8.35-23.69,0-.65,5.46,4.73,9.71,8.45,13.31a62.67,62.67,0,0,0,5.2,4.49l-1.12-.25c-4.33-1-15.6-4-19.33,0-3.07,3.29-.33,7.33,4.3,11.09a47.37,47.37,0,0,0-11.55-1.54c-2.76.08-7.42.82-7.19,4.38.35,5.25,6.17,8.24,10.43,10.78,8.09,4.8,17.42,7.72,26.21,11.21s17.77,7.15,26.7,10.6c14.41,5.58,29.18,10.51,43.63,16.06l-6.26,11.4c.44,11,13.81,6.88,13.81,6.88-1.57,8.73,9.87,4.75,9.87,4.75C350.17,166.18,361.14,156.71,361.14,156.71Zm-28.31-29.83c-9.8-3.54-19.75-6.71-29.39-10.63q-20.42-8.32-41-16.27c-6.58-2.53-13.51-4.86-19.87-7.85a81.19,81.19,0,0,1-9.79-5.8c-3.52-2.29-3.79-5,.93-4.46,3.37.4,6.7,1.07,10,1.79A59.17,59.17,0,0,1,254.59,87a11.41,11.41,0,0,0,1.73.54c2.6,1.32,4.78,2.33,6,2.87,1.91.85,4.37-1.47,2.83-3.14-2.12-2.28-5.4-3.8-8.9-4.92-1.46-.87-2.9-1.77-4.26-2.69-1.65-1.11-13.74-9.24-6.3-9.11,6.11.11,15.91,1.43,22.84,4.64,2.12,1.45,4.23,2.91,6.29,4.44s5.07-.93,3.33-2.82c-.12-.14-.26-.27-.39-.41h0l0,0a20.57,20.57,0,0,0-5.55-3.86c-3.57-2.38-7.17-4.7-10.48-7.38a78.31,78.31,0,0,1-7.93-7.45c-1.56-1.66-6.52-7.51-.53-6.89,11.06,1.14,20.24,6.63,29.55,12,13.46,7.7,25.53,17.07,37.91,26.16,5.56,4.1,10.84,8.52,16.35,12.69,2.16,1.63,4.76,3.24,6.91,5.07Z"/></svg>