<svg xmlns="http://www.w3.org/2000/svg" viewBox="0 0 400.63 881.48"><defs><style>.cls-1{isolation:isolate;}.cls-2{fill:#fddcbe;}.cls-3{fill:#3c2415;}.cls-4{fill:#e5e5e5;}.cls-5,.cls-7{mix-blend-mode:multiply;}.cls-6,.cls-7{fill:#e6e6e6;}.cls-8{fill:none;}.cls-9{fill:#eb7d86;}.cls-10{fill:#c1c1c1;}</style></defs><title>not-working</title><g class="cls-1"><g id="Layer_1" data-name="Layer 1"><path class="cls-2" d="M288.87,642.9s-29-254.31-176.46-143.55c0,0-47,39.43-20.5,164.46C226.59,679.54,288.87,642.9,288.87,642.9Z"/><path class="cls-3" d="M119.84,593.34l-4.4-42.88c78.92-12,140.06-44.88,140.06-44.88-23.82-68-88-65.68-122.53-55.12-43.88,12.49-59,42.91-62,53.76a20.3,20.3,0,0,1-5-9.27c-5.33,8.45-1.2,14.57-1.2,14.57-8.7,1.25-10.65,9.89-10.65,9.89a16.06,16.06,0,0,1,7.81-1.25c-43.11,26.34,30,145.8,30,145.8,17.63-14,26.9-58.58,26.9-58.58s-18,9.77-17.37-6.67S119.84,593.34,119.84,593.34Z"/><path class="cls-2" d="M56.58,543.05h0Z"/><path class="cls-2" d="M1.89,613.12C-8.23,566.08,25.67,539,25.67,539s30.06-24.51,42.42-7.15c0,0,2.83,3.53-1.11,3.62s-9.31-5.53-14.52-1.95c0,0,5.3-2,5.79,2.36.23,2.09-4,2.48-5.05,2.55h0c1,0,4.86,0,5.2,2.39.5,3.53-2.64,3.79-3.66,3.78h0c.94.07,3.61.55,2.84,3.92-.82,3.59-6.43,1.5-6.43,1.5s-12.46.58-17.85,8.16C-8.7,620.56,60.49,660.31,91.92,664l5.38,24.79C57.86,682.89,12,660.16,1.89,613.12Z"/><path class="cls-2" d="M58.11,549.22h0Z"/><path class="cls-3" d="M118.12,784.66l6.54,43.42-6.83,47.06s70.1,19,52.43-8.7c-16.32-25.54-41.78-4.32-41.78-4.32l12.73-36.44,1.66-27.55s72.51,4.37,133.67-13.34l.06,35.31L265.1,867.66s66.41,21.78,48.45-8.39c-10-16.73-34.43-6.23-34.43-6.23l13.72-33,4-54.13Z"/><path class="cls-4" d="M288.87,642.9l7.92,123s-73.15,21.59-178.67,18.77L91.92,664S213.91,674.66,288.87,642.9Z"/><g class="cls-5"><polygon class="cls-6" points="246.49 665.32 250.68 671.87 246.2 680.3 256.15 751.4 237.87 768.69 220.03 752.95 236.2 681.93 229.54 673.92 232.25 668.09 246.49 665.32"/></g><polygon class="cls-3" points="246.49 665.32 250.68 671.87 246.2 680.3 260.31 749.84 242.03 767.13 224.2 751.39 236.2 681.93 229.54 673.92 232.25 668.09 246.49 665.32"/><path class="cls-7" d="M279.54,773.35c1,1.13,2.47,1,3.8.47-.69,1.19-1.06,2.55-.11,3.61a3,3,0,0,0,3.42.6,2.74,2.74,0,0,0,.08,3.26c1,1.13,2.47,1,3.8.46-.7,1.19-1.06,2.56-.11,3.61,1.87,2.06,4.32.52,6.36-1V765.89h0l-.74-11.46c-4.51,4.42-8.93,8.28-12.75,11.34C282.46,766.45,277.41,771,279.54,773.35Z"/><path class="cls-2" d="M288.87,642.9l1.5,23.3c71.72,20.45,19.74,76.27-5.76,96.7-.85.68-5.89,5.23-3.76,7.58,1,1.13,2.47,1,3.8.47-.69,1.19-1.06,2.55-.11,3.61a3,3,0,0,0,3.42.6,2.74,2.74,0,0,0,.08,3.26c1,1.13,2.47,1,3.8.46-.7,1.19-1.06,2.56-.11,3.61,2,2.2,4.66.3,6.76-1.34C356.79,735.65,381.51,665.32,288.87,642.9Z"/><path class="cls-4" d="M288.87,642.9l1.5,23.3a83.29,83.29,0,0,1,19,7.74l9.66-20.11A130.62,130.62,0,0,0,288.87,642.9Z"/><path class="cls-6" d="M290.37,666.21q2.81.8,5.37,1.68l-6.87-25Z"/><path class="cls-8" d="M53.2,538.45h0Z"/><path class="cls-8" d="M54.74,544.62h0Z"/><path class="cls-4" d="M91.92,664c-7.14-.83-16.23-3.53-25.52-7.92l-1,24.36a151.67,151.67,0,0,0,31.9,8.35Z"/><path class="cls-9" d="M192.75,633.91s35.83-3.86,56.65-13.9c0,0-2-31.68-35.32-24.52C181.13,602.58,192.75,633.91,192.75,633.91Z"/><path class="cls-3" d="M238,564.33c1.87,5.69,5.58,9.59,8.28,8.71s3.38-6.21,1.51-11.9-5.58-9.59-8.28-8.71S236.1,558.64,238,564.33Z"/><path class="cls-3" d="M162.81,591.93c1.87,5.69,5.57,9.59,8.28,8.71s3.37-6.21,1.5-11.9-5.57-9.59-8.28-8.71S160.93,586.23,162.81,591.93Z"/><polygon class="cls-3" points="163.41 564.45 147.28 590.88 150.75 593.41 168.19 566.99 163.41 564.45"/><polygon class="cls-3" points="233.1 538.3 259.85 553.9 257.65 557.65 231.68 542.48 233.1 538.3"/><circle class="cls-10" cx="130.56" cy="371.7" r="10.62"/><circle class="cls-10" cx="93.78" cy="310.72" r="18.78"/><circle class="cls-10" cx="109.98" cy="231.69" r="26.28"/><path class="cls-10" d="M39.53,113a44,44,0,0,0,61.62,40.32,36.17,36.17,0,0,0,58.53-8.12,44,44,0,0,0,58.38,1.38,44,44,0,0,0,61.27,4.3,36.09,36.09,0,0,0,44.6.26,44,44,0,0,0,71.51-46.91,44.06,44.06,0,0,0,.35-33.33A44,44,0,0,0,329.9,16a44,44,0,0,0-39.36,3.7,36.18,36.18,0,0,0-48.45,1.81,43.9,43.9,0,0,0-28-4.42,44,44,0,0,0-69.35-.23,35.71,35.71,0,0,0-24.33,2A44,44,0,0,0,56.32,78.46,43.91,43.91,0,0,0,39.53,113Zm238.95-30c-.35-.28-.7-.56-1.05-.83l.39-.1C278,82.44,278.26,82.75,278.48,83.05Z"/></g></g></svg>