<svg xmlns="http://www.w3.org/2000/svg" viewBox="0 0 573.93 808.77"><defs><style>.cls-1{fill:#141414;}.cls-2{fill:#1a1a1a;}.cls-3{fill:#fddcbe;}.cls-4{fill:#f5f5f5;}.cls-5{fill:#484848;}.cls-6{fill:#eb7d86;}.cls-7{fill:#c1c1c1;}</style></defs><title>its-working</title><g id="Layer_1" data-name="Layer 1"><path class="cls-1" d="M320.75,691.63l-1.08,49.45,9.8,46s-19.89-14.8-29.44,2.22c-13.45,24,41.72,11.22,41.72,11.22l-7.08-59.41,4.75-29.54S397,729.07,474.55,729.29l1.23,24.6,9.5,39.81s-22.56-20.34-30.33,0c-10.39,27.21,41.43,9.27,41.43,9.27l-4.57-49.08,4.67-32.57S432.54,694.24,320.75,691.63Z"/><path class="cls-2" d="M470.16,559.07,396.8,631.17l-49.13-89-17.76-2.27-9.16,151.72s15.72,7.77,50.77,15.48c14.63,3.48,37.25,6.89,37.25,6.89,23.13,3,54.61,6,87.71,7.31L532.67,567.6Z"/><path class="cls-3" d="M329.91,539.91S332.14,300,494.41,390.81c0,0,88.25,6.28,38.25,176.79Z"/><path class="cls-2" d="M355.12,319.56S258,424.92,485.43,433l4.52,46.72s21.36-16.25,24.6,4-20.43,10.89-20.43,10.89,15.51,57.13,38.55,73c0,0,82.8-179.79,8.07-183.49,0,0,7.26-47.27-62.2-62.78C415.29,307.21,370.28,391.35,355.12,319.56Z"/><polygon class="cls-4" points="347.67 542.17 396.8 631.17 470.16 559.07 347.67 542.17"/><polygon class="cls-5" points="347.67 542.17 342.19 576.68 361.19 583.29 354.91 609.27 396.8 631.17 347.67 542.17"/><polygon class="cls-5" points="396.8 631.17 442.23 616.18 443.3 596.83 464.87 592.14 470.16 559.07 396.8 631.17"/><polygon class="cls-1" points="387.97 564.9 395.73 556.12 412.44 557.78 417 570.23 409.25 577.18 413.37 614.96 396.8 631.17 383.74 607.53 394.44 575.56 387.97 564.9"/><circle class="cls-5" cx="394.72" cy="643.86" r="5.66" transform="translate(-344.55 798.26) rotate(-70.29)"/><path class="cls-5" d="M397.51,671.54a5.66,5.66,0,1,1-3.42-7.24A5.66,5.66,0,0,1,397.51,671.54Z"/><path class="cls-6" d="M435.68,509.32s-34.18-8.42-61.7-7.88c0,0-4.32,30.9,26.9,34.88S435.68,509.32,435.68,509.32Z"/><path class="cls-3" d="M228.58,440.78l25.71,3.09,3.69-19c.28-1.34,7.76-36.22,1-37.09-5.21-.66-6.39,26.42-7.25,28-.28-1.71-1-3.33-2.78-3.59s-3.11,2.1-4,3.47a4.08,4.08,0,0,0-3.27-3.09c-1.9-.28-3.61,1.89-4,4-.28-1.71-1.21-3.26-3-3.49-4.28-.55-4.35,3.31-4.73,5.18h0Z"/><polygon class="cls-4" points="255.61 444.04 256.56 438.02 227.83 434.77 227.61 440.2 255.61 444.04"/><path class="cls-2" d="M329,572.47s-133.25,63.69-104.22-133l32.62,3.34s-32.9,155,73.51,99Z"/><circle class="cls-5" cx="228.31" cy="465.71" r="3" transform="translate(-281.71 560) rotate(-74.36)"/><circle class="cls-5" cx="229.36" cy="455.26" r="3" transform="translate(-270.82 553.67) rotate(-74.39)"/><path class="cls-5" d="M227.44,444.29a3,3,0,1,1,2.08,3.7A3,3,0,0,1,227.44,444.29Z"/><path class="cls-3" d="M487.44,718.2,482,696.05l-18.35,2.05c-1.26.21-9,2-8.17,5.63.41,1.74,2,2.42,3.63,2.64-1.39.83-2.54,2-2.17,3.64a3.55,3.55,0,0,0,3.17,2.56c-1.2.81-2.12,1.92-1.77,3.38.41,1.74,2,2.42,3.63,2.64-1.39.83-2.54,2-2.16,3.64.79,3.39,5.95,2.78,7.7,2.47h0Z"/><polygon class="cls-4" points="481.34 694.84 475.08 695.32 481.37 721.43 487.27 719.24 481.34 694.84"/><path class="cls-2" d="M530.15,569.63s123.38,118.74-44.08,153.15l-8.23-29.44s114.61-14.22,44.46-99.16Z"/><circle class="cls-5" cx="509.16" cy="709.93" r="2.8" transform="translate(-69.46 55.37) rotate(-5.83)"/><circle class="cls-5" cx="499.73" cy="712.58" r="2.8" transform="translate(-70.17 54.77) rotate(-5.86)"/><path class="cls-5" d="M490.87,718c-2.29-.29-2.91-1-3.07-2.5a2.8,2.8,0,0,1,5.57-.57C493.52,716.46,492.4,718.19,490.87,718Z"/><path class="cls-2" d="M443.12,492.22a18.72,18.72,0,0,0,13.3-2.94c8.61-5.85,10.7-17.77,10.78-18.28l-3.93-.66c0,.11-1.91,10.78-9.11,15.66-3.43,2.32-7.61,3-12.41,2-15.52-3.33-12.68-22.35-12.55-23.16l-3.93-.62c-1.29,8.13.32,24.38,15.65,27.67Q442,492.08,443.12,492.22Z"/><path class="cls-2" d="M374,483.42h0a17.41,17.41,0,0,0,13.64-3.55c8-6.48,9.21-19,9.25-19.57l-4-.35c0,.11-1.09,11.43-7.8,16.83a13.58,13.58,0,0,1-10.62,2.69h0c-4.93-.63-8.68-2.64-11.16-6-5.05-6.82-3.36-17.11-3.34-17.21l-3.92-.68c-.09.49-2,12,4,20.24C363.29,480.1,368,482.65,374,483.42Z"/><circle class="cls-7" cx="316.93" cy="458.26" r="10.62"/><circle class="cls-7" cx="306.86" cy="400.56" r="18.78"/><circle class="cls-7" cx="290.65" cy="321.53" r="26.28"/><path class="cls-7" d="M344.31,121.23c5.66-11.44,9-25.73,9-41.24,0-37.55-19.7-68-44-68-11.16,0-21.33,6.43-29.09,17a25.87,25.87,0,0,0-14.91-5,24.44,24.44,0,0,0-9.42,2c-8.06-15.81-20.55-26-34.58-26s-26.71,10.32-34.76,26.34a29.13,29.13,0,0,0-7.51-1c-7.41,0-14.38,2.84-20.51,7.84-6.52-9.79-15.41-15.83-25.22-15.83-8.85,0-16.94,4.91-23.23,13C103.32,23.81,95.32,20,86.74,20a30.75,30.75,0,0,0-16,4.66c-7.41-8.77-16.67-14-26.73-14-24.3,0-44,30.44-44,68a98.75,98.75,0,0,0,4.82,30.94,102.93,102.93,0,0,0,.35,51.5A101.74,101.74,0,0,0,2.62,184c0,37.55,19.7,68,44,68,11.63,0,22.21-7,30.07-18.38,6.12,7.32,13.78,11.72,22.12,11.72,8.5,0,16.29-4.55,22.47-12.12,7.67,10,17.59,16.12,28.43,16.12,13.06,0,24.78-8.8,32.84-22.76,7.67,10,17.58,16.09,28.41,16.09,11.58,0,22.11-6.92,30-18.23,6,17.95,18.16,30.23,32.15,30.23,10.41,0,19.77-6.82,26.38-17.69a31.25,31.25,0,0,0,17.62,5.69c24.3,0,44-30.44,44-68C361.1,153,354.53,133.68,344.31,121.23Zm-221.5,5.67.39.16c-.36.42-.7.84-1.05,1.28C122.38,127.86,122.59,127.38,122.81,126.9Z"/></g></svg>