<svg xmlns="http://www.w3.org/2000/svg" xmlns:xlink="http://www.w3.org/1999/xlink" viewBox="0 0 748.68 349.57"><defs><style>.cls-1{fill:none;}.cls-2{isolation:isolate;}.cls-3{fill:#f5f5f5;}.cls-4{fill:#fddcbe;}.cls-5,.cls-8{fill:#f2f2f2;}.cls-10,.cls-19,.cls-5{mix-blend-mode:multiply;}.cls-6{fill:#574939;}.cls-7{fill:#eaeaea;}.cls-9{fill:#eb7d86;}.cls-11,.cls-19{fill:#e6e6e6;}.cls-12{fill:#fddbbb;}.cls-13{fill:#fdd5ac;}.cls-14{fill:#4d4d4d;}.cls-15{fill:#878787;}.cls-16{fill:#ccc;}.cls-17{fill:#b3b3b3;}.cls-18{fill:#bcd6c7;}.cls-20{clip-path:url(#clip-path);}.cls-21{fill:#d2e3d9;}</style><clipPath id="clip-path"><path class="cls-1" d="M510.15,36.85c-20.24-19.33-38.73-28-46.4-27.36-.27,7.69,9.22,25.76,29.47,45.09s38.74,28,46.4,27.36C539.89,74.26,530.39,56.18,510.15,36.85Z"/></clipPath></defs><title>multi-machine</title><g class="cls-2"><g id="Layer_1" data-name="Layer 1"><path class="cls-3" d="M315.25,248.1l-9-2s1.19-3.58,3-10.44l8.67,2.12C317.05,241.1,316.18,244.52,315.25,248.1Z"/><path class="cls-4" d="M309.2,235.7c3-11.51,8.53-44.08,11.73-72.72,0,0,.27-2.1,1.57-2.1s.92,2.84.92,2.84.32-2.31,1.57-2.09c1.52.27.94,2.72.94,2.72s.43-2.34,1.66-2.13,1,2.7,1,2.7.31-2,1.8-2,.85,3.11.85,3.11c-.85,4-3.82,33.54-13.37,71.76Z"/><path class="cls-5" d="M309.2,235.7c1-3.85,2.27-10.06,3.65-17.68,1.32,3.63,3.75,10.59,5.6,17.45-.19.78-.38,1.56-.58,2.35-.82,3.28-1.69,6.69-2.63,10.27l-9-2S307.44,242.56,309.2,235.7Z"/><path class="cls-4" d="M314.6,238.91s-5-96-75.71-59c0,0-11.54,24.31-7.22,69.57C288.65,254.91,314.6,238.91,314.6,238.91Z"/><path class="cls-6" d="M295.6,139.33s40.54,53.58-47.87,58.27l.51,17.27s-8.39-6.46-9.5,1.8,9.37,4.2,9.37,4.2-6.92,21.95-16.12,28.6c0,0-35.19-70.83-1.91-73.47,0,0-.27-12.79,17.21-21.14C272.23,143,289,170.47,295.6,139.33Z"/><path class="cls-6" d="M243.76,298.93l3,19.7L244,346.89s29.59,8,22.13-3.67c-6.89-10.78-17.63-1.82-17.63-1.82l5.3-23.79.57-13.22s30,1.23,55.65-6.78l1.76,16.26-5,29.86s27.39,9.19,19.8-3.54c-4.2-7.06-14.53-2.63-14.53-2.63l6.56-23.73.41-24.39Z"/><path class="cls-7" d="M314.6,238.91,319,289.45s-30.68,9.75-75.23,9.48l-12.09-49.48S283.25,253,314.6,238.91Z"/><polygon class="cls-8" points="296.92 248.74 298.74 251.46 296.93 255.06 301.74 284.98 294.18 292.43 286.52 285.94 292.72 255.84 289.84 252.51 290.93 250.03 296.92 248.74"/><polygon class="cls-6" points="296.92 248.74 298.74 251.46 296.93 255.06 303.49 284.28 295.93 291.74 288.26 285.25 292.72 255.84 289.84 252.51 290.93 250.03 296.92 248.74"/><path class="cls-9" d="M297.64,222.14s-15.39,1.62-24.33,5.91c0,0,.87,12.6,15.17,9.56S297.64,222.14,297.64,222.14Z"/><path class="cls-7" d="M234.31,260.62l7.19-5.76s-2.66-2.68-7.28-8l-6.83,5.76C229.58,255.16,231.87,257.83,234.31,260.62Z"/><path class="cls-4" d="M234.22,246.83c-7.76-9-26.46-34-42-58.21,0,0-1.15-1.88-2.64-.81-1.13.81.6,2.94.6,2.94s-1.66-1.66-2.62-.8.53,2.72.53,2.72-1.55-1.38-2.28-.62.32,2.18.32,2.18-.93-1-1.78-.31,0,2,0,2c2.55,3.22,17.54,26.63,43.09,56.62Z"/><ellipse class="cls-6" cx="263.85" cy="211.71" rx="2.87" ry="5.58" transform="translate(-38.53 60.03) rotate(-12.1)"/><ellipse class="cls-6" cx="298.94" cy="204.19" rx="2.87" ry="5.58" transform="translate(-36.17 67.22) rotate(-12.1)"/><path class="cls-4" d="M485.58,238.9s-7-94.45-73.52-59.8c0,0-11.89,23.75-8.54,68.52C459.63,254.16,485.58,238.9,485.58,238.9Z"/><path class="cls-6" d="M483.85,191c-14.91-5.57-55.78-.84-71.53,9.23L415.43,218s-9.3-5.47-8.71,2.78,8.95,3.26,8.95,3.26-2.67,17.44-12.14,23.54c.4.63-34.45-56.28-8.64-58.41,0,0-1.37-18.82,18.4-28.42C441.58,147,472.5,158,483.85,191Z"/><path class="cls-4" d="M388.8,197.3h0Z"/><path class="cls-4" d="M389.44,199.87h0Z"/><path class="cls-6" d="M414.44,298l2.72,26.23-1.71,21.87s29.2,7.9,21.84-3.62c-6.8-10.64-17.41-1.8-17.41-1.8l4.17-17.45.69-19.62S455,305.39,480.44,298l.86,22-4.49,22.91S504.48,352,497,339.45c-4.15-7-14.34-2.6-14.34-2.6L488.06,320l.81-29.86Z"/><path class="cls-7" d="M485.58,238.9l3.3,51.24s-30.48,9-74.43,7.82l-10.92-50.34S454.35,252.13,485.58,238.9Z"/><polygon class="cls-6" points="467.92 248.24 469.67 250.96 467.8 254.48 473.68 283.45 466.06 290.65 458.63 284.1 463.63 255.16 460.86 251.82 461.99 249.39 467.92 248.24"/><g class="cls-10"><path class="cls-11" d="M481.69,293.24a1.34,1.34,0,0,0,1.58.19,1.23,1.23,0,0,0,0,1.5,1.27,1.27,0,0,0,1.43.25,1.14,1.14,0,0,0,0,1.36,1.34,1.34,0,0,0,1.58.19,1.23,1.23,0,0,0,0,1.5c.78.86,1.8.22,2.65-.43v-7.68h0l-.31-4.78c-1.88,1.84-3.72,3.45-5.31,4.72C482.91,290.37,480.8,292.26,481.69,293.24Z"/></g><path class="cls-4" d="M485.58,238.9l.63,9.71c29.88,8.52,8.22,31.77-2.4,40.29-.35.28-2.45,2.18-1.57,3.16a1.34,1.34,0,0,0,1.58.19,1.23,1.23,0,0,0,0,1.5,1.27,1.27,0,0,0,1.43.25,1.14,1.14,0,0,0,0,1.36,1.34,1.34,0,0,0,1.58.19,1.23,1.23,0,0,0,0,1.5c.83.92,1.94.12,2.82-.56C513.88,277.54,524.17,248.24,485.58,238.9Z"/><path class="cls-7" d="M485.58,238.9l.63,9.71a34.7,34.7,0,0,1,7.93,3.23l4-8.38A54.41,54.41,0,0,0,485.58,238.9Z"/><path class="cls-11" d="M486.2,248.61q1.17.33,2.24.7l-2.86-10.41Z"/><path class="cls-1" d="M387.4,195.38h0Z"/><path class="cls-1" d="M388,198h0Z"/><path class="cls-9" d="M464.45,223.86s-15.26.63-24.34,4.29c0,0,.07,12.46,14.34,10.37S464.45,223.86,464.45,223.86Z"/><path class="cls-4" d="M403.6,247.75l2,9.51c-26.46,16.29.69,32.81,13.22,38.13.42.18,3,1.43,2.36,2.62a1.34,1.34,0,0,1-1.47.62,1.23,1.23,0,0,1,.45,1.44,1.27,1.27,0,0,1-1.3.63,1.14,1.14,0,0,1,.34,1.32,1.34,1.34,0,0,1-1.47.61,1.23,1.23,0,0,1,.45,1.43c-.55,1.11-1.83.65-2.86.22C386.82,292.61,369,267.19,403.6,247.75Z"/><path class="cls-7" d="M403.6,247.75l2,9.51a34.69,34.69,0,0,0-6.76,5.25l-6.14-7A54.42,54.42,0,0,1,403.6,247.75Z"/><ellipse class="cls-6" cx="467.34" cy="205.54" rx="3.05" ry="5.92" transform="translate(-33.7 107.48) rotate(-12.67)"/><ellipse class="cls-6" cx="430.23" cy="213.88" rx="3.05" ry="5.92" transform="translate(-36.43 99.55) rotate(-12.67)"/><path class="cls-12" d="M125.88,240.46l6.54-3.44c9.24,32.44,38.05,13.74,47.32,3.23.31-.35,2.36-2.42,3.32-1.46a1.38,1.38,0,0,1,.12,1.64,1.27,1.27,0,0,1,1.55,0,1.3,1.3,0,0,1,.19,1.48,1.18,1.18,0,0,1,1.39.1,1.38,1.38,0,0,1,.12,1.64,1.26,1.26,0,0,1,1.55,0c.9.9.07,2-.71,2.87C166.69,268.38,135.89,276.94,125.88,240.46Z"/><path class="cls-7" d="M132.41,237l-6.54,3.44a46.85,46.85,0,0,0,6.93,15.27l5.68-6.47A31.83,31.83,0,0,1,132.41,237Z"/><g class="cls-10"><path class="cls-11" d="M132.41,237l-6.54,3.44c2.5,9.1,6.29,15.39,10.89,19.38l-3.67-20.65C132.86,238.49,132.63,237.77,132.41,237Z"/></g><path class="cls-12" d="M132.35,235.38S126.09,136,57.31,173c0,0-20.34,16.75-9.54,70.51C105.47,250.86,132.35,235.38,132.35,235.38Z"/><path class="cls-6" d="M60.86,211.53l0-16c37.37-2.82,64.39-13.09,64.39-13.09C116.6,149.08,86.06,149,71,152.56c-19.12,4.18-26.35,17.43-28,22a8.71,8.71,0,0,1-1.87-4.1c-2.51,3.48-.9,6.2-.9,6.2a5.72,5.72,0,0,0-4.82,4,6.89,6.89,0,0,1,3.38-.33c-19.16,10.13,9,63.22,9,63.22,7.92-5.51,13-26.24,13-26.24S52.15,221,52.86,214,60.86,211.53,60.86,211.53Z"/><path class="cls-12" d="M33.16,191.48h0Z"/><path class="cls-12" d="M33.8,194.13h0Z"/><path class="cls-6" d="M58.45,295.4l1.44,23.31-1.77,26s25.13,7.94,18.32-2.72c-6.29-9.84-14.22-1.67-14.22-1.67L67,317.67l2-16.38s31.08,2.21,57.4-5.11L125,314.24l-5.27,30s25.6,8.4,18.67-3.23c-5.36-8.35-13.9-1.77-13.9-1.77L132,314.21l3.18-26Z"/><path class="cls-7" d="M132.35,235.38l2.83,52.79s-31.48,8.92-76.73,7.23L47.77,243.5S100,248.65,132.35,235.38Z"/><polygon class="cls-6" points="114.06 244.8 115.83 247.62 113.87 251.22 119.61 281.12 111.69 288.45 104.11 281.62 109.58 251.88 106.75 248.41 107.94 245.92 114.06 244.8"/><path class="cls-1" d="M31.74,189.49h0Z"/><path class="cls-1" d="M32.37,192.14h0Z"/><ellipse class="cls-6" cx="115.19" cy="202.61" rx="2.84" ry="5.48" transform="translate(-39.17 27.99) rotate(-11.85)"/><ellipse class="cls-6" cx="81.08" cy="209.43" rx="2.84" ry="5.48" transform="translate(-41.3 21.13) rotate(-11.86)"/><path class="cls-9" d="M114.76,218s-16.07,1.67-25.41,6.13c0,0,2.06,14.4,16.67,10C120.19,229.88,114.76,218,114.76,218Z"/><path class="cls-12" d="M49.71,252.92l-1.94-9.42c-31.64,2-39.83-39.69-37.59-53.53.07-.46.37-3.36-1-3.49a1.38,1.38,0,0,0-1.34.94c-.12-.58-.4-1.12-1-1.18a1.3,1.3,0,0,0-1.26.79c-.14-.51-.41-1-1-1a1.38,1.38,0,0,0-1.34.94c-.12-.58-.4-1.12-1-1.18C1,185.66.67,187,.52,188.16-3.28,217.9,13.8,255.36,49.71,252.92Z"/><path class="cls-7" d="M49.71,252.92l-1.94-9.42a30.92,30.92,0,0,1-9.74-.87L36.78,252A44.51,44.51,0,0,0,49.71,252.92Z"/><polygon class="cls-13" points="673.59 119.28 678.58 180.54 608.67 182.59 552.93 126.24 598.29 94.66 632.3 120.6 673.59 119.28"/><polygon class="cls-7" points="646.53 117.67 652.49 184.34 669.17 183.61 661.89 116.21 646.53 117.67"/><polygon class="cls-14" points="659.15 113.02 665.75 188.22 748.68 184.54 748.68 107.65 659.15 113.02"/><circle class="cls-15" cx="679.98" cy="172.93" r="7.22" transform="translate(198.11 682.92) rotate(-60.89)"/><circle class="cls-15" cx="700.51" cy="171.74" r="7.22" transform="translate(209.72 700.26) rotate(-60.89)"/><rect class="cls-11" x="543.02" y="86.59" width="14.58" height="23.33" transform="translate(99.19 428.37) rotate(-46.32)"/><path class="cls-11" d="M507,40.12c20.89,20,39.88,44.81,39.88,44.81L536.84,95.47c-7.42,7.77-32.79-4.43-56.66-27.23S443,20.65,450.37,12.89L460.44,2.34S486.14,20.16,507,40.12Z"/><ellipse class="cls-16" cx="503.68" cy="43.63" rx="19.44" ry="59.79" transform="translate(124.26 377.75) rotate(-46.32)"/><path class="cls-17" d="M464.76,6.47a4.51,4.51,0,0,0-1,3c7.66-.63,26.16,8,46.4,27.36s29.74,37.41,29.47,45.09a4.51,4.51,0,0,0,3-1.15c4.26-4.46-4.7-25.43-28.46-48.11S469,2,464.76,6.47Z"/><path class="cls-18" d="M510.15,36.85c-20.24-19.33-38.73-28-46.4-27.36-.27,7.69,9.22,25.76,29.47,45.09s38.74,28,46.4,27.36C539.89,74.26,530.39,56.18,510.15,36.85Z"/><path class="cls-5" d="M559,122l59.13,53.16a3.52,3.52,0,0,0,5-.26L632.9,164a3.52,3.52,0,0,0-.26-5l-55.36-49.77Z"/><rect class="cls-14" x="579.54" y="88.25" width="21.63" height="96.48" rx="3.04" ry="3.04" transform="translate(83.92 469.17) rotate(-46.32)"/><polygon class="cls-16" points="536.84 95.47 546.91 84.92 543.61 101.93 536.84 95.47"/><path class="cls-5" d="M613.86,182.44a9.94,9.94,0,0,0-2.42-19.63h-.13A10.14,10.14,0,0,0,612,159h0a10.18,10.18,0,0,0-9.21-9.9,11.24,11.24,0,0,0,1.14-5.19h0a11.29,11.29,0,0,0-11-11,10.4,10.4,0,0,0,1-4.67h0A10.46,10.46,0,0,0,583.23,118l-19.12.44-11.17,7.78,55.74,56.36Z"/><rect class="cls-13" x="538.42" y="118.29" width="52.28" height="20.91" rx="9.45" ry="9.45" transform="translate(-2.81 13.03) rotate(-1.32)"/><rect class="cls-13" x="544.17" y="133.19" width="56.5" height="22.6" rx="10.21" ry="10.21" transform="translate(-3.17 13.21) rotate(-1.32)"/><rect class="cls-13" x="557.82" y="149.32" width="50.92" height="20.37" rx="9.2" ry="9.2" transform="translate(-3.52 13.46) rotate(-1.32)"/><rect class="cls-13" x="568.69" y="163.06" width="49.69" height="19.88" rx="8.98" ry="8.98" transform="translate(-3.82 13.7) rotate(-1.32)"/><path class="cls-19" d="M565.49,97.79a3.52,3.52,0,0,0-5,.11h0l-10-9.54A19.7,19.7,0,0,0,562,105.64l18.46,6.49Z"/><path class="cls-13" d="M598.29,94.66,594,117.48l-31.4-12.78a19.7,19.7,0,0,1-8.49-26.54h0Z"/><polygon class="cls-5" points="646.76 120.14 645.14 120.19 644.38 181.54 652.22 181.31 646.76 120.14"/><g class="cls-20"><rect class="cls-21" x="504.35" y="-28.31" width="4" height="136.98" transform="translate(307.16 507.43) rotate(-71.45)"/><rect class="cls-21" x="501.82" y="-18.66" width="7" height="136.98" transform="translate(297.31 513.04) rotate(-71.45)"/></g></g></g></svg>