<svg xmlns="http://www.w3.org/2000/svg" viewBox="0 0 883.57 730.04"><defs><style>.cls-1{isolation:isolate;}.cls-2{fill:#9dbfad;}.cls-3{fill:#fddbbb;}.cls-4{fill:#1c1c1c;}.cls-5{fill:#242424;}.cls-6{fill:#f5f5f5;}.cls-7{fill:#484848;}.cls-8{fill:#333;}.cls-9{fill:#eb7d86;}.cls-10{fill:#fddcbe;}.cls-11{mix-blend-mode:multiply;}.cls-12{fill:#d1d3d4;}.cls-13{fill:#404040;}.cls-14{fill:#606061;}.cls-15{fill:#fafafa;}.cls-16{fill:#d0e0d8;}.cls-17{fill:#81ba1d;}.cls-18{fill:#ea4c7f;}.cls-19{fill:#fcae26;}.cls-20{fill:#f16100;}.cls-21{fill:#524096;}.cls-22{fill:#5991a1;}.cls-23{fill:#fff;}</style></defs><title>network</title><g class="cls-1"><g id="Layer_1" data-name="Layer 1"><path class="cls-2" d="M303.91,302.36h10.5v-153a22,22,0,0,0-22-22h-51.2v10.5h51.2a11.49,11.49,0,0,1,11.48,11.48Z"/><path class="cls-2" d="M356.8,302.36h10.5V221.83a11.49,11.49,0,0,1,11.48-11.48h33.7a22,22,0,0,0,22-22V150.61H424v37.77a11.49,11.49,0,0,1-11.48,11.48h-33.7a22,22,0,0,0-22,22Z"/><rect class="cls-2" x="151.9" y="349.75" width="116.76" height="10.5"/><path class="cls-2" d="M169.42,517.16h10.5v-26a11.49,11.49,0,0,1,11.48-11.48h67.43a22,22,0,0,0,22-22V416.26H270.3v41.41a11.49,11.49,0,0,1-11.48,11.48H191.4a22,22,0,0,0-22,22Z"/><path class="cls-2" d="M403.17,582.94h10.5V523.17a22,22,0,0,0-22-22h-28a11.49,11.49,0,0,1-11.48-11.48v-116h-10.5v116a22,22,0,0,0,22,22h28a11.49,11.49,0,0,1,11.48,11.48Z"/><path class="cls-3" d="M815,405.74s23.55-196-100.13-212.07c-157.67-20.45-129,210.8-129,210.8Z"/><path class="cls-4" d="M592.64,578.53l3,70,11.79,57.3s-25.87-14.7-35.63,5.45c-13.75,28.38,53.79,9.1,53.79,9.1L614,645.53l4-44.79s57.8,17,146.16,6.71l1.55,43.48,14.36,66.47s-16.55-23.61-34.78-3.06c-24.47,27.58,51,10.43,51,10.43l-9.75-75.2,10.31-61.1S720.34,566.31,592.64,578.53Z"/><path class="cls-5" d="M744.89,399.59l-73.77,92.12L603,397l-20.54-.17,10.14,181.7s19,6.72,59.94,10.73c17.13,2,43.37,2.79,43.37,2.79,26.76.32,63-.57,100.92-3.59L821,402.14Z"/><polygon class="cls-6" points="603.04 397 671.12 491.71 744.89 399.59 603.04 397"/><polygon class="cls-7" points="603.04 397 601.49 437.05 624.04 442 620.41 472.45 671.12 491.71 603.04 397"/><polygon class="cls-7" points="671.12 491.71 720.84 468.46 719.42 446.26 743.36 437.99 744.89 399.59 671.12 491.71"/><polygon class="cls-4" points="652.05 417.41 659.69 406.36 678.96 405.98 685.84 419.54 677.96 428.5 687.78 470.99 671.12 491.71 653.02 466.56 660.87 428.67 652.05 417.41"/><path class="cls-7" d="M676.81,507.9a6.5,6.5,0,1,1-4.89-7.78A6.49,6.49,0,0,1,676.81,507.9Z"/><path class="cls-7" d="M677.41,537.6a6.49,6.49,0,1,1-4.88-7.78A6.5,6.5,0,0,1,677.41,537.6Z"/><path class="cls-8" d="M567,136.9S528.76,283.56,762.17,252l5,47.54s19.89-22.75,25-.15c5.9,26-19.2,18.6-19.2,18.6s22.28,56.68,45.53,79.16c1.3,1.25,63.81-240.28-26.33-211.56,0,0-4.66-48.66-70.81-57.25C628.91,116.34,625.39,202.82,567,136.9Z"/><path class="cls-8" d="M629.49,302.54c-.23,10.21-3.86,15.72-8.18,15.62s-7.69-5.77-7.46-16,3.86-15.72,8.18-15.62S629.72,292.33,629.49,302.54Z"/><path class="cls-8" d="M730.25,306.42c-.23,10.21-3.86,15.72-8.18,15.62s-7.69-5.77-7.46-16,3.86-15.72,8.18-15.62S730.49,296.21,730.25,306.42Z"/><path class="cls-9" d="M633.36,345.6a36.73,36.73,0,1,0,73.45,1.68Z"/><path class="cls-10" d="M398.86,459.1s-6.48-.62-6.37-3.21c.22-2.31,2.46-3.16,4.4-3.24a7.38,7.38,0,0,1,.83,0,7.38,7.38,0,0,0-.83,0c-2-.09-4.52-.75-4.53-3.61,0-3.79,4.77-4.53,6.47-4.68v0c-1.6-.05-5.88-.5-5.84-3.69s4.39-3.52,6.09-3.54c-1.84-.08-6.63-.62-6.43-4.47.15-2.88,6.67-2.11,6.67-2.11,12.55.9,30.71,12.26,41.38,16.73L429,472.46C414.08,464.8,408.66,460.16,398.86,459.1Z"/><polygon class="cls-6" points="437.71 444.5 430.13 440.99 417.34 469.77 424.67 472.88 437.71 444.5"/><path class="cls-5" d="M593.77,429.75c-44.33,71.24-75.15,91.44-171.92,43.72L435,441.69c32.65,18.23,96.77,61.43,147.54-44.86Z"/><path class="cls-7" d="M446.15,481.13a2.83,2.83,0,1,1,3.91-.85A2.83,2.83,0,0,1,446.15,481.13Z"/><path class="cls-7" d="M437,477.29a2.83,2.83,0,1,1,3.91-.85A2.83,2.83,0,0,1,437,477.29Z"/><circle class="cls-7" cx="429.66" cy="471.22" r="2.83" transform="translate(-198.92 578.66) rotate(-57.34)"/><g class="cls-11"><path class="cls-12" d="M392.49,455.89c.22-2.31,2.46-3.16,4.4-3.24-2-.09-4.52-.75-4.53-3.61,0-3.79,4.77-4.53,6.47-4.68v0c-1.6-.05-5.88-.5-5.84-3.69s4.39-3.52,6.09-3.54c-1.84-.08-6.63-.62-6.43-4.47.15-2.88,6.67-2.11,6.67-2.11,8.87.64,20.53,6.49,30.39,11.45l.43-1,4.29,2,.53-1.29c8.49,4.74,19.12,11.17,31.08,16.22l-49.78,7.67c-6.48-3.56-11-5.79-17.41-6.48C398.86,459.1,392.38,458.48,392.49,455.89Z"/></g><path class="cls-10" d="M843.94,593.2s-3.62,5.41-5.85,4.08c-1.93-1.29-1.61-3.67-.76-5.41a7.39,7.39,0,0,1,.4-.73,7.39,7.39,0,0,0-.4.73c-1,1.68-2.81,3.62-5.33,2.27-3.34-1.79-1.72-6.35-1-7.91l0,0c-.81,1.39-3.23,4.94-6,3.38s-1-5.54-.22-7c-.94,1.58-3.7,5.54-7,3.54-2.46-1.5,1.31-6.87,1.31-6.87a274.61,274.61,0,0,0,17.56-31.65l24.76,12.68A213.35,213.35,0,0,1,843.94,593.2Z"/><polygon class="cls-6" points="833.68 551.86 830.48 557.91 858.88 572.69 861.67 566.87 833.68 551.86"/><path class="cls-5" d="M821,402.14s107,63.32,41.16,167.56l-31.38-15.21s65.13-90.89-41.55-139Z"/><path class="cls-7" d="M869.46,543a2.83,2.83,0,1,1-.71-3.94A2.83,2.83,0,0,1,869.46,543Z"/><path class="cls-7" d="M865.28,552a2.83,2.83,0,1,1-.71-3.94A2.83,2.83,0,0,1,865.28,552Z"/><circle class="cls-7" cx="858.94" cy="559.14" r="2.83" transform="translate(-90.51 945.09) rotate(-55.18)"/><path class="cls-13" d="M243.53,407.26l201-8.19V278c0-4.35-3.77-8.28-8.41-8.77L251.95,250.09c-4.65-.49-8.41,3.45-8.41,8.8Z"/><path class="cls-14" d="M243.53,407.26l201-8.19q42,22.29,84.09,40.05l-201,19Q285.58,435,243.53,407.26Z"/><path class="cls-13" d="M442.33,407.84l10-.51q-4.37-2.25-8.74-4.55l-10,.45Q438,405.56,442.33,407.84Z"/><path class="cls-13" d="M428.7,408.53l10-.51q-4.37-2.29-8.74-4.63l-10,.45Q424.33,406.21,428.7,408.53Z"/><path class="cls-13" d="M415.07,409.22l10-.51q-4.37-2.33-8.74-4.7l-10,.45Q410.7,406.86,415.07,409.22Z"/><path class="cls-13" d="M401.44,409.91l10-.51q-4.37-2.37-8.74-4.78l-10,.45Q397.07,407.51,401.44,409.91Z"/><path class="cls-13" d="M387.81,410.59l10-.51q-4.37-2.4-8.74-4.86l-10,.45Q383.44,408.16,387.81,410.59Z"/><path class="cls-13" d="M374.18,411.28l10-.51q-4.37-2.44-8.74-4.93l-10,.45Q369.81,408.81,374.18,411.28Z"/><path class="cls-13" d="M360.55,412l10-.51q-4.37-2.48-8.74-5l-10,.45Q356.18,409.46,360.55,412Z"/><path class="cls-13" d="M346.92,412.66l10-.51q-4.37-2.52-8.74-5.09l-10,.45Q342.55,410.11,346.92,412.66Z"/><path class="cls-13" d="M333.29,413.34l10-.51q-4.37-2.56-8.74-5.16l-10,.45Q328.92,410.76,333.29,413.34Z"/><path class="cls-13" d="M319.66,414l10-.51q-4.37-2.59-8.74-5.24l-10,.45Q315.29,411.41,319.66,414Z"/><path class="cls-13" d="M306,414.72l10-.51q-4.37-2.63-8.74-5.31l-10,.45Q301.66,412.06,306,414.72Z"/><path class="cls-13" d="M292.4,415.41l10-.51q-4.37-2.67-8.74-5.39l-10,.45Q288,412.71,292.4,415.41Z"/><path class="cls-13" d="M278.77,416.09l10-.51q-4.37-2.71-8.74-5.47l-10,.45Q274.4,413.36,278.77,416.09Z"/><path class="cls-13" d="M265.52,416.76l10-.51q-4.37-2.75-8.74-5.54l-10,.45Q261.15,414,265.52,416.76Z"/><path class="cls-13" d="M454.2,413.95l10-.58q-4.37-2.19-8.74-4.42l-10,.53Q449.83,411.73,454.2,413.95Z"/><path class="cls-13" d="M440.57,414.74l10-.58q-4.37-2.22-8.74-4.5l-10,.53Q436.2,412.49,440.57,414.74Z"/><path class="cls-13" d="M426.94,415.53l10-.58q-4.37-2.26-8.74-4.57l-10,.53Q422.57,413.24,426.94,415.53Z"/><path class="cls-13" d="M413.31,416.32l10-.58q-4.37-2.3-8.74-4.65l-10,.53Q408.94,414,413.31,416.32Z"/><path class="cls-13" d="M399.68,417.11l10-.58q-4.37-2.34-8.74-4.73l-10,.53Q395.31,414.75,399.68,417.11Z"/><path class="cls-13" d="M386.05,417.9l10-.58q-4.37-2.38-8.74-4.8l-10,.53Q381.68,415.5,386.05,417.9Z"/><path class="cls-13" d="M372.42,418.7l10-.58q-4.37-2.41-8.74-4.88l-10,.53Q368.05,416.25,372.42,418.7Z"/><path class="cls-13" d="M358.79,419.49l10-.58q-4.37-2.45-8.74-5l-10,.53Q354.42,417,358.79,419.49Z"/><path class="cls-13" d="M345.16,420.28l10-.58q-4.37-2.49-8.74-5l-10,.53Q340.79,417.76,345.16,420.28Z"/><path class="cls-13" d="M331.53,421.07l10-.58q-4.37-2.53-8.74-5.11l-10,.53Q327.16,418.51,331.53,421.07Z"/><path class="cls-13" d="M317.9,421.86l10-.58q-4.37-2.57-8.74-5.18l-10,.53Q313.53,419.27,317.9,421.86Z"/><path class="cls-13" d="M304.27,422.65l10-.58q-4.37-2.61-8.74-5.26l-10,.53Q299.9,420,304.27,422.65Z"/><path class="cls-13" d="M290.65,423.44l10-.58q-4.37-2.64-8.74-5.34l-10,.53Q286.28,420.77,290.65,423.44Z"/><path class="cls-13" d="M277.39,424.21l10-.58q-4.37-2.68-8.74-5.41l-10,.53Q273,421.5,277.39,424.21Z"/><path class="cls-13" d="M466.07,419.87l10-.66q-4.37-2.12-8.74-4.29l-10,.6Q461.7,417.73,466.07,419.87Z"/><path class="cls-13" d="M452.44,420.77l10-.66q-4.37-2.16-8.74-4.36l-10,.6Q448.07,418.58,452.44,420.77Z"/><path class="cls-13" d="M438.81,421.66l10-.66q-4.37-2.2-8.74-4.44l-10,.6Q434.44,419.44,438.81,421.66Z"/><path class="cls-13" d="M425.18,422.56l10-.66q-4.37-2.23-8.74-4.52l-10,.6Q420.81,420.3,425.18,422.56Z"/><path class="cls-13" d="M411.55,423.45l10-.66q-4.37-2.27-8.74-4.59l-10,.6Q407.18,421.15,411.55,423.45Z"/><path class="cls-13" d="M397.92,424.35l10-.66q-4.37-2.31-8.74-4.67l-10,.6Q393.55,422,397.92,424.35Z"/><path class="cls-13" d="M384.29,425.24l10-.66q-4.37-2.35-8.74-4.75l-10,.6Q379.92,422.87,384.29,425.24Z"/><path class="cls-13" d="M370.67,426.14l10-.66q-4.37-2.39-8.74-4.82l-10,.6Q366.3,423.72,370.67,426.14Z"/><path class="cls-13" d="M357,427l10-.66q-4.37-2.42-8.74-4.9l-10,.6Q352.66,424.58,357,427Z"/><path class="cls-13" d="M343.41,427.93l10-.66q-4.37-2.46-8.74-5l-10,.6Q339,425.43,343.41,427.93Z"/><path class="cls-13" d="M329.78,428.82l10-.66q-4.37-2.5-8.74-5.05l-10,.6Q325.41,426.29,329.78,428.82Z"/><path class="cls-13" d="M316.15,429.72l10-.66q-4.37-2.54-8.74-5.13l-10,.6Q311.78,427.15,316.15,429.72Z"/><path class="cls-13" d="M302.52,430.61l10-.66q-4.37-2.58-8.74-5.2l-10,.6Q298.15,428,302.52,430.61Z"/><path class="cls-13" d="M289.26,431.48l10-.66q-4.37-2.61-8.74-5.28l-10,.6Q284.89,428.84,289.26,431.48Z"/><path class="cls-13" d="M477,425.15l10-.73q-4.37-2.06-8.74-4.17l-10,.67Q472.58,423.06,477,425.15Z"/><path class="cls-13" d="M463.32,426.13l10-.73q-4.37-2.1-8.74-4.24l-10,.67Q459,424,463.32,426.13Z"/><path class="cls-13" d="M327,436l132.7-9.64q-4.37-2.13-8.74-4.32L318.29,431Q322.66,433.53,327,436Z"/><path class="cls-13" d="M313.4,437l10-.73q-4.37-2.52-8.74-5.08l-10,.67Q309,434.48,313.4,437Z"/><path class="cls-13" d="M300.15,438l10-.73q-4.37-2.55-8.74-5.15l-10,.67Q295.78,435.4,300.15,438Z"/><path class="cls-13" d="M398.42,449.16l50.92-4.69q-14-6.67-28-13.84l-50.92,3.78Q384.41,442,398.42,449.16Z"/><path class="cls-13" d="M327.63,458.13l201-19v2.51c0,2.76-2.63,5.27-5.88,5.61l-193.51,20.1a5.23,5.23,0,0,1-3.06-.59q-39.93-21.71-79.86-47.5a6.63,6.63,0,0,1-2.82-5.63v-6.36Q285.58,435,327.63,458.13Z"/><path class="cls-15" d="M254.28,392.23l179.55-4.89q0-53.91,0-107.83L254.28,263Z"/><g class="cls-11"><path class="cls-15" d="M433.83,371.62q0,7.86,0,15.72l-179.55,4.89v-112A1475.07,1475.07,0,0,0,433.83,371.62Z"/></g><circle class="cls-2" cx="169.84" cy="132.59" r="81.34"/><circle class="cls-16" cx="169.84" cy="132.59" r="71.39"/><circle class="cls-17" cx="169.84" cy="132.59" r="63.52"/><circle class="cls-2" cx="408.42" cy="646.45" r="82.39"/><circle class="cls-16" cx="408.42" cy="646.45" r="71.39"/><circle class="cls-18" cx="408.42" cy="646.45" r="63.52"/><circle class="cls-2" cx="174.67" cy="588.54" r="80"/><circle class="cls-16" cx="174.67" cy="588.54" r="71.39"/><circle class="cls-19" cx="174.67" cy="588.54" r="63.52"/><circle class="cls-2" cx="429.21" cy="79.22" r="79.22"/><circle class="cls-16" cx="429.21" cy="79.22" r="71.39"/><circle class="cls-20" cx="429.21" cy="79.22" r="63.52"/><circle class="cls-2" cx="80.51" cy="355" r="80.51"/><circle class="cls-16" cx="80.51" cy="355" r="71.39"/><circle class="cls-21" cx="80.51" cy="355" r="63.52"/><path class="cls-22" d="M265,348.58V316.22h5.76l5,12.67c1,2.5,2.54,6.67,3.46,9.46h.1c-.19-3.41-.62-9-.62-15v-7.15h5.52v32.35h-5.76l-4.94-12.29a93,93,0,0,1-3.26-9.74h-.1c.14,3.26.38,8.26.38,14.74v7.3Z"/><path class="cls-22" d="M303.45,334.37h-7.39v8.74h8.35v5.47H289.77V316.22h14.07v5.47h-7.78v7.44h7.39Z"/><path class="cls-22" d="M312.18,322h-5.71v-5.81h17.76V322h-5.76v26.55h-6.29Z"/><path class="cls-22" d="M331.77,348.58l-5.52-32.35h6.53l1.58,12.91c.43,3.7.72,7.39,1.1,11.33h.14c.43-4,1.15-7.49,1.82-11.38l2.3-12.87h5.09L347,329c.58,3.65,1.15,7.25,1.54,11.47h.1c.43-4.22.82-7.68,1.25-11.42l1.58-12.82h6.14l-5.71,32.35H345.4L343.48,338c-.53-3-1-6.67-1.44-10.61h-.1c-.58,3.89-1.1,7.49-1.78,10.66L338,348.58Z"/><path class="cls-22" d="M380.1,331.82c0,12.19-4.32,17.14-10.46,17.14-7.34,0-10.22-7.78-10.22-16.66s3.5-16.47,10.66-16.47C377.89,315.84,380.1,324.43,380.1,331.82Zm-14.16.58c0,7.34,1.39,11.09,3.94,11.09s3.65-4.8,3.65-11.38c0-5.66-.86-10.8-3.7-10.8C367.33,321.31,365.94,325.44,365.94,332.4Z"/><path class="cls-22" d="M384.08,316.7a37.6,37.6,0,0,1,6.86-.62c3.46,0,6.53.48,8.64,2.4s2.54,3.94,2.54,6.72a8.62,8.62,0,0,1-5,8.11v.1c2.21.86,3.31,2.93,3.94,6.38a52.08,52.08,0,0,0,2.06,8.78h-6.58a44.77,44.77,0,0,1-1.58-7.73c-.58-4-1.58-5.18-3.7-5.18h-.91v12.91h-6.29Zm6.29,14.11h1.1c2.74,0,4.32-2.21,4.32-5s-1.1-4.7-3.94-4.8a4.48,4.48,0,0,0-1.49.19Z"/><path class="cls-22" d="M406.64,316.22h6.29v14.55h.1c.53-1.34,1.06-2.78,1.58-4.18l4.32-10.37h6.91l-7.25,14.07,7.34,18.29h-6.86l-4.7-13.39-1.44,2.64v10.75h-6.29Z"/><path class="cls-23" d="M160,600.3l.21-.16.13-.09a21.74,21.74,0,0,1,16-6.62h.52a21.74,21.74,0,0,1,16,6.56l.13.09.21.16A2.73,2.73,0,0,1,194,604l-.09.13-3,3a3.16,3.16,0,0,1-4.2-.35l-.09-.09h0l-.11-.11-.35-.4a12.16,12.16,0,0,0-9.25-3.87h-.52a12.17,12.17,0,0,0-9.25,3.87l-.35.4-.09.11h0l-.09.09a3.16,3.16,0,0,1-4.22.35l-3-3a2.73,2.73,0,0,1,.6-3.82Z"/><path class="cls-23" d="M131.79,566.64l.28-.28a3.44,3.44,0,0,1,.4-.3,68.65,68.65,0,0,1,88.38,0,3.16,3.16,0,0,1,.4.3l.28.28a2.85,2.85,0,0,1,0,4L218,574.22a3.34,3.34,0,0,1-4.11.32h0l-.36-.27a3,3,0,0,1-.43-.44,51.93,51.93,0,0,0-36.12-13.06h-.52a51.91,51.91,0,0,0-36.12,13.06,3.27,3.27,0,0,1-.43.44l-.36.27h0a3.34,3.34,0,0,1-4.11-.32l-3.56-3.59A2.85,2.85,0,0,1,131.79,566.64Z"/><path class="cls-23" d="M147.17,583.84l.43-.32a41.26,41.26,0,0,1,28.75-11.32h.52a41.24,41.24,0,0,1,28.74,11.32l.43.32.16.16a2.78,2.78,0,0,1,.36,3.92l0,0-3.32,3.35a3.16,3.16,0,0,1-4.13,0l-.28-.22a3.7,3.7,0,0,1-.6-.6,32.23,32.23,0,0,0-43.09,0,3.7,3.7,0,0,1-.62.7l-.28.22a3.16,3.16,0,0,1-4.13,0l-3.32-3.35a2.78,2.78,0,0,1,.27-3.93l0,0Z"/><ellipse class="cls-23" cx="176.6" cy="619.89" rx="7.37" ry="7.26"/><path class="cls-23" d="M110.9,318.33H45.28A5.7,5.7,0,0,0,39.56,324v43.91a5.7,5.7,0,0,0,5.73,5.63H71v5.31H48.12a3.2,3.2,0,0,0,0,6.27h61a3.2,3.2,0,1,0,0-6.27h-21v-5.33H110.9a5.68,5.68,0,0,0,5.73-5.63h0V324a5.68,5.68,0,0,0-5.73-5.63Zm-1.18,42.25a5,5,0,0,1-5,5H51.49a5,5,0,0,1-5-5V331.29a5,5,0,0,1,5-5h53.24a5,5,0,0,1,5,5Z"/><path class="cls-23" d="M456.3,65.86a21.27,21.27,0,0,0-39.82-10.4,17.08,17.08,0,0,0-2.71-.23,15.94,15.94,0,0,0-15.28,11.38,15.94,15.94,0,0,0,4.68,31.21h53.07a16,16,0,1,0,0-31.9ZM429.66,92.42,413.71,71.14h10.63V55.2H435V71.14H445.6Z"/><path class="cls-23" d="M414.53,615.05c-1,9.44-4.23,16.56-6.24,25-7.6-3.17-17.75-4.57-26.75-1.78,1.82-8,4.37-15.22,6.24-23.18C394.4,609.64,407.28,611.59,414.53,615.05Z"/><path class="cls-23" d="M419,619.5c6.81,4,18,4.37,26.75,1.79-2.65,7.74-4.26,16.53-7.15,24.07-7.28,3.89-21.36,3.59-26.73-1.79C414.15,635.42,416.33,627.26,419,619.5Z"/><path class="cls-23" d="M406.49,644.48c-1.46,9-4.95,15.85-6.24,25-7.86-3.61-17.87-6-26.73-1.79,1.12-9,4.12-16,6.24-24.07C386.63,639.32,400.31,640.59,406.49,644.48Z"/><path class="cls-23" d="M411,648c6.81,4.82,18.19,5.09,26.75,1.78-2.53,7.89-4.54,16.25-7.13,24.07-6.9,4.69-20.37,4-26.75-.89A139.93,139.93,0,0,1,411,648Z"/><path class="cls-23" d="M120.9,132.68c2.14-1,3.62-2.87,5-4.61,2.38-2.9,4-3.16,7-.32a192.11,192.11,0,0,0,24.27,19.9c11.86,8.13,15.73,8.17,27.58.07,3.13-2.14,6-4.67,9-7,.72-.55,1.45-1.9,2.31-1.31,3.35,2.3,6.57,4.8,9.76,7.34.69.55,0,1.25-.51,1.68-9.3,8.25-18.89,16-31.52,18.67-6,1.26-11.22-1.11-16.23-4-10.57-6.06-19.69-14-28.66-22.17-2.71-2.46-5.37-5-8-7.45Z"/><path class="cls-23" d="M222.21,133.28c-1.13,1.28-1.8,2.11-2.54,2.87-6.24,6.43-6.23,6.42-13.18,1.09-8-6.12-16-12.2-24.23-18s-16.19-6.13-24.26.19c-3.1,2.43-6.4,4.61-9.48,7.07-1.34,1.07-2.14,1-3.46-.06-9.2-7.22-9.23-7.2.24-14.18a105.84,105.84,0,0,1,13.49-8.4c7.45-3.93,14.65-3.92,22.15.09,11.84,6.32,22.41,14.4,32.84,22.72,2.13,1.7,4.19,3.48,6.31,5.19C220.71,132.34,221.41,132.74,222.21,133.28Z"/><path class="cls-23" d="M170.26,143.23c-6.54-1.3-11.07-5.66-15.59-10-1.06-1,.14-1.68.8-2.27a39.79,39.79,0,0,1,10.48-7c3.73-1.66,7.13-.77,10.5,1.1A53.59,53.59,0,0,1,186,132c.74.66,2,1.37.61,2.58C181.87,138.78,176.68,142.14,170.26,143.23Z"/></g></g></svg>