<svg xmlns="http://www.w3.org/2000/svg" viewBox="0 0 396.96 586.83"><defs><style>.cls-1{isolation:isolate;}.cls-2{fill:#fddcbe;}.cls-3{fill:#f5f5f5;}.cls-4,.cls-7{mix-blend-mode:multiply;}.cls-5,.cls-7{fill:#e6e7e8;}.cls-6{fill:#b05033;}.cls-8{fill:#efa734;}.cls-9{fill:#533e29;}.cls-10{fill:#eb7d86;}</style></defs><title>Provisioner</title><g class="cls-1"><g id="Layer_1" data-name="Layer 1"><path class="cls-2" d="M11.22,72.59C14.58,69.23,39,92.2,41.34,94.53c1.8,1.81,52.12,47.2,101.29,81.44l-9.69,12.51c-55.39-37.35-104-77.26-106.24-79-2.75-2.22-5.44-4.27-4.79-6.71a2,2,0,0,1,3.24-1.08c-1.15-1.35-2.56-2.5-1.1-4.44a2.38,2.38,0,0,1,3.15-.16c-1.73-1.75-2.76-3.66-2-5a3.31,3.31,0,0,1,4.22-1.14C28,89.36,8.88,74.92,11.22,72.59Z"/><path class="cls-3" d="M142.63,176l-9.69,12.51q-8.9-6-17.5-12l9.35-13.33C130.7,167.5,136.67,171.82,142.63,176Z"/><g class="cls-4"><path class="cls-5" d="M142.63,176l-9.69,12.51q-3.7-2.49-7.33-5l3.91-16.89C133.87,169.79,138.26,172.92,142.63,176Z"/></g><path class="cls-3" d="M291.79,451.34l-35.24,43.34a15.81,15.81,0,0,1-12.44,5.88c-51-.68-105.43-19.84-151.92-57.63C34.28,395.85,2.12,330.77,0,269.35A22.69,22.69,0,0,1,18.84,246.2C79.4,235.72,149.67,253.92,207.58,301c46.48,37.79,76.35,87.17,87.43,137A15.81,15.81,0,0,1,291.79,451.34Z"/><path class="cls-6" d="M232.68,501.36a55.34,55.34,0,0,0,1.87,72,7.54,7.54,0,0,1,.35,9.84l-.7.86A7.47,7.47,0,0,1,225,586a148.48,148.48,0,0,1-77.9-108.47,239.29,239.29,0,0,0,86.63,22.65C233.35,500.56,233,501,232.68,501.36Z"/><path class="cls-6" d="M293.46,426.64a55.34,55.34,0,0,1,70.85-12.86,7.54,7.54,0,0,0,9.71-1.66l.7-.86a7.47,7.47,0,0,0,0-9.44,148.48,148.48,0,0,0-122.09-54.12,239.28,239.28,0,0,1,39.86,80.19C292.82,427.46,293.13,427,293.46,426.64Z"/><path class="cls-6" d="M18.7,246.22c26.5-4.6,54.87-3.7,83.24,2.71L19.65,350.15C7.59,323.67.92,296.09,0,269.21A22.58,22.58,0,0,1,18.7,246.22Z"/><path class="cls-7" d="M89.51,257.5a3.12,3.12,0,0,0-.45-4.37,3.1,3.1,0,0,0-2.29-.67,3.21,3.21,0,0,0-2.77,3.4,3.11,3.11,0,0,0,5.5,1.64Z"/><path class="cls-7" d="M78.27,266.4a3.11,3.11,0,0,0-4.37.45h0a3.11,3.11,0,0,0,.45,4.37h0a3.11,3.11,0,0,0,4.37-.45h0A3.11,3.11,0,0,0,78.27,266.4Z"/><path class="cls-7" d="M35.58,323.83h0a3.11,3.11,0,0,1-4.37.45h0a3.11,3.11,0,0,1-.45-4.37h0a3.11,3.11,0,1,1,4.82,3.92Zm10.78-13.27h0A3.11,3.11,0,0,1,42,311h0a3.11,3.11,0,0,1-.45-4.37h0a3.11,3.11,0,1,1,4.82,3.92ZM57.15,297.3h0a3.11,3.11,0,0,1-4.37.45h0a3.11,3.11,0,0,1-.45-4.37h0a3.11,3.11,0,0,1,4.82,3.92ZM67.94,284h0a3.11,3.11,0,0,1-4.37.45h0a3.11,3.11,0,0,1-.45-4.37h0A3.11,3.11,0,1,1,67.94,284Z"/><path class="cls-7" d="M24.8,337.09A3.11,3.11,0,0,0,22.07,332a3.22,3.22,0,0,0-2.77,3.41,3.11,3.11,0,0,0,5.5,1.64Z"/><path class="cls-7" d="M104.35,249.46,20.67,352.39c-.35-.75-.67-1.49-1-2.24l82.29-101.22C102.75,249.11,103.55,249.27,104.35,249.46Z"/><path class="cls-7" d="M260.36,347.52a256.83,256.83,0,0,1,38.48,73.39,55.77,55.77,0,0,0-5.38,5.73c-.33.41-.64.82-1,1.24a239.28,239.28,0,0,0-39.86-80.19C255.22,347.56,257.79,347.51,260.36,347.52Z"/><path class="cls-7" d="M147.06,477.52a239.28,239.28,0,0,0,86.63,22.65c-.34.4-.69.78-1,1.19a55.79,55.79,0,0,0-4.53,6.47,256.83,256.83,0,0,1-79.67-22.67C147.94,482.62,147.46,480.08,147.06,477.52Z"/><path class="cls-6" d="M282.44,538.32C320.78,569.5,397,572.84,397,572.84s-18.82-73.89-57.17-105.07c-19.48-15.84-42.33-8.18-58.17,11.3S263,522.48,282.44,538.32Z"/><path class="cls-8" d="M285.2,529c15.65,12.72,48.15,18.08,60.87,2.44s.83-46.37-14.81-59.09-32.86-5.65-45.57,10S269.55,516.31,285.2,529Z"/><path class="cls-3" d="M286.65,511c9.26,7.53,28.74,10.9,36.27,1.64s.25-27.64-9-35.17-17.08-1.42-24.61,7.84S277.39,503.47,286.65,511Z"/><path class="cls-6" d="M295,438a15.81,15.81,0,0,1-3.22,13.38l-35.24,43.34a15.81,15.81,0,0,1-12.44,5.88q-5.18-.07-10.41-.4l58.8-72.28Q293.88,432.91,295,438Z"/><g class="cls-4"><path class="cls-5" d="M287.68,433.82l7.63,6.21a15.48,15.48,0,0,1,0,2.14l-8.69-7.07Z"/><path class="cls-5" d="M282.33,440.39l10.88,8.85a16.07,16.07,0,0,1-.9,1.39l-11-9Z"/><rect class="cls-5" x="281.17" y="444.97" width="1.64" height="14.25" transform="translate(-246.66 385.54) rotate(-50.87)"/><rect class="cls-5" x="275.83" y="451.54" width="1.64" height="14.25" transform="translate(-253.73 383.81) rotate(-50.87)"/><rect class="cls-5" x="270.48" y="458.11" width="1.64" height="14.26" transform="translate(-260.8 382.09) rotate(-50.87)"/><rect class="cls-5" x="265.14" y="464.68" width="1.64" height="14.26" transform="translate(-267.87 380.37) rotate(-50.87)"/><rect class="cls-5" x="259.79" y="471.25" width="1.64" height="14.26" transform="translate(-274.94 378.66) rotate(-50.87)"/><rect class="cls-5" x="254.45" y="477.82" width="1.64" height="14.26" transform="translate(-282.01 376.93) rotate(-50.87)"/><path class="cls-5" d="M244.91,486.39l11,9a16.08,16.08,0,0,1-1.17,1.16l-10.89-8.86Z"/><path class="cls-5" d="M239.56,493l8.7,7.07a15.47,15.47,0,0,1-2.1.41l-7.64-6.21Z"/></g><g class="cls-4"><path class="cls-3" d="M5.08,254.25c-1.29,1.6-1.14,4.37.7,8,20,39.38,63.86,90.09,121.77,137.17C174,437.22,221,465.64,259.71,481.37c3.67,1.49,6.46,1.47,7.64,0h0l-10.8,13.29a15.81,15.81,0,0,1-12.44,5.88c-51-.68-105.43-19.84-151.92-57.63C34.28,395.85,2.12,330.77,0,269.35A22.66,22.66,0,0,1,5.08,254.25Z"/></g><path class="cls-7" d="M206.32,381.14c-2.41-24.7,19.45-22.69,19.45-22.69L201,329.56l10.89-25q6.39,5.42,12.34,11.12l-8.54,11.82,20.88,33.19S208.61,404.5,206.32,381.14Z"/><path class="cls-3" d="M270.26,186.62,130.52,174.77c1,18.8,2.37,43.36-6.55,64.36,17.64,21.2,85.62,63.08,111.18,64.43C252.61,274,265.56,230,270.26,186.62Z"/><path class="cls-9" d="M124,239.13l111.18,64.43-14,25.28,24.73,30.43s-22.47,46.87-27.55,23.95C213,359,235,358.34,235,358.34l-28.1-25.69,8.21-27.52s-40.27-27.92-82.5-49.55l-1.5,1.87q-7.45-2.69-14.94-4.87Z"/><path class="cls-2" d="M130.52,174.77S121.21,32.94,232.21,66.65c0,0,35.44,41.88,38,120C176.64,210.91,130.52,174.77,130.52,174.77Z"/><path class="cls-9" d="M140.82,0c-10.38,39.65-16.16,96,100,102l1.4,30.14s13.14-10,15.16,4.25-14.26,7.27-14.26,7.27,12.88,26.6,27.09,42.93c.85,1,61.78-123.86-1.44-130.17,0,0-2.7-31.48-46.82-36.82C181.72,14.76,161.17,51.64,140.82,0Z"/><path class="cls-10" d="M195.34,155.06a258.85,258.85,0,0,0-41-6.79s-2.85,22.2,16.9,25.47C193,177.34,195.34,155.06,195.34,155.06Z"/><ellipse class="cls-9" cx="208.42" cy="129.35" rx="10.69" ry="4.92" transform="translate(33.31 301.12) rotate(-76.27)"/><ellipse class="cls-9" cx="152.4" cy="115.66" rx="10.69" ry="4.92" transform="translate(3.88 236.25) rotate(-76.27)"/><g class="cls-4"><path class="cls-5" d="M253.67,203.11c-56.88,56.6-104.56,72.18-106.87,72.52-3,.43-8.88,1.75-8.13,4.5.38,1.4,1.38,1.88,3.27,1.76-1.2.46-2.44,1.08-2.36,2.4s2.17,2.12,3.52,2.07a2,2,0,0,1,.35,0,2,2,0,0,0-.35,0,2.94,2.94,0,0,0-2.36,2.52c.07,1.42,2,1.87,3.37,1.74-1.2.45-2.06,1.15-2,2.46.16,2.77,4.61,2.38,8.63,2,6.13-.24,61.83-15,113.47-80.15Z"/></g><path class="cls-2" d="M253.76,203c-57.32,56.15-105.12,71.36-107.44,71.68-3,.4-8.9,1.68-8.17,4.43.37,1.4,1.36,1.89,3.25,1.79-1.2.45-2.45,1.06-2.38,2.39s2.16,2.14,3.5,2.1a2,2,0,0,1,.35,0,2,2,0,0,0-.35,0,2.93,2.93,0,0,0-2.38,2.51c.06,1.42,2,1.88,3.36,1.77-1.2.44-2.07,1.13-2,2.45.14,2.77,5.41,1.51,8.55.72,2.51-.63,52.6-16.27,114.15-77.94Z"/><path class="cls-3" d="M253.76,203l10.45,11.89c-4.5,4.51-8.94,8.75-13.3,12.78l-10-12.63C245.14,211.27,249.42,207.28,253.76,203Z"/><g class="cls-4"><path class="cls-3" d="M141.35,191l-4,4.19,2.08,6.8s-4.68,38.75,41.37,49.18L194.66,241,184,228.7c-38.83.28-37.47-24.06-37.47-24.06l6-4.92-1.16-4.65Z"/></g><path class="cls-9" d="M141.35,191l-4,4.19,2.08,6.8S135,237.27,181.1,247.7l13.85-10.25-10.67-12.27c-38.83.28-37.75-20.54-37.75-20.54l6-4.92-1.16-4.65Z"/></g></g></svg>