<svg id="Layer_1" data-name="Layer 1" xmlns="http://www.w3.org/2000/svg" viewBox="0 0 499.32 98.62"><defs><style>.cls-1{fill:#166fb7;}.cls-2{fill:#299b4a;}.cls-3{fill:#5e5f5f;}.cls-4{fill:#231f20;stroke:#166fb7;stroke-miterlimit:10;stroke-width:1.5px;}</style></defs><title>scale-focus</title><path class="cls-1" d="M0,43c2.62-1.26,4.42-3.52,6.16-5.64,2.9-3.55,4.92-3.87,8.54-.4A234.91,234.91,0,0,0,44.38,61.27c14.51,9.94,19.24,10,33.73.09,3.83-2.62,7.35-5.71,11-8.54.88-.67,1.77-2.32,2.82-1.6,4.1,2.81,8,5.87,11.93,9,.84.67,0,1.53-.63,2.05-11.38,10.09-23.1,19.6-38.54,22.82C57.33,86.61,51,83.71,44.88,80.2,32,72.79,20.8,63.06,9.84,53.09,6.53,50.09,3.28,47,0,44Z"/><path class="cls-1" d="M123.88,43.72c-1.38,1.56-2.2,2.58-3.11,3.51-7.63,7.87-7.62,7.84-16.12,1.33-9.77-7.49-19.57-14.92-29.63-22s-19.8-7.49-29.66.23c-3.79,3-7.83,5.64-11.59,8.65-1.64,1.31-2.62,1.2-4.23-.07-11.24-8.83-11.28-8.81.29-17.34A129.42,129.42,0,0,1,46.32,7.72c9.11-4.81,17.92-4.79,27.09.11,14.48,7.73,27.4,17.61,40.15,27.79,2.6,2.08,5.12,4.25,7.71,6.34C122,42.56,122.9,43.06,123.88,43.72Z"/><path class="cls-2" d="M60.35,55.89c-8-1.59-13.53-6.92-19.07-12.2-1.29-1.24.18-2.06,1-2.78a48.66,48.66,0,0,1,12.82-8.54c4.56-2,8.72-.94,12.84,1.35a65.53,65.53,0,0,1,11.71,8.45c.91.81,2.44,1.68.75,3.16C74.55,50.44,68.2,54.55,60.35,55.89Z"/><path class="cls-2" d="M142.69,51.11a18.68,18.68,0,0,0,9.4,2.83c5.18,0,7.61-2.59,7.61-5.83,0-3.4-2-5.26-7.29-7.21-7-2.51-10.37-6.4-10.37-11.1,0-6.32,5.1-11.5,13.53-11.5a19.57,19.57,0,0,1,9.64,2.43l-1.78,5.18a15.26,15.26,0,0,0-8-2.27c-4.21,0-6.56,2.43-6.56,5.35,0,3.24,2.35,4.7,7.45,6.64,6.8,2.59,10.29,6,10.29,11.83,0,6.88-5.35,11.74-14.66,11.74a22.36,22.36,0,0,1-11-2.67Z"/><path class="cls-2" d="M203.68,56.94a26.25,26.25,0,0,1-11.26,2.27c-11.83,0-19.52-8-19.52-20S181.17,18.39,194,18.39a23.82,23.82,0,0,1,9.88,2l-1.62,5.51A16.53,16.53,0,0,0,194,24.06c-9,0-13.85,6.64-13.85,14.82,0,9.07,5.83,14.66,13.61,14.66a20.25,20.25,0,0,0,8.75-1.94Z"/><path class="cls-2" d="M233.73,58.4l-.57-4.94h-.24a14.6,14.6,0,0,1-12,5.83c-7.94,0-12-5.59-12-11.26,0-9.48,8.42-14.66,23.57-14.58v-.81c0-3.24-.89-9.07-8.91-9.07a19.53,19.53,0,0,0-10.21,2.92l-1.62-4.7a24.33,24.33,0,0,1,12.88-3.48c12,0,14.9,8.18,14.9,16V49a55.16,55.16,0,0,0,.65,9.4Zm-1.05-20c-7.78-.16-16.6,1.21-16.6,8.83,0,4.62,3.08,6.8,6.72,6.8a9.75,9.75,0,0,0,9.48-6.56,7.45,7.45,0,0,0,.4-2.27Z"/><path class="cls-2" d="M251.07.89h7.13V58.4h-7.13Z"/><path class="cls-2" d="M274.15,40.09c.16,9.64,6.32,13.61,13.45,13.61a25.77,25.77,0,0,0,10.85-2l1.21,5.1a31.74,31.74,0,0,1-13,2.43c-12.07,0-19.28-7.94-19.28-19.76s7-21.14,18.38-21.14c12.8,0,16.2,11.26,16.2,18.47a26.86,26.86,0,0,1-.24,3.32ZM295,35c.08-4.54-1.86-11.58-9.88-11.58C278,23.41,274.8,30,274.23,35Z"/><path class="cls-3" d="M145.07,76.55V93.4H142.9V76.55Z"/><path class="cls-3" d="M152.07,78.4H147V76.55h12.47V78.4h-5.15v15h-2.2Z"/><path class="cls-3" d="M166.22,91.15a5.77,5.77,0,0,0,2.9.88c1.6,0,2.35-.8,2.35-1.8s-.62-1.62-2.25-2.22c-2.17-.77-3.2-2-3.2-3.42,0-1.95,1.57-3.55,4.17-3.55a6,6,0,0,1,3,.75l-.55,1.6a4.71,4.71,0,0,0-2.47-.7c-1.3,0-2,.75-2,1.65s.72,1.45,2.3,2c2.1.8,3.17,1.85,3.17,3.65,0,2.12-1.65,3.62-4.52,3.62a6.9,6.9,0,0,1-3.4-.82Z"/><path class="cls-3" d="M187.37,87.25c0,4.47-3.1,6.42-6,6.42-3.27,0-5.8-2.4-5.8-6.22,0-4,2.65-6.42,6-6.42S187.37,83.55,187.37,87.25Zm-9.6.13c0,2.65,1.52,4.65,3.67,4.65s3.67-2,3.67-4.7c0-2-1-4.65-3.62-4.65S177.77,85.07,177.77,87.37Z"/><path class="cls-3" d="M190.15,75.65h2.2V93.4h-2.2Z"/><path class="cls-3" d="M206.17,90.1c0,1.25,0,2.35.1,3.3h-1.95l-.12-2h-.05a4.55,4.55,0,0,1-4,2.25c-1.9,0-4.17-1-4.17-5.3V81.3h2.2V88c0,2.3.7,3.85,2.7,3.85a3.18,3.18,0,0,0,2.9-2,3.21,3.21,0,0,0,.2-1.12V81.3h2.2Z"/><path class="cls-3" d="M212.47,77.83V81.3h3.15V83h-3.15V89.5c0,1.5.42,2.35,1.65,2.35a4.89,4.89,0,0,0,1.27-.15l.1,1.65a5.39,5.39,0,0,1-1.95.3,3,3,0,0,1-2.37-.92,4.48,4.48,0,0,1-.85-3.15V83h-1.87V81.3h1.87V78.4Z"/><path class="cls-3" d="M220.55,77.9a1.36,1.36,0,0,1-2.72,0,1.34,1.34,0,0,1,1.37-1.37A1.31,1.31,0,0,1,220.55,77.9ZM218.1,93.4V81.3h2.2V93.4Z"/><path class="cls-3" d="M234.9,87.25c0,4.47-3.1,6.42-6,6.42-3.27,0-5.8-2.4-5.8-6.22,0-4,2.65-6.42,6-6.42S234.9,83.55,234.9,87.25Zm-9.6.13C225.3,90,226.82,92,229,92s3.67-2,3.67-4.7c0-2-1-4.65-3.62-4.65S225.3,85.07,225.3,87.37Z"/><path class="cls-3" d="M237.67,84.57c0-1.25,0-2.27-.1-3.27h1.95l.13,2h0a4.45,4.45,0,0,1,4-2.27c1.67,0,4.27,1,4.27,5.15V93.4h-2.2v-7c0-1.95-.72-3.57-2.8-3.57A3.13,3.13,0,0,0,240,85.1a3.17,3.17,0,0,0-.15,1V93.4h-2.2Z"/><path class="cls-3" d="M251.25,91.15a5.77,5.77,0,0,0,2.9.88c1.6,0,2.35-.8,2.35-1.8s-.62-1.62-2.25-2.22c-2.17-.77-3.2-2-3.2-3.42,0-1.95,1.58-3.55,4.17-3.55a6,6,0,0,1,3,.75l-.55,1.6a4.71,4.71,0,0,0-2.47-.7c-1.3,0-2,.75-2,1.65s.73,1.45,2.3,2c2.1.8,3.17,1.85,3.17,3.65,0,2.12-1.65,3.62-4.52,3.62a6.9,6.9,0,0,1-3.4-.82Z"/><path class="cls-3" d="M267,93.4V83h-1.7V81.3H267v-.57a5.7,5.7,0,0,1,1.4-4.22,4.21,4.21,0,0,1,2.95-1.12,5.11,5.11,0,0,1,1.88.35l-.3,1.7a3.28,3.28,0,0,0-1.4-.27c-1.87,0-2.35,1.65-2.35,3.5v.65h2.92V83h-2.92V93.4Z"/><path class="cls-3" d="M284.67,87.25c0,4.47-3.1,6.42-6,6.42-3.27,0-5.8-2.4-5.8-6.22,0-4,2.65-6.42,6-6.42S284.67,83.55,284.67,87.25Zm-9.6.13c0,2.65,1.53,4.65,3.67,4.65s3.67-2,3.67-4.7c0-2-1-4.65-3.62-4.65S275.07,85.07,275.07,87.37Z"/><path class="cls-3" d="M287.45,85.07c0-1.42,0-2.65-.1-3.77h1.92l.07,2.37h.1A3.63,3.63,0,0,1,292.8,81a2.37,2.37,0,0,1,.63.08v2.07a3.31,3.31,0,0,0-.75-.07,3.09,3.09,0,0,0-2.95,2.82,6.21,6.21,0,0,0-.1,1V93.4h-2.17Z"/><path class="cls-3" d="M300.62,91.15a5.77,5.77,0,0,0,2.9.88c1.6,0,2.35-.8,2.35-1.8s-.62-1.62-2.25-2.22c-2.17-.77-3.2-2-3.2-3.42,0-1.95,1.58-3.55,4.17-3.55a6,6,0,0,1,3,.75l-.55,1.6a4.71,4.71,0,0,0-2.47-.7c-1.3,0-2,.75-2,1.65s.73,1.45,2.3,2c2.1.8,3.17,1.85,3.17,3.65,0,2.12-1.65,3.62-4.52,3.62a6.9,6.9,0,0,1-3.4-.82Z"/><path class="cls-3" d="M320.95,90.1c0,1.25,0,2.35.1,3.3H319.1l-.12-2h0a4.55,4.55,0,0,1-4,2.25c-1.9,0-4.17-1-4.17-5.3V81.3h2.2V88c0,2.3.7,3.85,2.7,3.85a3.18,3.18,0,0,0,2.9-2,3.21,3.21,0,0,0,.2-1.12V81.3h2.2Z"/><path class="cls-3" d="M324.3,91.15a5.77,5.77,0,0,0,2.9.88c1.6,0,2.35-.8,2.35-1.8s-.62-1.62-2.25-2.22c-2.17-.77-3.2-2-3.2-3.42,0-1.95,1.58-3.55,4.17-3.55a6,6,0,0,1,3,.75l-.55,1.6a4.71,4.71,0,0,0-2.47-.7c-1.3,0-2,.75-2,1.65s.73,1.45,2.3,2c2.1.8,3.17,1.85,3.17,3.65,0,2.12-1.65,3.62-4.52,3.62a6.9,6.9,0,0,1-3.4-.82Z"/><path class="cls-3" d="M337.15,77.83V81.3h3.15V83h-3.15V89.5c0,1.5.42,2.35,1.65,2.35a4.89,4.89,0,0,0,1.28-.15l.1,1.65a5.39,5.39,0,0,1-1.95.3,3,3,0,0,1-2.37-.92,4.49,4.49,0,0,1-.85-3.15V83h-1.87V81.3H335V78.4Z"/><path class="cls-3" d="M349.47,93.4l-.17-1.52h-.07a4.51,4.51,0,0,1-3.7,1.8,3.45,3.45,0,0,1-3.7-3.47c0-2.92,2.6-4.52,7.27-4.5v-.25a2.49,2.49,0,0,0-2.75-2.8,6,6,0,0,0-3.15.9l-.5-1.45a7.5,7.5,0,0,1,4-1.07c3.7,0,4.6,2.52,4.6,4.95V90.5a17,17,0,0,0,.2,2.9Zm-.32-6.17c-2.4-.05-5.12.37-5.12,2.72A2,2,0,0,0,346.1,92,3,3,0,0,0,349,90a2.29,2.29,0,0,0,.13-.7Z"/><path class="cls-3" d="M357.27,77.9a1.36,1.36,0,0,1-2.72,0,1.34,1.34,0,0,1,1.37-1.37A1.31,1.31,0,0,1,357.27,77.9Zm-2.45,15.5V81.3H357V93.4Z"/><path class="cls-3" d="M360.67,84.57c0-1.25,0-2.27-.1-3.27h1.95l.13,2h0a4.45,4.45,0,0,1,4-2.27c1.67,0,4.27,1,4.27,5.15V93.4h-2.2v-7c0-1.95-.72-3.57-2.8-3.57A3.13,3.13,0,0,0,363,85.1a3.17,3.17,0,0,0-.15,1V93.4h-2.2Z"/><path class="cls-3" d="M381.24,93.4l-.17-1.52H381a4.51,4.51,0,0,1-3.7,1.8,3.45,3.45,0,0,1-3.7-3.47c0-2.92,2.6-4.52,7.27-4.5v-.25a2.49,2.49,0,0,0-2.75-2.8,6,6,0,0,0-3.15.9l-.5-1.45a7.5,7.5,0,0,1,4-1.07c3.7,0,4.6,2.52,4.6,4.95V90.5a17,17,0,0,0,.2,2.9Zm-.32-6.17c-2.4-.05-5.12.37-5.12,2.72a2,2,0,0,0,2.07,2.1,3,3,0,0,0,2.92-2,2.29,2.29,0,0,0,.13-.7Z"/><path class="cls-3" d="M386.5,93.4c0-.82.1-2,.1-3.12V75.65h2.17v7.6h0A4.51,4.51,0,0,1,392.94,81c3,0,5.12,2.5,5.1,6.17,0,4.32-2.72,6.47-5.42,6.47a4.31,4.31,0,0,1-4-2.27h-.08l-.1,2Zm2.27-4.85a4.13,4.13,0,0,0,.1.8,3.39,3.39,0,0,0,3.3,2.57c2.3,0,3.67-1.87,3.67-4.65,0-2.42-1.25-4.5-3.6-4.5a3.51,3.51,0,0,0-3.35,2.7,4.34,4.34,0,0,0-.12.9Z"/><path class="cls-3" d="M400.82,75.65H403V93.4h-2.2Z"/><path class="cls-3" d="M407.95,87.75a3.88,3.88,0,0,0,4.15,4.2,8,8,0,0,0,3.35-.62l.37,1.57a9.79,9.79,0,0,1-4,.75c-3.72,0-5.95-2.45-5.95-6.1S408,81,411.52,81c3.95,0,5,3.47,5,5.7a8.22,8.22,0,0,1-.08,1Zm6.45-1.57c0-1.4-.58-3.57-3-3.57-2.22,0-3.2,2-3.37,3.57Z"/><path class="cls-3" d="M435,81.3c0,.88-.1,1.85-.1,3.32v7c0,2.77-.55,4.47-1.72,5.52a6.41,6.41,0,0,1-4.4,1.45,7.81,7.81,0,0,1-4-1l.55-1.67a6.82,6.82,0,0,0,3.55.95c2.25,0,3.9-1.17,3.9-4.22V91.32h-.05a4.32,4.32,0,0,1-3.85,2c-3,0-5.15-2.55-5.15-5.9,0-4.1,2.67-6.42,5.45-6.42a4,4,0,0,1,3.77,2.1h0l.1-1.82Zm-2.27,4.77a3.22,3.22,0,0,0-3.2-3.32c-2.1,0-3.6,1.77-3.6,4.57,0,2.37,1.2,4.35,3.57,4.35a3.22,3.22,0,0,0,3-2.25,3.83,3.83,0,0,0,.17-1.17Z"/><path class="cls-3" d="M438.37,85.07c0-1.42,0-2.65-.1-3.77h1.92l.07,2.37h.1A3.63,3.63,0,0,1,443.72,81a2.36,2.36,0,0,1,.63.08v2.07a3.31,3.31,0,0,0-.75-.07,3.09,3.09,0,0,0-2.95,2.82,6.21,6.21,0,0,0-.1,1V93.4h-2.17Z"/><path class="cls-3" d="M457.24,87.25c0,4.47-3.1,6.42-6,6.42-3.27,0-5.8-2.4-5.8-6.22,0-4,2.65-6.42,6-6.42S457.24,83.55,457.24,87.25Zm-9.6.13c0,2.65,1.53,4.65,3.67,4.65s3.67-2,3.67-4.7c0-2-1-4.65-3.62-4.65S447.64,85.07,447.64,87.37Z"/><path class="cls-3" d="M460.72,81.3l1.6,6.15c.35,1.35.67,2.6.9,3.85h.08c.28-1.22.67-2.52,1.08-3.82l2-6.17h1.85l1.87,6c.45,1.45.8,2.72,1.08,3.95h.07a36.56,36.56,0,0,1,.92-3.92l1.72-6.07H476l-3.9,12.1h-2l-1.85-5.77a40.29,40.29,0,0,1-1.07-4h-.05a35.79,35.79,0,0,1-1.1,4l-1.95,5.75h-2l-3.65-12.1Z"/><path class="cls-3" d="M480.89,77.83V81.3H484V83h-3.15V89.5c0,1.5.42,2.35,1.65,2.35a4.89,4.89,0,0,0,1.28-.15l.1,1.65a5.39,5.39,0,0,1-1.95.3,3,3,0,0,1-2.37-.92,4.49,4.49,0,0,1-.85-3.15V83h-1.87V81.3h1.87V78.4Z"/><path class="cls-3" d="M486.52,75.65h2.2V83.2h0a4.08,4.08,0,0,1,1.57-1.55,4.53,4.53,0,0,1,2.25-.62c1.62,0,4.22,1,4.22,5.17v7.2h-2.2V86.45c0-1.95-.73-3.6-2.8-3.6a3.16,3.16,0,0,0-2.95,2.2,2.66,2.66,0,0,0-.15,1v7.3h-2.2Z"/><line class="cls-4" x1="141.75" y1="66.9" x2="499.32" y2="66.9"/><path class="cls-1" d="M314.32,58.4V27.86h-5.18V18.79h5.18V17.25c0-4.78,1.46-10,5-13.28a16,16,0,0,1,10.93-4,23.65,23.65,0,0,1,6.56.81l-.49,9.48a13.32,13.32,0,0,0-4-.57c-4,0-5.75,3.16-5.75,7v2h7.94v9.07h-7.86V58.4Z"/><path class="cls-1" d="M378.87,38.15c0,14.5-10.29,21.14-20.9,21.14-11.58,0-20.49-7.61-20.49-20.41s8.42-21,21.14-21C370.77,17.9,378.87,26.24,378.87,38.15Zm-28.67.41c0,6.8,2.83,11.91,8.1,11.91,4.78,0,7.86-4.78,7.86-11.91,0-5.91-2.27-11.91-7.86-11.91C352.39,26.65,350.2,32.72,350.2,38.55Z"/><path class="cls-1" d="M416.46,57.42a30,30,0,0,1-11,1.78c-12.8,0-21-7.78-21-20.25,0-11.58,7.94-21.06,22.68-21.06a28.57,28.57,0,0,1,9.4,1.54l-1.94,9.15a16.84,16.84,0,0,0-6.88-1.21c-6.48,0-10.69,4.62-10.61,11.1,0,7.29,4.86,11.1,10.85,11.1a19,19,0,0,0,7-1.21Z"/><path class="cls-1" d="M460.6,45.68c0,5.18.16,9.4.32,12.72H450.23l-.57-5.59h-.24A14.13,14.13,0,0,1,437,59.29c-8,0-13.93-5-13.93-17.25V18.79h12.39v21.3c0,5.75,1.86,9.23,6.16,9.23A6.63,6.63,0,0,0,447.8,45a6.87,6.87,0,0,0,.41-2.67V18.79H460.6Z"/><path class="cls-1" d="M470.4,47.62a24.08,24.08,0,0,0,10.61,3c3.73,0,5.26-1.3,5.26-3.32s-1.21-3-5.83-4.54c-8.18-2.75-11.34-7.21-11.26-11.91,0-7.37,6.32-13,16.12-13a26.57,26.57,0,0,1,11.18,2.27l-2.19,8.5a19.44,19.44,0,0,0-8.59-2.27c-3,0-4.7,1.22-4.7,3.24,0,1.86,1.54,2.83,6.4,4.54,7.53,2.59,10.69,6.4,10.77,12.23,0,7.37-5.83,12.8-17.17,12.8a28,28,0,0,1-12.8-2.75Z"/><circle class="cls-2" cx="358.06" cy="39.08" r="3.56"/></svg>