<svg xmlns="http://www.w3.org/2000/svg" viewBox="0 0 920.54 439.96"><defs><style>.cls-1{fill:#3a3622;}.cls-2{fill:#ffd842;}.cls-3{fill:#076796;}.cls-4{fill:#f98910;}.cls-5{fill:#bb5327;}.cls-6{fill:#fddcbe;}.cls-7{fill:#482a0e;}.cls-8{fill:#e89f54;}.cls-9{fill:none;}.cls-10{fill:#ffca5f;}</style></defs><title>O9IY101</title><g id="Layer_2" data-name="Layer 2"><polygon class="cls-1" points="879.69 404.38 883.22 403.98 876.43 343.57 872.89 343.97 879.69 404.38 879.69 404.38"/><path class="cls-2" d="M875.06,339c24.56-2.76,46.26,10.95,48.47,30.62l-88.93,10C832.39,359.94,850.51,341.75,875.06,339Z" transform="translate(-3 -18.32)"/><path class="cls-3" d="M875.06,339c11.44-1.29,22.5,13.62,24.72,33.29l-41.42,4.66C856.14,357.26,863.63,340.27,875.06,339Z" transform="translate(-3 -18.32)"/><polygon class="cls-1" points="405 398.8 401.34 399.81 384.2 337.28 387.86 336.28 405 398.8 405 398.8"/><path class="cls-3" d="M382.47,331.18c-25.42,7-41.5,29.12-35.92,49.48l92.05-25.23C433,335.07,407.89,324.21,382.47,331.18Z" transform="translate(-3 -18.32)"/><path class="cls-2" d="M382.47,331.18c-11.84,3.25-16.91,22.38-11.33,42.74L414,362.17C408.44,341.81,394.31,327.94,382.47,331.18Z" transform="translate(-3 -18.32)"/><polygon class="cls-1" points="443.63 391.02 440.01 389.92 458.97 327.92 462.6 329.03 443.63 391.02 443.63 391.02"/><path class="cls-2" d="M471,323.08c-25.21-7.71-50.64,2.4-56.82,22.59L505.5,373.6C511.67,353.41,496.25,330.8,471,323.08Z" transform="translate(-3 -18.32)"/><path class="cls-4" d="M471,323.08c-11.74-3.59-26.26,9.86-32.44,30l42.51,13C487.3,346,482.78,326.68,471,323.08Z" transform="translate(-3 -18.32)"/></g><g id="Layer_1" data-name="Layer 1"><path class="cls-5" d="M247.43,386.6l-154.9.4,1.95,25.71,17.17.46.56-8.52c46.28,16,116.47,1,116.47,1l.27,7.19,15.68.94Z" transform="translate(-3 -18.32)"/><path class="cls-6" d="M97.76,456s36.73,9.26,29.56-9.21c-5.06-13-17.77-1.68-17.77-1.68l2.1-31.9-17.17-.46Z" transform="translate(-3 -18.32)"/><path class="cls-6" d="M261.91,442.27c-6.21-17.82-20.18-.33-20.18-.33l2.9-28.17L229,412.83l1.36,36.6S268.33,460.69,261.91,442.27Z" transform="translate(-3 -18.32)"/><path class="cls-6" d="M148.44,158.86s93.72-19.86,106.32,108c-9.49,2.8-79.06,22-177.34,13.88H76.24C76.37,229.27,91.24,175.1,148.44,158.86Z" transform="translate(-3 -18.32)"/><path class="cls-7" d="M210.08,132.84c-9.78-30.43,40.56-40.66,46.36-9.74,0,0,36.26,91.84-123.93,70.25l-11.21,29.39s-16.49-10.67-18.37,4.19,15,6.84,15,6.84-22.06,34.07-41,47c.94,1-48-140.8,11.39-132,0,0,8-29.53,54.49-39.05C174.32,103.31,199.45,119.35,210.08,132.84Z" transform="translate(-3 -18.32)"/><path class="cls-8" d="M390.91,208.87a1,1,0,0,0,.16-.22C390.8,208.92,390.7,209.08,390.91,208.87Z" transform="translate(-3 -18.32)"/><path class="cls-9" d="M390.91,208.87a1,1,0,0,0,.16-.22C390.8,208.92,390.7,209.08,390.91,208.87Z" transform="translate(-3 -18.32)"/><path class="cls-6" d="M399.1,212.43c-1.07-1.08-3.24.35-3.64.64.33-.27,1.8-1.54.92-2.69s-3.14.72-3.14.72,1.34-2.55.36-3.52c-.67-.66-2,.48-2.54,1.07a1.09,1.09,0,0,1-.16.22c-.2.21-.1.05.16-.22a8.87,8.87,0,0,0,.49-3c-1-1.3-2.67,0-2.67,0-58.56,48.22-134.12,61.23-134.12,61.23S176.45,286.53,88,281.54C72,266.39,36.11,170.32,29,140c0,0,6.82-5.66,3-8.63s-7.71,3.55-7.71,3.55a39.61,39.61,0,0,0-16-3.69s-6.08,0-5.17,3.1c.47,1.59,4.66,1.38,5.25,1.34-.62,0-5.25.43-5.25,2.37,0,1.74,3.83,2.19,5.07,2.3l.4,0-.4,0c-1.29-.07-5.31-.14-5.06,1.86.27,2.19,5.06,2.36,5.79,2.37-.78,0-5.88,0-5.67,1.93.41,3.87,12.75,1.14,12.75,1.14C18.35,154.79,35,235,80.1,305.94L92.53,387c93.4,22.53,154.9-.4,154.9-.4,6.16-35.34,8.77-65.25,8.71-90.59l-.31-6.55c90.8-25.7,143.16-73.9,143.16-73.9S400.29,213.62,399.1,212.43Z" transform="translate(-3 -18.32)"/><ellipse class="cls-7" cx="175.9" cy="228.39" rx="3.84" ry="6.63" transform="translate(-31.45 6.74) rotate(-7.54)"/><path class="cls-7" d="M230.5,221c.48,3.63-.83,6.8-2.94,7.08s-4.2-2.44-4.68-6.07.83-6.8,2.93-7.07S230,217.39,230.5,221Z" transform="translate(-3 -18.32)"/><path class="cls-7" d="M223.47,242.76c.25,5.84-3.13,15.69-19.31,17.25-16.61,1.6-18.18-14.7-18.18-14.7S207.29,238.69,223.47,242.76Z" transform="translate(-3 -18.32)"/><path class="cls-6" d="M625.5,396.94c-3,6-1.6,29.23-1.6,29.23s-17-15.44-18-3.34,25.65,14.6,25.65,14.6c-.08-8.54,5.61-31.38,5.61-31.38l.19.08-.91-10.4C632,394.44,627,393.83,625.5,396.94Z" transform="translate(-3 -18.32)"/><path class="cls-3" d="M802.72,416.93,644.2,398.7a54.8,54.8,0,0,0-7.73-3l.91,10.4c65.24,27.64,149.19,24.46,149.19,24.46a38.53,38.53,0,0,0-.51,4.53l15.18-2.71Z" transform="translate(-3 -18.32)"/><path class="cls-6" d="M812.25,431.6l-11.33,4.08.31-3.27-15.18,2.71c-.24,4.43.24,10.54,4.72,10.8,7,.41,19.39-6.44,19.39-6.44S807,454,816.28,450.82,812.25,431.6,812.25,431.6Z" transform="translate(-3 -18.32)"/><path class="cls-6" d="M748.39,116.73c1.94-2.14,5,2.29,5,2.29a33.16,33.16,0,0,1,5.27,13.42s7-.3,6.66,3.92-8.19,2-8.19,2C737.25,158,708.53,230,696.25,256.65l-16.82-6.28c25.88-57,60.86-112.77,65.2-117.91,0,0-8.37-7.69-5.58-9.83,1.38-1.07,4,2.64,4.37,3.21l.06.08-.06-.08c-.36-.55-2.65-4.11-1.1-5.35s3.4,1.83,4,2.8a3.48,3.48,0,0,0,.18.3l-.18-.3c-.55-1-2.14-4-.79-4.79,1.5-.92,4.14,2.26,4.5,2.7l0,.05,0-.05C749.69,120.78,747.4,117.82,748.39,116.73Z" transform="translate(-3 -18.32)"/><path class="cls-6" d="M774.13,189.13s-94.26-30-122.87,92.57c9.45,3.8,78.88,30.4,181.26,33.83l1.22.13C839.88,265.71,831.16,211.45,774.13,189.13Z" transform="translate(-3 -18.32)"/><path class="cls-7" d="M821.05,214.3s-2.81-57.93-62.79-57.72c-68,.24-65.17,35.1-69.51-14.53,0,0-73.49,87.1,104.88,91.15,0,0-.55,17.74,2.1,27.87,0,0,12.13-6.06,13.2,2.82s-11.09,6-11.09,6,2.28,31.46,36,45.13C833.82,315,867.93,195.77,821.05,214.3Z" transform="translate(-3 -18.32)"/><path class="cls-7" d="M690.17,268.19s-6.43,15.78,12.16,20.94c28.35,7.87,31.57-11.27,31.57-11.27S711,267.12,690.17,268.19Z" transform="translate(-3 -18.32)"/><path class="cls-7" d="M692.35,250.24c-1.72,4.17-4.47,7-6.15,6.4s-1.63-4.53.09-8.71,4.48-7,6.15-6.4S694.07,246.06,692.35,250.24Z" transform="translate(-3 -18.32)"/><path class="cls-7" d="M752.79,265.57c-1.73,4.17-4.48,7-6.15,6.4s-1.63-4.54.1-8.71,4.48-7,6.15-6.4S754.51,261.4,752.79,265.57Z" transform="translate(-3 -18.32)"/><path class="cls-6" d="M883.89,154.57c.67-.11,5-.93,4.94-2.85-.07-1.75-3.73-1.12-4.9-.88l-.35.08.35-.08c1.12-.26,4.55-1.2,4.29-2.69-.29-1.66-4.57-1.34-5.15-1.29.54,0,4.41-.46,4.59-1.89.37-2.79-5.19-1.93-5.19-1.93a37.88,37.88,0,0,0-14.08,5.43s-4.5-5.06-7.58-2,4,7,4,7C862.89,180.55,820.17,315,820.17,315c-95.59-5-159.85-29.65-168.91-33.29,0,0-13.2,54.34-7.05,117,0,0,63.15,19.85,158.52,18.24,0,0,19.89-38.72,28.47-84.88,0,0,45.59-167.36,46.7-173.84,0,0,11.67.59,11.47-2.79C889.26,153.75,884.6,154.45,883.89,154.57Z" transform="translate(-3 -18.32)"/><path class="cls-10" d="M432.79,33.14a77.55,77.55,0,0,0-81.9-5.8l8.3,59.8Z" transform="translate(-3 -18.32)"/><path class="cls-5" d="M462.58,114.22a77.56,77.56,0,0,0-29.79-81.08l-73.6,54Z" transform="translate(-3 -18.32)"/><path class="cls-5" d="M350.89,27.34a77.67,77.67,0,0,0-39.8,53.49l48.1,6.32Z" transform="translate(-3 -18.32)"/><path class="cls-10" d="M462.58,114.22,359.2,87.15,404,171.64A77.67,77.67,0,0,0,462.58,114.22Z" transform="translate(-3 -18.32)"/><path class="cls-5" d="M330.2,148.51A77.53,77.53,0,0,0,404,171.64L359.2,87.15Z" transform="translate(-3 -18.32)"/><path class="cls-10" d="M311.1,80.83a77.58,77.58,0,0,0,19.11,67.68l29-61.37Z" transform="translate(-3 -18.32)"/></g></svg>