<svg xmlns="http://www.w3.org/2000/svg" viewBox="0 0 489.05 469.54"><defs><style>.cls-1{isolation:isolate;}.cls-2{fill:#8c5b30;}.cls-3{fill:#f0f2ce;}.cls-4{fill:#d96422;}.cls-5{mix-blend-mode:multiply;}.cls-6{fill:#e6e6e6;}.cls-7{fill:#edb150;}.cls-8{fill:#ffbf57;}.cls-9{fill:#c28e3a;}.cls-10{fill:#e1e3c0;}.cls-11{fill:#5c3b1f;}.cls-12{fill:#fcfcf5;}.cls-13{fill:#ffdebf;}.cls-14{fill:#fa8a8a;}</style></defs><title>shell-provisioner</title><g class="cls-1"><g id="Layer_1" data-name="Layer 1"><rect class="cls-2" x="296.88" width="9.8" height="395.66" transform="translate(603.55 395.66) rotate(-180)"/><path class="cls-3" d="M435.26,290.15C373.08,211.84,329,135.13,306.67,60.34V290.15Z"/><path class="cls-3" d="M132.5,354.11C157.68,239.67,214,141.71,296.88,60.34c-13.55,99.92-13.28,197.81,0,293.77Z"/><polygon class="cls-4" points="214.69 60.34 296.88 60.34 296.88 0 214.69 0 242.9 30.99 214.69 60.34"/><g class="cls-5"><path class="cls-6" d="M132.24,354.11h8.64l8.19-8.45c12.49,4.66,26.31,7.14,37.13,8.45h38.53c13.17-7.6,31.29-23.77,10.38-49.29l-.3-.36-.87-1-.63-.72-.7-.78c-.48-.53-1-1.05-1.48-1.59,0,0,37.58-72.47,4.17-76.06,0,0,.64-12.86-16.72-21.75-13.25-6.79-24-2.26-32.05-1.43a590.41,590.41,0,0,0-38.46,89.36l-7,46.56Zm85.85-9.92L228,310.9l.12.15C234,318.59,240.12,332.66,218.09,344.19Z"/></g><path class="cls-7" d="M173,469.54,206.35,396c-3.95-1-7.9-1.82-11.85-2.53h0l-.8-.14-.67-.12h0q-6.41-1.1-12.84-1.72h0l-.87-.08-.62-.05h0q-7.17-.63-14.35-.65h-1.48q-6.18,0-12.36.51h0l-1.48.11h0q-6.53.56-13.07,1.6h0l-.87.15-.6.1h0c-4,.68-8,1.47-12,2.43a1.35,1.35,0,0,0-.91,1.87l32.63,72h-7.47l-40-88.2a4.56,4.56,0,0,0-4.16-2.68H214.22L173,469.54Z"/><path class="cls-8" d="M223.78,379.68a3,3,0,0,0-2.7-4.19h265a3,3,0,0,1,2.7,4.19l-40.71,89.86h-265Z"/><path class="cls-9" d="M223.78,379.68l-40.71,89.86H173l41.17-90.88.09-.21.13-.28a4.57,4.57,0,0,1,4.16-2.68h2.47A3,3,0,0,1,223.78,379.68Z"/><path class="cls-3" d="M206.35,396,173,469.54h-2.19l23.64-76C198.45,394.21,202.4,395,206.35,396Z"/><path class="cls-3" d="M178.7,391.39l-12.51,78.15h-1.84v-78.8Q171.53,390.76,178.7,391.39Z"/><path class="cls-3" d="M122.45,395.64c4-1,8-1.75,12-2.43l22.28,76.33h-2.59l-32.63-72A1.35,1.35,0,0,1,122.45,395.64Z"/><path class="cls-3" d="M193,393.25l-23.71,76.29h-1.61l12.49-78Q186.61,392.15,193,393.25Z"/><path class="cls-3" d="M149,391.36l10.93,78.18H158.3L135.95,393Q142.49,391.91,149,391.36Z"/><path class="cls-3" d="M162.86,390.73v78.8h-1.42L150.5,391.24Q156.69,390.77,162.86,390.73Z"/><path class="cls-9" d="M106.73,381.33l40,88.2h-10L97.4,382.85a3,3,0,0,1,2.7-4.19h2.47A4.56,4.56,0,0,1,106.73,381.33Z"/><path class="cls-10" d="M163.66,390.73h-.8v78.8h1.48v-78.8h0c4.79,0,9.57.25,14.35.67l-12.51,78.15h1.5l12.49-78h0c4.28.41,8.56,1,12.84,1.73h0l-23.71,76.29h1.56l23.64-76c4,.71,7.9,1.54,11.85,2.53l2.41-5.31h-45.1Zm16.34.77.17,0Z"/><path class="cls-10" d="M135.07,393.11l.87-.15h0l22.35,76.57h-1.54l-22.28-76.33h0Z"/><path class="cls-10" d="M149,391.35l1.48-.11h0l10.94,78.29h-1.5L149,391.36Z"/><path class="cls-10" d="M163.61,390.71h0Z"/><path class="cls-11" d="M208.44,347.07l-5.18,20.73,1.57,24.84s-29.7,1.92-19.11-8c8.22-7.71,15.32,3.62,15.32,3.62l-5.22-23.77.91-12.14s-33.12-.5-60.33-10.66l-12.2,12.59,4.57,23.34s-31,4.24-21.39-6.56c6.44-7.25,16.75,2.62,16.75,2.62l-7.32-20,11-21.28Z"/><path class="cls-12" d="M136.26,276.21l-8.41,56.19s32.52,12.33,80.6,14.67l16.07-54S169.25,293.22,136.26,276.21Z"/><path class="cls-13" d="M136.26,276.21s6.47-98.43,75.53-54.87c0,0,20.37,23.41,12.73,71.68C155.66,294.38,136.26,276.21,136.26,276.21Z"/><path class="cls-11" d="M161,169.32S112.63,223,210.31,234.18l-2.29,21s9.25-6.72,10.21,2.24-9.21,4.3-9.21,4.3,5.76,23.87,15.5,31.34c0,0,40.35-77.81,4.48-81.67,0,0,.68-13.81-17.95-23.36C184.46,174.38,167.18,203.16,161,169.32Z"/><path class="cls-11" d="M156.8,242.12c-1,3.27-3,5.55-4.58,5.1s-2-3.48-1.05-6.76,3-5.55,4.58-5.1S157.77,238.84,156.8,242.12Z"/><path class="cls-11" d="M195.93,255.25c-1,3.27-3,5.56-4.58,5.1s-2-3.49-1-6.76,3-5.56,4.58-5.1S196.91,252,195.93,255.25Z"/><path class="cls-14" d="M155.35,262.07s16.53,2.62,26,7.76c0,0-1.66,13.56-16.93,9.47C149.26,275.24,155.35,262.07,155.35,262.07Z"/><g class="cls-5"><path class="cls-6" d="M149.53,290l-2.62,3.18,1.83,4.72s-1.32,27.74,31.91,32.76l9.3-8-8.21-8.15c-27.54,2.21-27.83-15.13-27.83-15.13l4-3.8-1.06-3.24Z"/></g><path class="cls-11" d="M149.53,290l-2.62,3.18,1.83,4.72s-1.29,25.23,31.93,30.25l9.3-8L181.76,312c-27.54,2.21-27.85-12.62-27.85-12.62l4-3.8-1.06-3.24Z"/><path class="cls-13" d="M101.56,228.64c1.14.42,1.14,1.83,1,2.7.21-.87.77-2.32,2.22-1.94,1.67.44,1.44,2.63,1.3,3.39h0c.21-.7.91-2.53,2.31-2.14s1,2.35.84,3.09c.25-.8,1-2.85,2.72-2.31,1.25.4.15,3.18.15,3.18-18.94,48.47,24.1,41.57,24.1,41.57l-1.54,10.32c-56.66,2.1-37-50.38-35.09-55.44C99.62,231.09,100.29,228.18,101.56,228.64Z"/><path class="cls-12" d="M136.26,276.21l-1.54,10.32a79,79,0,0,1-8.09-.1l1.66-10A39.1,39.1,0,0,0,136.26,276.21Z"/><path class="cls-13" d="M203.35,356.28c-.44-1.13.61-2.07,1.33-2.56-.78.42-2.24,1-2.92-.37-.78-1.54,1-2.82,1.67-3.23v0c-.66.31-2.49,1-3.13-.3s1.06-2.33,1.75-2.69c-.76.35-2.82,1.11-3.53-.49-.53-1.2,2.28-2.23,2.28-2.23,48.79-18.11,15-45.65,15-45.65l8.73-5.71c39.26,40.9-13,61.12-18,63.08C206.47,356.1,203.85,357.54,203.35,356.28Z"/><path class="cls-12" d="M215.78,298.73l8.73-5.71a79,79,0,0,1,5.31,6.11l-8.56,5.4A39.1,39.1,0,0,0,215.78,298.73Z"/><path class="cls-2" d="M120.09,224.67l6.3,2.44s2.31,2.41.58,9.31-4.6,7.57-4.6,7.57l-6-.54Z"/><path class="cls-8" d="M113.79,232.31s2.57-8.61,6.3-7.64,4.08,5,3.36,8.61c-.91,4.65-2.64,11.11-7.06,10.17S113.79,232.31,113.79,232.31Z"/><path class="cls-2" d="M96.72,219.57l23,9.43c1.39,2.59-.78,10-2.77,10.13L92.75,234Z"/><path class="cls-8" d="M75.17,200.2l29.42,12.17s3.35,17.9-9,31.67l-28.67-5.36Z"/><path class="cls-2" d="M42.49,173.17l36.74,17.27C89.72,205.7,78,243.33,62.67,249.36l-40.44-5Z"/><ellipse class="cls-8" cx="29.34" cy="207.84" rx="37.23" ry="28.73" transform="translate(-179.25 184.45) rotate(-75.57)"/><ellipse class="cls-12" cx="29.34" cy="207.84" rx="33.36" ry="25.74" transform="translate(-179.25 184.45) rotate(-75.57)"/><g class="cls-5"><path class="cls-6" d="M4.41,201.42C9,183.58,23.89,172,37.66,175.53c.59.15,1.17.34,1.74.54-13-1.52-26.27,9.7-30.57,26.39-4.39,17.07,2.23,33.68,14.88,38.18a20.13,20.13,0,0,1-2.68-.5C7.26,236.6-.18,219.26,4.41,201.42Z"/></g></g></g></svg>