<svg xmlns="http://www.w3.org/2000/svg" viewBox="0 0 497.46 368.34"><defs><style>.cls-1{isolation:isolate;}.cls-2{fill:#fddbbb;}.cls-3{fill:#f5f5f5;}.cls-4{fill:#333;}.cls-5{fill:gray;}.cls-6{fill:#754c24;}.cls-7{fill:#eb7d86;}.cls-16,.cls-8{mix-blend-mode:multiply;}.cls-9{fill:#e6e7e8;}.cls-10,.cls-16{fill:#e6e6e6;}.cls-11{fill:#eaeaea;}.cls-12{fill:#534741;}.cls-13{fill:#fddcbe;}.cls-14{fill:#533e29;}.cls-15{fill:none;}</style></defs><title>team</title><g class="cls-1"><g id="Layer_1" data-name="Layer 1"><path class="cls-2" d="M125.3,48.44s-2.36-6.31,2.6-7.07,3.43,5.86,3.43,5.86Z"/><polygon class="cls-3" points="131.85 48.6 131.67 47.04 124.71 47.58 124.87 49.2 131.85 48.6"/><path class="cls-4" d="M158.2,75.67s-32.12,10.7-33.63-27.14l7.77-.73s-1.54,26.54,20.47,22.7Z"/><circle class="cls-5" cx="126.76" cy="54.91" r="0.71" transform="translate(62.29 177.09) rotate(-85.6)"/><circle class="cls-5" cx="126.52" cy="52.42" r="0.72" transform="translate(64.62 174.58) rotate(-85.63)"/><circle class="cls-5" cx="126.28" cy="50" r="0.71" transform="translate(66.85 172.12) rotate(-85.65)"/><path class="cls-2" d="M140.86,38.23c1.62,15.14,13.39,26.29,27,24.84s24-15,22.33-30.12-14-26.23-27.61-24.77C139,10.71,139.24,23.09,140.86,38.23Z"/><path class="cls-6" d="M177.48,20.29a168.22,168.22,0,0,1-39.8,9.33C135.2,7.05,152-4.2,175,1.44c26.51,6.5,17,41.38,11.76,50.06A58.35,58.35,0,0,1,180,36.13s5.17,1.85,4.17-3.75c-.69-3.85-5.13-.84-5.13-.84Z"/><path class="cls-6" d="M175.2,14.58S186.48-3.86,200.63,4c18.74,10.44-5.2,35.56,18.7,39.82-12.37,11.47-29.1,1.55-24.44-14C201.65,7.31,181.78,9.71,175.2,14.58Z"/><path class="cls-4" d="M167.62,35.52c.38,2.23,1.36,3.31,2.3,3.15s1.5-1.51,1.11-3.74-1.36-3.31-2.3-3.15S167.23,33.29,167.62,35.52Z"/><path class="cls-4" d="M145.67,38.5c.38,2.23,1.36,3.31,2.3,3.15s1.5-1.51,1.11-3.74-1.36-3.31-2.3-3.15S145.29,36.27,145.67,38.5Z"/><path class="cls-7" d="M167.57,48.82a6.19,6.19,0,1,1-12.31,1.32Z"/><polygon class="cls-2" points="174.51 57.44 174.56 67.01 169.48 78.62 164.28 67.06 164.23 57.49 174.51 57.44"/><polygon class="cls-4" points="174.56 67.01 186.91 70.88 184.85 97.97 189.27 111.46 151.26 111.66 155.06 98.12 152.82 70.49 164.28 67.06 169.48 78.62 174.56 67.01"/><polygon class="cls-3" points="164.28 67.06 162.04 67.73 169.5 83.48 176.84 67.72 174.56 67.01 169.48 78.62 164.28 67.06"/><polygon class="cls-3" points="174.56 67.01 176.84 67.72 177.77 76.15 174.6 74.63 170.96 75.25 174.56 67.01"/><polygon class="cls-3" points="164.28 67.06 162.04 67.73 161.16 76.24 164.32 74.68 167.97 75.26 164.28 67.06"/><circle class="cls-5" cx="169.53" cy="87.76" r="1.49" transform="translate(-0.46 0.9) rotate(-0.3)"/><circle class="cls-5" cx="169.57" cy="96.72" r="1.49" transform="translate(-0.5 0.89) rotate(-0.3)"/><circle class="cls-5" cx="169.62" cy="105.69" r="1.49" transform="matrix(1, -0.01, 0.01, 1, -0.55, 0.89)"/><path class="cls-2" d="M221,82.52s6.26-2.49,3.49-6.67-6.64,1.39-6.64,1.39Z"/><polygon class="cls-3" points="216.68 77.71 217.94 76.72 221.25 82.73 219.76 83.33 216.68 77.71"/><path class="cls-4" d="M179.72,69.79s8.05,32.88,40.88,14l-3.52-7S196.85,93,186.91,70.88Z"/><circle class="cls-5" cx="214.03" cy="85.35" r="0.71" transform="translate(-8.7 144.36) rotate(-36.58)"/><circle class="cls-5" cx="216.27" cy="84.22" r="0.72" transform="translate(-7.61 145.41) rotate(-36.56)"/><circle class="cls-5" cx="218.45" cy="83.14" r="0.71" transform="translate(-6.57 146.38) rotate(-36.53)"/><path class="cls-2" d="M168.4,115.38,157,140.88l-6.06,25.56s-9.65,5.07-11.64,1.33c-2.29-4.3,7.49-5,7.49-5l3.58-24,6.23-22.58Z"/><path class="cls-4" d="M150.92,166.44l-2.17,6.66-1.17-.38.39-3.39s-3.56,2.64-9.08.84c-8.66-2.82,2.43-7.43,7.88-7.39,0,0-7,.47-5.57,3.16C143.51,170.17,150.92,166.44,150.92,166.44Z"/><path class="cls-2" d="M184.87,113.91l-4.18,21.93L200,148.08s3.86,10.19-.09,11.71c-4.54,1.75-4-8-4-8l-22.17-10.51,0-23.43Z"/><path class="cls-4" d="M200,148.08l6.35,3-.52,1.12-3.32-.8s2.19,3.85-.27,9.11c-3.84,8.25-7.08-3.31-6.38-8.72,0,0-.39,7,2.47,5.91C202.83,155.88,200,148.08,200,148.08Z"/><polygon class="cls-4" points="150.2 123.79 188.74 125.69 186.06 111.48 153.79 111.65 150.2 123.79"/><g class="cls-8"><polygon class="cls-9" points="186.06 111.48 186.89 115.53 153.39 112.88 153.79 111.65 186.06 111.48"/></g><path class="cls-2" d="M68.72,310.91l-7.41,23.53-4.41,21.87s-9.16,5.83-11.44,2.28c-2.62-4.07,7-5.57,7-5.57L55.19,333l4.35-24Z"/><path class="cls-2" d="M85.67,308.06l1.05,24.12,10.7,18.28s-2.23,10.62-6.36,9.78c-4.75-1,.92-8.91.92-8.91L80.46,335.57l-5.12-26.23Z"/><polygon class="cls-4" points="53.08 319.29 91.44 321.64 88.94 307.45 56.8 307.24 53.08 319.29"/><g class="cls-8"><polygon class="cls-10" points="88.94 307.45 89.72 311.49 56.38 308.46 56.8 307.24 88.94 307.45"/></g><path class="cls-4" d="M56.91,356.31l-1.6,6.79-1.2-.28.11-3.4s-3.31,2.91-8.94,1.59c-8.82-2.08,1.79-7.57,7.21-8,0,0-6.95,1-5.26,3.6C49.86,360.62,56.91,356.31,56.91,356.31Z"/><path class="cls-4" d="M97.42,350.46l3.74,5.89-1,.66-2.36-2.45s-.23,4.4-5.11,7.5C85,366.93,88.5,355.5,92,351.33c0,0-4.11,5.7-1.1,6.28C95.59,358.52,97.42,350.46,97.42,350.46Z"/><polygon class="cls-2" points="78.07 253.5 78 263.03 72.81 274.54 67.77 262.96 67.83 253.43 78.07 253.5"/><polygon class="cls-11" points="78 263.03 90.26 267.04 87.89 293.98 90.29 307.84 54.28 307.59 58.22 293.79 56.32 266.98 67.77 262.96 72.81 274.54 78 263.03"/><polygon class="cls-4" points="67.77 262.96 65.59 263.73 72.78 279.37 80.27 263.77 78 263.03 72.81 274.54 67.77 262.96"/><polygon class="cls-4" points="78 263.03 80.27 263.77 81.1 272.18 77.95 270.62 74.32 271.19 78 263.03"/><polygon class="cls-4" points="67.77 262.96 65.59 263.73 64.56 272.07 67.72 270.56 71.35 271.18 67.77 262.96"/><path class="cls-2" d="M122.32,245s1.56-8.4-3.7-8.73-3.05,7.16-3.05,7.16Z"/><path class="cls-11" d="M84.08,271.57c2,.88,33.58,13.77,38.75-27l-8.07-1.47s.38,29.67-24.5,23.93Z"/><path class="cls-2" d="M24.72,245.31s-2-8.72,3.23-9.06S31,244,31,244Z"/><path class="cls-11" d="M62.5,271.51c-2,.88-33.58,13.77-38.75-27L31.82,243s-.38,29.67,24.5,23.93Z"/><path class="cls-12" d="M66.85,251.06s-7,6.46-23.84-3.11c0,0,8.36-3.8,15.3-18.26l19.05-.7S87.13,228.8,66.85,251.06Z"/><path class="cls-2" d="M50.24,224.61c-2.89,16.5,2.87,30.66,16.51,32.6,14,2,25.94-5.3,29.85-20.09s-2.26-29.45-15.57-33C57.92,198,53.43,206.42,50.24,224.61Z"/><path class="cls-12" d="M88.54,223.69s-21.46,1.11-39.17-6.55c7.06-22.41,29.26-23.79,44.54-15.22,26.19,14.68,10.77,71.61-19.4,57.88,12-8.22,12.8-23.19,12.8-23.19s4.19,3.59,5.26-2c.73-3.86-4.52-2.62-4.52-2.62Z"/><path class="cls-7" d="M72.21,245.61A5.63,5.63,0,1,1,61.07,244Z"/><ellipse class="cls-12" cx="76.07" cy="232.93" rx="3.74" ry="1.77" transform="translate(-165.82 272.05) rotate(-81.1)"/><ellipse class="cls-12" cx="56.86" cy="230.03" rx="3.74" ry="1.77" transform="matrix(0.15, -0.99, 0.99, 0.15, -179.19, 250.62)"/><path class="cls-13" d="M19.91,106.74S25.35,33.41,77,60.31c0,0,9.23,18.44,6.63,53.19C40,118.59,19.91,106.74,19.91,106.74Z"/><path class="cls-14" d="M22.92,71.37c7.4-5,21.64-4.65,21.64-4.65s-4.63,2.94-6.14,5.44c8.74-2.06,28.22-1,38.37,4.56L74.37,88.95s7.22-3.74,6.76,2.67-6.94,2-6.94,2,2.07,15.13,9.43,19.87c-.31.49,26.74-43.69,6.71-45.34,0,0,4-13.08-10.52-22.21-12.37-7.77-43.47-7.84-55.69,14.22a36.77,36.77,0,0,1,7.79-1.69S25.22,64.38,22.92,71.37Z"/><ellipse class="cls-14" cx="57.93" cy="88.14" rx="3.61" ry="2.09" transform="translate(-39.93 127.49) rotate(-78.59)"/><ellipse class="cls-14" cx="31.96" cy="82.4" rx="3.61" ry="2.09" transform="matrix(0.2, -0.98, 0.98, 0.2, -55.13, 97.43)"/><path class="cls-13" d="M95,74.44h0Z"/><path class="cls-13" d="M94.54,76.44h0Z"/><path class="cls-14" d="M75.13,152.58,73,168.39l1.33,17s-22.67,6.13-17-2.81c5.28-8.26,13.51-1.4,13.51-1.4l-3.24-13.55-.54-10.67s-23.45,1.42-43.23-4.31l-.66,12.54L26.71,183S5.24,190,11,180.24c3.22-5.41,11.14-2,11.14-2L18,165.14l-.63-18.62Z"/><path class="cls-11" d="M19.91,106.74l-2.56,39.78s23.66,7,57.79,6.07l8.48-39.08S44.15,117,19.91,106.74Z"/><g class="cls-8"><polygon class="cls-10" points="33.62 113.99 32.26 116.11 33.71 118.83 30.49 141.83 36.4 147.42 42.17 142.33 36.94 119.36 39.1 116.77 38.22 114.88 33.62 113.99"/></g><polygon class="cls-14" points="33.62 113.99 32.26 116.11 33.71 118.83 29.14 141.32 35.06 146.92 40.83 141.83 36.94 119.36 39.1 116.77 38.22 114.88 33.62 113.99"/><g class="cls-8"><path class="cls-10" d="M22.92,148.93a1,1,0,0,1-1.23.15,1,1,0,0,1,0,1.17,1,1,0,0,1-1.11.19.89.89,0,0,1,0,1.05,1,1,0,0,1-1.23.15,1,1,0,0,1,0,1.17c-.6.67-1.4.17-2.06-.33v-6h0l.24-3.71c1.46,1.43,2.89,2.68,4.12,3.67C22,146.69,23.61,148.17,22.92,148.93Z"/></g><path class="cls-13" d="M19.91,106.74l-.49,7.54c-23.2,6.61-6.38,24.67,1.86,31.28.27.22,1.91,1.69,1.22,2.45a1,1,0,0,1-1.23.15,1,1,0,0,1,0,1.17,1,1,0,0,1-1.11.19.89.89,0,0,1,0,1.05,1,1,0,0,1-1.23.15,1,1,0,0,1,0,1.17c-.64.71-1.51.1-2.19-.43C-2.06,136.73-10.05,114,19.91,106.74Z"/><path class="cls-3" d="M19.91,106.74l-.49,7.54a26.94,26.94,0,0,0-6.16,2.5l-3.12-6.5A42.24,42.24,0,0,1,19.91,106.74Z"/><path class="cls-10" d="M19.42,114.27q-.91.26-1.74.54l2.22-8.08Z"/><path class="cls-15" d="M96.13,73h0Z"/><path class="cls-15" d="M95.63,75h0Z"/><path class="cls-7" d="M34.14,94.95S46,95.7,53,98.7c0,0-.27,9.67-11.31,7.8S34.14,94.95,34.14,94.95Z"/><path class="cls-13" d="M83.55,113.61,82,121c20.54,12.65-.53,25.47-10.26,29.6-.32.14-2.29,1.11-1.83,2a1,1,0,0,0,1.14.48,1,1,0,0,0-.35,1.11,1,1,0,0,0,1,.49.89.89,0,0,0-.26,1,1,1,0,0,0,1.14.48,1,1,0,0,0-.35,1.11c.43.86,1.42.5,2.22.17C96.57,148.43,110.43,128.7,83.55,113.61Z"/><path class="cls-3" d="M83.55,113.61,82,121a26.94,26.94,0,0,1,5.25,4.08L92,119.66A42.25,42.25,0,0,0,83.55,113.61Z"/><path class="cls-3" d="M177.65,294.19l7-1.3s-.83-2.77-2-8.08l-6.71,1.43C176.42,288.77,177,291.41,177.65,294.19Z"/><path class="cls-13" d="M182.58,284.81c-2-8.9-5.54-34-7.33-56.1,0,0-.3-1.87-1.12-1.69-1.09.25-.86,1.63-.74,2.14-.14-.47-.58-1.65-1.47-1.41s-.68,1.47-.57,1.92h0c-.17-.46-.76-1.73-1.81-1.43-.79.23-.78,1-.65,1.55a2.11,2.11,0,0,1,.06.23c0-.07,0-.15-.06-.23-.18-.53-.59-1.09-1.25-1s-.39,2-.39,2c.56,3.11,2.16,25.84,8.62,55.4Z"/><g class="cls-8"><path class="cls-10" d="M182.58,284.81c-.67-3-1.51-7.77-2.4-13.65-1.1,2.76-3.12,8-4.7,13.26l.39,1.82c.55,2.54,1.14,5.17,1.78,7.95l7-1.3S183.77,290.11,182.58,284.81Z"/></g><path class="cls-13" d="M178.07,287.47s5.46-73.49,57.2-46.53c0,0,9.25,18.48,6.64,53.31C198.26,299.34,178.07,287.47,178.07,287.47Z"/><path class="cls-14" d="M179.54,253.61s17.05-6.23,54.74,4.57l-1.63,13s7.24-3,6.78,3.47-7,1.23-7,1.23,2.07,13.57,9.45,18.32c-.31.49,26.81-43.8,6.73-45.45,0,0,4.21-14.25-10.55-23.06C222.52,216.44,192.52,213.83,179.54,253.61Z"/><ellipse class="cls-14" cx="188.84" cy="262.44" rx="3.64" ry="2.11" transform="translate(-113.19 377.82) rotate(-75.17)"/><ellipse class="cls-14" cx="214.98" cy="268.81" rx="3.64" ry="2.11" transform="translate(-99.9 407.83) rotate(-75.17)"/><path class="cls-13" d="M253.37,255.1h0Z"/><path class="cls-13" d="M252.87,257.1h0Z"/><path class="cls-14" d="M233.42,333.42l-2.12,15.84,1.33,17s-22.72,6.15-17-2.82c5.29-8.28,13.54-1.4,13.54-1.4l-3.24-13.58-.54-10.7s-23.5,1.42-43.33-4.32L181.4,346l3.49,17.83s-21.53,7.06-15.7-2.72c3.23-5.42,11.16-2,11.16-2L176.13,346l-.63-18.66Z"/><path class="cls-11" d="M178.07,287.47l-2.57,39.87s23.71,7,57.92,6.08l8.5-39.17S202.37,297.76,178.07,287.47Z"/><g class="cls-8"><polygon class="cls-10" points="191.81 294.73 190.45 296.86 191.9 299.59 188.68 322.64 194.6 328.24 200.38 323.14 195.14 300.12 197.3 297.52 196.42 295.63 191.81 294.73"/></g><polygon class="cls-14" points="191.81 294.73 190.45 296.86 191.9 299.59 187.33 322.13 193.25 327.74 199.03 322.64 195.14 300.12 197.3 297.52 196.42 295.63 191.81 294.73"/><path class="cls-15" d="M254.47,253.61h0Z"/><path class="cls-15" d="M254,255.6h0Z"/><path class="cls-7" d="M190.76,275s11.84,1,18.78,4.15c0,0-.47,9.69-11.5,7.58S190.76,275,190.76,275Z"/><path class="cls-3" d="M240.08,302.87l-5.61-4.31s2-2.1,5.46-6.29l5.33,4.31C243.62,298.6,241.9,300.68,240.08,302.87Z"/><path class="cls-13" d="M239.93,292.28c5.82-7,19.78-26.52,31.37-45.37,0,0,1.12-1.53,1.76-1,.86.71,0,1.84-.31,2.24.34-.36,1.27-1.21,1.95-.6s-.06,1.62-.36,2h0c.36-.33,1.46-1.2,2.26-.45.61.56.24,1.24-.12,1.67l-.16.18.16-.18a1.18,1.18,0,0,1,1.55-.3c.57.49-.57,2-.57,2-1.91,2.52-13.05,20.73-32.19,44.16Z"/><path class="cls-3" d="M282.82,151.36l3.94-5.87s-2.56-1.35-7.19-4.21l-3.68,5.79C278.1,148.45,280.39,149.87,282.82,151.36Z"/><path class="cls-13" d="M279.58,141.28c-7.76-4.81-26-19.21-39.32-36.89,0,0-4.16-5.76-4.83-5.27-1.66,1.22,3.13,6.27,3.51,6.64-.37-.32-1.37-1.09-2-.41s.21,1.6.55,1.92h0c-.39-.3-1.57-1.06-2.3-.24-.55.62-.12,1.25.28,1.65l.18.16-.18-.16a1.18,1.18,0,0,0-1.57-.15c-.53.54.75,1.92.75,1.92a167.83,167.83,0,0,0,41.26,36.6Z"/><g class="cls-8"><path class="cls-10" d="M279.58,141.28l-3.68,5.79c-4.29-2.69-8.23-5.45-11.85-8.17l2.31-7.46A125.38,125.38,0,0,0,279.58,141.28Z"/></g><path class="cls-13" d="M267.59,135.4s7.76-88.65,60-51.51c0,0,16.7,13.27,8.63,57C289.57,147.56,267.59,135.4,267.59,135.4Z"/><path class="cls-14" d="M325.89,116.63,327,101.69a208.45,208.45,0,0,1-50.7-13.46c7.66-23.85,29.92-26.07,42-22.72,15.36,3.94,22.55,16,23.73,19.7a7.06,7.06,0,0,0,1.64-3.27c1.93,2.89.55,5.05.55,5.05a4.64,4.64,0,0,1,3.79,3.34,5.58,5.58,0,0,0-2.73-.36c15.22,8.76-9.09,50.95-9.09,50.95-6.25-4.69-9.88-20.11-9.88-20.11s6.35,3.23,6-2.48S325.89,116.63,325.89,116.63Z"/><path class="cls-13" d="M347.42,98.57h0Z"/><path class="cls-13" d="M346.94,100.73h0Z"/><path class="cls-14" d="M328.23,183.11l.21,15.09,8.08,15.27s-21.59,13.43-19.36,3,14.1-5.5,14.1-5.5l-8.7-11.61L319.76,188s-26.84,1.48-48.26-4.12l-7,8-8.24,18.91s-23.16-7.37-12-12.22c6.21-2.69,11,5.25,11,5.25l4.65-15.26L266,178.22Z"/><path class="cls-11" d="M267.59,135.4,266,178.22s25.62,6.83,62.27,4.89l8-42.19S293.94,145.75,267.59,135.4Z"/><g class="cls-8"><polygon class="cls-10" points="282.53 142.81 281.13 145.12 282.76 148.01 279.96 172.81 286.47 178.65 292.52 173.02 286.26 148.49 288.5 145.64 287.5 143.64 282.53 142.81"/></g><polygon class="cls-14" points="282.53 142.81 281.13 145.12 282.76 148.01 278.5 172.31 285.01 178.15 291.06 172.52 286.26 148.49 288.5 145.64 287.5 143.64 282.53 142.81"/><path class="cls-15" d="M348.55,96.94h0Z"/><path class="cls-15" d="M348.07,99.1h0Z"/><path class="cls-7" d="M283.12,119.91s12.47,1.25,19.73,4.69c0,0-.63,11-12.22,8.61S283.12,119.91,283.12,119.91Z"/><path class="cls-14" d="M282.63,106.66c-.64,2.15-2,3.64-3,3.34s-1.33-2.29-.68-4.44,2-3.64,3-3.34S283.27,104.52,282.63,106.66Z"/><path class="cls-14" d="M311.82,115.42c-.64,2.15-2,3.64-3,3.34s-1.32-2.29-.68-4.44,2-3.64,3-3.34S312.47,113.27,311.82,115.42Z"/><path class="cls-16" d="M320.66,151.89c3.23-4.37,4.78-6.82,4.78-6.82l5.53,4.41c-1.68,2.3-3.29,4.47-4.85,6.55a167.62,167.62,0,0,1-30.87,31.56c-3.81-.29-7.81-.71-11.83-1.31C300.93,174.59,315.5,158.87,320.66,151.89Z"/><path class="cls-3" d="M331,149.48l-5.21-4.79s-1.72,2.33-5.25,6.47l5.17,4.51C327.37,153.7,329.13,151.65,331,149.48Z"/><path class="cls-13" d="M320.51,151.16c-5.93,6.94-22.92,22.8-42.42,33.28,0,0-1.6,1-1.1,1.7.66.9,1.83.14,2.26-.18-.38.32-1.28,1.19-.71,1.91s1.62,0,2-.25h0c-.35.34-1.28,1.39-.59,2.23.53.64,1.22.31,1.68,0l.19-.15-.19.15a1.18,1.18,0,0,0-.39,1.53c.45.6,2-.45,2-.45a167.83,167.83,0,0,0,42.43-35.24Z"/><path class="cls-13" d="M331.88,273.46c.16.81,1.1.94,1.73.83-.61,0-1.65.28-1.54,1.3.12,1.18,1.63,1.25,2.16,1.24h0c-.5.07-1.81.35-1.69,1.34s1.48.95,2,.9c-.57.08-2,.41-1.85,1.6.14.89,2.14.44,2.14.44,36.38-11.29,55-11.89,55-11.89l-3-8.49c-38.37,6.05-49.44,10.78-53.06,11.53C333.75,272.25,331.76,272.66,331.88,273.46Z"/><path class="cls-13" d="M485.78,213.65c-.78.28-.8,1.25-.72,1.84-.14-.59-.51-1.59-1.51-1.34-1.15.29-1,1.79-.91,2.32h0c-.14-.48-.6-1.74-1.57-1.48s-.72,1.6-.6,2.11c-.17-.55-.7-2-1.85-1.6-.86.27-.12,2.18-.12,2.18,16.43,34.37-12,27.2-12,27.2l1.25,8.93c38.81,1.79,20.57-35,19.31-38.48C487.09,215.33,486.65,213.33,485.78,213.65Z"/><path class="cls-3" d="M466.53,244.89l1.25,8.93c1.58.07,3.06.08,4.46,0l-.35-8.33A25.1,25.1,0,0,1,466.53,244.89Z"/><path class="cls-14" d="M497.21,300.08c-2.45-8.05-10.92,4.85-10.92,4.85s2.37-10.79-.43-14.42c-2.68-3.47-9.29,1.26-11,2.45l-71.9,15.81,2.81,11.53-8.28-1s-6,12.76.38,13.59,2.15-8.55,2.15-8.55,6.12,3.39,10.55,2.1c3.45-1,.71-11,.23-14.05,47.24-2.89,69.27-15.68,69.92-16.18,0,0,1.18,11.62,2.43,17.42C483.12,313.65,499.66,308.13,497.21,300.08Z"/><g class="cls-8"><path class="cls-3" d="M466.53,244.89l1.25,8.93c.88,0,1.72.06,2.54.06l-3.55-8.93Z"/></g><path class="cls-13" d="M466.52,244.3s-7-86.92-69-46.53c0,0-18.33,19.34-10.75,63C454.54,261.83,466.52,244.3,466.52,244.3Z"/><path class="cls-14" d="M444.67,155s44.5,48.38-45.59,54.36l2.17,16.81s-8.47-6-9.21,2.17,8.4,3.77,8.4,3.77-4.9,21.69-13.62,28.6c0,0-37.41-67.78-5-71.77,0,0-.81-12.5,15.94-21.4C421.67,154.87,439.54,185.75,444.67,155Z"/><path class="cls-14" d="M448.82,217.3c.61,2.57,2.09,4.42,3.31,4.13s1.72-2.6,1.11-5.16-2.09-4.42-3.31-4.13S448.21,214.73,448.82,217.3Z"/><path class="cls-14" d="M414.79,226.58c.61,2.57,2.08,4.42,3.31,4.13s1.71-2.6,1.11-5.17-2.08-4.42-3.3-4.13S414.18,224,414.79,226.58Z"/><path class="cls-11" d="M466.52,244.3l8.3,48.66s-28.74,12.22-71.9,15.81l-16.11-48S441.44,258.38,466.52,244.3Z"/><path class="cls-7" d="M447.63,229.9s-15,2.3-23.55,6.91c0,0,1.44,12.29,15.3,8.65S447.63,229.9,447.63,229.9Z"/><path class="cls-13" d="M333.35,274.32l.26,0Z"/><path class="cls-3" d="M386.81,260.73l-5.77.94,2.17,8.19c4.4-.56,6.63-.63,6.63-.63Z"/><g class="cls-8"><path class="cls-10" d="M453.3,255.43l2.44,3L454,262.9s1,26.19-30.36,30.66l-8.71-7.61,7.81-7.63c26,2.3,26.38-14.06,26.38-14.06l-3.75-3.62,1-3.05Z"/></g><path class="cls-14" d="M453.3,255.43l2.44,3L454,262.9s1,23.82-30.36,28.29l-8.71-7.61,7.81-7.63c26,2.3,26.38-11.69,26.38-11.69l-3.75-3.62,1-3.05Z"/></g></g></svg>