<?xml version="1.0" encoding="utf-8"?>
<!-- Generator: Adobe Illustrator 21.1.0, SVG Export Plug-In . SVG Version: 6.00 Build 0)  -->
<svg version="1.1" id="Layer_1" xmlns="http://www.w3.org/2000/svg" xmlns:xlink="http://www.w3.org/1999/xlink" x="0px" y="0px"
	 viewBox="0 0 94.7 104.9" style="enable-background:new 0 0 94.7 104.9;" xml:space="preserve">
<style type="text/css">
	.st0{fill:#1159CC;}
	.st1{fill:#127EFF;}
</style>
<title>Asset 1</title>
<path d="M14.3,77.4h4.1l-6.3,21H6.3L0,77.4h4.1l5.1,17.5L14.3,77.4z"/>
<path d="M29.9,98.4h-3.1l-0.3-1c-1.4,0.9-2.9,1.4-4.6,1.3c-2.8,0-4-1.9-4-4.6c0-3.1,1.4-4.3,4.5-4.3H26v-1.6c0-1.7-0.5-2.3-2.9-2.3
	c-1.4,0-2.9,0.2-4.3,0.5l-0.5-2.9c1.7-0.5,3.5-0.7,5.3-0.7c4.8,0,6.2,1.7,6.2,5.5V98.4z M26,92.6h-2.8c-1.3,0-1.6,0.3-1.6,1.5
	s0.4,1.5,1.5,1.5c1,0,2-0.3,2.9-0.8L26,92.6z"/>
<path d="M37.2,94.3c-0.5,0.2-0.8,0.7-0.9,1.2c0,0.4,0.3,0.6,0.8,0.7l4.4,0.5c2.5,0.3,3.3,1.5,3.3,3.7c0,3.3-1.2,4.6-6.9,4.6
	c-2,0-4-0.3-5.9-0.8l0.5-2.9c1.7,0.4,3.4,0.7,5.2,0.7c3,0,3.7-0.2,3.7-1.2s-0.3-1.1-1.5-1.2c-1.8-0.2-2.5-0.3-4.4-0.5
	c-2.2-0.3-3-1-3-2.9c0.1-1.1,0.7-2.1,1.6-2.6c-1.4-0.9-2.2-2.5-2.1-4.1v-1.4c0.1-3.2,1.7-5.1,6.2-5.1c0.9,0,1.8,0.1,2.6,0.3h4.7V85
	l-1.7,0.5c0.4,0.7,0.6,1.6,0.5,2.4v1.4c0,3.1-1.9,5-6.2,5C37.8,94.3,37.5,94.3,37.2,94.3z M38.1,85.8c-1.9,0-2.5,0.7-2.5,2.1v1.2
	c0,1.5,0.8,2.1,2.5,2.1s2.6-0.6,2.6-2.1V88C40.7,86.5,40,85.8,38.1,85.8z"/>
<path d="M55,86.3c-1.4,0.6-2.7,1.4-4,2.2v9.9h-3.9V83.1h3.2l0.3,1.7c1.2-0.8,2.6-1.5,4-2L55,86.3z"/>
<path d="M67.9,98.4h-3.2l-0.3-1c-1.4,0.9-2.9,1.4-4.6,1.3c-2.8,0-4-1.9-4-4.6c0-3.1,1.3-4.3,4.5-4.3H64v-1.6c0-1.7-0.5-2.3-2.9-2.3
	c-1.4,0-2.9,0.2-4.3,0.5l-0.5-3c1.7-0.5,3.5-0.7,5.3-0.7c4.8,0,6.2,1.7,6.2,5.5L67.9,98.4z M64.1,92.6h-2.8c-1.3,0-1.6,0.3-1.6,1.5
	s0.3,1.5,1.5,1.5c1,0,2-0.3,2.9-0.8V92.6z"/>
<path d="M79.3,98.4V87.7c0-0.8-0.3-1.2-1.2-1.2c-1.4,0.2-2.8,0.6-4,1.3v10.6h-3.8V83.1h2.9l0.4,1.3c1.9-1,4-1.5,6.1-1.6
	c2.6,0,3.5,1.8,3.5,4.5v11.1H79.3z"/>
<path d="M94.5,98.1c-1.1,0.4-2.2,0.6-3.4,0.6c-2.8,0-4.2-1.3-4.2-4.1v-8.5h-2.3v-3h2.3v-3.8l3.8-0.5v4.4h3.9l-0.2,3h-3.7v8
	c-0.1,0.7,0.4,1.3,1,1.4c0.1,0,0.2,0,0.3,0c0.7,0,1.3-0.1,1.9-0.3L94.5,98.1z"/>
<polygon class="st0" points="84.8,13.1 84.8,6 67.8,15.9 67.8,21.8 54.1,51.2 47.3,55.9 47.3,77.4 61.9,69 "/>
<polygon class="st0" points="47.3,40.6 37.1,16.8 37.1,10 37,10 26.9,15.9 26.9,21.8 40.5,52.5 47.3,49.1 "/>
<polygon class="st1" points="74.6,0 57.5,10 57.5,10 57.5,10 57.5,10 57.5,10 57.5,16.8 47.3,40.6 47.3,48.5 40.5,52.5 26.9,21.8 
	26.9,15.9 37.1,10 20.1,0 9.9,6 9.9,13.3 32.9,69.1 47.3,77.4 47.3,56.5 54.1,52.5 54,52.5 67.8,21.8 67.8,15.9 67.8,15.9 84.8,6 
	"/>
</svg>
