<svg xmlns="http://www.w3.org/2000/svg" viewBox="0 0 451.75 693.51"><defs><style>.cls-1{isolation:isolate;}.cls-2{fill:#bcd6c7;}.cls-3{fill:#ffca4d;}.cls-10,.cls-4{mix-blend-mode:multiply;}.cls-5{fill:#d1d3d4;}.cls-6{fill:#ddd;}.cls-7{fill:#e0e0e0;}.cls-8{fill:#f5f5f5;}.cls-9{fill:#fddcbe;}.cls-10,.cls-12{fill:#f2f2f2;}.cls-11{fill:#574939;}.cls-13{fill:#eb7d86;}</style></defs><title>vtray</title><g class="cls-1"><g id="Layer_1" data-name="Layer 1"><path class="cls-2" d="M4.4,250.12l.37,0,47.15-4a4.41,4.41,0,1,0-.74-8.79L4,241.32a4.41,4.41,0,0,0,.36,8.8Z"/><path class="cls-2" d="M61.76,170.58A4.41,4.41,0,0,0,63.29,162L18.88,145.7a4.41,4.41,0,1,0-3,8.28l44.4,16.33A4.41,4.41,0,0,0,61.76,170.58Z"/><path class="cls-2" d="M103,106.4a4.41,4.41,0,0,0,3.13-7.52L72.74,65.31a4.41,4.41,0,1,0-6.26,6.21L99.83,105.1A4.39,4.39,0,0,0,103,106.4Z"/><path class="cls-2" d="M167.42,65.64a4.41,4.41,0,0,0,4.15-5.9l-16-44.51a4.41,4.41,0,0,0-8.3,3l16,44.51A4.41,4.41,0,0,0,167.42,65.64Z"/><path class="cls-2" d="M243.07,55.94a4.41,4.41,0,0,0,4.39-4l4.28-47.12A4.41,4.41,0,1,0,243,4l-4.28,47.12a4.41,4.41,0,0,0,4,4.79Z"/><path class="cls-2" d="M315.71,79.12a4.41,4.41,0,0,0,3.81-2.19L343.32,36a4.41,4.41,0,0,0-7.62-4.43L311.91,72.49a4.41,4.41,0,0,0,3.81,6.63Z"/><path class="cls-2" d="M371.78,130.83a4.39,4.39,0,0,0,2.51-.79l38.85-27a4.41,4.41,0,0,0-5-7.24l-38.85,27a4.41,4.41,0,0,0,2.52,8Z"/><path class="cls-2" d="M400.71,201.38a4.44,4.44,0,0,0,.76-.06l46.62-8.06a4.41,4.41,0,1,0-1.5-8.69L400,192.63a4.41,4.41,0,0,0,.75,8.75Z"/><path class="cls-2" d="M442.8,290A4.41,4.41,0,0,0,444,281.3l-45.66-12.4a4.41,4.41,0,1,0-2.31,8.51l45.66,12.4A4.4,4.4,0,0,0,442.8,290Z"/><path class="cls-3" d="M97.85,215A129.81,129.81,0,1,1,292.24,339.29l-2.07,22.39-55.23-5.1A131.33,131.33,0,0,1,195.68,353l-55.17-5.1,2.06-22.35A129.65,129.65,0,0,1,97.85,215Z"/><g class="cls-4"><path class="cls-5" d="M190,219c.06-.19.15-.37.22-.55a6.55,6.55,0,0,1,.27-.66,6.63,6.63,0,0,1,.4-.62c.11-.16.2-.33.32-.48a6.75,6.75,0,0,1,2-1.68c.16-.08.32-.14.48-.21a4,4,0,0,1,1.37-.44c.21,0,.42-.1.63-.13a6.78,6.78,0,0,1,1.28,0h0a6.7,6.7,0,0,1,1.3.25c.18.05.35.14.53.21a6.56,6.56,0,0,1,.69.28,6.65,6.65,0,0,1,.58.38c.17.11.35.21.51.34a6.77,6.77,0,0,1,.95.93l9.79,11.78,11.79-9.8a6.71,6.71,0,0,1,9.45.87l9.8,11.79,11.78-9.79a6.74,6.74,0,0,1,1.11-.75c.16-.09.33-.14.5-.21a4,4,0,0,1,1.38-.44c.2,0,.4-.1.61-.12a6.75,6.75,0,0,1,2.62.24c.2.06.38.15.58.23a3.95,3.95,0,0,1,1.28.68c.15.1.31.19.45.3a6.73,6.73,0,0,1,1.68,2c.09.17.15.35.23.53a3.95,3.95,0,0,1,.43,1.38c0,.19.09.38.11.58a6.74,6.74,0,0,1,0,1.32h0L252.86,360.4a6.71,6.71,0,1,1-13.36-1.23l10.81-117-4.49,3.73a6.71,6.71,0,0,1-9.45-.87l-9.8-11.79L214.78,243a6.71,6.71,0,0,1-9.45-.87l-3.73-4.49-10.81,117a6.71,6.71,0,1,1-13.36-1.23l12.3-133.16h0A6.75,6.75,0,0,1,190,219Z"/></g><path class="cls-6" d="M137.8,377.25l149.66,13.82a14.76,14.76,0,0,0,2.72-29.4L140.51,347.85a14.76,14.76,0,0,0-2.72,29.4Z"/><path class="cls-6" d="M135.08,406.65l149.66,13.82a14.76,14.76,0,0,0,2.72-29.4L137.8,377.25a14.76,14.76,0,0,0-2.72,29.4Z"/><g class="cls-4"><path class="cls-7" d="M287.45,391.08,137.8,377.25a14.76,14.76,0,0,1-13.34-16.06l179.05,16.54A14.76,14.76,0,0,1,287.45,391.08Z"/></g><g class="cls-4"><path class="cls-7" d="M284.74,420.47,135.08,406.65a14.76,14.76,0,0,1-13.34-16.06L300.8,407.13A14.76,14.76,0,0,1,284.74,420.47Z"/></g><path class="cls-8" d="M127,512.24l14.64-7s-3.49-5.65-9.29-16.7l-14,7.15C121.07,501,123.94,506.47,127,512.24Z"/><path class="cls-9" d="M132.35,488.53C122.63,470,99.87,416.41,82.8,368.61c0,0-1.15-3.94-4.24-2.53-1.76.8-.54,4.44-.54,4.44s-2.06-3.21-3.9-2.38-1,4.49-1,4.49-1.77-2.65-3.32-1.91-.09,4.35-.09,4.35-1.55-3.29-3.26-2.47c-2.16,1-.08,5.47-.08,5.47,3.09,6.55,20.12,56,52,117.61Z"/><path class="cls-10" d="M132.35,488.53c-3.25-6.2-8-16.32-13.42-28.82-.79,6.75-2.14,19.68-2.54,32.18.65,1.26,1.29,2.52,1.95,3.8,2.73,5.29,5.61,10.79,8.66,16.55l14.64-7S138.14,499.58,132.35,488.53Z"/><ellipse class="cls-10" cx="193.7" cy="682.34" rx="100.07" ry="11.17"/><path class="cls-9" d="M126.61,496s-2.43-43.77,8.47-89.36l149.66,13.82c-5.12,26.59-6.77,37.29-10.94,80.38C174.77,519.8,126.61,496,126.61,496Z"/><path class="cls-11" d="M239.06,442.93l-10-27.6,55.64,5.14c-2.08,37-10.94,80.38-10.94,80.38-17.24-10.17-31.77-47-31.77-47s17.31,5,14-9.31S239.06,442.93,239.06,442.93Z"/><path class="cls-11" d="M261.71,588.82l.88,42.53,5.95,50.8s-52.12,14.09-39-6.47c12.13-19,31.06-3.21,31.06-3.21l-10.33-42.91-5.75-28.75s-52.09,7.07-98.75-1L148.14,624l8.76,52.61s-48.24,16.19-34.89-6.24c7.41-12.44,25.6-4.63,25.6-4.63l-11.55-41.8-7.92-36.28Z"/><path class="cls-6" d="M126.61,496l1.53,91.63s55.83,11.94,133.57,1.18l12.08-88S183.91,515.5,126.61,496Z"/><path class="cls-6" d="M271.7,514.88,259,504.79s4.66-4.73,12.77-14.21l12.07,10.09C280,505.21,276,509.93,271.7,514.88Z"/><path class="cls-9" d="M271.76,490.58c13.6-15.91,47.7-63.1,75-105.91,0,0,2-3.59,4.7-1.52,1.54,1.17-.46,4.45-.46,4.45s2.72-2.68,4.33-1.45,0,4.61,0,4.61,2.32-2.19,3.66-1.12-.88,4.26-.88,4.26,2.24-2.87,3.72-1.69c1.87,1.49-1.14,5.35-1.14,5.35-4.47,5.7-32.06,50.08-76.83,103.11Z"/><polygon class="cls-12" points="159.25 510.34 156.5 515.42 160.28 521.43 157.24 575.85 172.17 587.12 184.06 574.02 167.78 522.1 172.29 515.8 169.96 511.62 159.25 510.34"/><polygon class="cls-11" points="159.25 510.34 156.5 515.42 160.28 521.43 154.03 575.04 168.96 586.31 180.85 573.22 167.78 522.1 172.29 515.8 169.96 511.62 159.25 510.34"/><path class="cls-13" d="M154.3,465.18s27.26.31,43.65,6.36c0,0,.54,22.24-25,19.26C147.6,487.85,154.3,465.18,154.3,465.18Z"/><ellipse class="cls-11" cx="212.11" cy="444.14" rx="9.84" ry="5.06" transform="translate(-253.88 602.59) rotate(-83.25)"/><ellipse class="cls-11" cx="149.31" cy="436.71" rx="9.84" ry="5.06" transform="translate(-301.91 533.67) rotate(-83.25)"/><path class="cls-10" d="M135.08,406.65l94,8.68,55.64,5.14q-.09,1.6-.2,3.21l-151.22-9.13C134.13,410.3,134,411,135.08,406.65Z"/></g></g></svg>