<svg id="Layer_1" data-name="Layer 1" xmlns="http://www.w3.org/2000/svg" viewBox="0 0 414.04 683.63"><defs><style>.cls-1{fill:#563726;}.cls-2{fill:#fcdbbf;}.cls-3{fill:#f5f6f6;}</style></defs><title>what-is</title><path class="cls-1" d="M78.54,575.66l5.59,80.87s-24.81-18.45-36.72,2.77c-16.77,29.9,52,14,52,14l1.85-77.18s77.51,13.82,173.47,1.85l3.69,66.88s-28.14-25.38-37.83,0c-13,33.94,51.67,11.56,51.67,11.56l8.34-94S217.25,561.23,78.54,575.66Z"/><path class="cls-2" d="M65.89,408.58s-31.13-271.72,184-185c0,0,68.13,48.4,71.25,187.21C113.39,455.26,65.89,408.58,65.89,408.58Z"/><path class="cls-1" d="M22.95,143.5s-1.9,168.35,213.85,125l20.5,50.91s22.45-23.49,29.66,1.08-23.55,16.7-23.55,16.7,26.72,57.73,57.73,73.68c-1,2.06,70.61-274.09-45.27-226.64,0,0-9.24-40.56-78.79-41.86C125,141,88.84,213.16,22.95,143.5Z"/><ellipse class="cls-1" cx="97.56" cy="325.36" rx="10.39" ry="6.02" transform="translate(-231.14 411.02) rotate(-87.91)"/><ellipse class="cls-1" cx="185.9" cy="325.48" rx="10.39" ry="6.02" transform="translate(-146.13 499.41) rotate(-87.91)"/><path class="cls-3" d="M65.89,408.58,78.54,575.66s87.13,21.82,222.1,6.71l20.49-171.56S151.62,436.71,65.89,408.58Z"/><path class="cls-3" d="M68.39,413.87l1.06,28.77a59.84,59.84,0,0,0-18.79,11l-15-24.11C52.26,415.64,68.39,413.87,68.39,413.87Z"/><path class="cls-2" d="M35.67,429.57l15,24.11c-45.83,39.94-15.35,141.1-15.35,141.1l6.06,19.37c.34,1.36,2,10-2,10.71-1.93.36-3.31-.91-4.26-2.48-.21,1.76-.9,3.45-2.7,3.79s-3-.68-4-2.05c-.28,1.57-1,3-2.62,3.28-1.93.36-3.31-.91-4.26-2.48-.22,1.77-.9,3.45-2.7,3.79-3.76.7-5.43-4.75-5.9-6.65L8.38,598.94C-13.46,495.63,11.59,449.78,35.67,429.57Z"/><polygon class="cls-1" points="134.19 446.05 128.94 456 136.44 467.62 122.95 532.83 141.69 560.56 162.67 535.71 151.06 468.75 159.68 456.38 155.06 448.3 134.19 446.05"/><path class="cls-2" d="M323.69,201.3l.33,0Z"/><path class="cls-3" d="M317.37,417.13,313.52,446c15.07-2.35,31.46-10.44,46.55-23l-20.69-19.12A94.26,94.26,0,0,1,317.37,417.13Z"/><path class="cls-2" d="M414,306.32c-3-66.59-55-107.72-55-107.72s-41.62-27.69-55.31-3.87c0,0-3.19,4.88,1.88,4.5S316.89,191,324,194.91c0,0-7.05-1.9-7.12,3.75,0,2.71,5.4,2.69,6.8,2.64l.33,0-.33,0c-1.32.08-6.23.58-6.37,3.71-.2,4.59,3.86,4.53,5.17,4.39l.4-.05-.4.05c-1.19.2-4.57,1.16-3.16,5.38,1.5,4.5,8.44,1.13,8.44,1.13s15.94-2.62,23.8,6.43c61.66,74.74,29.42,148.58-12.19,181.55L360.07,423C389.91,398.24,414.66,356.09,414,306.32Z"/><path class="cls-2" d="M322.49,209.4l.4-.05Z"/><path class="cls-1" d="M74.6,322.14c0,.16.29.21,0,.17C74.55,322.18,74.48,322.07,74.6,322.14Z"/><path class="cls-1" d="M102.77,297.4c.35,1.07-.79.69-.72,1.5,0,.07-.36-.43-.37-.24.17.91-.7,1.06-1.55,1l-.08-.14c-.16,0,.09.47,0,.49l-.19-.23c.19.26-.06.25.06.46l-.42-.32.19.32c.43.77-.38.26-.27.76l-.14-.19c0,.67-.4.93-.62,1.38l-.33-.38a.57.57,0,0,1,.15.6c-.3-.26.08.41-.17.34l0-.07c.19.38-.28-.07,0,.35l-.25-.18c.33.44-.31-.11-.18.16l.08.08c0,.16-.19,0-.18.1l0,0c0,.23-.32.07,0,.39-.28-.22,0-.23-.38-.54a2.69,2.69,0,0,1-1.1,1.47l-.35-.21c0,.11-.11.21,0,.41,0,0-.18-.14-.21-.13-.19-.05.23.43,0,.37l-.24-.34c.15.32,0,.37,0,.53l-.13-.22c.16.37-.23.1-.16.35l-.13-.21c-.34-.1.31.43.07.4l-.16-.23c.19.44-.09.49-.1.7l-.06-.08c-.08.15-.3.16-.31.42-.12,0-.39-.47-.46-.29.34.37-.08.35.37.7-.16,0-.46,0-.42.24-.08-.19-.46-.41-.4-.52l-.27-.17c-.13-.16.12,0-.08-.18,0,.06,0,.32-.13.3.12.3.42.8.33,1-.07-.2-.4-.38-.42-.48l.45.89c0,.06-.27-.29-.25-.13l.17.28c-.06,0-.11.26-.46-.09-.15-.12,0-.14-.16-.23-.08.08,0,.21-.05.29l0,0c-.1,0,0,.3.22.45,0,0-.21-.21-.06-.15.15.25.11.4,0,.47l-.19-.29a1.56,1.56,0,0,1,.09.82c.15.18-.24-.36-.13-.29-.38-.1,0,.64-.48.41,0-.05.23.24.19.19s-.32-.21-.29-.07c-.14-.14,0,.11,0,.2s-.08-.06,0-.12c0,.19,0,.68-.41.61.09.1.22.45.17.48l-.19-.24c-.16-.11-.11.13-.29-.06.17.35.11-.52.19-.21-.2-.17.17.51-.09.17-.07.08.09.4-.18.25.06,0-.22-.37-.27-.3s.07.14,0,.29l0,.15c.2.23-.13.06.14.27-.18-.17-.06.26-.38-.13l-.24-.31c0,.06.2.38.27.54l-.13-.12c.39.46-.15.06.1.46-.24-.07-.27.21-.56,0,0,.21.12.43-.06.41l-.09-.19c-.17-.08-.08,0-.07.17,0-.08-.34-.17-.55-.27,0,.2.28.42.41.58-.46-.38,0,.48-.41.15,0-.08-.08-.32-.24-.37-.46-.38.15.45-.15.34l.35.34c-.25-.18,0,.36-.3,0,.08.17-.24,0,.09.34-.45-.14-.29.58-1,0,0,.08-.09.08.08.25s-.07-.2.07-.08l.11.19c-.13,0-.2,0-.41-.36-.33-.11.41.73.12.73-.12-.15-.19-.2-.21-.13l.14.34c-.16,0-.36-.28-.59-.53a.3.3,0,0,0,0,.35l-.35-.25c.25.18.09.19.12.28l0-.08c-.11-.1-.11,0-.12.09a.53.53,0,0,0,.35.17c.07.14,0,.15.08.31-.21-.26-.25-.09-.31-.08s.14.27.12.28-.1.05-.22-.16c0-.06.15.09.08,0s-.31-.29-.24-.07.45.47.21.41l-.17-.29-.21,0,.19.23-.1-.1c.18.26-.08.2.14.49,0,.07-.24-.07-.31-.05v0c-.17-.08-.17.07-.08.26l0-.05s-.09.11,0,.27c-.23-.1-.78-.83-.61-.47-.07.08.24.52.4.64-.27,0-.11.48-.55.25l.13.24c-.28.09-.2.65-.75.35,0-.15-.2-.23-.31-.36.13.24-.24-.16,0,.21.19.2.27.3.4.33a.29.29,0,0,1-.45.25.35.35,0,0,1,.17.23c-.28-.33-.41-.3-.38-.12l.17.21-.22-.16c0,.08.34.44.1.31l-.21-.19c.07.22.22.59,0,.49L84,317c0,.06.09.28.23.31-.29-.06-.39,0-.65-.22.31.81,0,1.12-.29,1.31l-.12-.15c-.19-.08.19.29.05.23s-.33-.26-.42-.48c-.24-.07.1.37.09.5.16.2-.06-.17.15.09,0,.08-.27,0,0,.28a2.36,2.36,0,0,1-.39-.46l.06.2c-.38-.28-.37-.76-.83-1.12l0,.1c-.33-.26-.16-.48-.39-.46a1.94,1.94,0,0,0,.56.75c-.06.19.56.75.4.85-.19-.14.07-.14-.17-.36s0,.25-.14.22a.89.89,0,0,1,.38.49c-.19-.08-.2-.32-.33-.26.13.18.16.39.34.44.31.42-.2,0,0,.33-.27-.24-.45-.71-.68-.75.25.24.18.47.58.81a1.09,1.09,0,0,1-.41-.42c-.2-.11.27.61-.2.11l.22.28-.34-.23c-.06,0,.15.52-.21.11,0,.06-.12.15.17.38s-.09-.28.28.06c-.33-.26-.07.14,0,.28l-.15-.15c0,.08-.06.1.07.29l-.22-.22.18.26c0,.21-.4-.39-.44-.23l-.08-.25c0,.06-.22-.13-.2,0l.5.71c0,.15-.24-.22-.1.05l-.16-.33c-.05-.08-.37-.31-.44-.24s.22.5.4.55c0,0-.21,0-.32-.23,0,.15.22.22.26.42-.16-.12-.44-.23-.68-.39l-.24-.43-.06,0c-.19-.35-.23-.19-.46-.53-.08,0,0,.13,0,.24.54.39.47.77.9,1.19,0,.25-1.05-1-.59-.17.13.1.36.5.34.29-.13,0,.34.5.06.41-.08-.25-.49-.37-.61-.74.12.15.16.05.14,0-.19-.14-.39-.46-.48-.37s-.09.17.13.39.06-.1.25.19c0,.19-.4-.18,0,.31,0-.1.29.15.45.32v.18l-.13-.18c-.24,0,.23.34.07.41l-.36-.28c-.23-.32.3,0-.14-.49-.1.06.08.32-.1.27l0-.15s-.63-.59-.42-.11c.06.2.13.18.29.36-.09.17,0,.39,0,.49-.29-.36-.18.1-.4-.33.22.16.4,0,.16-.4-.41-.36.16,0-.18-.47-.12.08-.47-.32-.72-.57,0,0,0,.15,0,.2.21.26.24.22.47.47-.18,0-.17.28,0,.58-.15-.09-.35-.34-.33-.41a.6.6,0,0,1-.46.35c.45.32-.07.23.29.51a1.15,1.15,0,0,1,.59.47c-.07,0-.16-.18-.25-.25.14.27-.4-.27-.15.12,0-.25-.41-.51-.67-.85.06.26-.2-.23-.29-.14a1.43,1.43,0,0,1,0,.66c-.4-.18-.34.29-.44.41-.2-.11-.48-.5-.6-.5s.4.33.14.27l-.05-.08c0,.11-.43-.05,0,.49l-.31-.42c-.05,0,0,.09,0,.15l-.28-.33c-.31-.2-.11.18-.18.25l.25.18c0,.3-.26.15-.32.34l-.19-.23,0,.2c-.17-.23-.37-.31-.25-.09l-.29-.72c.17.08.18.32.41.51s.27,0,.09-.23c-.07,0,0,.07,0,.18-.29-.3-.21-.35-.36-.59,0,0-.13,0,0,.07-.09-.19-.06-.26,0-.34.06.17.2.17.26.27-.24-.28-.24-.43-.07-.44.35.26,0-.36.19-.38a2.6,2.6,0,0,1,.37.76c.19.08.07-.08.27,0a2.66,2.66,0,0,1-.43-.78l.19.2c0-.18-.28-.48-.12-.52a2,2,0,0,0,.62-.32l.19.2c-.31-.51.11-.39,0-.68.35,0,.21-.53.61-.26a1.76,1.76,0,0,1,.69-1l.21.35c-.14-.27.19.14.21,0-.28-.18-.19-.38-.32-.59.35.1.31-.31.25-.63l.19.2c-.21-.5.24-.3.46-.38s.29.23.32.17a1.59,1.59,0,0,1-.2-.75.67.67,0,0,1,.52-.09c-.06-.77.56-.79.67-1.4l.24.22c-.11-.83.74-.75.81-1.28l.34.44c.21,0,.12-.3-.16-.57.21,0,.06-.41.42-.12.16,0,0-.29,0-.42.33,0,.37-.11.48-.35h-.07c.06.11.21.28.28.27,0-.18.35-.11-.16-.54.45.11.25-.63.78-.42-.14-.12-.11-.19-.17-.3.17-.16.59,0,.52-.39.09,0,.16.27.24.22l-.17-.3c.05-.5.79-.24,1-.53.22-.66.8-.94,1.19-1.36l.08.1c-.19-.5.68.09.29-.58.12.06.17-.07.31.14-.12-.37.54,0,.41-.52v.09c.36.07.24-.36.59-.32l.1.22c.24.13-.21-.56.25-.12,0,0-.18-.26-.2-.23.55-.16.69-.83,1-1.29.54,0,.73.78.64.23.1.08-.15-.19-.06-.1,0-.21.61.41.45.11s-.1-.2-.26-.38c.34,0,.61.27.56-.08l.13.16c-.22-.58.17-.51-.14-1.14.82-.89,1.43-1.93,2.25-2.76.95-.67,1.59-1.65,2.71-2.16.56.22.57.19.65-.17l.12.15c-.28-.34.13-.17-.13-.51a6.42,6.42,0,0,0,.93-.88c0,.08.19.38.24.3l-.12-.27.09.08a.51.51,0,0,0-.24-.36c.58-1,2-1.1,2.75-1.91.32,0,.48-.41.63-.66,1-.12,1.9-.26,2.26-1.14C102.18,296,102.86,297,102.77,297.4Z"/><path class="cls-1" d="M74.7,322c.17.14.32.17.46.44Z"/><path class="cls-1" d="M78.16,322c0-.05.09,0,.12.06s.09.19,0,.12Z"/><path class="cls-1" d="M78.75,321.62a.45.45,0,0,1,.07.44Z"/><path class="cls-1" d="M79.75,321.81c.15.09.2.17.14.21Z"/><path class="cls-1" d="M79.49,321.45s.13,0,.23.1C79.6,321.42,79.69,321.71,79.49,321.45Z"/><path class="cls-1" d="M80.87,321s0-.2.13-.06C80.87,320.83,81,321.21,80.87,321Z"/><path class="cls-1" d="M81.15,320.34l0,0a.28.28,0,0,1,.14.21Z"/><polygon class="cls-1" points="89.15 312.17 89.16 312.29 89.04 312.13 89.15 312.17"/><path class="cls-1" d="M92.88,308.84c0-.14.16.11.19.12S92.92,308.76,92.88,308.84Z"/><polygon class="cls-1" points="94.24 306.31 94.23 306.33 93.96 306.02 94.24 306.31"/><path class="cls-1" d="M208,323.33c.15,0,.21-.28.17,0C208,323.38,207.91,323.44,208,323.33Z"/><path class="cls-1" d="M184.56,296.8c1.05-.37.65.74,1.45.65.07,0-.43.37-.25.37.9-.2,1,.65.92,1.47l-.14.08c0,.15.46-.1.48,0l-.23.19c.26-.19.24,0,.45-.07l-.32.42.31-.19c.76-.45.24.36.73.24l-.18.14c.65-.06.9.36,1.33.56l-.38.33c.3-.24.46-.21.59-.17-.26.3.4-.09.33.15l-.07,0c.37-.2-.08.27.34,0l-.19.25c.44-.34-.12.3.15.17l.08-.08c.15,0,0,.18.09.18l0,0c.22,0,.06.31.38,0-.22.28-.23,0-.54.39a2.41,2.41,0,0,1,1.4,1l-.21.35c.1,0,.2.1.4,0a.5.5,0,0,0-.14.21c-.05.18.43-.23.36,0l-.34.24c.31-.15.36,0,.52,0l-.22.14c.37-.16.09.22.34.14l-.21.14c-.11.33.42-.31.39-.08l-.23.16c.43-.2.47.07.68.07l-.08.06c.15.08.15.29.41.28,0,.12-.47.39-.29.45.37-.34.34.07.7-.38,0,.16,0,.45.23.4-.18.08-.41.46-.52.4l-.17.27c-.16.13,0-.11-.18.08.05,0,.31,0,.29.12.3-.13.79-.44,1-.35-.2.07-.38.4-.48.42l.88-.46c.06,0-.29.27-.13.25l.28-.17c0,.06.25.1-.1.44-.13.15-.14,0-.23.16.07.08.2,0,.28,0l0,0c0,.1.29,0,.45-.22,0,0-.21.21-.15.06.25-.15.39-.11.46,0l-.29.2a1.55,1.55,0,0,1,.8-.11c.18-.16-.36.24-.28.14-.11.37.63,0,.38.45,0,0,.24-.23.19-.19s-.21.32-.08.28c-.14.14.1,0,.19,0s-.06.08-.12,0c.19,0,.66,0,.59.38.1-.09.45-.22.47-.18l-.24.19c-.11.16.13.1-.06.29.35-.17-.51-.09-.2-.17-.17.2.5-.18.16.08.07.06.4-.1.24.17,0-.05-.37.23-.3.27s.14-.07.29-.05l.14,0c.23-.2.05.12.27-.14-.17.18.25,0-.13.37l-.31.25c.06,0,.37-.2.54-.28l-.12.13c.46-.39.06.14.45-.12-.07.23.2.25,0,.55.2,0,.42-.12.4,0l-.19.09c-.08.17,0,.08.16.06a2.87,2.87,0,0,0-.28.54,1.87,1.87,0,0,0,.57-.41c-.38.46.47-.05.14.39-.08,0-.31.09-.37.25-.38.46.45-.16.33.14l.34-.35c-.18.25.35,0,0,.29.16-.08,0,.23.34-.1-.15.45.56.26,0,.94.08,0,.08.09.25-.09s-.19.07-.07-.07l.18-.11c0,.13,0,.19-.36.41-.11.32.72-.42.72-.14-.15.12-.2.19-.14.21l.33-.14c0,.15-.29.36-.54.58a.3.3,0,0,0,.35-.05l-.26.35c.18-.25.19-.09.27-.12l-.08,0c-.1.11,0,.11.08.11a.54.54,0,0,0,.17-.34c.13-.07.15,0,.31-.09-.26.21-.1.24-.08.31s.27-.14.27-.12,0,.1-.16.22c-.06,0,.09-.15,0-.07s-.29.31-.07.23.47-.45.4-.21l-.29.17,0,.2.23-.2-.1.1c.26-.18.19.07.48-.15.06,0-.07.23-.06.3h0c-.08.17.06.16.25.07l-.05,0s.1.08.27,0c-.11.22-.82.78-.47.61.07.07.51-.25.63-.41,0,.27.47.09.23.52l.24-.13c.08.27.63.17.33.72-.14,0-.23.2-.35.31.24-.13-.16.24.2,0,.2-.18.3-.27.33-.4a.27.27,0,0,1,.24.42.37.37,0,0,1,.23-.18c-.33.28-.3.41-.13.37l.21-.17-.17.22c.08,0,.44-.34.3-.11l-.19.21c.22-.08.58-.23.47,0l-.23.32a.44.44,0,0,0,.31-.23c-.06.28,0,.38-.23.64.8-.33,1.09,0,1.27.24l-.15.12c-.08.19.29-.2.23-.06s-.26.32-.48.42.36-.11.49-.1c.2-.16-.17.06.09-.15.08-.05,0,.27.27,0a2.52,2.52,0,0,1-.46.39l.19-.07c-.28.38-.76.39-1.11.84h.09c-.26.32-.47.17-.46.4a2.06,2.06,0,0,0,.75-.57c.19,0,.75-.57.84-.42-.14.19-.13-.07-.35.17s.24,0,.21.13a.94.94,0,0,1,.49-.38c-.08.19-.32.2-.26.33.18-.14.39-.16.44-.34.41-.31,0,.19.32,0-.24.27-.71.46-.75.68.24-.25.47-.19.8-.59a1.18,1.18,0,0,1-.42.41c-.11.2.6-.28.1.19l.28-.22-.23.34c0,.05.51-.16.1.19.06,0,.14.11.38-.18s-.28.1.06-.28c-.26.33.13.07.27,0l-.15.14c.08,0,.1.06.28-.08l-.22.22.26-.19c.21,0-.39.4-.24.43l-.25.09c.05,0-.14.21,0,.19l.7-.5c.14,0-.22.24,0,.1l-.32.16c-.08.05-.31.37-.24.43s.49-.22.54-.4c0,0,0,.2-.23.31.15,0,.22-.22.42-.27-.12.16-.24.43-.4.67l-.43.25,0,.05c-.35.19-.19.23-.53.46,0,.08.12,0,.23,0,.4-.54.77-.48,1.19-.91.24,0-1,1.05-.18.57.1-.13.49-.36.29-.33,0,.13.5-.34.4-.08-.25.09-.38.48-.74.61.15-.12.06-.16,0-.14-.14.19-.46.39-.38.48s.16.08.39-.14-.1-.06.19-.25c.18,0-.19.39.3,0-.1,0,.15-.29.33-.44l.18,0-.18.13c0,.23.34-.24.4-.07l-.28.36c-.31.23,0-.29-.48.15.05.1.31-.09.26.09l-.14,0s-.59.63-.12.41c.19-.07.18-.13.36-.29.17.08.38,0,.48,0-.36.29.1.17-.34.4.16-.22,0-.39-.39-.14-.36.41,0-.15-.47.19.08.11-.32.46-.57.71,0,0,.14,0,.2,0,.26-.21.22-.24.47-.47,0,.17.27.16.57,0-.09.15-.34.35-.41.33a.54.54,0,0,1,.33.44c.33-.44.22.06.51-.3a1.22,1.22,0,0,1,.48-.59c0,.07-.18.16-.25.25.27-.14-.28.4.12.14-.24,0-.51.41-.85.67.26-.07-.23.2-.15.28a1.41,1.41,0,0,1,.64,0c-.19.39.27.32.39.42-.11.2-.5.48-.51.6s.34-.4.27-.14l-.08.05c.11,0-.06.42.48,0l-.41.31c0,.05.09,0,.14,0l-.33.28c-.21.3.17.1.24.17l.19-.25c.29,0,.14.25.33.3l-.23.2.2,0c-.23.18-.31.37-.1.24l-.71.3c.09-.17.32-.18.51-.41s0-.26-.23-.08c0,.06.07,0,.18,0-.3.29-.34.22-.58.37,0,0,0,.13.07,0-.19.09-.25.07-.33,0,.17-.06.17-.2.27-.26-.28.24-.42.24-.43.08.26-.35-.36,0-.36-.17a2.81,2.81,0,0,1,.76-.39c.08-.19-.07-.07,0-.26a2.85,2.85,0,0,1-.77.44l.2-.19c-.18,0-.48.29-.51.14a1.77,1.77,0,0,0-.3-.59l.2-.19c-.5.32-.38-.1-.66,0,0-.34-.52-.19-.24-.59a1.59,1.59,0,0,1-1-.64l.34-.22c-.27.14.14-.19,0-.2-.18.27-.37.2-.59.33.11-.34-.3-.29-.61-.22l.2-.19c-.49.22-.28-.22-.36-.43s.24-.29.17-.31a1.65,1.65,0,0,1-.73.21.62.62,0,0,1-.07-.51c-.76.08-.76-.52-1.35-.61l.22-.24c-.81.13-.71-.7-1.22-.74l.43-.34c0-.2-.29-.11-.56.18,0-.2-.4,0-.11-.4,0-.16-.29.06-.41,0,0-.32-.1-.36-.33-.46v.07c.11-.06.28-.22.27-.28-.17,0-.1-.33-.53.17.12-.44-.61-.22-.39-.74-.12.13-.19.11-.29.17-.15-.16,0-.57-.37-.49,0-.09.27-.16.22-.24l-.29.17c-.48,0-.21-.76-.49-.94-.64-.19-.9-.75-1.3-1.11l.1-.08c-.5.2.1-.66-.56-.26.06-.11-.06-.16.15-.31-.36.13,0-.52-.5-.38h.09c.08-.35-.34-.23-.29-.57l.22-.1c.13-.23-.55.22-.11-.24,0,0-.26.19-.23.2-.14-.53-.79-.64-1.24-.92,0-.52.78-.73.24-.63.08-.1-.19.15-.1.06-.21,0,.41-.6.11-.44s-.2.11-.37.26c0-.33.27-.6-.06-.53l.16-.13c-.57.23-.5-.15-1.11.17-.85-.76-1.84-1.32-2.64-2.09-.63-.9-1.57-1.49-2-2.56.23-.55.21-.56-.15-.62l.15-.12c-.34.29-.17-.12-.5.14a5.8,5.8,0,0,0-.84-.87c.08,0,.37-.2.3-.24l-.27.13.08-.09a.53.53,0,0,0-.36.24c-1-.53-1-1.9-1.79-2.6,0-.31-.39-.46-.63-.59-.09-1-.21-1.84-1.05-2.16C183.22,297.41,184.14,296.72,184.56,296.8Z"/><path class="cls-1" d="M207.84,323.24c.15-.17.17-.32.44-.46Z"/><path class="cls-1" d="M207.89,319.89c-.05,0,0-.08.07-.12s.19-.09.12,0Z"/><path class="cls-1" d="M207.57,319.33a.44.44,0,0,1,.43-.09Z"/><path class="cls-1" d="M207.79,318.35c.09-.15.17-.2.21-.14Z"/><path class="cls-1" d="M207.43,318.62s0-.13.1-.22C207.4,318.51,207.68,318.41,207.43,318.62Z"/><path class="cls-1" d="M207,317.29s-.2,0-.05-.12C206.86,317.29,207.23,317.11,207,317.29Z"/><path class="cls-1" d="M206.39,317l0,0a.29.29,0,0,1,.21-.14Z"/><polygon class="cls-1" points="198.62 309.54 198.74 309.52 198.58 309.65 198.62 309.54"/><path class="cls-1" d="M195.47,306c-.13,0,.11-.16.12-.18S195.39,306,195.47,306Z"/><polygon class="cls-1" points="193.04 304.79 193.05 304.8 192.75 305.06 193.04 304.79"/><path class="cls-1" d="M129.77,372.58s27.75-10.23,48.54-3c0,0,9.21,24.64-19,24.64C130.14,394.22,129.77,372.58,129.77,372.58Z"/><path class="cls-1" d="M345.06,111.85A19.76,19.76,0,0,1,334.54,108a12.88,12.88,0,0,1-2.88-3,7.49,7.49,0,0,1-1.34-3.78q1.46-2.26,2.73-3.94l2.31-3.06,1.5-2A15.89,15.89,0,0,1,338,90.81l1.19-1.26,1.67-1.74a10.58,10.58,0,0,1,5.87-3.48,54.79,54.79,0,0,1,7.63-1.2q4-.35,7.67-.93a10.06,10.06,0,0,0,5.83-2.79,6.08,6.08,0,0,1,.65-.71,6.28,6.28,0,0,0,.66-.71,28.06,28.06,0,0,0,2.47-3.9,7.59,7.59,0,0,0,.82-4.42,11.46,11.46,0,0,0-2.3-5.22,33.24,33.24,0,0,0-6.93-6.56,16,16,0,0,0-4-2.32q-3.18-1.2-7.43.62a17.46,17.46,0,0,0-7.15,5.64,10.12,10.12,0,0,0-1.23,2,7.72,7.72,0,0,0-1.09,4.94,33.73,33.73,0,0,0,1,4.71,32.23,32.23,0,0,1,1,4.45,5.2,5.2,0,0,1-1.09,4,7.88,7.88,0,0,1-7,3,14.92,14.92,0,0,1-7.32-3,18,18,0,0,1-4-4.23q-3.32-5.14-1.66-12.9A36.92,36.92,0,0,1,330,50.08a37.88,37.88,0,0,1,8.19-8A21.12,21.12,0,0,1,347,38.9a26.88,26.88,0,0,1,9.44.53A42.38,42.38,0,0,1,366,43a60.39,60.39,0,0,1,9.21,5.76l.76.58q11.61,8.77,13.6,19.64t-8.29,24.47q-1.73,2.29-6,3.5T366.45,99q-4.6.84-8.43,1.31t-4.45,1a12,12,0,0,1-2.19,1.95c-.18,0-.46.29-.85.8a20.46,20.46,0,0,0-1.58,2.41,35.49,35.49,0,0,1-2.5,3.63Zm-18.23-1.3a22.86,22.86,0,0,1,4.47,2.66,15.34,15.34,0,0,1,5.42,7,7,7,0,0,1-.87,7,10.19,10.19,0,0,1-3.69,3,12.23,12.23,0,0,1-7,.49,16.82,16.82,0,0,1-7.34-3.15,10.21,10.21,0,0,1-3.93-5.61,7.12,7.12,0,0,1,1.44-6.35,13.28,13.28,0,0,1,5.38-4.1A9.9,9.9,0,0,1,326.83,110.56Z"/><path class="cls-1" d="M261.68,76.89a22.8,22.8,0,0,1-11.75,5.39,14.86,14.86,0,0,1-4.81-.13,8.62,8.62,0,0,1-4.17-2q-.64-3-1-5.44l-.6-4.38q-.24-1.75-.39-2.84a18.81,18.81,0,0,1-.17-2.09c0-.67,0-1.33,0-2s0-1.59,0-2.78a12.21,12.21,0,0,1,2-7.63A63.43,63.43,0,0,1,246,45.8q3-3.52,5.52-7a11.59,11.59,0,0,0,2.5-7,6.67,6.67,0,0,1,0-1.11,7,7,0,0,0,0-1.11,32.57,32.57,0,0,0-1.16-5.2,8.75,8.75,0,0,0-2.92-4.28,13.2,13.2,0,0,0-6.12-2.4,38.24,38.24,0,0,0-11,.27,18.55,18.55,0,0,0-5.17,1.37Q224,20.93,222,25.88a20.12,20.12,0,0,0-1.26,10.43,11.65,11.65,0,0,0,.57,2.6,8.91,8.91,0,0,0,3.12,4.93,38.91,38.91,0,0,0,4.65,3,37.25,37.25,0,0,1,4.4,2.86,6,6,0,0,1,2.35,4.14q.27,5.31-3.35,8.15A17.21,17.21,0,0,1,224,65.52a20.74,20.74,0,0,1-6.72-.2q-6.9-1.51-11.85-9.2a42.56,42.56,0,0,1-6.29-17.54,43.66,43.66,0,0,1,.22-13.18A24.36,24.36,0,0,1,204,15.62a31,31,0,0,1,8.16-7.24,49,49,0,0,1,10.7-4.91A69.54,69.54,0,0,1,235,.69l1.09-.15q16.64-2.27,27.11,5T276.35,32.3q.45,3.28-2.07,7.75T268.7,49q-3.08,4.43-5.83,7.93T260,61.29a13.85,13.85,0,0,1-.21,3.38,2.29,2.29,0,0,0,0,1.34,23.53,23.53,0,0,0,.66,3.25,41.52,41.52,0,0,1,.9,5Zm-16,13.77a26.51,26.51,0,0,1,5.82-1.46,17.7,17.7,0,0,1,10.1,1.3,8.09,8.09,0,0,1,5,6.45,11.77,11.77,0,0,1-.6,5.43,14.12,14.12,0,0,1-5.3,6.07,19.41,19.41,0,0,1-8.57,3.4,11.78,11.78,0,0,1-7.77-1.4,8.2,8.2,0,0,1-4-6.37,15.26,15.26,0,0,1,1.06-7.73A11.43,11.43,0,0,1,245.72,90.66Z"/></svg>